<?xml version="1.0" encoding="iso-8859-1"?>
<!-- Generator: Adobe Illustrator 19.0.0, SVG Export Plug-In . SVG Version: 6.00 Build 0)  -->
<svg version="1.1" id="Layer_1" xmlns="http://www.w3.org/2000/svg" xmlns:xlink="http://www.w3.org/1999/xlink" x="0px" y="0px"
	 viewBox="0 0 512 512" style="enable-background:new 0 0 512 512;" xml:space="preserve">
<g>
	<g>
		<path d="M425.557,0h-28.981H97.104c-5.335,0-10.66,3.668-10.66,9.007v48.955H58.462c-5.335,0-9.66,4.321-9.66,9.66
			c0,5.34,4.325,9.66,9.66,9.66h27.981v28.981H58.462c-5.335,0-9.66,4.321-9.66,9.66c0,5.34,4.325,9.66,9.66,9.66h27.981v28.981
			H58.462c-5.335,0-9.66,4.321-9.66,9.66c0,5.339,4.325,9.66,9.66,9.66h27.981v28.981H58.462c-5.335,0-9.66,4.321-9.66,9.66
			s4.325,9.66,9.66,9.66h27.981v28.981H58.462c-5.335,0-9.66,4.321-9.66,9.66s4.325,9.66,9.66,9.66h27.981v28.981H58.462
			c-5.335,0-9.66,4.321-9.66,9.66s4.325,9.66,9.66,9.66h27.981v28.981H58.462c-5.335,0-9.66,4.321-9.66,9.66s4.325,9.66,9.66,9.66
			h27.981v28.981H58.462c-5.335,0-9.66,4.321-9.66,9.66s4.325,9.66,9.66,9.66h27.981v28.981H58.462c-5.335,0-9.66,4.321-9.66,9.66
			c0,5.34,4.325,9.66,9.66,9.66h27.981v37.988c0,5.34,5.326,10.314,10.66,10.314h299.472h28.981
			c21.306,0,37.641-17.984,37.641-39.295V37.988C463.198,16.677,446.863,0,425.557,0z M385.915,492.679H105.764v-28.981h29.981
			c5.335,0,9.66-4.321,9.66-9.66c0-5.34-4.326-9.66-9.66-9.66h-29.981v-28.981h29.981c5.335,0,9.66-4.321,9.66-9.66
			s-4.326-9.66-9.66-9.66h-29.981v-28.981h29.981c5.335,0,9.66-4.321,9.66-9.66s-4.326-9.66-9.66-9.66h-29.981v-28.981h29.981
			c5.335,0,9.66-4.321,9.66-9.66s-4.326-9.66-9.66-9.66h-29.981v-28.981h29.981c5.335,0,9.66-4.321,9.66-9.66s-4.326-9.66-9.66-9.66
			h-29.981v-28.981h29.981c5.335,0,9.66-4.321,9.66-9.66s-4.326-9.66-9.66-9.66h-29.981v-28.981h29.981
			c5.335,0,9.66-4.321,9.66-9.66c0-5.34-4.326-9.66-9.66-9.66h-29.981v-28.981h29.981c5.335,0,9.66-4.321,9.66-9.66
			c0-5.339-4.326-9.66-9.66-9.66h-29.981V77.283h29.981c5.335,0,9.66-4.321,9.66-9.66c0-5.339-4.326-9.66-9.66-9.66h-29.981V19.321
			h280.151V492.679z M443.877,472.705c0,10.651-7.665,19.974-18.321,19.974h-20.321V19.321h20.321
			c10.656,0,18.321,8.016,18.321,18.667V472.705z"/>
	</g>
</g>
<g>
</g>
<g>
</g>
<g>
</g>
<g>
</g>
<g>
</g>
<g>
</g>
<g>
</g>
<g>
</g>
<g>
</g>
<g>
</g>
<g>
</g>
<g>
</g>
<g>
</g>
<g>
</g>
<g>
</g>
</svg>
