<?xml version="1.0" encoding="iso-8859-1"?>
<!-- Generator: Adobe Illustrator 19.0.0, SVG Export Plug-In . SVG Version: 6.00 Build 0)  -->
<svg version="1.1" id="Layer_1" xmlns="http://www.w3.org/2000/svg" xmlns:xlink="http://www.w3.org/1999/xlink" x="0px" y="0px"
	 viewBox="0 0 512 512" style="enable-background:new 0 0 512 512;" xml:space="preserve">
<g>
	<g>
		<path d="M390.754,0h-26.035h-53.895H140.158h-0.869H86.263c-4.965,0-9.912,3.41-9.912,8.375V502.41c0,4.965,4.947,9.59,9.912,9.59
			h53.026h0.869h250.596c24.79,0,44.895-20.757,44.895-45.52V44.305C435.649,19.542,415.544,0,390.754,0z M130.246,494.035h-35.93
			V17.965h35.93V494.035z M318.877,17.965h35.93v54.471l-12.518-8.658c-1.509-1.009-3.013-1.509-4.75-1.509
			c-1.737,0-3.822,0.5-5.331,1.509l-13.331,8.658V17.965z M417.684,466.48c0,14.86-12.044,27.555-26.93,27.555H148.211V17.965
			h152.702v71.252c0,3.316,2.289,6.36,5.211,7.921c2.912,1.561,6.706,1.386,9.452-0.447l22.081-14.64l22.024,14.64
			c1.5,1,3.265,1.509,5.011,1.509c1.456,0,2.461-0.351,3.785-1.062c2.921-1.561,4.296-4.605,4.296-7.921V17.965h17.982
			c14.886,0,26.93,11.48,26.93,26.34V466.48z"/>
	</g>
</g>
<g>
</g>
<g>
</g>
<g>
</g>
<g>
</g>
<g>
</g>
<g>
</g>
<g>
</g>
<g>
</g>
<g>
</g>
<g>
</g>
<g>
</g>
<g>
</g>
<g>
</g>
<g>
</g>
<g>
</g>
</svg>
