<?xml version="1.0" encoding="iso-8859-1"?>
<!-- Generator: Adobe Illustrator 19.0.0, SVG Export Plug-In . SVG Version: 6.00 Build 0)  -->
<svg version="1.1" id="Layer_1" xmlns="http://www.w3.org/2000/svg" xmlns:xlink="http://www.w3.org/1999/xlink" x="0px" y="0px"
	 viewBox="0 0 512 512" style="enable-background:new 0 0 512 512;" xml:space="preserve">
<g>
	<g>
		<path d="M256,20.48C126.135,20.48,20.48,126.135,20.48,256c0,129.865,105.655,235.52,235.52,235.52
			c129.865,0,235.52-105.655,235.52-235.52C491.52,126.135,385.865,20.48,256,20.48z M256,471.04
			c-118.575,0-215.04-96.465-215.04-215.04c0-118.575,96.465-215.04,215.04-215.04c118.575,0,215.04,96.465,215.04,215.04
			C471.04,374.575,374.575,471.04,256,471.04z"/>
	</g>
</g>
<g>
	<g>
		<path d="M81.92,30.72C36.75,30.72,0,67.47,0,112.64c0,5.656,4.585,10.24,10.24,10.24c5.655,0,10.24-4.584,10.24-10.24
			c0-33.88,27.56-61.44,61.44-61.44c5.655,0,10.24-4.584,10.24-10.24C92.16,35.306,87.575,30.72,81.92,30.72z"/>
	</g>
</g>
<g>
	<g>
		<path d="M430.08,30.72c-5.655,0-10.24,4.586-10.24,10.24c0,5.656,4.585,10.24,10.24,10.24c33.88,0,61.44,27.56,61.44,61.44
			c0,5.656,4.585,10.24,10.24,10.24c5.655,0,10.24-4.584,10.24-10.24C512,67.47,475.25,30.72,430.08,30.72z"/>
	</g>
</g>
<g>
	<g>
		<path d="M265.18,92.16c-5.655,0-10.24,4.586-10.24,10.24v154.288h-80.86c-5.655,0-10.24,4.585-10.24,10.24
			s4.585,10.24,10.24,10.24h92.16c5.655,0,9.18-5.271,9.18-10.928V102.4C275.42,96.746,270.835,92.16,265.18,92.16z"/>
	</g>
</g>
<g>
</g>
<g>
</g>
<g>
</g>
<g>
</g>
<g>
</g>
<g>
</g>
<g>
</g>
<g>
</g>
<g>
</g>
<g>
</g>
<g>
</g>
<g>
</g>
<g>
</g>
<g>
</g>
<g>
</g>
</svg>
