<?xml version="1.0" encoding="iso-8859-1"?>
<!-- Generator: Adobe Illustrator 19.0.0, SVG Export Plug-In . SVG Version: 6.00 Build 0)  -->
<svg version="1.1" id="Layer_1" xmlns="http://www.w3.org/2000/svg" xmlns:xlink="http://www.w3.org/1999/xlink" x="0px" y="0px"
	 viewBox="0 0 512 512" style="enable-background:new 0 0 512 512;" xml:space="preserve">
<g>
	<g>
		<path d="M256,34.767c-116.819,0-211.862,95.043-211.862,211.862c0,116.819,95.043,211.862,211.862,211.862
			s211.862-95.043,211.862-211.862C467.862,129.81,372.819,34.767,256,34.767z M256,440.836
			c-107.086,0-194.207-87.119-194.207-194.207c0-107.085,87.121-194.207,194.207-194.207c107.086,0,194.207,87.122,194.207,194.207
			C450.207,353.716,363.086,440.836,256,440.836z"/>
	</g>
</g>
<g>
	<g>
		<path d="M332.405,319.836l-68.491-68.034V123.042c0-4.874-3.953-8.828-8.828-8.828c-4.875,0-8.828,3.954-8.828,8.828v132.414
			c0,2.341,1.388,4.586,3.043,6.242l71.078,70.621c1.724,1.725,3.983,2.586,6.242,2.586c2.259,0,4.517-0.861,6.241-2.586
			C336.31,328.87,335.853,323.284,332.405,319.836z"/>
	</g>
</g>
<g>
	<g>
		<path d="M415.554,446.667C474.295,399.718,512,327.497,512,246.624c0-68.379-26.629-132.668-74.978-181.016
			c-23.944-23.944-51.88-42.633-83.026-55.557c-4.513-1.861-9.668,0.277-11.539,4.772c-1.866,4.504,0.272,9.668,4.772,11.54
			c29,12.026,55.013,29.43,77.31,51.727c45.013,45.017,69.806,104.871,69.806,168.535c0,76.031-35.787,143.861-91.398,187.532
			c-3.469-2.963-8.666-2.843-11.947,0.437c-2.612,2.612-3.236,6.448-1.892,9.653c-38.034,25.702-83.85,40.722-133.108,40.722
			c-49.258,0-95.073-15.021-133.108-40.722c1.344-3.205,0.72-7.041-1.892-9.653c-3.281-3.28-8.478-3.401-11.946-0.437
			c-55.612-43.671-91.399-111.501-91.399-187.532c0-63.664,24.793-123.517,69.81-168.535c22.297-22.297,48.31-39.701,77.31-51.727
			c4.5-1.872,6.638-7.035,4.771-11.54c-1.866-4.504-7.03-6.638-11.539-4.772c-31.147,12.924-59.082,31.613-83.026,55.557
			C26.629,113.961,0,178.245,0,246.624c0,80.873,37.705,153.094,96.446,200.043l-23.239,23.237c-3.448,3.448-3.448,9.035,0,12.483
			c1.724,1.725,3.983,2.586,6.242,2.586c2.258,0,4.517-0.861,6.241-2.586l25.072-25.071c41.295,28.554,91.344,45.308,145.238,45.308
			c53.895,0,103.943-16.754,145.238-45.308l25.072,25.071c1.724,1.725,3.983,2.586,6.242,2.586c2.259,0,4.517-0.861,6.241-2.586
			c3.448-3.448,3.448-9.035,0-12.483L415.554,446.667z"/>
	</g>
</g>
<g>
</g>
<g>
</g>
<g>
</g>
<g>
</g>
<g>
</g>
<g>
</g>
<g>
</g>
<g>
</g>
<g>
</g>
<g>
</g>
<g>
</g>
<g>
</g>
<g>
</g>
<g>
</g>
<g>
</g>
</svg>
