<?xml version="1.0" encoding="iso-8859-1"?>
<!-- Generator: Adobe Illustrator 19.0.0, SVG Export Plug-In . SVG Version: 6.00 Build 0)  -->
<svg version="1.1" id="Layer_1" xmlns="http://www.w3.org/2000/svg" xmlns:xlink="http://www.w3.org/1999/xlink" x="0px" y="0px"
	 viewBox="0 0 512 512" style="enable-background:new 0 0 512 512;" xml:space="preserve">
<g>
	<g>
		<path d="M467.34,276.485c0-116.443-94.734-211.179-211.179-211.179c-116.445,0-211.179,94.736-211.179,211.179
			c0,59.65,24.866,113.595,64.768,152.036l-49.544,49.544l13.574,13.575l50.416-50.416c36.177,29.039,82.073,46.44,131.966,46.44
			c52.336,0,100.281-19.145,137.215-50.79l54.766,54.766l13.574-13.575l-54.334-54.334
			C444.459,385.661,467.34,333.698,467.34,276.485z M256.161,468.465c-105.857,0-191.981-86.124-191.981-191.981
			c0-105.857,86.124-191.981,191.981-191.981c105.857,0,191.981,86.124,191.981,191.981
			C448.142,382.341,362.017,468.465,256.161,468.465z"/>
	</g>
</g>
<g>
	<g>
		<path d="M486.739,45.625c-33.681-33.681-88.496-33.672-122.177,0c-1.8,1.8-2.812,4.242-2.812,6.787
			c0,2.545,1.012,4.987,2.812,6.787l108.603,108.603c1.8,1.8,4.242,2.812,6.787,2.812c2.545,0,4.987-1.012,6.787-2.812
			C520.42,134.117,520.42,79.306,486.739,45.625z M479.47,146.955L385.41,52.894c26.29-19.681,63.856-17.591,87.755,6.304
			C497.06,83.093,499.16,120.655,479.47,146.955z"/>
	</g>
</g>
<g>
	<g>
		<path d="M147.478,45.625c-33.686-33.686-88.486-33.686-122.172,0C8.985,61.94,0,83.637,0,106.711
			c0,23.079,8.985,44.775,25.305,61.091c1.8,1.8,4.242,2.812,6.787,2.812c2.545,0,4.987-1.012,6.787-2.812L147.478,59.198
			C151.227,55.45,151.227,49.374,147.478,45.625z M32.57,146.963c-8.68-11.558-13.372-25.544-13.372-40.252
			c0-17.946,6.988-34.82,19.681-47.513c13.1-13.1,30.306-19.648,47.512-19.648c14.178,0,28.361,4.448,40.243,13.344L32.57,146.963z"
			/>
	</g>
</g>
<g>
	<g>
		<path d="M264.766,142.098c-5.301,0-9.599,4.299-9.599,9.599v144.63H160.17c-5.301,0-9.599,4.298-9.599,9.599
			s4.298,9.599,9.599,9.599h105.59c5.301,0,8.605-4.941,8.605-10.244V151.697C274.365,146.397,270.067,142.098,264.766,142.098z"/>
	</g>
</g>
<g>
</g>
<g>
</g>
<g>
</g>
<g>
</g>
<g>
</g>
<g>
</g>
<g>
</g>
<g>
</g>
<g>
</g>
<g>
</g>
<g>
</g>
<g>
</g>
<g>
</g>
<g>
</g>
<g>
</g>
</svg>
