<?xml version="1.0" encoding="iso-8859-1"?>
<!-- Generator: Adobe Illustrator 19.0.0, SVG Export Plug-In . SVG Version: 6.00 Build 0)  -->
<svg version="1.1" id="Layer_1" xmlns="http://www.w3.org/2000/svg" xmlns:xlink="http://www.w3.org/1999/xlink" x="0px" y="0px"
	 viewBox="0 0 512 512" style="enable-background:new 0 0 512 512;" xml:space="preserve">
<g>
	<g>
		<path d="M346.246,179.649H166.684c-14.882,0-27.921,11.52-27.921,26.419v71.711c0,14.9,13.039,27.625,27.921,27.625h179.561
			c14.882,0,26.061-12.725,26.061-27.625v-71.711C372.307,191.169,361.127,179.649,346.246,179.649z M354.342,277.778
			c0,4.996-3.119,9.66-8.097,9.66H166.684c-4.978,0-9.956-4.664-9.956-9.66v-71.711c0-4.996,4.978-8.454,9.956-8.454h179.561
			c4.978,0,8.097,3.458,8.097,8.454V277.778z"/>
	</g>
</g>
<g>
	<g>
		<path d="M292.395,386.246h-71.86c-4.961,0-8.982,4.022-8.982,8.982s4.022,8.982,8.982,8.982h71.86c4.96,0,8.982-4.022,8.982-8.982
			S297.355,386.246,292.395,386.246z"/>
	</g>
</g>
<g>
	<g>
		<path d="M274.43,422.175H238.5c-4.961,0-8.982,4.022-8.982,8.982s4.022,8.982,8.982,8.982h35.93c4.96,0,8.982-4.022,8.982-8.982
			S279.39,422.175,274.43,422.175z"/>
	</g>
</g>
<g>
	<g>
		<path d="M445.097,35.93H112.746c-4.961,0-8.982,4.022-8.982,8.982s4.022,8.982,8.982,8.982h332.351
			c4.96,0,8.982-4.022,8.982-8.982S450.057,35.93,445.097,35.93z"/>
	</g>
</g>
<g>
	<g>
		<path d="M445.097,71.86H112.746c-4.961,0-8.982,4.022-8.982,8.982s4.022,8.982,8.982,8.982h332.351
			c4.96,0,8.982-4.022,8.982-8.982S450.057,71.86,445.097,71.86z"/>
	</g>
</g>
<g>
	<g>
		<path d="M454.079,107.789H112.772c-24.781,0-44.939-20.149-44.939-44.912s20.158-44.912,44.939-44.912h341.307
			c4.96,0,8.982-4.022,8.982-8.982c0-4.961-4.022-8.982-8.982-8.982H112.772C82.94,0,57.443,20.573,51.019,48.474
			c-1.012,1.454-2.08,2.912-2.08,4.818v395.215c0,34.68,29.149,63.493,63.833,63.493h287.39c34.684,0,61.969-28.814,61.969-63.493
			V116.169C462.132,111.208,459.039,107.789,454.079,107.789z M444.167,448.507c0,24.772-19.228,45.529-44.004,45.529h-287.39
			c-24.781,0-45.868-20.757-45.868-45.529V106.212c13.474,11.675,28.276,19.543,45.868,19.543h331.395V448.507z"/>
	</g>
</g>
<g>
</g>
<g>
</g>
<g>
</g>
<g>
</g>
<g>
</g>
<g>
</g>
<g>
</g>
<g>
</g>
<g>
</g>
<g>
</g>
<g>
</g>
<g>
</g>
<g>
</g>
<g>
</g>
<g>
</g>
</svg>
