<?xml version="1.0" encoding="iso-8859-1"?>
<!-- Generator: Adobe Illustrator 19.0.0, SVG Export Plug-In . SVG Version: 6.00 Build 0)  -->
<svg version="1.1" id="Layer_1" xmlns="http://www.w3.org/2000/svg" xmlns:xlink="http://www.w3.org/1999/xlink" x="0px" y="0px"
	 viewBox="0 0 512 512" style="enable-background:new 0 0 512 512;" xml:space="preserve">
<g>
	<g>
		<path d="M476.85,441.725c0-61.392-60.746-114.314-151.099-133.363v-24.206c70.274-14.559,106.284-46.765,107.819-48.176
			c3.926-3.627,4.578-9.696,1.157-13.804c-26.304-31.569-67.909-89.823-67.909-111.745C366.817,49.539,317.343,0,256.451,0
			S146.052,49.539,146.052,110.431c0,22.118-41.592,80.814-67.817,112.618c-3.431,4.167-3.472,10.294,0.546,13.882
			c1.549,1.382,38.656,32.843,106.42,47.216v24.216C94.849,327.422,35.133,380.333,35.133,441.726c0,4.598,0.608,9.245,1.299,13.814
			c0.451,2.99,2.355,5.618,4.963,7.157C94.645,494.029,173.068,512,256.451,512c83.387,0,161.778-17.971,215.023-49.314
			c2.607-1.529,4.398-4.157,4.849-7.147C477.014,450.971,476.85,446.323,476.85,441.725z M457.04,447.843
			c-50.152,28.059-122.853,44.078-200.524,44.078c-77.667,0-150.368-16.02-200.525-44.078c-0.172-2.039-0.26-4.088-0.26-6.118
			c0-52.402,58.024-99.784,141.848-115.235c4.765-0.872,7.701-5.029,7.701-9.873v-40.755c0-4.863-2.961-9.02-7.745-9.882
			c-50.829-9.137-83.544-28.579-97.5-38.275c18.471-23.284,65.997-86.069,65.997-117.275c0-49.824,40.599-90.353,90.418-90.353
			s90.386,40.529,90.386,90.353c0,31.049,47.668,93.51,66.173,116.588c-13.789,9.863-47.159,29.716-98.566,38.971
			c-4.779,0.863-8.771,5.02-8.771,9.882v40.745c0,4.843,3.976,9,8.74,9.873c83.824,15.451,142.627,62.833,142.627,115.235
			C457.04,443.755,457.212,445.804,457.04,447.843z"/>
	</g>
</g>
<g>
</g>
<g>
</g>
<g>
</g>
<g>
</g>
<g>
</g>
<g>
</g>
<g>
</g>
<g>
</g>
<g>
</g>
<g>
</g>
<g>
</g>
<g>
</g>
<g>
</g>
<g>
</g>
<g>
</g>
</svg>
