<?xml version="1.0" encoding="iso-8859-1"?>
<!-- Generator: Adobe Illustrator 19.0.0, SVG Export Plug-In . SVG Version: 6.00 Build 0)  -->
<svg version="1.1" id="Layer_1" xmlns="http://www.w3.org/2000/svg" xmlns:xlink="http://www.w3.org/1999/xlink" x="0px" y="0px"
	 viewBox="0 0 512 512" style="enable-background:new 0 0 512 512;" xml:space="preserve">
<g>
	<g>
		<path d="M498.639,365.591c-6.959-16.799-20.822-28.261-41.204-34.093c-58.023-16.577-110.102-61.616-125.496-75.817l7.515-22.55
			c33.032-34.588,21.949-69.409,21.453-70.905l-9.83-29.484c-0.889-96.376-77.677-109.94-98.397-111.841
			c-13.367-15.293-27.614-22.237-42.371-20.69c-26.891,2.85-42.715,33.032-44.433,36.458c-0.495,0.991-0.829,2.062-0.985,3.164
			l-10.184,71.279C137.221,157.577,169.54,236.517,182.028,264c-31.48,14.656-130.691,61.292-157.537,79.193
			c-37.57,25.047,2.178,107.434,6.833,116.743c1.157,2.304,3.134,4.104,5.544,5.034C128.519,500.214,208.172,512,273.735,512
			c128.159,0,202.451-45.05,207.039-47.92c1.486-0.93,2.714-2.213,3.563-3.75C485.59,458.076,514.826,404.667,498.639,365.591z
			 M467.497,447.867c-20.594,11.502-177.131,90.969-419.405-0.768c-14.403-30.292-27.493-76.434-12.119-86.683
			c30.03-20.023,162.859-81.396,164.198-82.013c2.542-1.172,4.503-3.335,5.433-5.974c0.925-2.648,0.743-5.549-0.51-8.056
			c-13.817-27.634-46.262-107.868-30.697-146.783c0.303-0.758,0.515-1.557,0.632-2.375l10.098-70.672
			c3.891-7.005,14.883-22.419,27.361-23.743c8.46-0.859,17.476,4.7,27.018,16.617c1.961,2.456,4.938,3.881,8.081,3.881
			c3.381,0,82.802,1.061,82.802,93.152c0,1.112,0.177,2.214,0.53,3.275l10.35,31.051c0.086,0.253,8.026,25.279-18.199,51.508
			c-1.137,1.132-1.991,2.517-2.502,4.043l-10.35,31.051c-1.238,3.72-0.273,7.823,2.502,10.593
			c2.613,2.618,64.85,64.244,139.025,85.44c14.191,4.053,23.273,11.27,27.756,22.075
			C490.26,399.381,472.516,437.891,467.497,447.867z"/>
	</g>
</g>
<g>
</g>
<g>
</g>
<g>
</g>
<g>
</g>
<g>
</g>
<g>
</g>
<g>
</g>
<g>
</g>
<g>
</g>
<g>
</g>
<g>
</g>
<g>
</g>
<g>
</g>
<g>
</g>
<g>
</g>
</svg>
