<?xml version="1.0" encoding="iso-8859-1"?>
<!-- Generator: Adobe Illustrator 19.0.0, SVG Export Plug-In . SVG Version: 6.00 Build 0)  -->
<svg version="1.1" id="Layer_1" xmlns="http://www.w3.org/2000/svg" xmlns:xlink="http://www.w3.org/1999/xlink" x="0px" y="0px"
	 viewBox="0 0 512 512" style="enable-background:new 0 0 512 512;" xml:space="preserve">
<g>
	<g>
		<path d="M470.622,445.112c-17.273-41.039-62.102-154.247-62.102-184.93c0-70.883-48.604-130.619-114.233-147.649
			c14.895-11.495,24.515-29.507,24.515-49.731C318.802,28.177,290.629,0,256,0c-34.63,0-62.803,28.177-62.803,62.803
			c0,20.224,9.62,38.235,24.515,49.731c-65.629,17.03-114.233,76.766-114.233,147.649c0,26.092-44.859,142.419-62.146,185.035
			c-1.121,2.769-0.793,6.218,0.872,8.689c1.669,2.48,4.46,4.263,7.443,4.263h144.199C198.216,487.328,224.416,512,256,512
			c31.583,0,57.783-24.672,62.152-53.831h144.2c3.005,0,5.813-1.809,7.474-4.315C471.489,451.357,471.787,447.881,470.622,445.112z
			 M211.14,62.803c0-24.734,20.125-44.859,44.859-44.859c24.734,0,44.859,20.125,44.859,44.859
			c0,24.734-20.125,44.859-44.859,44.859C231.266,107.662,211.14,87.536,211.14,62.803z M256,494.056
			c-21.662,0-39.786-15.701-43.954-35.887h87.909C295.785,478.356,277.661,494.056,256,494.056z M62.917,440.226
			c15.569-40.373,58.505-149.949,58.505-179.739c0-74.21,60.371-134.73,134.577-134.73c74.206,0,134.577,60.595,134.577,134.805
			c0,34.135,43.12,141.534,58.343,179.664H62.917z"/>
	</g>
</g>
<g>
</g>
<g>
</g>
<g>
</g>
<g>
</g>
<g>
</g>
<g>
</g>
<g>
</g>
<g>
</g>
<g>
</g>
<g>
</g>
<g>
</g>
<g>
</g>
<g>
</g>
<g>
</g>
<g>
</g>
</svg>
