<?xml version="1.0" encoding="iso-8859-1"?>
<!-- Generator: Adobe Illustrator 19.0.0, SVG Export Plug-In . SVG Version: 6.00 Build 0)  -->
<svg version="1.1" id="Layer_1" xmlns="http://www.w3.org/2000/svg" xmlns:xlink="http://www.w3.org/1999/xlink" x="0px" y="0px"
	 viewBox="0 0 512 512" style="enable-background:new 0 0 512 512;" xml:space="preserve">
<g>
	<g>
		<path d="M406.093,0H107.837c-5.152,0-10.285,3.539-10.285,8.69v493.987c0,3.768,2.749,7.172,6.235,8.611
			c3.486,1.447,7.732,0.646,10.399-2.021l142.659-142.538l142.6,142.538c1.784,1.784,4.198,2.731,6.62,2.731
			c1.201,0,1.943-0.228,3.099-0.71c3.486-1.438,5.286-4.842,5.286-8.611V8.69C414.449,3.539,411.245,0,406.093,0z M395.808,480.177
			L263.072,346.959c-1.82-1.82-3.964-2.731-6.349-2.731c-2.385,0-5.131,0.91-6.952,2.731L116.192,480.177V18.641h279.615V480.177z"
			/>
	</g>
</g>
<g>
	<g>
		<path d="M341.104,74.564H173.08c-5.152,0-9.321,4.169-9.321,9.321s4.169,9.32,9.321,9.32h168.024c5.152,0,9.321-4.169,9.321-9.32
			S346.256,74.564,341.104,74.564z"/>
	</g>
</g>
<g>
	<g>
		<path d="M341.104,130.487H173.08c-5.152,0-9.321,4.169-9.321,9.32c0,5.152,4.169,9.321,9.321,9.321h168.024
			c5.152,0,9.321-4.169,9.321-9.321C350.425,134.656,346.256,130.487,341.104,130.487z"/>
	</g>
</g>
<g>
	<g>
		<path d="M341.104,186.41H173.08c-5.152,0-9.321,4.169-9.321,9.32s4.169,9.32,9.321,9.32h168.024c5.152,0,9.321-4.169,9.321-9.32
			S346.256,186.41,341.104,186.41z"/>
	</g>
</g>
<g>
</g>
<g>
</g>
<g>
</g>
<g>
</g>
<g>
</g>
<g>
</g>
<g>
</g>
<g>
</g>
<g>
</g>
<g>
</g>
<g>
</g>
<g>
</g>
<g>
</g>
<g>
</g>
<g>
</g>
</svg>
