<?xml version="1.0" encoding="iso-8859-1"?>
<!-- Generator: Adobe Illustrator 19.0.0, SVG Export Plug-In . SVG Version: 6.00 Build 0)  -->
<svg version="1.1" id="Layer_1" xmlns="http://www.w3.org/2000/svg" xmlns:xlink="http://www.w3.org/1999/xlink" x="0px" y="0px"
	 viewBox="0 0 512 512" style="enable-background:new 0 0 512 512;" xml:space="preserve">
<g>
	<g>
		<path d="M326.7,214.109H187.227c-20.577,0-37.318,16.704-37.318,37.236s16.741,37.236,37.318,37.236H326.7
			c20.577,0,37.318-16.704,37.318-37.236C364.018,230.814,347.277,214.109,326.7,214.109z M326.7,269.964H187.227
			c-10.309,0-18.7-8.35-18.7-18.618c0-10.268,8.391-18.618,18.7-18.618H326.7c10.309,0,18.7,8.35,18.7,18.618
			C345.4,261.614,337.009,269.964,326.7,269.964z"/>
	</g>
</g>
<g>
	<g>
		<path d="M503.655,46.545H10.273C5.132,46.545,0,50.089,0,55.231v102.4c0,5.141,5.132,9.933,10.273,9.933h17.654V455.52
			c0,5.142,5.132,9.934,10.273,9.934h437.527c5.141,0,8.345-4.792,8.345-9.934V167.564h19.582c5.141,0,8.345-4.792,8.345-9.933
			v-102.4C512,50.089,508.795,46.545,503.655,46.545z M465.455,446.836H46.545V167.564h418.909V446.836z M493.382,148.945h-17.654
			H38.2H18.618V65.164h474.764V148.945z"/>
	</g>
</g>
<g>
</g>
<g>
</g>
<g>
</g>
<g>
</g>
<g>
</g>
<g>
</g>
<g>
</g>
<g>
</g>
<g>
</g>
<g>
</g>
<g>
</g>
<g>
</g>
<g>
</g>
<g>
</g>
<g>
</g>
</svg>
