<?xml version="1.0" encoding="iso-8859-1"?>
<!-- Generator: Adobe Illustrator 19.0.0, SVG Export Plug-In . SVG Version: 6.00 Build 0)  -->
<svg version="1.1" id="Layer_1" xmlns="http://www.w3.org/2000/svg" xmlns:xlink="http://www.w3.org/1999/xlink" x="0px" y="0px"
	 viewBox="0 0 512 512" style="enable-background:new 0 0 512 512;" xml:space="preserve">
<g>
	<g>
		<path d="M378.228,238.035H144.614c-19.789,0-35.895,16.114-35.895,35.93c0,19.816,16.105,35.93,35.895,35.93h233.614
			c19.789,0,35.895-16.114,35.895-35.93C414.123,254.149,398.018,238.035,378.228,238.035z M378.228,291.93H144.614
			c-9.886,0-17.93-8.061-17.93-17.965S134.728,256,144.614,256h233.614c9.886,0,17.93,8.061,17.93,17.965
			S388.114,291.93,378.228,291.93z"/>
	</g>
</g>
<g>
	<g>
		<path d="M510.193,114.691l-71.627-80.537c-1.702-1.921-3.917-2.715-6.478-2.715H90.754c-2.386,0-4.667,0.645-6.351,2.329
			L3.096,114.456C1.412,116.14,0,118.27,0,120.656v53.895c0,4.965,4.947,9.59,9.912,9.59h17.035v286.831
			c0,4.965,4.947,9.59,9.912,9.59h449.123c4.965,0,8.053-4.625,8.053-9.59V184.14h9.912c4.965,0,8.053-4.625,8.053-9.59v-53.895
			C512,118.454,511.658,116.331,510.193,114.691z M476.07,462.596H44.912V184.14H476.07V462.596z M494.035,166.175h-8.053H36.86
			H17.965v-41.8l76.509-74.971h333.579l65.982,74.664V166.175z"/>
	</g>
</g>
<g>
</g>
<g>
</g>
<g>
</g>
<g>
</g>
<g>
</g>
<g>
</g>
<g>
</g>
<g>
</g>
<g>
</g>
<g>
</g>
<g>
</g>
<g>
</g>
<g>
</g>
<g>
</g>
<g>
</g>
</svg>
