<?xml version="1.0" encoding="iso-8859-1"?>
<!-- Generator: Adobe Illustrator 19.0.0, SVG Export Plug-In . SVG Version: 6.00 Build 0)  -->
<svg version="1.1" id="Layer_1" xmlns="http://www.w3.org/2000/svg" xmlns:xlink="http://www.w3.org/1999/xlink" x="0px" y="0px"
	 viewBox="0 0 512 512" style="enable-background:new 0 0 512 512;" xml:space="preserve">
<g>
	<g>
		<path d="M256,0C114.836,0,0,114.841,0,256s114.836,256,256,256c141.163,0,256-114.841,256-256S397.163,0,256,0z M256,492.308
			c-130.298,0-236.308-106.01-236.308-236.308c0-130.298,106.01-236.308,236.308-236.308S492.308,125.702,492.308,256
			C492.308,386.298,386.298,492.308,256,492.308z"/>
	</g>
</g>
<g>
	<g>
		<path d="M256,49.231C141.99,49.231,49.231,141.986,49.231,256c0,114.015,92.76,206.769,206.769,206.769
			S462.769,370.015,462.769,256C462.769,141.986,370.01,49.231,256,49.231z M256,443.077c-103.154,0-187.077-83.923-187.077-187.077
			c0-103.154,83.923-187.077,187.077-187.077c103.154,0,187.077,83.923,187.077,187.077
			C443.077,359.154,359.154,443.077,256,443.077z"/>
	</g>
</g>
<g>
	<g>
		<path d="M256,98.462c-86.865,0-157.538,70.673-157.538,157.538c0,86.867,70.673,157.538,157.538,157.538
			c86.865,0,157.538-70.672,157.538-157.538C413.538,169.135,342.865,98.462,256,98.462z M256,393.846
			c-76.01,0-137.846-61.836-137.846-137.846c0-76.01,61.837-137.846,137.846-137.846S393.846,179.99,393.846,256
			C393.846,332.01,332.01,393.846,256,393.846z"/>
	</g>
</g>
<g>
	<g>
		<path d="M256,147.692c-59.721,0-108.308,48.588-108.308,108.308c0,59.721,48.586,108.308,108.308,108.308
			c59.721,0,108.308-48.586,108.308-108.308C364.308,196.28,315.721,147.692,256,147.692z M256,344.615
			c-48.865,0-88.615-39.755-88.615-88.615c0-48.861,39.75-88.615,88.615-88.615c48.865,0,88.615,39.755,88.615,88.615
			C344.615,304.861,304.865,344.615,256,344.615z"/>
	</g>
</g>
<g>
	<g>
		<path d="M256,206.769c-27.144,0-49.231,22.087-49.231,49.231c0,27.144,22.086,49.231,49.231,49.231
			c27.144,0,49.231-22.086,49.231-49.231C305.231,228.856,283.144,206.769,256,206.769z M256,285.538
			c-16.289,0-29.538-13.249-29.538-29.538c0-16.288,13.25-29.538,29.538-29.538s29.538,13.25,29.538,29.538
			C285.538,272.29,272.289,285.538,256,285.538z"/>
	</g>
</g>
<g>
</g>
<g>
</g>
<g>
</g>
<g>
</g>
<g>
</g>
<g>
</g>
<g>
</g>
<g>
</g>
<g>
</g>
<g>
</g>
<g>
</g>
<g>
</g>
<g>
</g>
<g>
</g>
<g>
</g>
</svg>
