<?xml version="1.0" encoding="iso-8859-1"?>
<!-- Generator: Adobe Illustrator 19.0.0, SVG Export Plug-In . SVG Version: 6.00 Build 0)  -->
<svg version="1.1" id="Layer_1" xmlns="http://www.w3.org/2000/svg" xmlns:xlink="http://www.w3.org/1999/xlink" x="0px" y="0px"
	 viewBox="0 0 512 512" style="enable-background:new 0 0 512 512;" xml:space="preserve">
<g>
	<g>
		<path d="M498.759,0H15.204C9.963,0,4.741,3.61,4.741,8.845v493.037c0,5.237,5.222,10.118,10.463,10.118h483.556
			c5.241,0,8.5-4.881,8.5-10.118V8.845C507.259,3.61,504,0,498.759,0z M488.296,493.037H23.704V18.963h464.593V493.037z"/>
	</g>
</g>
<g>
	<g>
		<path d="M223.796,151.704h-67.352V84.697c0-5.236-4.241-9.482-9.482-9.482s-9.481,4.246-9.481,9.482v67.007H72.093
			c-5.241,0-9.481,4.245-9.481,9.482s4.241,9.482,9.481,9.482h65.389V236.4c0,5.237,4.241,9.482,9.481,9.482
			s9.482-4.244,9.482-9.482v-65.734h67.352c5.241,0,9.482-4.245,9.482-9.482S229.037,151.704,223.796,151.704z"/>
	</g>
</g>
<g>
	<g>
		<path d="M441.87,151.704H290.167c-5.241,0-9.482,4.245-9.482,9.482s4.241,9.482,9.482,9.482H441.87
			c5.241,0,9.482-4.245,9.482-9.482S447.111,151.704,441.87,151.704z"/>
	</g>
</g>
<g>
	<g>
		<path d="M206.898,405.206l-47.866-47.865l47.866-47.867c3.704-3.704,3.704-9.703,0-13.406c-3.704-3.704-9.704-3.704-13.408,0
			l-47.866,47.865l-47.866-47.865c-3.704-3.704-9.704-3.704-13.408,0c-3.704,3.704-3.704,9.703,0,13.406l47.866,47.867
			l-47.866,47.865c-3.704,3.704-3.704,9.704,0,13.407c1.852,1.852,4.278,2.779,6.704,2.779c2.426,0,4.852-0.927,6.704-2.779
			l47.866-47.866l47.866,47.866c1.852,1.852,4.278,2.779,6.704,2.779c2.426,0,4.852-0.927,6.704-2.779
			C210.602,414.91,210.602,408.91,206.898,405.206z"/>
	</g>
</g>
<g>
	<g>
		<path d="M441.87,322.37H290.167c-5.241,0-9.482,4.245-9.482,9.482s4.241,9.481,9.482,9.481H441.87
			c5.241,0,9.482-4.245,9.482-9.481S447.111,322.37,441.87,322.37z"/>
	</g>
</g>
<g>
	<g>
		<path d="M441.87,379.259H290.167c-5.241,0-9.482,4.245-9.482,9.481s4.241,9.482,9.482,9.482H441.87
			c5.241,0,9.482-4.245,9.482-9.482S447.111,379.259,441.87,379.259z"/>
	</g>
</g>
<g>
</g>
<g>
</g>
<g>
</g>
<g>
</g>
<g>
</g>
<g>
</g>
<g>
</g>
<g>
</g>
<g>
</g>
<g>
</g>
<g>
</g>
<g>
</g>
<g>
</g>
<g>
</g>
<g>
</g>
</svg>
