<?xml version="1.0" encoding="iso-8859-1"?>
<!-- Generator: Adobe Illustrator 19.0.0, SVG Export Plug-In . SVG Version: 6.00 Build 0)  -->
<svg version="1.1" id="Layer_1" xmlns="http://www.w3.org/2000/svg" xmlns:xlink="http://www.w3.org/1999/xlink" x="0px" y="0px"
	 viewBox="0 0 512 512" style="enable-background:new 0 0 512 512;" xml:space="preserve">
<g>
	<g>
		<path d="M435.332,357.648c-42.277,0-76.668,34.391-76.668,76.668s34.391,76.668,76.668,76.668
			c42.277,0,76.668-34.391,76.668-76.668S477.609,357.648,435.332,357.648z M435.332,493.946c-32.877,0-59.63-26.754-59.63-59.63
			c0-32.877,26.754-59.63,59.63-59.63c32.877,0,59.63,26.754,59.63,59.63C494.963,467.192,468.209,493.946,435.332,493.946z"/>
	</g>
</g>
<g>
	<g>
		<path d="M435.332,383.203c-18.793,0-34.075,15.282-34.075,34.075c0,4.708,3.81,8.519,8.519,8.519c4.708,0,8.519-3.81,8.519-8.519
			c0-9.392,7.645-17.037,17.037-17.037c9.392,0,17.037,7.645,17.037,17.037c0,3.477-2.23,5.715-8.128,10.781
			c-5.299,4.559-11.896,10.226-16.53,19.483c-2.105,4.209-0.399,9.326,3.81,11.43c1.223,0.609,2.521,0.898,3.802,0.898
			c3.128,0,6.131-1.722,7.628-4.708c3.095-6.189,7.82-10.249,12.395-14.176c6.589-5.665,14.059-12.079,14.059-23.709
			C469.407,398.485,454.125,383.203,435.332,383.203z"/>
	</g>
</g>
<g>
	<g>
		<path d="M441.347,470.86c-0.341-0.341-0.857-0.765-1.281-1.023c-0.424-0.341-0.94-0.591-1.448-0.765
			c-0.507-0.256-1.106-0.424-1.622-0.508c-1.697-0.341-3.319-0.175-4.933,0.508c-1.023,0.424-1.963,1.023-2.729,1.788
			c-1.622,1.622-2.554,3.835-2.554,6.048c0,1.106,0.25,2.221,0.682,3.236c0.424,1.023,1.015,1.963,1.872,2.812
			c0.765,0.768,1.705,1.365,2.729,1.789c1.015,0.433,2.13,0.682,3.236,0.682c1.19,0,2.296-0.25,3.319-0.682
			c1.023-0.424,1.963-1.021,2.729-1.789c0.765-0.848,1.448-1.788,1.872-2.812c0.424-1.015,0.599-2.13,0.599-3.236
			C443.818,474.696,442.961,472.483,441.347,470.86z"/>
	</g>
</g>
<g>
	<g>
		<path d="M503.481,0.441H9.401C4.692,0.441,0,3.675,0,8.383v119.261v374.82c0,4.708,4.692,9.095,9.401,9.095h340.745
			c4.708,0,8.519-3.81,8.519-8.519c0-4.708-3.81-8.519-8.519-8.519H17.037V136.739h477.044v220.908c0,4.708,3.81,8.519,8.519,8.519
			c4.708,0,8.519-3.81,8.519-8.519V127.644V8.383C511.118,3.675,508.19,0.441,503.481,0.441z M494.081,119.702H17.037V17.478
			h477.044V119.702z"/>
	</g>
</g>
<g>
	<g>
		<path d="M443.851,307.112H374.82v-59.63h69.031c4.708,0,8.519-3.81,8.519-8.519c0-4.708-3.81-8.519-8.519-8.519H374.82v-68.725
			c0-4.708-3.81-8.519-8.519-8.519s-8.519,3.81-8.519,8.519v68.725h-59.63v-68.725c0-4.708-3.81-8.519-8.519-8.519
			s-8.519,3.81-8.519,8.519v68.725h-59.63v-68.725c0-4.708-3.81-8.519-8.519-8.519c-4.708,0-8.519,3.81-8.519,8.519v68.725h-59.63
			v-68.725c0-4.708-3.81-8.519-8.519-8.519c-4.708,0-8.519,3.81-8.519,8.519v68.725H60.512c-4.709,0-8.519,3.81-8.519,8.519
			c0,4.708,3.81,8.519,8.519,8.519h67.267v59.63H60.512c-4.709,0-8.519,3.81-8.519,8.519c0,4.708,3.81,8.519,8.519,8.519h67.267
			v59.63H60.512c-4.709,0-8.519,3.81-8.519,8.519c0,4.708,3.81,8.519,8.519,8.519h67.267v67.689c0,4.708,3.81,8.519,8.519,8.519
			c4.708,0,8.519-3.81,8.519-8.519v-67.689h59.63v67.689c0,4.708,3.81,8.519,8.519,8.519c4.708,0,8.519-3.81,8.519-8.519v-67.689
			h59.63v67.689c0,4.708,3.81,8.519,8.519,8.519s8.519-3.81,8.519-8.519V324.149h145.699c4.708,0,8.519-3.81,8.519-8.519
			C452.37,310.922,448.559,307.112,443.851,307.112z M204.447,383.78h-59.63v-59.63h59.63V383.78z M204.447,307.112h-59.63v-59.63
			h59.63V307.112z M281.115,383.78h-59.63v-59.63h59.63V383.78z M281.115,307.112h-59.63v-59.63h59.63V307.112z M357.783,307.112
			h-59.63v-59.63h59.63V307.112z"/>
	</g>
</g>
<g>
</g>
<g>
</g>
<g>
</g>
<g>
</g>
<g>
</g>
<g>
</g>
<g>
</g>
<g>
</g>
<g>
</g>
<g>
</g>
<g>
</g>
<g>
</g>
<g>
</g>
<g>
</g>
<g>
</g>
</svg>
