<?xml version="1.0" encoding="iso-8859-1"?>
<!-- Generator: Adobe Illustrator 19.0.0, SVG Export Plug-In . SVG Version: 6.00 Build 0)  -->
<svg version="1.1" id="Layer_1" xmlns="http://www.w3.org/2000/svg" xmlns:xlink="http://www.w3.org/1999/xlink" x="0px" y="0px"
	 viewBox="0 0 512 512" style="enable-background:new 0 0 512 512;" xml:space="preserve">
<g>
	<g>
		<path d="M487.283,418.133H377.837l39.121-45.938c3.075-3.575,2.658-9.104-0.925-12.171c-3.558-3.067-8.967-2.737-12.025,0.854
			l-51.2,59.696c-0.096,0.113-0.16,0.217-0.248,0.333c-0.179,0.229-0.352,0.452-0.506,0.7c-0.138,0.219-0.252,0.442-0.367,0.669
			c-0.119,0.24-0.242,0.469-0.338,0.719c-0.108,0.277-0.183,0.558-0.262,0.842c-0.061,0.223-0.135,0.438-0.179,0.669
			c-0.087,0.473-0.133,0.952-0.144,1.431c0,0.052-0.015,0.1-0.015,0.152s0.015,0.102,0.015,0.154
			c0.01,0.479,0.056,0.958,0.144,1.431c0.044,0.229,0.119,0.446,0.179,0.669c0.079,0.283,0.154,0.567,0.262,0.842
			c0.096,0.25,0.219,0.483,0.338,0.723c0.115,0.227,0.229,0.454,0.367,0.671c0.154,0.25,0.327,0.481,0.506,0.713
			c0.087,0.112,0.152,0.237,0.248,0.348l51.2,59.733c1.683,1.975,4.075,2.983,6.475,2.983c1.966,0,3.942-0.675,5.55-2.058
			c3.583-3.067,4-8.16,0.925-11.735L377.837,435.2h109.446c4.717,0,8.533-3.817,8.533-8.533S492,418.133,487.283,418.133z"/>
	</g>
</g>
<g>
	<g>
		<path d="M504.35,0H9.417C4.7,0,0,3.24,0,7.956v119.467V502.89c0,4.717,4.7,9.11,9.417,9.11H350.75
			c4.717,0,8.533-3.817,8.533-8.533s-3.817-8.533-8.533-8.533H17.067v-358.4h477.867v221.29c0,4.717,3.817,8.533,8.533,8.533
			S512,362.54,512,357.823v-230.4V7.956C512,3.24,509.067,0,504.35,0z M494.933,119.467H17.067v-102.4h477.867V119.467z"/>
	</g>
</g>
<g>
	<g>
		<path d="M444.617,307.2h-69.15v-59.733h69.15c4.717,0,8.533-3.817,8.533-8.533c0-4.717-3.817-8.533-8.533-8.533h-69.15v-68.844
			c0-4.717-3.817-8.533-8.533-8.533s-8.533,3.817-8.533,8.533V230.4h-59.733v-68.844c0-4.717-3.817-8.533-8.533-8.533
			s-8.533,3.817-8.533,8.533V230.4h-59.733v-68.844c0-4.717-3.817-8.533-8.533-8.533c-4.717,0-8.533,3.817-8.533,8.533V230.4
			h-59.733v-68.844c0-4.717-3.817-8.533-8.533-8.533c-4.717,0-8.533,3.817-8.533,8.533V230.4H60.617
			c-4.717,0-8.533,3.817-8.533,8.533c0,4.717,3.817,8.533,8.533,8.533H128V307.2H60.617c-4.717,0-8.533,3.817-8.533,8.533
			s3.817,8.533,8.533,8.533H128V384H60.617c-4.717,0-8.533,3.817-8.533,8.533c0,4.717,3.817,8.533,8.533,8.533H128v67.806
			c0,4.717,3.817,8.533,8.533,8.533c4.717,0,8.533-3.817,8.533-8.533v-67.806H204.8v67.806c0,4.717,3.817,8.533,8.533,8.533
			c4.717,0,8.533-3.817,8.533-8.533v-67.806H281.6v67.806c0,4.717,3.817,8.533,8.533,8.533s8.533-3.817,8.533-8.533V324.267h145.95
			c4.717,0,8.533-3.817,8.533-8.533S449.333,307.2,444.617,307.2z M204.8,384h-59.733v-59.733H204.8V384z M204.8,307.2h-59.733
			v-59.733H204.8V307.2z M281.6,384h-59.733v-59.733H281.6V384z M281.6,307.2h-59.733v-59.733H281.6V307.2z M358.4,307.2h-59.733
			v-59.733H358.4V307.2z"/>
	</g>
</g>
<g>
</g>
<g>
</g>
<g>
</g>
<g>
</g>
<g>
</g>
<g>
</g>
<g>
</g>
<g>
</g>
<g>
</g>
<g>
</g>
<g>
</g>
<g>
</g>
<g>
</g>
<g>
</g>
<g>
</g>
</svg>
