<?xml version="1.0" encoding="iso-8859-1"?>
<!-- Generator: Adobe Illustrator 19.0.0, SVG Export Plug-In . SVG Version: 6.00 Build 0)  -->
<svg version="1.1" id="Layer_1" xmlns="http://www.w3.org/2000/svg" xmlns:xlink="http://www.w3.org/1999/xlink" x="0px" y="0px"
	 viewBox="0 0 512 512" style="enable-background:new 0 0 512 512;" xml:space="preserve">
<g>
	<g>
		<path d="M505.783,419.431c-1.004-3.092-3.675-5.342-6.887-5.806l-40.421-5.885l-18.083-36.625c-2.879-5.842-12.433-5.825-15.304,0
			l-18.075,36.625l-40.425,5.885c-3.213,0.465-5.883,2.715-6.887,5.806c-1.004,3.085-0.167,6.475,2.162,8.742l29.246,28.516
			l-6.904,40.258c-0.546,3.2,0.771,6.434,3.396,8.342c1.488,1.083,3.25,1.633,5.017,1.633c1.358,0,2.725-0.323,3.971-0.983
			l36.154-19.008L468.9,505.94c2.879,1.525,6.362,1.275,8.987-0.65c2.629-1.908,3.942-5.142,3.392-8.342l-6.904-40.267
			l29.246-28.508C505.95,425.906,506.787,422.517,505.783,419.431z M459.246,447.598c-2.008,1.958-2.925,4.785-2.454,7.55
			l4.746,27.642l-24.825-13.05c-2.483-1.317-5.458-1.317-7.942,0l-24.821,13.05l4.742-27.642c0.471-2.765-0.446-5.592-2.454-7.55
			l-20.083-19.573l27.754-4.044c2.779-0.398,5.179-2.15,6.425-4.665l12.409-25.144l12.417,25.144
			c1.242,2.515,3.642,4.267,6.421,4.665l27.75,4.044L459.246,447.598z"/>
	</g>
</g>
<g>
	<g>
		<path d="M504.35,0H9.417C4.704,0,0,3.24,0,7.956v119.467V502.89c0,4.717,4.704,9.11,9.417,9.11H350.75
			c4.712,0,8.533-3.817,8.533-8.533s-3.821-8.533-8.533-8.533H17.067v-358.4h477.867v221.29c0,4.717,3.821,8.533,8.533,8.533
			S512,362.54,512,357.823v-230.4V7.956C512,3.24,509.062,0,504.35,0z M494.933,119.467H17.067v-102.4h477.867V119.467z"/>
	</g>
</g>
<g>
	<g>
		<path d="M444.617,307.2h-69.15v-59.733h69.15c4.712,0,8.533-3.817,8.533-8.533c0-4.717-3.821-8.533-8.533-8.533h-69.15v-68.844
			c0-4.717-3.821-8.533-8.533-8.533s-8.533,3.817-8.533,8.533V230.4h-59.733v-68.844c0-4.717-3.821-8.533-8.533-8.533
			s-8.533,3.817-8.533,8.533V230.4h-59.733v-68.844c0-4.717-3.821-8.533-8.533-8.533c-4.713,0-8.533,3.817-8.533,8.533V230.4
			h-59.733v-68.844c0-4.717-3.821-8.533-8.533-8.533S128,156.84,128,161.556V230.4H60.617c-4.713,0-8.533,3.817-8.533,8.533
			c0,4.717,3.821,8.533,8.533,8.533H128V307.2H60.617c-4.713,0-8.533,3.817-8.533,8.533s3.821,8.533,8.533,8.533H128V384H60.617
			c-4.713,0-8.533,3.817-8.533,8.533c0,4.717,3.821,8.533,8.533,8.533H128v67.806c0,4.717,3.821,8.533,8.533,8.533
			s8.533-3.817,8.533-8.533v-67.806H204.8v67.806c0,4.717,3.821,8.533,8.533,8.533c4.713,0,8.533-3.817,8.533-8.533v-67.806H281.6
			v67.806c0,4.717,3.821,8.533,8.533,8.533s8.533-3.817,8.533-8.533V324.267h145.95c4.712,0,8.533-3.817,8.533-8.533
			S449.329,307.2,444.617,307.2z M204.8,384h-59.733v-59.733H204.8V384z M204.8,307.2h-59.733v-59.733H204.8V307.2z M281.6,384
			h-59.733v-59.733H281.6V384z M281.6,307.2h-59.733v-59.733H281.6V307.2z M358.4,307.2h-59.733v-59.733H358.4V307.2z"/>
	</g>
</g>
<g>
</g>
<g>
</g>
<g>
</g>
<g>
</g>
<g>
</g>
<g>
</g>
<g>
</g>
<g>
</g>
<g>
</g>
<g>
</g>
<g>
</g>
<g>
</g>
<g>
</g>
<g>
</g>
<g>
</g>
</svg>
