<?xml version="1.0" encoding="iso-8859-1"?>
<!-- Generator: Adobe Illustrator 19.0.0, SVG Export Plug-In . SVG Version: 6.00 Build 0)  -->
<svg version="1.1" id="Layer_1" xmlns="http://www.w3.org/2000/svg" xmlns:xlink="http://www.w3.org/1999/xlink" x="0px" y="0px"
	 viewBox="0 0 512 512" style="enable-background:new 0 0 512 512;" xml:space="preserve">
<g>
	<g>
		<path d="M487.269,425.938c-0.01-0.479-0.056-0.958-0.146-1.433c-0.042-0.229-0.117-0.446-0.177-0.669
			c-0.079-0.284-0.154-0.565-0.263-0.84c-0.098-0.25-0.219-0.483-0.338-0.723c-0.115-0.227-0.229-0.454-0.367-0.673
			c-0.154-0.25-0.327-0.479-0.506-0.71c-0.087-0.115-0.154-0.24-0.248-0.35l-51.2-59.733c-3.067-3.592-8.45-3.992-12.025-0.925
			c-3.583,3.067-4,8.74-0.925,12.315l39.121,45.938H350.75c-4.717,0-8.533,3.817-8.533,8.533s3.817,8.533,8.533,8.533h109.446
			l-39.121,45.363c-3.075,3.575-2.658,8.815,0.925,11.879c1.608,1.383,3.583,1.988,5.55,1.988c2.4,0,4.792-1.044,6.475-3.021
			l51.2-59.75c0.094-0.11,0.16-0.244,0.248-0.358c0.179-0.231,0.352-0.467,0.506-0.715c0.138-0.219,0.252-0.45,0.367-0.677
			c0.119-0.24,0.24-0.473,0.338-0.723c0.108-0.275,0.183-0.558,0.263-0.842c0.06-0.223,0.135-0.439,0.177-0.669
			c0.09-0.473,0.135-0.952,0.146-1.431c0-0.052,0.015-0.102,0.015-0.154S487.269,425.99,487.269,425.938z"/>
	</g>
</g>
<g>
	<g>
		<path d="M504.35,0H9.417C4.7,0,0,3.24,0,7.956v119.467V502.89c0,4.717,4.7,9.11,9.417,9.11H350.75
			c4.717,0,8.533-3.817,8.533-8.533s-3.817-8.533-8.533-8.533H17.067v-358.4h477.867v221.29c0,4.717,3.817,8.533,8.533,8.533
			S512,362.54,512,357.823v-230.4V7.956C512,3.24,509.067,0,504.35,0z M494.933,119.467H17.067v-102.4h477.867V119.467z"/>
	</g>
</g>
<g>
	<g>
		<path d="M444.617,307.2h-69.15v-59.733h69.15c4.717,0,8.533-3.817,8.533-8.533c0-4.717-3.817-8.533-8.533-8.533h-69.15v-68.844
			c0-4.717-3.817-8.533-8.533-8.533s-8.533,3.817-8.533,8.533V230.4h-59.733v-68.844c0-4.717-3.817-8.533-8.533-8.533
			s-8.533,3.817-8.533,8.533V230.4h-59.733v-68.844c0-4.717-3.817-8.533-8.533-8.533c-4.717,0-8.533,3.817-8.533,8.533V230.4
			h-59.733v-68.844c0-4.717-3.817-8.533-8.533-8.533c-4.717,0-8.533,3.817-8.533,8.533V230.4H60.617
			c-4.717,0-8.533,3.817-8.533,8.533c0,4.717,3.817,8.533,8.533,8.533H128V307.2H60.617c-4.717,0-8.533,3.817-8.533,8.533
			s3.817,8.533,8.533,8.533H128V384H60.617c-4.717,0-8.533,3.817-8.533,8.533c0,4.717,3.817,8.533,8.533,8.533H128v67.806
			c0,4.717,3.817,8.533,8.533,8.533c4.717,0,8.533-3.817,8.533-8.533v-67.806H204.8v67.806c0,4.717,3.817,8.533,8.533,8.533
			c4.717,0,8.533-3.817,8.533-8.533v-67.806H281.6v67.806c0,4.717,3.817,8.533,8.533,8.533s8.533-3.817,8.533-8.533V324.267h145.95
			c4.717,0,8.533-3.817,8.533-8.533S449.333,307.2,444.617,307.2z M204.8,384h-59.733v-59.733H204.8V384z M204.8,307.2h-59.733
			v-59.733H204.8V307.2z M281.6,384h-59.733v-59.733H281.6V384z M281.6,307.2h-59.733v-59.733H281.6V307.2z M358.4,307.2h-59.733
			v-59.733H358.4V307.2z"/>
	</g>
</g>
<g>
</g>
<g>
</g>
<g>
</g>
<g>
</g>
<g>
</g>
<g>
</g>
<g>
</g>
<g>
</g>
<g>
</g>
<g>
</g>
<g>
</g>
<g>
</g>
<g>
</g>
<g>
</g>
<g>
</g>
</svg>
