<?xml version="1.0" encoding="iso-8859-1"?>
<!-- Generator: Adobe Illustrator 19.0.0, SVG Export Plug-In . SVG Version: 6.00 Build 0)  -->
<svg version="1.1" id="Layer_1" xmlns="http://www.w3.org/2000/svg" xmlns:xlink="http://www.w3.org/1999/xlink" x="0px" y="0px"
	 viewBox="0 0 512 512" style="enable-background:new 0 0 512 512;" xml:space="preserve">
<g>
	<g>
		<path d="M504.35,0H9.417C4.704,0,0,3.24,0,7.956v119.467V502.89c0,4.717,4.704,9.11,9.417,9.11H504.35
			c4.712,0,7.65-4.394,7.65-9.11V127.423V7.956C512,3.24,509.062,0,504.35,0z M494.933,494.933H17.067v-358.4h477.867V494.933z
			 M494.933,119.467H17.067v-102.4h477.867V119.467z"/>
	</g>
</g>
<g>
	<g>
		<path d="M444.617,324.267c4.712,0,8.533-3.817,8.533-8.533s-3.821-8.533-8.533-8.533h-69.15v-59.733h69.15
			c4.712,0,8.533-3.817,8.533-8.533c0-4.717-3.821-8.533-8.533-8.533h-69.15v-68.844c0-4.717-3.821-8.533-8.533-8.533
			s-8.533,3.817-8.533,8.533V230.4h-59.733v-68.844c0-4.717-3.821-8.533-8.533-8.533s-8.533,3.817-8.533,8.533V230.4h-59.733
			v-68.844c0-4.717-3.821-8.533-8.533-8.533c-4.713,0-8.533,3.817-8.533,8.533V230.4h-59.733v-68.844
			c0-4.717-3.821-8.533-8.533-8.533S128,156.84,128,161.556V230.4H60.617c-4.713,0-8.533,3.817-8.533,8.533
			c0,4.717,3.821,8.533,8.533,8.533H128V307.2H60.617c-4.713,0-8.533,3.817-8.533,8.533s3.821,8.533,8.533,8.533H128V384H60.617
			c-4.713,0-8.533,3.817-8.533,8.533c0,4.717,3.821,8.533,8.533,8.533H128v67.806c0,4.717,3.821,8.533,8.533,8.533
			s8.533-3.817,8.533-8.533v-67.806H204.8v67.806c0,4.717,3.821,8.533,8.533,8.533c4.713,0,8.533-3.817,8.533-8.533v-67.806H281.6
			v67.806c0,4.717,3.821,8.533,8.533,8.533s8.533-3.817,8.533-8.533v-67.806H358.4v67.806c0,4.717,3.821,8.533,8.533,8.533
			s8.533-3.817,8.533-8.533v-67.806h69.15c4.712,0,8.533-3.817,8.533-8.533c0-4.717-3.821-8.533-8.533-8.533h-69.15v-59.733H444.617
			z M204.8,384h-59.733v-59.733H204.8V384z M204.8,307.2h-59.733v-59.733H204.8V307.2z M281.6,384h-59.733v-59.733H281.6V384z
			 M281.6,307.2h-59.733v-59.733H281.6V307.2z M358.4,384h-59.733v-59.733H358.4V384z M358.4,307.2h-59.733v-59.733H358.4V307.2z"/>
	</g>
</g>
<g>
</g>
<g>
</g>
<g>
</g>
<g>
</g>
<g>
</g>
<g>
</g>
<g>
</g>
<g>
</g>
<g>
</g>
<g>
</g>
<g>
</g>
<g>
</g>
<g>
</g>
<g>
</g>
<g>
</g>
</svg>
