<?xml version="1.0" encoding="iso-8859-1"?>
<!-- Generator: Adobe Illustrator 19.0.0, SVG Export Plug-In . SVG Version: 6.00 Build 0)  -->
<svg version="1.1" id="Layer_1" xmlns="http://www.w3.org/2000/svg" xmlns:xlink="http://www.w3.org/1999/xlink" x="0px" y="0px"
	 viewBox="0 0 512 512" style="enable-background:new 0 0 512 512;" xml:space="preserve">
<g>
	<g>
		<path d="M502.633,57.823H376.163V15.32c0-5.775-4.674-10.449-10.449-10.449c-5.775,0-10.449,4.674-10.449,10.449v42.503h-94.041
			V15.32c0-5.775-4.674-10.449-10.449-10.449s-10.449,4.674-10.449,10.449v42.503h-94.041V15.32c0-5.775-4.674-10.449-10.449-10.449
			s-10.449,4.674-10.449,10.449v42.503H11.531C5.755,57.823,0,61.79,0,67.565v428.408c0,5.775,5.755,11.156,11.531,11.156h491.102
			c5.775,0,9.367-5.38,9.367-11.156V67.565C512,61.79,508.408,57.823,502.633,57.823z M491.102,486.231H20.898V78.721h104.49v30.64
			c0,5.775,4.674,10.449,10.449,10.449s10.449-4.674,10.449-10.449v-30.64h94.041v30.64c0,5.775,4.674,10.449,10.449,10.449
			s10.449-4.674,10.449-10.449v-30.64h94.041v30.64c0,5.775,4.674,10.449,10.449,10.449c5.775,0,10.449-4.674,10.449-10.449v-30.64
			h114.939V486.231z"/>
	</g>
</g>
<g>
	<g>
		<path d="M114.939,162.312H73.143c-5.77,0-10.449,4.679-10.449,10.449v41.796c0,5.77,4.679,10.449,10.449,10.449h41.796
			c5.77,0,10.449-4.679,10.449-10.449v-41.796C125.388,166.991,120.709,162.312,114.939,162.312z M104.49,204.108H83.592V183.21
			h20.898V204.108z"/>
	</g>
</g>
<g>
	<g>
		<path d="M219.429,162.312h-41.796c-5.77,0-10.449,4.679-10.449,10.449v41.796c0,5.77,4.679,10.449,10.449,10.449h41.796
			c5.77,0,10.449-4.679,10.449-10.449v-41.796C229.878,166.991,225.199,162.312,219.429,162.312z M208.98,204.108h-20.898V183.21
			h20.898V204.108z"/>
	</g>
</g>
<g>
	<g>
		<path d="M323.918,162.312h-41.796c-5.77,0-10.449,4.679-10.449,10.449v41.796c0,5.77,4.679,10.449,10.449,10.449h41.796
			c5.77,0,10.449-4.679,10.449-10.449v-41.796C334.367,166.991,329.689,162.312,323.918,162.312z M313.469,204.108h-20.898V183.21
			h20.898V204.108z"/>
	</g>
</g>
<g>
	<g>
		<path d="M428.408,162.312h-41.796c-5.77,0-10.449,4.679-10.449,10.449v41.796c0,5.77,4.679,10.449,10.449,10.449h41.796
			c5.77,0,10.449-4.679,10.449-10.449v-41.796C438.857,166.991,434.179,162.312,428.408,162.312z M417.959,204.108h-20.898V183.21
			h20.898V204.108z"/>
	</g>
</g>
<g>
	<g>
		<path d="M114.939,266.802H73.143c-5.77,0-10.449,4.679-10.449,10.449v41.796c0,5.77,4.679,10.449,10.449,10.449h41.796
			c5.77,0,10.449-4.679,10.449-10.449v-41.796C125.388,271.481,120.709,266.802,114.939,266.802z M104.49,308.598H83.592V287.7
			h20.898V308.598z"/>
	</g>
</g>
<g>
	<g>
		<path d="M219.429,266.802h-41.796c-5.77,0-10.449,4.679-10.449,10.449v41.796c0,5.77,4.679,10.449,10.449,10.449h41.796
			c5.77,0,10.449-4.679,10.449-10.449v-41.796C229.878,271.481,225.199,266.802,219.429,266.802z M208.98,308.598h-20.898V287.7
			h20.898V308.598z"/>
	</g>
</g>
<g>
	<g>
		<path d="M323.918,266.802h-41.796c-5.77,0-10.449,4.679-10.449,10.449v41.796c0,5.77,4.679,10.449,10.449,10.449h41.796
			c5.77,0,10.449-4.679,10.449-10.449v-41.796C334.367,271.481,329.689,266.802,323.918,266.802z M313.469,308.598h-20.898V287.7
			h20.898V308.598z"/>
	</g>
</g>
<g>
	<g>
		<path d="M428.408,266.802h-41.796c-5.77,0-10.449,4.679-10.449,10.449v41.796c0,5.77,4.679,10.449,10.449,10.449h41.796
			c5.77,0,10.449-4.679,10.449-10.449v-41.796C438.857,271.481,434.179,266.802,428.408,266.802z M417.959,308.598h-20.898V287.7
			h20.898V308.598z"/>
	</g>
</g>
<g>
	<g>
		<path d="M114.939,371.292H73.143c-5.77,0-10.449,4.679-10.449,10.449v41.796c0,5.77,4.679,10.449,10.449,10.449h41.796
			c5.77,0,10.449-4.679,10.449-10.449v-41.796C125.388,375.971,120.709,371.292,114.939,371.292z M104.49,413.088H83.592V392.19
			h20.898V413.088z"/>
	</g>
</g>
<g>
	<g>
		<path d="M219.429,371.292h-41.796c-5.77,0-10.449,4.679-10.449,10.449v41.796c0,5.77,4.679,10.449,10.449,10.449h41.796
			c5.77,0,10.449-4.679,10.449-10.449v-41.796C229.878,375.971,225.199,371.292,219.429,371.292z M208.98,413.088h-20.898V392.19
			h20.898V413.088z"/>
	</g>
</g>
<g>
	<g>
		<path d="M323.918,371.292h-41.796c-5.77,0-10.449,4.679-10.449,10.449v41.796c0,5.77,4.679,10.449,10.449,10.449h41.796
			c5.77,0,10.449-4.679,10.449-10.449v-41.796C334.367,375.971,329.689,371.292,323.918,371.292z M313.469,413.088h-20.898V392.19
			h20.898V413.088z"/>
	</g>
</g>
<g>
	<g>
		<path d="M428.408,371.292h-41.796c-5.77,0-10.449,4.679-10.449,10.449v41.796c0,5.77,4.679,10.449,10.449,10.449h41.796
			c5.77,0,10.449-4.679,10.449-10.449v-41.796C438.857,375.971,434.179,371.292,428.408,371.292z M417.959,413.088h-20.898V392.19
			h20.898V413.088z"/>
	</g>
</g>
<g>
</g>
<g>
</g>
<g>
</g>
<g>
</g>
<g>
</g>
<g>
</g>
<g>
</g>
<g>
</g>
<g>
</g>
<g>
</g>
<g>
</g>
<g>
</g>
<g>
</g>
<g>
</g>
<g>
</g>
</svg>
