<?xml version="1.0" encoding="iso-8859-1"?>
<!-- Generator: Adobe Illustrator 19.0.0, SVG Export Plug-In . SVG Version: 6.00 Build 0)  -->
<svg version="1.1" id="Layer_1" xmlns="http://www.w3.org/2000/svg" xmlns:xlink="http://www.w3.org/1999/xlink" x="0px" y="0px"
	 viewBox="0 0 512 512" style="enable-background:new 0 0 512 512;" xml:space="preserve">
<g>
	<g>
		<path d="M488.552,29.597h-87.831V9.648c0-5.333-4.32-9.648-9.648-9.648s-9.648,4.315-9.648,9.648v19.949h-250.85V9.648
			c0-5.333-4.32-9.648-9.648-9.648c-5.328,0-9.648,4.315-9.648,9.648v19.949H25.445c-5.328,0-10.647,3.663-10.647,8.996v86.833
			V250.85v125.425V501.7c0,5.333,5.319,10.301,10.647,10.301h154.369h154.369h154.369c5.328,0,8.649-4.968,8.649-10.301V376.275
			V250.85V125.425V38.592C497.202,33.26,493.88,29.597,488.552,29.597z M169.167,492.704H34.094V386.575h135.073V492.704z
			 M169.167,367.279H34.094V261.15h135.073V367.279z M169.167,241.854H34.094V135.725h135.073V241.854z M323.537,492.704H188.464
			V386.575h135.073V492.704z M323.537,367.279H188.464V261.15h135.073V367.279z M323.537,241.854H188.464V135.725h135.073V241.854z
			 M477.906,492.704H342.833V386.575h135.073V492.704z M477.906,367.279H342.833V261.15h135.073V367.279z M477.906,241.854H342.833
			V135.725h135.073V241.854z M477.906,116.429H334.183H179.814H34.094V48.893h77.185v18.644c0,5.333,4.32,9.648,9.648,9.648
			c5.328,0,9.648-4.315,9.648-9.648V48.893h250.85v18.644c0,5.333,4.32,9.648,9.648,9.648s9.648-4.315,9.648-9.648V48.893h77.185
			V116.429z"/>
	</g>
</g>
<g>
	<g>
		<path d="M430.179,313.906l27.29-27.291c3.769-3.769,3.769-9.874,0-13.643c-3.769-3.769-9.874-3.769-13.643,0l-27.291,27.291
			l-27.291-27.291c-3.769-3.769-9.874-3.769-13.643,0c-3.769,3.769-3.769,9.874,0,13.643l27.291,27.291l-27.291,27.291
			c-3.769,3.769-3.769,9.874,0,13.643c1.885,1.884,4.353,2.826,6.822,2.826c2.469,0,4.937-0.942,6.821-2.826l27.291-27.291
			l27.291,27.291c1.884,1.884,4.353,2.826,6.821,2.826c2.469,0,4.937-0.942,6.821-2.826c3.769-3.769,3.769-9.874,0-13.643
			L430.179,313.906z"/>
	</g>
</g>
<g>
</g>
<g>
</g>
<g>
</g>
<g>
</g>
<g>
</g>
<g>
</g>
<g>
</g>
<g>
</g>
<g>
</g>
<g>
</g>
<g>
</g>
<g>
</g>
<g>
</g>
<g>
</g>
<g>
</g>
</svg>
