<?xml version="1.0" encoding="iso-8859-1"?>
<!-- Generator: Adobe Illustrator 19.0.0, SVG Export Plug-In . SVG Version: 6.00 Build 0)  -->
<svg version="1.1" id="Layer_1" xmlns="http://www.w3.org/2000/svg" xmlns:xlink="http://www.w3.org/1999/xlink" x="0px" y="0px"
	 viewBox="0 0 512 512" style="enable-background:new 0 0 512 512;" xml:space="preserve">
<g>
	<g>
		<path d="M471.357,15.673H42.816C19.806,15.673,0,33.753,0,56.834v396.918c0,23.082,19.806,42.574,42.816,42.574h428.541
			c23.01,0,40.643-19.492,40.643-42.574V56.834C512,33.753,494.367,15.673,471.357,15.673z M491.102,453.752
			c0,11.561-8.265,21.676-19.745,21.676H42.816c-11.49,0-21.918-10.115-21.918-21.676V141.061h470.204V453.752z M491.102,120.163
			H20.898V56.834c0-11.561,10.429-20.263,21.918-20.263h428.541c11.48,0,19.745,8.702,19.745,20.263V120.163z"/>
	</g>
</g>
<g>
	<g>
		<path d="M338.916,216.816c-3.102,13.061-7.273,21.995-13.554,25.627c-6.291,3.633-17.117,6.074-32.791,7.628v16.377h39.184
			v125.388h23.51v-175.02H338.916z"/>
	</g>
</g>
<g>
	<g>
		<path d="M175.944,346.995c4.566-4.003,10.857-8.36,18.852-12.771l16.781-9.383c14.776-8.245,25.015-15.304,30.73-21.099
			c9.875-9.962,14.816-21.98,14.816-36.021c0-13.306-4.63-25.398-13.898-36.255c-9.268-10.857-23.939-16.291-44.021-16.291
			c-24.158,0-41.023,7.944-50.574,24.923c-5.38,9.633-8.202,23.737-8.441,36.798h22.401c0.324-10.449,2.049-18.801,5.14-24.923
			c5.801-11.429,16.25-16.872,31.347-16.872c10.212,0,18.37,3.138,24.495,9.138c6.123,6,9.184,14.169,9.184,24.375
			c0,8.732-3.342,16.523-10.041,23.298c-4.242,4.327-11.63,9.569-22.163,15.691l-23.51,13.599
			c-15.758,9.143-26.342,19.663-31.775,30.847c-5.424,11.184-8.546,24.112-9.362,39.786H256v-20.898h-95.49
			C162.633,360.49,167.773,354.094,175.944,346.995z"/>
	</g>
</g>
<g>
</g>
<g>
</g>
<g>
</g>
<g>
</g>
<g>
</g>
<g>
</g>
<g>
</g>
<g>
</g>
<g>
</g>
<g>
</g>
<g>
</g>
<g>
</g>
<g>
</g>
<g>
</g>
<g>
</g>
</svg>
