<?xml version="1.0" encoding="iso-8859-1"?>
<!-- Generator: Adobe Illustrator 19.0.0, SVG Export Plug-In . SVG Version: 6.00 Build 0)  -->
<svg version="1.1" id="Layer_1" xmlns="http://www.w3.org/2000/svg" xmlns:xlink="http://www.w3.org/1999/xlink" x="0px" y="0px"
	 viewBox="0 0 512 512" style="enable-background:new 0 0 512 512;" xml:space="preserve">
<g>
	<g>
		<path d="M481.28,82.926V71.324c0-11.29-8.1-19.778-19.35-19.778h-83.05V40.614c0-5.66-4.58-10.24-10.24-10.24
			c-5.66,0-10.24,4.58-10.24,10.24v10.932H153.6V40.614c0-5.66-4.58-10.24-10.24-10.24s-10.24,4.58-10.24,10.24v10.932H62.43
			c-11.25,0-21.47,8.487-21.47,19.778v10.253C20.48,81.591,0,99.944,0,122.504v317.51c0,22.56,19.45,41.613,42.05,41.613h430.02
			c22.6,0,39.93-19.053,39.93-41.613v-317.51C512,103.481,499.2,87.496,481.28,82.926z M378.88,72.026h81.92v10.24h-81.92V72.026z
			 M153.6,71.331l204.8-0.005v10.94H153.6V71.331z M61.44,72.026h71.68v10.24H61.44V72.026z M491.52,440.014
			c0,11.27-8.14,21.133-19.45,21.133H42.05c-11.31,0-21.57-9.862-21.57-21.133v-317.51c0-11.28,10.26-19.758,21.57-19.758h10.21
			h80.86v30.028c0,5.66,4.58,10.24,10.24,10.24s10.24-4.58,10.24-10.24v-30.028h204.8v30.028c0,5.66,4.58,10.24,10.24,10.24
			c5.66,0,10.24-4.58,10.24-10.24v-30.028h93.19c11.31,0,19.45,8.477,19.45,19.758V440.014z"/>
	</g>
</g>
<g>
	<g>
		<path d="M141.42,217.694l-20.48-20.48c-4-4-10.48-4-14.48,0s-4,10.48,0,14.48l20.48,20.48c2,2,4.62,3,7.24,3c2.62,0,5.24-1,7.24-3
			C145.42,228.174,145.42,221.694,141.42,217.694z"/>
	</g>
</g>
<g>
	<g>
		<path d="M233.58,217.694l-20.48-20.48c-4-4-10.48-4-14.48,0s-4,10.48,0,14.48l20.48,20.48c2,2,4.62,3,7.24,3c2.62,0,5.24-1,7.24-3
			C237.58,228.174,237.58,221.694,233.58,217.694z"/>
	</g>
</g>
<g>
	<g>
		<path d="M325.74,217.694l-20.48-20.48c-4-4-10.48-4-14.48,0s-4,10.48,0,14.48l20.48,20.48c2,2,4.62,3,7.24,3c2.62,0,5.24-1,7.24-3
			C329.74,228.174,329.74,221.694,325.74,217.694z"/>
	</g>
</g>
<g>
	<g>
		<path d="M417.9,217.694l-20.48-20.48c-4-4-10.48-4-14.48,0s-4,10.48,0,14.48l20.48,20.48c2,2,4.62,3,7.24,3c2.62,0,5.24-1,7.24-3
			C421.9,228.174,421.9,221.694,417.9,217.694z"/>
	</g>
</g>
<g>
	<g>
		<path d="M141.42,299.614l-20.48-20.48c-4-4-10.48-4-14.48,0s-4,10.48,0,14.48l20.48,20.48c2,2,4.62,3,7.24,3c2.62,0,5.24-1,7.24-3
			C145.42,310.094,145.42,303.614,141.42,299.614z"/>
	</g>
</g>
<g>
	<g>
		<path d="M233.58,299.614l-20.48-20.48c-4-4-10.48-4-14.48,0s-4,10.48,0,14.48l20.48,20.48c2,2,4.62,3,7.24,3c2.62,0,5.24-1,7.24-3
			C237.58,310.094,237.58,303.614,233.58,299.614z"/>
	</g>
</g>
<g>
	<g>
		<path d="M325.74,299.614l-20.48-20.48c-4-4-10.48-4-14.48,0s-4,10.48,0,14.48l20.48,20.48c2,2,4.62,3,7.24,3c2.62,0,5.24-1,7.24-3
			C329.74,310.094,329.74,303.614,325.74,299.614z"/>
	</g>
</g>
<g>
	<g>
		<path d="M417.9,299.614l-20.48-20.48c-4-4-10.48-4-14.48,0s-4,10.48,0,14.48l20.48,20.48c2,2,4.62,3,7.24,3c2.62,0,5.24-1,7.24-3
			C421.9,310.094,421.9,303.614,417.9,299.614z"/>
	</g>
</g>
<g>
	<g>
		<path d="M141.42,381.534l-20.48-20.48c-4-4-10.48-4-14.48,0s-4,10.48,0,14.48l20.48,20.48c2,2,4.62,3,7.24,3c2.62,0,5.24-1,7.24-3
			C145.42,392.014,145.42,385.534,141.42,381.534z"/>
	</g>
</g>
<g>
	<g>
		<path d="M233.58,381.534l-20.48-20.48c-4-4-10.48-4-14.48,0s-4,10.48,0,14.48l20.48,20.48c2,2,4.62,3,7.24,3c2.62,0,5.24-1,7.24-3
			C237.58,392.014,237.58,385.534,233.58,381.534z"/>
	</g>
</g>
<g>
	<g>
		<path d="M325.74,381.534l-20.48-20.48c-4-4-10.48-4-14.48,0s-4,10.48,0,14.48l20.48,20.48c2,2,4.62,3,7.24,3c2.62,0,5.24-1,7.24-3
			C329.74,392.014,329.74,385.534,325.74,381.534z"/>
	</g>
</g>
<g>
	<g>
		<path d="M417.9,381.534l-20.48-20.48c-4-4-10.48-4-14.48,0s-4,10.48,0,14.48l20.48,20.48c2,2,4.62,3,7.24,3c2.62,0,5.24-1,7.24-3
			C421.9,392.014,421.9,385.534,417.9,381.534z"/>
	</g>
</g>
<g>
</g>
<g>
</g>
<g>
</g>
<g>
</g>
<g>
</g>
<g>
</g>
<g>
</g>
<g>
</g>
<g>
</g>
<g>
</g>
<g>
</g>
<g>
</g>
<g>
</g>
<g>
</g>
<g>
</g>
</svg>
