<?xml version="1.0" encoding="iso-8859-1"?>
<!-- Generator: Adobe Illustrator 19.0.0, SVG Export Plug-In . SVG Version: 6.00 Build 0)  -->
<svg version="1.1" id="Layer_1" xmlns="http://www.w3.org/2000/svg" xmlns:xlink="http://www.w3.org/1999/xlink" x="0px" y="0px"
	 viewBox="0 0 512 512" style="enable-background:new 0 0 512 512;" xml:space="preserve">
<g>
	<g>
		<path d="M510.707,498.091l-85.187-136.442c-3.12-4.975-11.33-4.975-14.45,0l-85.186,136.298c-1.639,2.631-1.726,6.229-0.225,8.932
			c1.502,2.712,4.351,4.68,7.45,4.68h170.373c3.099,0,5.948-1.967,7.45-4.68C512.433,504.176,512.346,500.72,510.707,498.091z
			 M348.479,494.522l69.817-111.707l69.817,111.707H348.479z"/>
	</g>
</g>
<g>
	<g>
		<path d="M417.414,400.241c-4.704,0-8.519,3.81-8.519,8.519v42.593c0,4.708,3.814,8.519,8.519,8.519s8.519-3.81,8.519-8.519V408.76
			C425.932,404.051,422.118,400.241,417.414,400.241z"/>
	</g>
</g>
<g>
	<g>
		<path d="M424.306,470.861c-0.765-0.765-1.701-1.364-2.724-1.789c-2.13-0.932-4.43-0.932-6.559,0
			c-1.023,0.424-1.959,1.023-2.724,1.789c-1.618,1.622-2.558,3.835-2.558,6.048c0,1.106,0.258,2.221,0.682,3.236
			c0.429,1.023,1.023,1.963,1.876,2.812c0.765,0.768,1.701,1.365,2.724,1.789c1.023,0.432,2.13,0.682,3.236,0.682
			c1.194,0,2.3-0.25,3.323-0.682c1.023-0.424,1.959-1.021,2.724-1.789c0.853-0.848,1.452-1.788,1.876-2.812
			c0.424-1.015,0.595-2.13,0.595-3.236C426.777,474.696,425.928,472.483,424.306,470.861z"/>
	</g>
</g>
<g>
	<g>
		<path d="M503.482,0.441H9.4C4.696,0.441,0,3.675,0,8.383v119.261v374.821c0,4.708,4.696,9.095,9.401,9.095h272.597
			c4.704,0,8.519-3.81,8.519-8.519s-3.814-8.519-8.519-8.519H17.037V136.739h477.044v220.909c0,4.708,3.814,8.519,8.519,8.519
			c4.704,0,8.519-3.81,8.519-8.519V127.644V8.383C511.119,3.675,508.186,0.441,503.482,0.441z M494.082,119.702H17.037V17.478
			h477.044V119.702z"/>
	</g>
</g>
<g>
	<g>
		<path d="M443.852,307.112h-69.031v-59.631h69.031c4.704,0,8.519-3.81,8.519-8.519c0-4.708-3.814-8.519-8.519-8.519h-69.031
			v-68.725c0-4.708-3.814-8.519-8.519-8.519c-4.704,0-8.519,3.81-8.519,8.519v68.725h-59.631v-68.725
			c0-4.708-3.814-8.519-8.519-8.519s-8.519,3.81-8.519,8.519v68.725h-59.631v-68.725c0-4.708-3.814-8.519-8.519-8.519
			s-8.519,3.81-8.519,8.519v68.725h-59.63v-68.725c0-4.708-3.814-8.519-8.519-8.519s-8.519,3.81-8.519,8.519v68.725H60.512
			c-4.704,0-8.519,3.81-8.519,8.519c0,4.708,3.814,8.519,8.519,8.519h67.267v59.631H60.512c-4.704,0-8.519,3.81-8.519,8.519
			s3.814,8.519,8.519,8.519h67.267v59.631H60.512c-4.704,0-8.519,3.81-8.519,8.519c0,4.708,3.814,8.519,8.519,8.519h67.267v67.69
			c0,4.708,3.814,8.519,8.519,8.519s8.519-3.81,8.519-8.519v-67.69h59.63v67.69c0,4.708,3.814,8.519,8.519,8.519
			s8.519-3.81,8.519-8.519v-67.69h59.631v67.69c0,4.708,3.814,8.519,8.519,8.519s8.519-3.81,8.519-8.519V324.149h145.699
			c4.704,0,8.519-3.81,8.519-8.519S448.556,307.112,443.852,307.112z M204.448,383.78h-59.63v-59.631h59.63V383.78z
			 M204.448,307.112h-59.63v-59.631h59.63V307.112z M281.115,383.78h-59.631v-59.631h59.631V383.78z M281.115,307.112h-59.631
			v-59.631h59.631V307.112z M357.783,307.112h-59.631v-59.631h59.631V307.112z"/>
	</g>
</g>
<g>
</g>
<g>
</g>
<g>
</g>
<g>
</g>
<g>
</g>
<g>
</g>
<g>
</g>
<g>
</g>
<g>
</g>
<g>
</g>
<g>
</g>
<g>
</g>
<g>
</g>
<g>
</g>
<g>
</g>
</svg>
