<?xml version="1.0" encoding="iso-8859-1"?>
<!-- Generator: Adobe Illustrator 19.0.0, SVG Export Plug-In . SVG Version: 6.00 Build 0)  -->
<svg version="1.1" id="Layer_1" xmlns="http://www.w3.org/2000/svg" xmlns:xlink="http://www.w3.org/1999/xlink" x="0px" y="0px"
	 viewBox="0 0 512 512" style="enable-background:new 0 0 512 512;" xml:space="preserve">
<g>
	<g>
		<path d="M485.524,441.165l23.991-23.987c3.313-3.313,3.313-8.68,0-11.993l-23.991-23.995c-3.181-3.181-8.813-3.181-11.993,0
			l-23.991,23.995l-23.987-23.995c-3.18-3.181-8.813-3.181-11.993,0l-23.991,23.995c-3.313,3.313-3.313,8.68,0,11.993l23.991,23.987
			L389.57,465.16c-1.59,1.59-2.485,3.744-2.485,5.997s0.895,4.406,2.485,5.997l23.991,23.987c1.59,1.59,3.748,2.485,5.997,2.485
			c2.249,0,4.406-0.895,5.997-2.485l23.987-23.995l23.991,23.995c3.313,3.313,8.68,3.313,11.993,0l23.991-23.987
			c1.59-1.59,2.485-3.744,2.485-5.997s-0.894-4.406-2.485-5.997L485.524,441.165z M479.528,483.149l-23.991-23.995
			c-1.59-1.59-3.748-2.485-5.997-2.485c-2.249,0-4.406,0.895-5.997,2.485l-23.987,23.995l-11.997-11.993l23.991-23.995
			c1.59-1.59,2.485-3.744,2.485-5.997c0-2.253-0.895-4.406-2.485-5.997l-23.991-23.987l11.997-12.001l23.987,23.997
			c1.59,1.59,3.748,2.482,5.997,2.482c2.249,0,4.406-0.892,5.997-2.482l23.991-23.997l11.997,12.001l-23.991,23.987
			c-1.59,1.59-2.485,3.744-2.485,5.997c0,2.253,0.894,4.406,2.485,5.997l23.991,23.995L479.528,483.149z"/>
	</g>
</g>
<g>
	<g>
		<path d="M501.282,1.557H9.359C4.676,1.557,0,4.777,0,9.465v118.74v373.183c0,4.688,4.676,9.055,9.359,9.055h339.257
			c4.684,0,8.481-3.794,8.481-8.481c0-4.688-3.798-8.481-8.481-8.481H16.963V137.26h474.96v219.944c0,4.688,3.798,8.481,8.481,8.481
			c4.684,0,8.481-3.794,8.481-8.481V128.205V9.465C508.886,4.777,505.966,1.557,501.282,1.557z M491.923,120.297H16.963V18.52
			h474.96V120.297z"/>
	</g>
</g>
<g>
	<g>
		<path d="M441.912,306.889h-68.729v-59.37h68.729c4.684,0,8.481-3.794,8.481-8.481c0-4.688-3.798-8.481-8.481-8.481h-68.729
			v-68.425c0-4.688-3.798-8.481-8.481-8.481c-4.684,0-8.481,3.794-8.481,8.481v68.425h-59.37v-68.425
			c0-4.688-3.798-8.481-8.481-8.481c-4.684,0-8.481,3.794-8.481,8.481v68.425h-59.37v-68.425c0-4.688-3.798-8.481-8.481-8.481
			c-4.684,0-8.481,3.794-8.481,8.481v68.425h-59.37v-68.425c0-4.688-3.798-8.481-8.481-8.481c-4.684,0-8.481,3.794-8.481,8.481
			v68.425H60.248c-4.684,0-8.481,3.794-8.481,8.481c0,4.688,3.798,8.481,8.481,8.481h66.973v59.37H60.248
			c-4.684,0-8.481,3.794-8.481,8.481s3.798,8.481,8.481,8.481h66.973v59.37H60.248c-4.684,0-8.481,3.794-8.481,8.481
			c0,4.688,3.798,8.481,8.481,8.481h66.973v67.394c0,4.688,3.798,8.481,8.481,8.481c4.684,0,8.481-3.794,8.481-8.481v-67.394h59.37
			v67.394c0,4.688,3.798,8.481,8.481,8.481c4.684,0,8.481-3.794,8.481-8.481v-67.394h59.37v67.394c0,4.688,3.798,8.481,8.481,8.481
			c4.684,0,8.481-3.794,8.481-8.481V323.851h145.062c4.684,0,8.481-3.794,8.481-8.481S446.596,306.889,441.912,306.889z
			 M203.554,383.221h-59.37v-59.37h59.37V383.221z M203.554,306.889h-59.37v-59.37h59.37V306.889z M279.887,383.221h-59.37v-59.37
			h59.37V383.221z M279.887,306.889h-59.37v-59.37h59.37V306.889z M356.22,306.889h-59.37v-59.37h59.37V306.889z"/>
	</g>
</g>
<g>
</g>
<g>
</g>
<g>
</g>
<g>
</g>
<g>
</g>
<g>
</g>
<g>
</g>
<g>
</g>
<g>
</g>
<g>
</g>
<g>
</g>
<g>
</g>
<g>
</g>
<g>
</g>
<g>
</g>
</svg>
