<?xml version="1.0" encoding="iso-8859-1"?>
<!-- Generator: Adobe Illustrator 19.0.0, SVG Export Plug-In . SVG Version: 6.00 Build 0)  -->
<svg version="1.1" id="Layer_1" xmlns="http://www.w3.org/2000/svg" xmlns:xlink="http://www.w3.org/1999/xlink" x="0px" y="0px"
	 viewBox="0 0 512 512" style="enable-background:new 0 0 512 512;" xml:space="preserve">
<g>
	<g>
		<path d="M11.3,10.24C5.645,10.24,0,14.128,0,19.788V81.92h20.48v-51.2h51.2V10.24H11.3z"/>
	</g>
</g>
<g>
	<g>
		<path d="M502.82,10.24h-62.5v20.48h51.2v51.2H512V19.788C512,14.128,508.475,10.24,502.82,10.24z"/>
	</g>
</g>
<g>
	<g>
		<path d="M20.48,481.28v-51.2H0v60.747c0,5.66,5.645,10.932,11.3,10.932h60.38v-20.48H20.48z"/>
	</g>
</g>
<g>
	<g>
		<path d="M491.52,430.08v51.2h-51.2v20.48h62.5c5.655,0,9.18-5.273,9.18-10.932V430.08H491.52z"/>
	</g>
</g>
<g>
	<g>
		<rect x="194.56" y="481.28" width="122.88" height="20.48"/>
	</g>
</g>
<g>
	<g>
		<rect x="491.52" y="194.56" width="20.48" height="122.88"/>
	</g>
</g>
<g>
	<g>
		<rect y="194.56" width="20.48" height="122.88"/>
	</g>
</g>
<g>
	<g>
		<rect x="194.56" y="10.24" width="122.88" height="20.48"/>
	</g>
</g>
<g>
	<g>
		<polygon points="373.94,163.148 359.46,148.667 262.18,245.947 164.9,148.667 150.42,163.148 247.7,260.427 150.42,357.708 
			164.9,372.187 262.18,274.907 359.46,372.187 373.94,357.708 276.66,260.427 		"/>
	</g>
</g>
<g>
</g>
<g>
</g>
<g>
</g>
<g>
</g>
<g>
</g>
<g>
</g>
<g>
</g>
<g>
</g>
<g>
</g>
<g>
</g>
<g>
</g>
<g>
</g>
<g>
</g>
<g>
</g>
<g>
</g>
</svg>
