<?xml version="1.0" encoding="iso-8859-1"?>
<!-- Generator: Adobe Illustrator 19.0.0, SVG Export Plug-In . SVG Version: 6.00 Build 0)  -->
<svg version="1.1" id="Layer_1" xmlns="http://www.w3.org/2000/svg" xmlns:xlink="http://www.w3.org/1999/xlink" x="0px" y="0px"
	 viewBox="0 0 512 512" style="enable-background:new 0 0 512 512;" xml:space="preserve">
<g>
	<g>
		<path d="M11.3,10.24C5.645,10.24,0,14.128,0,19.788V81.92h20.48v-51.2h51.2V10.24H11.3z"/>
	</g>
</g>
<g>
	<g>
		<path d="M502.82,10.24h-62.5v20.48h51.2v51.2H512V19.788C512,14.128,508.475,10.24,502.82,10.24z"/>
	</g>
</g>
<g>
	<g>
		<path d="M20.48,481.28v-51.2H0v60.747c0,5.66,5.645,10.932,11.3,10.932h60.38v-20.48H20.48z"/>
	</g>
</g>
<g>
	<g>
		<path d="M491.52,430.08v51.2h-51.2v20.48h62.5c5.655,0,9.18-5.273,9.18-10.932V430.08H491.52z"/>
	</g>
</g>
<g>
	<g>
		<rect x="194.56" y="481.28" width="122.88" height="20.48"/>
	</g>
</g>
<g>
	<g>
		<rect x="491.52" y="194.56" width="20.48" height="122.88"/>
	</g>
</g>
<g>
	<g>
		<rect y="194.56" width="20.48" height="122.88"/>
	</g>
</g>
<g>
	<g>
		<rect x="194.56" y="10.24" width="122.88" height="20.48"/>
	</g>
</g>
<g>
	<g>
		<path d="M364.54,144.017c-4.895-2.82-11.16-1.1-13.97,3.81l-116.62,204.08l-82.725-73.53c-4.235-3.77-10.705-3.39-14.46,0.85
			c-3.755,4.22-3.375,10.7,0.85,14.45l92.16,81.92c1.89,1.68,4.315,2.59,6.805,2.59c0.55,0,1.105-0.04,1.655-0.128
			c3.045-0.503,5.705-2.353,7.235-5.032l122.88-215.04C371.155,153.078,369.45,146.828,364.54,144.017z"/>
	</g>
</g>
<g>
</g>
<g>
</g>
<g>
</g>
<g>
</g>
<g>
</g>
<g>
</g>
<g>
</g>
<g>
</g>
<g>
</g>
<g>
</g>
<g>
</g>
<g>
</g>
<g>
</g>
<g>
</g>
<g>
</g>
</svg>
