<?xml version="1.0" encoding="iso-8859-1"?>
<!-- Generator: Adobe Illustrator 19.0.0, SVG Export Plug-In . SVG Version: 6.00 Build 0)  -->
<svg version="1.1" id="Layer_1" xmlns="http://www.w3.org/2000/svg" xmlns:xlink="http://www.w3.org/1999/xlink" x="0px" y="0px"
	 viewBox="0 0 512 512" style="enable-background:new 0 0 512 512;" xml:space="preserve">
<g>
	<g>
		<path fill="white" d="M469.5,0H44.755C20.697,0,0,18.838,0,42.891v424.745C0,491.689,20.697,512,44.755,512H469.5
			c24.059,0,42.5-20.311,42.5-44.364V42.891C512,18.838,493.558,0,469.5,0z M490.213,468.372c0,12.061-9.778,21.84-21.84,21.84
			H43.628c-12.063,0-21.84-9.779-21.84-21.84V43.628c0-12.061,9.778-21.84,21.84-21.84h424.745c12.063,0,21.84,9.779,21.84,21.84
			V468.372z"/>
	</g>
</g>
</svg>
