<?xml version="1.0" encoding="iso-8859-1"?>
<!-- Generator: Adobe Illustrator 19.0.0, SVG Export Plug-In . SVG Version: 6.00 Build 0)  -->
<svg version="1.1" id="Layer_1" xmlns="http://www.w3.org/2000/svg" xmlns:xlink="http://www.w3.org/1999/xlink" x="0px" y="0px"
	 viewBox="0 0 512 512" style="enable-background:new 0 0 512 512;" xml:space="preserve">
<g>
	<g>
		<path d="M394.481,128.633c-0.236-0.304-0.453-0.629-0.732-0.906c-0.279-0.281-0.592-0.504-0.897-0.738
			c-8.465-8.374-17.62-16.053-27.378-22.933l19.648-19.648l18.759,18.759c1.816,1.816,4.195,2.724,6.574,2.724
			c2.379,0,4.758-0.91,6.574-2.726l26.299-26.295c1.743-1.743,2.724-4.104,2.724-6.574c0-2.47-0.981-4.83-2.724-6.574
			l-48.576-48.577c-3.632-3.632-9.516-3.632-13.148,0L355.305,41.44c-1.743,1.743-2.724,4.104-2.724,6.576
			c0,2.467,0.981,4.828,2.724,6.572l16.67,16.673l-23.008,22.524c-28.952-16.782-60.907-26.962-98.097-28.485V55.266
			c23.244-2.445,37.672-13.397,37.672-27.373C288.542,11.994,268.798,0,242.294,0c-26.504,0-46.849,11.994-46.849,27.893
			c0,13.976,15.91,24.928,36.83,27.373v10.033c-32.542,1.421-63.651,10.36-91.167,25.155L122.152,71.26l16.794-16.673
			c1.743-1.743,2.784-4.104,2.784-6.572c0-2.472-0.95-4.833-2.693-6.576l-26.285-26.295c-3.632-3.632-9.509-3.632-13.139,0
			L51.035,63.722c-1.743,1.743-2.723,4.104-2.723,6.574c0,2.47,0.982,4.83,2.725,6.574l26.301,26.295
			c1.816,1.816,4.195,2.724,6.574,2.724c2.379,0,4.758-0.908,6.574-2.724l18.76-18.756l15.883,15.88
			c-11.85,7.815-22.882,16.77-32.933,26.717c-0.294,0.232-0.599,0.44-0.87,0.711c-0.27,0.27-0.479,0.574-0.709,0.869
			C52.355,167.242,28.689,220.37,28.689,278.93c0,58.56,23.666,111.69,61.927,150.347c0.23,0.293,0.439,0.597,0.709,0.867
			c0.27,0.27,0.576,0.479,0.87,0.71c38.657,38.258,91.785,61.922,150.34,61.922c22.313,0,44.309-3.423,65.374-10.178
			c4.889-1.571,7.345-6.801,5.775-11.695c-1.566-4.885-7.046-7.588-11.931-6.011c-16.295,5.225-32.288,8.242-50.883,9.046v-46.245
			c0-5.139-4.163-9.298-9.298-9.298c-5.135,0-9.298,4.159-9.298,9.298v46.252c-46.488-2.206-88.933-20.981-121.487-50.597
			l32.891-32.655c3.632-3.632,3.752-9.516,0.12-13.147s-9.455-3.632-13.087,0l-32.621,32.969
			C68.471,377.96,49.727,335.344,47.52,288.856h46.252c5.134,0,9.298-4.159,9.298-9.298s-4.163-9.298-9.298-9.298H47.52
			c2.208-46.488,20.981-89.731,50.602-122.286l32.651,32.496c1.816,1.816,4.195,2.647,6.574,2.647c2.379,0,4.758-0.949,6.574-2.765
			c3.632-3.632,3.632-9.534,0-13.165l-32.651-32.665c9.656-8.787,20.211-16.598,31.482-23.328c1.491-0.415,2.91-1.171,4.084-2.345
			c0.006-0.005-0.472-0.014-0.468-0.018c25.76-14.548,55.691-23.444,85.908-24.917v46.252c0,5.139,4.163,9.298,9.298,9.298
			c5.135,0,9.298-4.159,9.298-9.298V83.915c48.813,2.209,89.896,20.981,122.452,50.599l-32.408,32.653
			c-3.632,3.632-3.512,9.515,0.12,13.15c1.816,1.814,4.255,2.722,6.634,2.722c2.379,0,4.789-0.908,6.605-2.722l32.663-32.34
			c29.618,32.556,48.406,75.795,50.614,122.284h-46.252c-5.135,0-9.298,4.159-9.298,9.298s4.163,9.298,9.298,9.298h46.243
			c-0.685,13.946-2.96,28.733-6.842,42.725c-1.376,4.948,1.526,9.919,6.469,11.291c4.985,1.371,10.074-1.612,11.445-6.551
			c5.153-18.577,7.768-37.894,7.768-57.352C456.381,220.424,432.726,167.287,394.481,128.633z M388.178,34.866l35.429,35.429
			l-13.152,13.147l-35.429-35.427L388.178,34.866z M83.912,83.443L70.764,70.295l35.429-35.429l13.148,13.15L83.912,83.443z
			 M242.535,37.191c-18.001,0-27.893-6.982-27.893-9.298c0-2.315,9.892-9.298,27.893-9.298c18.001,0,27.893,6.982,27.893,9.298
			C270.428,30.208,260.535,37.191,242.535,37.191z"/>
	</g>
</g>
<g>
	<g>
		<path d="M339.361,261.17c-13.956-6.347-84.655-38.026-106.124-38.026c-25.632,0-46.488,20.856-46.488,46.488
			c0,25.632,20.856,46.488,46.488,46.488c21.469,0,92.168-31.679,106.124-38.026c3.319-1.507,5.448-4.821,5.448-8.462
			C344.809,265.991,342.68,262.677,339.361,261.17z M233.237,297.525c-15.381,0-27.893-12.512-27.893-27.893
			c0-15.381,12.512-27.893,27.893-27.893c10.991,0,48.908,14.809,79.284,27.893C282.145,282.716,244.228,297.525,233.237,297.525z"
			/>
	</g>
</g>
<g>
	<g>
		<path d="M474.976,409.726h-38.153v-37.819c0-5.139-3.201-8.669-8.335-8.669h-37.191c-5.135,0-10.26,3.53-10.26,8.669v37.819
			h-36.228c-5.135,0-10.26,3.53-10.26,8.669v37.191c0,5.139,5.126,9.926,10.26,9.926h36.228v36.562c0,5.139,5.126,9.926,10.26,9.926
			h37.191c5.134,0,8.335-4.787,8.335-9.926v-36.562h38.153c5.134,0,8.335-4.787,8.335-9.926v-37.191
			C483.311,413.256,480.111,409.726,474.976,409.726z M464.716,446.916h-36.228c-5.135,0-10.26,3.53-10.26,8.669v37.819h-18.595
			v-37.819c0-5.139-3.201-8.669-8.335-8.669h-38.153v-18.595h38.153c5.134,0,8.335-4.787,8.335-9.926v-36.562h18.595v36.562
			c0,5.139,5.126,9.926,10.26,9.926h36.228V446.916z"/>
	</g>
</g>
<g>
</g>
<g>
</g>
<g>
</g>
<g>
</g>
<g>
</g>
<g>
</g>
<g>
</g>
<g>
</g>
<g>
</g>
<g>
</g>
<g>
</g>
<g>
</g>
<g>
</g>
<g>
</g>
<g>
</g>
</svg>
