<?xml version="1.0" encoding="iso-8859-1"?>
<!-- Generator: Adobe Illustrator 19.0.0, SVG Export Plug-In . SVG Version: 6.00 Build 0)  -->
<svg version="1.1" id="Layer_1" xmlns="http://www.w3.org/2000/svg" xmlns:xlink="http://www.w3.org/1999/xlink" x="0px" y="0px"
	 viewBox="0 0 512 512" style="enable-background:new 0 0 512 512;" xml:space="preserve">
<g>
	<g>
		<path d="M256.5,125.585c-69.25,0-125.585,56.336-125.585,125.585c0,69.251,56.335,125.585,125.585,125.585
			c69.25,0,125.585-56.333,125.585-125.585C382.085,181.921,325.75,125.585,256.5,125.585z M256.5,357.434
			c-58.595,0-106.264-47.67-106.264-106.264c0-58.593,47.67-106.264,106.264-106.264c58.594,0,106.264,47.671,106.264,106.264
			C362.764,309.764,315.094,357.434,256.5,357.434z"/>
	</g>
</g>
<g>
	<g>
		<path d="M430.387,241.509c-5.335,0-9.66,4.327-9.66,9.66c0,90.558-74.17,164.226-164.727,164.226c-5.335,0-10.16,4.327-10.16,9.66
			v77.283c0,5.336,4.325,9.66,9.66,9.66c5.335,0,9.66-4.324,9.66-9.66v-67.871c96.604-5.047,174.387-85.331,174.387-183.298
			C439.547,245.836,435.722,241.509,430.387,241.509z"/>
	</g>
</g>
<g>
	<g>
		<path d="M255.5,0c-5.335,0-9.66,4.327-9.66,9.66v58.212C149.236,72.92,72.453,153.203,72.453,251.17c0,5.336,4.576,9.66,9.91,9.66
			c5.335,0,9.536-4.324,9.536-9.66c0-90.556,73.545-164.226,164.101-164.226c5.335,0,9.16-4.324,9.16-9.66V9.66
			C265.16,4.327,260.835,0,255.5,0z"/>
	</g>
</g>
<g>
</g>
<g>
</g>
<g>
</g>
<g>
</g>
<g>
</g>
<g>
</g>
<g>
</g>
<g>
</g>
<g>
</g>
<g>
</g>
<g>
</g>
<g>
</g>
<g>
</g>
<g>
</g>
<g>
</g>
</svg>
