<?xml version="1.0" encoding="iso-8859-1"?>
<!-- Generator: Adobe Illustrator 19.0.0, SVG Export Plug-In . SVG Version: 6.00 Build 0)  -->
<svg version="1.1" id="Layer_1" xmlns="http://www.w3.org/2000/svg" xmlns:xlink="http://www.w3.org/1999/xlink" x="0px" y="0px"
	 viewBox="0 0 512 512" style="enable-background:new 0 0 512 512;" xml:space="preserve">
<g>
	<g>
		<path d="M437.874,76.03c-0.269-0.359-0.529-0.722-0.855-1.049c-0.326-0.326-0.689-0.586-1.046-0.854
			C389.694,28.329,326.096,0,256,0C185.904,0,122.305,28.329,76.028,74.127c-0.358,0.268-0.72,0.528-1.046,0.854
			s-0.587,0.69-0.855,1.049C28.327,122.305,0,185.905,0,256c0,70.097,28.327,133.694,74.126,179.972
			c0.269,0.359,0.529,0.72,0.855,1.046s0.689,0.588,1.046,0.856C122.305,483.674,185.904,512,256,512
			c70.096,0,133.694-28.326,179.972-74.125c0.358-0.269,0.72-0.53,1.046-0.856c0.326-0.326,0.587-0.688,0.855-1.046
			C483.671,389.694,512,326.097,512,256C512,185.905,483.671,122.305,437.874,76.03z M430.093,417.007l-40.005-40.322
			c-3.704-3.704-9.704-3.704-13.407,0c-3.704,3.704-3.704,9.704,0,13.407l39.514,40.002
			c-40.105,37.042-92.435,60.435-151.694,62.736v-56.683c0-5.241-4.245-9.481-9.482-9.481s-9.482,4.241-9.482,9.481v56.683
			c-56.889-2.301-110.608-25.695-150.713-62.736l40.25-40.002c3.704-3.704,3.826-9.704,0.123-13.407
			c-3.704-3.704-9.642-3.704-13.346,0l-39.973,40.322c-37.044-40.106-60.405-93.995-62.708-150.884h56.683
			c5.236,0,9.481-4.241,9.481-9.481c0-5.241-4.246-9.482-9.481-9.482H19.169C21.472,187.9,44.863,135.741,81.907,95.637
			l40.005,39.847c1.852,1.852,4.278,2.699,6.704,2.699c2.426,0,4.852-0.968,6.704-2.82c3.704-3.701,3.704-9.722,0-13.426
			L94.824,81.919c40.104-37.046,93.824-60.447,150.713-62.75v56.683c0,5.241,4.245,9.481,9.481,9.481s9.482-4.241,9.482-9.481
			V19.169c59.259,2.303,111.59,25.695,151.694,62.741l-39.759,40.007c-3.704,3.704-3.581,9.704,0.123,13.407
			c1.852,1.852,4.339,2.778,6.765,2.778c2.426,0,4.883-0.926,6.735-2.778l40.02-39.687c37.044,40.104,60.45,92.264,62.753,151.523
			h-56.683c-5.236,0-9.481,4.241-9.481,9.481s4.245,9.482,9.481,9.482h56.683C490.528,323.012,467.136,376.901,430.093,417.007z"/>
	</g>
</g>
<g>
	<g>
		<path d="M264.5,219.322v-86.581c0-5.241-4.245-9.481-9.482-9.481s-9.482,4.241-9.482,9.481v86.581
			c-11.852,3.44-22.774,13.616-26.215,27.838h-39.173c-5.236,0-9.481,4.241-9.481,9.481s4.245,9.482,9.481,9.482h39.173
			c4.227,16.593,19.044,28.125,36.678,28.125c20.912,0,37.435-17.171,37.435-38.088C293.435,238.523,281.093,223.549,264.5,219.322z
			 M256,274.963c-10.458,0-18.963-8.509-18.963-18.963c0-10.454,8.505-18.963,18.963-18.963s18.963,8.509,18.963,18.963
			C274.963,266.454,266.458,274.963,256,274.963z"/>
	</g>
</g>
<g>
</g>
<g>
</g>
<g>
</g>
<g>
</g>
<g>
</g>
<g>
</g>
<g>
</g>
<g>
</g>
<g>
</g>
<g>
</g>
<g>
</g>
<g>
</g>
<g>
</g>
<g>
</g>
<g>
</g>
</svg>
