<?xml version="1.0" encoding="iso-8859-1"?>
<!-- Generator: Adobe Illustrator 19.0.0, SVG Export Plug-In . SVG Version: 6.00 Build 0)  -->
<svg version="1.1" id="Layer_1" xmlns="http://www.w3.org/2000/svg" xmlns:xlink="http://www.w3.org/1999/xlink" x="0px" y="0px"
	 viewBox="0 0 512 512" style="enable-background:new 0 0 512 512;" xml:space="preserve">
<g>
	<g>
		<path d="M422.237,73.331c-0.259-0.344-0.511-0.705-0.826-1.018c-0.315-0.315-0.665-0.571-1.009-0.83
			C375.777,27.32,314.449,0.001,246.857,0.001c-67.594,0-128.92,27.317-173.545,71.478c-0.344,0.259-0.694,0.511-1.009,0.826
			c-0.315,0.312-0.567,0.663-0.826,1.009C27.317,117.936,0,179.264,0,246.856c0,67.594,27.317,128.92,71.477,173.545
			c0.259,0.346,0.511,0.694,0.826,1.009c0.315,0.315,0.665,0.567,1.009,0.826c44.625,44.163,105.951,71.478,173.545,71.478
			c30.241,0,59.794-5.411,87.83-16.08c4.723-1.794,6.853-7.08,5.058-11.794c-1.795-4.723-7.29-7.096-12.031-5.295
			c-23.123,8.797-47.518,13.707-72.661,14.681V420.57c0-5.054-4.089-9.143-9.143-9.143s-9.143,4.089-9.143,9.143v54.659
			c-54.857-2.219-106.656-24.777-145.33-60.496l38.817-38.574c3.571-3.571,3.69-9.357,0.118-12.928
			c-3.571-3.571-9.297-3.571-12.868,0l-38.551,38.882c-35.721-38.674-58.248-90.638-60.469-145.495h54.659
			c5.053,0,9.143-4.089,9.143-9.143s-4.089-9.143-9.143-9.143H18.484c2.221-57.143,24.777-107.44,60.498-146.112l38.58,38.424
			c1.786,1.786,4.125,2.603,6.464,2.603c2.339,0,4.679-0.933,6.464-2.719c3.571-3.569,3.571-9.375,0-12.946L91.438,78.992
			c38.672-35.723,90.473-58.288,145.33-60.509v54.659c0,5.053,4.089,9.143,9.143,9.143s9.143-4.089,9.143-9.143V18.483
			c57.143,2.221,107.605,24.777,146.277,60.5l-38.335,38.578c-3.571,3.571-3.453,9.357,0.118,12.928
			c1.786,1.786,4.183,2.679,6.525,2.679c2.339,0,4.707-0.893,6.493-2.679l38.587-38.27c35.721,38.674,58.29,88.969,60.511,146.112
			h-54.658c-5.054,0-9.143,4.089-9.143,9.143s4.089,9.143,9.143,9.143h54.663c-1.062,27.429-6.864,53.406-17.324,78.478
			c-1.946,4.661,0.259,9.853,4.92,11.799c4.643,1.928,10.009-0.335,11.955-4.996c12.563-30.107,18.929-62.094,18.929-95.004
			C493.714,179.302,466.397,117.956,422.237,73.331z"/>
	</g>
</g>
<g>
	<g>
		<path d="M255.053,211.488v-83.489c0-5.053-4.089-9.143-9.143-9.143s-9.143,4.089-9.143,9.143v83.489
			c-11.429,3.317-21.962,13.129-25.279,26.844h-37.774c-5.054,0-9.143,4.089-9.143,9.143c0,5.054,4.089,9.143,9.143,9.143h37.774
			c4.074,16,18.362,27.12,35.368,27.12c20.17,0,36.098-16.558,36.098-36.728C282.955,230.003,271.053,215.564,255.053,211.488z
			 M246.857,265.142c-10.081,0-18.286-8.205-18.286-18.286c0-10.08,8.205-18.286,18.286-18.286c10.08,0,18.286,8.205,18.286,18.286
			C265.143,256.936,256.937,265.142,246.857,265.142z"/>
	</g>
</g>
<g>
	<g>
		<path d="M502.857,430.331H385.594l41.915-49.219c3.295-3.83,2.848-9.754-0.991-13.04c-3.821-3.286-9.598-2.933-12.884,0.915
			l-54.857,63.96c-0.103,0.121-0.172,0.232-0.266,0.357c-0.192,0.245-0.377,0.484-0.542,0.75c-0.147,0.234-0.27,0.473-0.393,0.717
			c-0.127,0.257-0.259,0.502-0.362,0.77c-0.116,0.297-0.196,0.598-0.281,0.902c-0.065,0.239-0.145,0.469-0.192,0.717
			c-0.094,0.507-0.143,1.02-0.154,1.534c0,0.056-0.016,0.107-0.016,0.163s0.016,0.109,0.016,0.165
			c0.011,0.513,0.06,1.027,0.154,1.534c0.047,0.245,0.127,0.477,0.192,0.716c0.085,0.304,0.165,0.607,0.281,0.902
			c0.103,0.268,0.235,0.518,0.362,0.774c0.123,0.243,0.245,0.487,0.393,0.719c0.165,0.268,0.35,0.516,0.542,0.763
			c0.094,0.12,0.163,0.254,0.266,0.373l54.857,64c1.804,2.116,4.366,3.196,6.938,3.196c2.107,0,4.223-0.723,5.946-2.206
			c3.839-3.286,4.286-8.743,0.991-12.573l-41.915-48.603h117.264c5.053,0,9.143-4.089,9.143-9.143
			C512,434.421,507.911,430.331,502.857,430.331z"/>
	</g>
</g>
<g>
</g>
<g>
</g>
<g>
</g>
<g>
</g>
<g>
</g>
<g>
</g>
<g>
</g>
<g>
</g>
<g>
</g>
<g>
</g>
<g>
</g>
<g>
</g>
<g>
</g>
<g>
</g>
<g>
</g>
</svg>
