<?xml version="1.0" encoding="iso-8859-1"?>
<!-- Generator: Adobe Illustrator 19.0.0, SVG Export Plug-In . SVG Version: 6.00 Build 0)  -->
<svg version="1.1" id="Layer_1" xmlns="http://www.w3.org/2000/svg" xmlns:xlink="http://www.w3.org/1999/xlink" x="0px" y="0px"
	 viewBox="0 0 512 512" style="enable-background:new 0 0 512 512;" xml:space="preserve">
<g>
	<g>
		<path d="M422.235,82.475c-0.259-0.344-0.51-0.705-0.825-1.018c-0.315-0.315-0.664-0.571-1.009-0.83
			C375.776,36.463,314.449,9.144,246.857,9.144c-67.593,0-128.92,27.317-173.544,71.478c-0.345,0.259-0.695,0.511-1.009,0.826
			c-0.315,0.313-0.566,0.663-0.825,1.009C27.317,127.079,0,188.407,0,255.999c0,67.594,27.317,128.919,71.479,173.544
			c0.259,0.346,0.51,0.694,0.825,1.009c0.314,0.315,0.664,0.567,1.009,0.826c44.625,44.163,105.479,71.478,173.071,71.478
			c5.049,0,8.67-4.089,8.67-9.143v-64c0-5.054-4.094-9.143-9.143-9.143s-9.143,4.089-9.143,9.143v54.658
			c-54.857-2.219-106.657-24.777-145.33-60.495l38.812-38.574c3.571-3.571,3.69-9.357,0.118-12.928
			c-3.571-3.571-9.298-3.571-12.869,0l-38.546,38.882c-35.722-38.674-58.249-90.638-60.469-145.495h54.658
			c5.049,0,9.143-4.089,9.143-9.143c0-5.053-4.094-9.143-9.143-9.143H18.484c2.22-57.143,24.777-107.44,60.498-146.111
			l38.576,38.424c1.786,1.786,4.125,2.603,6.464,2.603c2.339,0,4.679-0.933,6.464-2.719c3.571-3.569,3.571-9.375,0-12.946
			L91.437,88.135c38.673-35.723,90.473-58.288,145.33-60.509v54.658c0,5.053,4.094,9.143,9.143,9.143s9.143-4.089,9.143-9.143
			V27.626c57.143,2.221,107.604,24.777,146.277,60.5l-38.339,38.578c-3.571,3.571-3.453,9.357,0.118,12.928
			c1.786,1.786,4.184,2.679,6.523,2.679c2.339,0,4.708-0.893,6.494-2.679l38.59-38.27c35.721,38.672,58.291,88.969,60.512,146.111
			h-54.658c-5.049,0-9.143,4.089-9.143,9.143c0,5.054,4.094,9.143,9.143,9.143h54.663c-1.062,27.429-6.87,53.406-17.328,78.478
			c-1.946,4.661,0.255,9.853,4.915,11.799c4.661,1.955,10.013-0.344,11.96-4.996c12.563-30.098,18.933-62.094,18.933-95.004
			C493.714,188.445,466.397,127.099,422.235,82.475z"/>
	</g>
</g>
<g>
	<g>
		<path d="M255.053,220.631v-83.489c0-5.054-4.094-9.143-9.143-9.143s-9.143,4.089-9.143,9.143v83.489
			c-11.429,3.317-21.961,13.129-25.279,26.844h-37.774c-5.049,0-9.143,4.089-9.143,9.143c0,5.053,4.094,9.143,9.143,9.143h37.774
			c4.076,16,18.365,27.12,35.368,27.12c20.165,0,36.098-16.558,36.098-36.727C282.955,239.146,271.053,224.707,255.053,220.631z
			 M246.857,274.285c-10.085,0-18.286-8.205-18.286-18.286c0-10.08,8.201-18.286,18.286-18.286s18.286,8.205,18.286,18.286
			C265.143,266.079,256.942,274.285,246.857,274.285z"/>
	</g>
</g>
<g>
	<g>
		<path d="M510.169,479.088L400.455,332.802c-3.446-4.607-11.178-4.607-14.625,0L276.116,479.088
			c-2.08,2.768-2.415,6.783-0.866,9.882c1.549,3.098,4.714,5.362,8.179,5.362h219.428c3.464,0,6.629-2.263,8.178-5.362
			S512.249,481.856,510.169,479.088z M301.714,476.045l91.428-121.902l91.428,121.902H301.714z"/>
	</g>
</g>
<g>
	<g>
		<path d="M392.196,374.856c-5.049,0-9.143,4.089-9.143,9.143v45.714c0,5.054,4.094,9.143,9.143,9.143s9.143-4.089,9.143-9.143
			v-45.714C401.339,378.945,397.245,374.856,392.196,374.856z"/>
	</g>
</g>
<g>
	<g>
		<path d="M399.593,450.65c-3.29-3.384-9.509-3.384-12.888,0c-1.737,1.741-2.746,4.116-2.746,6.491c0,2.473,1.009,4.759,2.746,6.402
			c0.821,0.913,1.826,1.554,2.924,2.009c1.098,0.464,2.286,0.732,3.473,0.732c2.469,0,4.754-0.911,6.491-2.741
			c0.915-0.821,1.558-1.83,2.013-2.929c0.455-1.089,0.732-2.286,0.732-3.473C402.339,454.766,401.334,452.392,399.593,450.65z"/>
	</g>
</g>
<g>
</g>
<g>
</g>
<g>
</g>
<g>
</g>
<g>
</g>
<g>
</g>
<g>
</g>
<g>
</g>
<g>
</g>
<g>
</g>
<g>
</g>
<g>
</g>
<g>
</g>
<g>
</g>
<g>
</g>
</svg>
