<?xml version="1.0" encoding="iso-8859-1"?>
<!-- Generator: Adobe Illustrator 19.0.0, SVG Export Plug-In . SVG Version: 6.00 Build 0)  -->
<svg version="1.1" id="Layer_1" xmlns="http://www.w3.org/2000/svg" xmlns:xlink="http://www.w3.org/1999/xlink" x="0px" y="0px"
	 viewBox="0 0 512 512" style="enable-background:new 0 0 512 512;" xml:space="preserve">
<g>
	<g>
		<path d="M425.208,81.253c-0.261-0.346-0.514-0.71-0.831-1.025c-0.317-0.317-0.669-0.575-1.016-0.836
			C378.422,34.918,316.663,7.406,248.595,7.406c-68.068,0-129.827,27.509-174.766,71.981c-0.347,0.261-0.699,0.515-1.016,0.832
			c-0.317,0.315-0.57,0.668-0.831,1.016C27.509,126.172,0,187.931,0,255.999c0,68.07,27.509,129.827,71.982,174.766
			c0.261,0.348,0.514,0.699,0.831,1.016c0.317,0.317,0.669,0.571,1.016,0.832c44.939,44.474,106.698,71.981,174.766,71.981
			c39.414,0,77.097-8.955,112.011-26.606c4.541-2.293,6.119-7.831,3.826-12.372c-2.297-4.541-8.07-6.366-12.61-4.064
			c-29.586,14.966-60.445,23.151-94.972,24.43v-55.046c0-5.089-4.123-9.207-9.207-9.207c-5.085,0-9.207,4.118-9.207,9.207v55.043
			c-55.243-2.234-107.408-24.951-146.353-60.921l39.086-38.845c3.597-3.597,3.716-9.423,0.119-13.019
			c-3.597-3.597-9.364-3.597-12.96,0l-38.817,39.155c-35.973-38.946-58.658-91.276-60.894-146.52h55.043
			c5.084,0,9.207-4.118,9.207-9.207s-4.123-9.207-9.207-9.207H18.614c2.237-57.545,24.951-108.196,60.923-147.14l38.848,38.695
			c1.798,1.798,4.154,2.621,6.51,2.621c2.356,0,4.712-0.94,6.51-2.738c3.597-3.594,3.597-9.441,0-13.037L92.081,86.953
			c38.944-35.975,91.11-58.698,146.353-60.935v55.043c0,5.089,4.122,9.207,9.207,9.207c5.085,0,9.207-4.118,9.207-9.207V26.018
			c57.545,2.237,108.362,24.951,147.306,60.926l-38.609,38.85c-3.597,3.597-3.478,9.423,0.119,13.019
			c1.798,1.798,4.214,2.698,6.569,2.698c2.356,0,4.742-0.899,6.54-2.698l38.862-38.539c35.973,38.944,58.702,89.595,60.938,147.14
			h-55.043c-5.085,0-9.207,4.118-9.207,9.207s4.123,9.207,9.207,9.207h55.048c-1.071,27.622-6.918,53.782-17.45,79.03
			c-1.96,4.693,0.256,9.922,4.95,11.882c4.694,1.969,10.084-0.346,12.044-5.031c12.651-30.31,19.066-62.531,19.066-95.673
			C497.19,187.97,469.68,126.192,425.208,81.253z"/>
	</g>
</g>
<g>
	<g>
		<path d="M511.549,405.337c-1.083-3.336-3.965-5.763-7.431-6.265l-43.617-6.35l-19.502-39.517c-3.111-6.294-13.406-6.294-16.517,0
			l-19.503,39.517l-43.617,6.35c-3.466,0.501-6.348,2.929-7.431,6.265c-1.083,3.329-0.18,6.986,2.333,9.432l31.555,30.768
			l-7.449,43.438c-0.589,3.453,0.832,6.942,3.664,9c1.605,1.169,3.507,1.762,5.413,1.762c1.466,0,2.94-0.351,4.284-1.061
			l39.009-20.51l39.014,20.51c3.111,1.636,6.87,1.376,9.697-0.701c2.837-2.059,4.253-5.548,3.659-9l-7.449-43.447l31.555-30.759
			C511.729,412.324,512.632,408.666,511.549,405.337z M461.336,435.728c-2.167,2.113-3.156,5.163-2.648,8.146l5.121,29.824
			l-26.785-14.081c-2.68-1.421-5.889-1.421-8.569,0l-26.781,14.081l5.116-29.824c0.508-2.983-0.481-6.033-2.648-8.146
			l-21.669-21.119l29.946-4.363c2.999-0.429,5.588-2.32,6.933-5.033l13.388-27.129l13.388,27.129
			c1.344,2.713,3.934,4.604,6.932,5.033l29.946,4.363L461.336,435.728z"/>
	</g>
</g>
<g>
	<g>
		<path d="M256.849,220.382v-84.077c0-5.089-4.122-9.207-9.207-9.207c-5.085,0-9.207,4.118-9.207,9.207v84.077
			c-11.509,3.34-22.115,13.222-25.457,27.033h-38.04c-5.085,0-9.207,4.118-9.207,9.207s4.122,9.207,9.207,9.207h38.04
			c4.105,16.113,18.493,27.311,35.617,27.311c20.307,0,36.352-16.674,36.352-36.986
			C284.947,239.027,272.962,224.486,256.849,220.382z M248.595,274.413c-10.156,0-18.414-8.263-18.414-18.414
			c0-10.151,8.259-18.414,18.414-18.414c10.156,0,18.414,8.263,18.414,18.414C267.009,266.15,258.751,274.413,248.595,274.413z"/>
	</g>
</g>
<g>
</g>
<g>
</g>
<g>
</g>
<g>
</g>
<g>
</g>
<g>
</g>
<g>
</g>
<g>
</g>
<g>
</g>
<g>
</g>
<g>
</g>
<g>
</g>
<g>
</g>
<g>
</g>
<g>
</g>
</svg>
