<?xml version="1.0" encoding="iso-8859-1"?>
<!-- Generator: Adobe Illustrator 19.0.0, SVG Export Plug-In . SVG Version: 6.00 Build 0)  -->
<svg version="1.1" id="Layer_1" xmlns="http://www.w3.org/2000/svg" xmlns:xlink="http://www.w3.org/1999/xlink" x="0px" y="0px"
	 viewBox="0 0 512 512" style="enable-background:new 0 0 512 512;" xml:space="preserve">
<g>
	<g>
		<path d="M422.21,73.319c-0.259-0.344-0.509-0.705-0.823-1.018c-0.315-0.315-0.663-0.571-1.009-0.83
			C375.759,27.315,314.44,0,246.859,0C179.275,0,117.958,27.313,73.34,71.467c-0.346,0.259-0.694,0.511-1.009,0.826
			c-0.315,0.312-0.567,0.663-0.824,1.009C27.351,117.918,0.038,179.237,0.038,246.818c0,67.584,27.313,128.9,71.469,173.519
			c0.257,0.346,0.509,0.694,0.824,1.009c0.315,0.315,0.663,0.567,1.009,0.826c44.618,44.156,105.935,71.467,173.519,71.467
			c30.236,0,59.786-5.41,87.817-16.078c4.723-1.794,6.852-7.079,5.057-11.793c-1.803-4.722-7.298-7.095-12.029-5.294
			c-23.119,8.795-47.511,13.705-72.65,14.679v-54.646c0-5.053-4.089-9.142-9.142-9.142s-9.141,4.089-9.141,9.142v54.65
			c-54.849-2.218-106.64-24.773-145.309-60.487l38.811-38.568c3.571-3.571,3.689-9.356,0.118-12.927
			c-3.571-3.571-9.295-3.571-12.866,0l-38.546,38.876c-35.716-38.668-58.239-90.625-60.46-145.474h54.65
			c5.053,0,9.141-4.089,9.141-9.142s-4.089-9.141-9.141-9.141H18.52c2.221-57.134,24.773-107.424,60.489-146.09l38.575,38.418
			c1.785,1.786,4.124,2.602,6.463,2.602c2.339,0,4.678-0.933,6.463-2.718c3.571-3.569,3.571-9.373,0-12.944L91.462,78.979
			c38.666-35.718,90.46-58.279,145.309-60.5v54.65c0,5.053,4.089,9.141,9.141,9.141s9.142-4.089,9.142-9.141v-54.65
			C312.188,20.7,362.642,43.253,401.309,78.97l-38.329,38.572c-3.571,3.571-3.453,9.356,0.118,12.927
			c1.785,1.786,4.182,2.678,6.524,2.678c2.337,0,4.707-0.893,6.492-2.678l38.581-38.264c35.716,38.668,58.282,88.956,60.502,146.09
			h-54.65c-5.053,0-9.142,4.089-9.142,9.141s4.089,9.142,9.142,9.142h54.655c-1.062,27.424-6.863,53.398-17.321,78.466
			c-1.946,4.66,0.259,9.851,4.919,11.797c4.633,1.928,10.008-0.335,11.954-4.995c12.561-30.103,18.926-62.085,18.926-94.99
			C493.679,179.275,466.366,117.938,422.21,73.319z"/>
	</g>
</g>
<g>
	<g>
		<path d="M255.054,211.455v-83.477c0-5.053-4.089-9.142-9.142-9.142s-9.141,4.089-9.141,9.142v83.477
			c-11.427,3.316-21.959,13.127-25.275,26.84h-37.769c-5.053,0-9.142,4.089-9.142,9.141c0,5.053,4.089,9.142,9.142,9.142h37.769
			c4.073,15.998,18.359,27.116,35.363,27.116c20.167,0,36.093-16.555,36.093-36.722
			C282.951,229.968,271.051,215.531,255.054,211.455z M246.859,265.101c-10.079,0-18.283-8.204-18.283-18.283
			c0-10.079,8.204-18.283,18.283-18.283c10.079,0,18.283,8.204,18.283,18.283C265.142,256.897,256.937,265.101,246.859,265.101z"/>
	</g>
</g>
<g>
	<g>
		<path d="M511.946,438.627c-0.011-0.513-0.06-1.027-0.156-1.536c-0.045-0.245-0.125-0.478-0.19-0.716
			c-0.085-0.304-0.165-0.605-0.281-0.9c-0.105-0.268-0.234-0.52-0.362-0.774c-0.123-0.243-0.245-0.487-0.393-0.721
			c-0.165-0.268-0.35-0.513-0.542-0.761c-0.094-0.123-0.165-0.257-0.266-0.375l-54.849-63.99c-3.276-3.848-9.052-4.276-12.882-0.991
			c-3.839,3.285-4.285,9.362-0.991,13.192l41.909,49.211H365.698c-5.053,0-9.142,4.089-9.142,9.142c0,5.053,4.089,9.141,9.142,9.141
			h117.246l-41.909,48.596c-3.294,3.83-2.848,9.44,0.991,12.726c1.723,1.482,3.839,2.129,5.946,2.129
			c2.571,0,5.133-1.118,6.936-3.236l54.849-64.009c0.101-0.118,0.172-0.261,0.266-0.384c0.192-0.248,0.377-0.504,0.542-0.772
			c0.147-0.232,0.27-0.475,0.393-0.719c0.127-0.257,0.257-0.506,0.362-0.774c0.116-0.295,0.197-0.598,0.281-0.902
			c0.065-0.239,0.145-0.471,0.19-0.716c0.096-0.507,0.145-1.02,0.156-1.533c0-0.056,0.016-0.109,0.016-0.165
			C511.962,438.734,511.946,438.683,511.946,438.627z"/>
	</g>
</g>
<g>
</g>
<g>
</g>
<g>
</g>
<g>
</g>
<g>
</g>
<g>
</g>
<g>
</g>
<g>
</g>
<g>
</g>
<g>
</g>
<g>
</g>
<g>
</g>
<g>
</g>
<g>
</g>
<g>
</g>
</svg>
