<?xml version="1.0" encoding="iso-8859-1"?>
<!-- Generator: Adobe Illustrator 19.0.0, SVG Export Plug-In . SVG Version: 6.00 Build 0)  -->
<svg version="1.1" id="Layer_1" xmlns="http://www.w3.org/2000/svg" xmlns:xlink="http://www.w3.org/1999/xlink" x="0px" y="0px"
	 viewBox="0 0 512 512" style="enable-background:new 0 0 512 512;" xml:space="preserve">
<g>
	<g>
		<path d="M255.555,0c-6.426,0-12.239,5.212-12.239,11.636v82.284c0,6.426,5.21,11.636,11.636,11.636
			c6.426,0,11.636-5.21,11.636-11.636V23.563C391.68,29.644,488.282,131.574,488.282,256c0,128.324-104.102,232.727-232.426,232.727
			C127.532,488.727,23.279,384.324,23.279,256c0-62.159,24.285-120.601,68.24-164.562c4.545-4.545,4.584-11.909,0.038-16.453
			c-4.545-4.547-11.891-4.547-16.436,0C26.769,123.335,0.147,187.62,0.147,256c0,141.161,114.847,256,256.006,256
			s255.7-114.839,255.7-256C511.853,114.842,396.714,0,255.555,0z"/>
	</g>
</g>
<g>
	<g>
		<path d="M300.731,253.188c-6.58-11.392-81.869-102.76-96.898-120.96c-3.625-4.386-9.864-5.506-14.79-2.671
			c-4.92,2.841-7.068,8.824-5.085,14.148c8.25,22.113,49.727,132.994,56.301,144.392c6.46,11.188,18.216,17.443,30.296,17.443
			c5.915,0,11.915-1.5,17.398-4.663C304.623,291.25,310.356,269.858,300.731,253.188z M276.316,280.716
			c-5.562,3.227-12.693,1.301-15.898-4.256c-2.733-4.795-15.733-38.084-29.693-74.71c24.733,30.416,47.068,58.318,49.846,63.074
			C283.782,270.381,281.873,277.512,276.316,280.716z"/>
	</g>
</g>
<g>
</g>
<g>
</g>
<g>
</g>
<g>
</g>
<g>
</g>
<g>
</g>
<g>
</g>
<g>
</g>
<g>
</g>
<g>
</g>
<g>
</g>
<g>
</g>
<g>
</g>
<g>
</g>
<g>
</g>
</svg>
