<?xml version="1.0" encoding="iso-8859-1"?>
<!-- Generator: Adobe Illustrator 19.0.0, SVG Export Plug-In . SVG Version: 6.00 Build 0)  -->
<svg version="1.1" id="Layer_1" xmlns="http://www.w3.org/2000/svg" xmlns:xlink="http://www.w3.org/1999/xlink" x="0px" y="0px"
	 viewBox="0 0 512 512" style="enable-background:new 0 0 512 512;" xml:space="preserve">
<g>
	<g>
		<path d="M430.723,78.986c-0.264-0.351-0.52-0.72-0.841-1.038c-0.321-0.321-0.677-0.583-1.029-0.847
			C383.331,32.05,320.771,4.182,251.819,4.182c-68.951,0-131.511,27.866-177.033,72.915c-0.352,0.264-0.708,0.521-1.029,0.842
			c-0.321,0.319-0.577,0.676-0.841,1.029C27.866,124.488,0,187.049,0,255.999c0,68.953,27.866,131.511,72.915,177.033
			c0.264,0.353,0.52,0.708,0.841,1.029c0.321,0.321,0.677,0.578,1.029,0.842c45.522,45.051,108.082,72.914,177.033,72.914
			c39.925,0,78.097-9.072,113.464-26.951c4.599-2.323,6.198-7.933,3.875-12.533c-2.327-4.6-8.184-6.448-12.774-4.117
			c-29.97,15.16-61.229,23.451-96.204,24.747v-55.76c0-5.155-4.176-9.327-9.327-9.327c-5.151,0-9.327,4.172-9.327,9.327v55.757
			c-55.96-2.263-108.801-25.275-148.252-61.712l39.593-39.349c3.643-3.643,3.764-9.545,0.121-13.188
			c-3.643-3.643-9.485-3.643-13.128,0l-39.32,39.663c-36.44-39.451-59.419-92.46-61.684-148.42h55.757
			c5.15,0,9.327-4.172,9.327-9.327c0-5.155-4.176-9.327-9.327-9.327H18.856c2.266-58.292,25.275-109.6,61.714-149.049l39.351,39.196
			c1.822,1.822,4.208,2.655,6.594,2.655c2.386,0,4.773-0.952,6.594-2.773c3.643-3.641,3.643-9.563,0-13.207L93.276,84.761
			c39.45-36.441,92.292-59.46,148.252-61.725v55.757c0,5.155,4.176,9.327,9.327,9.327c5.151,0,9.327-4.172,9.327-9.327V23.035
			c58.292,2.266,109.768,25.275,149.217,61.716l-39.11,39.354c-3.643,3.643-3.523,9.545,0.121,13.188
			c1.822,1.822,4.268,2.732,6.655,2.732c2.386,0,4.803-0.911,6.625-2.732l39.366-39.039c36.439,39.449,59.463,90.757,61.729,149.049
			h-55.757c-5.151,0-9.327,4.172-9.327,9.327c0,5.155,4.176,9.327,9.327,9.327h55.762c-1.085,27.98-7.008,54.48-17.677,80.055
			c-1.985,4.754,0.26,10.051,5.014,12.036c4.754,1.995,10.215-0.351,12.2-5.096c12.815-30.703,19.314-63.342,19.314-96.914
			C503.639,187.087,475.773,124.508,430.723,78.986z"/>
	</g>
</g>
<g>
	<g>
		<path d="M260.181,219.92v-85.167c0-5.155-4.176-9.327-9.327-9.327s-9.327,4.172-9.327,9.327v85.167
			c-11.658,3.383-22.402,13.393-25.787,27.383h-38.534c-5.151,0-9.327,4.172-9.327,9.327s4.176,9.327,9.327,9.327h38.534
			c4.158,16.322,18.734,27.666,36.079,27.666c20.57,0,36.824-16.891,36.824-37.466C288.643,238.807,276.502,224.077,260.181,219.92z
			 M251.819,274.652c-10.288,0-18.653-8.37-18.653-18.653c0-10.283,8.366-18.653,18.653-18.653s18.653,8.37,18.653,18.653
			C270.473,266.282,262.107,274.652,251.819,274.652z"/>
	</g>
</g>
<g>
	<g>
		<path d="M503.639,396.529H373.066c-5.151,0-10.292,3.541-10.292,8.696v37.307c0,5.155,5.142,9.957,10.292,9.957h130.573
			c5.15,0,8.361-4.802,8.361-9.957v-37.307C512,400.07,508.789,396.529,503.639,396.529z M493.347,433.836h-111.92v-18.653h111.92
			V433.836z"/>
	</g>
</g>
<g>
</g>
<g>
</g>
<g>
</g>
<g>
</g>
<g>
</g>
<g>
</g>
<g>
</g>
<g>
</g>
<g>
</g>
<g>
</g>
<g>
</g>
<g>
</g>
<g>
</g>
<g>
</g>
<g>
</g>
</svg>
