<?xml version="1.0" encoding="iso-8859-1"?>
<!-- Generator: Adobe Illustrator 19.0.0, SVG Export Plug-In . SVG Version: 6.00 Build 0)  -->
<svg version="1.1" id="Layer_1" xmlns="http://www.w3.org/2000/svg" xmlns:xlink="http://www.w3.org/1999/xlink" x="0px" y="0px"
	 viewBox="0 0 512 512" style="enable-background:new 0 0 512 512;" xml:space="preserve">
<g>
	<g>
		<path d="M510.599,223.947L387.825,10.875c-1.867-3.235-5.316-5.648-9.051-5.648H133.226c-3.735,0-7.184,2.413-9.051,5.648
			L1.4,223.735c-1.867,3.235-1.867,7.322,0,10.556l122.774,212.526c1.867,3.234,5.316,5.099,9.051,5.099h245.549
			c3.735,0,7.184-1.811,9.051-5.046l122.774-212.564C512.467,231.072,512.467,227.181,510.599,223.947z M372.744,431.019H139.256
			L22.513,228.572L139.256,26.125h233.487l116.744,202.447L372.744,431.019z"/>
	</g>
</g>
<g>
	<g>
		<rect x="187.009" y="485.875" width="135.835" height="20.898"/>
	</g>
</g>
<g>
	<g>
		<path d="M260.143,98.56c-5.775,0-10.449,4.674-10.449,10.449v141.519l-121.091-46.785c-5.388-2.061-11.168,0.612-13.24,6
			c-2.071,5.388,0.758,11.439,6.135,13.51l135.904,52.244c1.214,0.469,2.523,0.694,3.788,0.694c2.081,0,3.627-0.622,5.393-1.837
			c2.837-1.949,4.008-5.174,4.008-8.612V109.009C270.592,103.234,265.918,98.56,260.143,98.56z"/>
	</g>
</g>
<g>
</g>
<g>
</g>
<g>
</g>
<g>
</g>
<g>
</g>
<g>
</g>
<g>
</g>
<g>
</g>
<g>
</g>
<g>
</g>
<g>
</g>
<g>
</g>
<g>
</g>
<g>
</g>
<g>
</g>
</svg>
