<?xml version="1.0" encoding="iso-8859-1"?>
<!-- Generator: Adobe Illustrator 19.0.0, SVG Export Plug-In . SVG Version: 6.00 Build 0)  -->
<svg version="1.1" id="Layer_1" xmlns="http://www.w3.org/2000/svg" xmlns:xlink="http://www.w3.org/1999/xlink" x="0px" y="0px"
	 viewBox="0 0 512 512" style="enable-background:new 0 0 512 512;" xml:space="preserve">
<g>
	<g>
		<path d="M427.861,80.162c-0.262-0.348-0.517-0.715-0.836-1.031c-0.319-0.319-0.673-0.579-1.022-0.841
			C380.783,33.538,318.639,5.855,250.146,5.855c-68.493,0-130.638,27.681-175.857,72.43c-0.349,0.262-0.705,0.518-1.022,0.837
			c-0.319,0.317-0.573,0.672-0.836,1.022C27.681,125.361,0,187.507,0,255.999c0,68.494,27.681,130.637,72.431,175.857
			c0.262,0.35,0.517,0.703,0.836,1.022c0.318,0.319,0.673,0.574,1.022,0.837c45.219,44.751,107.364,72.43,175.857,72.43
			c39.66,0,77.578-9.011,112.71-26.772c4.569-2.307,6.397-7.88,4.089-12.449c-2.312-4.569-8.369-6.406-12.929-4.089
			c-29.771,15.06-60.822,23.295-95.565,24.582v-55.389c0-5.121-4.148-9.265-9.265-9.265c-5.116,0-9.265,4.144-9.265,9.265v55.387
			c-55.588-2.248-108.078-25.107-147.267-61.302l39.329-39.088c3.619-3.619,3.739-9.482,0.12-13.101s-9.422-3.619-13.041,0
			l-39.059,39.4c-36.198-39.189-59.024-91.846-61.274-147.434h55.387c5.116,0,9.265-4.144,9.265-9.265
			c0-5.121-4.148-9.265-9.265-9.265H18.731c2.251-57.904,25.107-108.871,61.304-148.058l39.09,38.936
			c1.81,1.81,4.18,2.637,6.55,2.637c2.371,0,4.741-0.945,6.551-2.755c3.619-3.617,3.619-9.5,0-13.119L92.656,85.898
			c39.188-36.199,91.679-59.065,147.267-61.315V79.97c0,5.121,4.148,9.265,9.265,9.265c5.116,0,9.265-4.144,9.265-9.265V24.583
			c57.904,2.251,109.039,25.107,148.226,61.306l-38.85,39.092c-3.619,3.619-3.499,9.482,0.12,13.101
			c1.81,1.81,4.24,2.714,6.61,2.714c2.371,0,4.77-0.749,6.581-2.558l39.119-38.936c36.197,39.187,59.053,90.154,61.304,148.058
			h-55.387c-5.116,0-9.265,4.144-9.265,9.265c0,5.121,4.148,9.265,9.265,9.265h55.391c-1.078,27.794-6.961,54.118-17.559,79.523
			c-1.972,4.723,0.258,9.984,4.981,11.956c4.732,1.981,10.151-0.348,12.119-5.062c12.73-30.499,19.185-62.921,19.185-96.27
			C500.292,187.545,472.611,125.382,427.861,80.162z"/>
	</g>
</g>
<g>
	<g>
		<path d="M258.452,220.159v-84.601c0-5.121-4.148-9.265-9.265-9.265c-5.116,0-9.265,4.144-9.265,9.265v84.601
			c-11.581,3.361-22.254,13.304-25.616,27.201h-38.278c-5.116,0-9.265,4.144-9.265,9.265c0,5.121,4.148,9.265,9.265,9.265h38.278
			c4.13,16.213,18.61,27.482,35.84,27.482c20.434,0,36.579-16.779,36.579-37.217C286.725,238.921,274.665,224.29,258.452,220.159z
			 M250.146,274.528c-10.219,0-18.529-8.315-18.529-18.529c0-10.215,8.31-18.529,18.529-18.529s18.529,8.315,18.529,18.529
			C268.676,266.213,260.365,274.528,250.146,274.528z"/>
	</g>
</g>
<g>
	<g>
		<path d="M483.084,431.096l26.202-26.202c3.619-3.619,3.619-9.482,0-13.101l-26.206-26.211c-3.474-3.474-9.626-3.474-13.101,0
			l-26.206,26.211l-26.202-26.211c-3.474-3.474-9.627-3.474-13.101,0l-26.206,26.211c-3.619,3.619-3.619,9.482,0,13.101
			l26.202,26.202l-26.202,26.202c-3.619,3.619-3.619,9.482,0,13.101l26.206,26.211c3.474,3.474,9.626,3.474,13.101,0l26.202-26.211
			l26.206,26.211c1.737,1.737,4.094,2.714,6.55,2.714c2.456,0,4.813-0.977,6.55-2.714l26.206-26.211
			c3.619-3.619,3.619-9.482,0-13.101L483.084,431.096z M476.529,476.958l-26.206-26.211c-1.737-1.737-4.094-2.714-6.55-2.714
			c-2.456,0-4.813,0.977-6.55,2.714l-26.202,26.211l-13.105-13.11l26.206-26.202c1.737-1.737,2.714-4.09,2.714-6.551
			s-0.977-4.813-2.714-6.55l-26.206-26.202l13.105-13.11l26.202,26.211c1.737,1.737,4.094,2.714,6.55,2.714
			c2.456,0,4.813-0.977,6.55-2.714l26.206-26.211l13.105,13.11l-26.206,26.202c-1.737,1.737-2.714,4.089-2.714,6.55
			s0.977,4.813,2.714,6.551l26.206,26.202L476.529,476.958z"/>
	</g>
</g>
<g>
</g>
<g>
</g>
<g>
</g>
<g>
</g>
<g>
</g>
<g>
</g>
<g>
</g>
<g>
</g>
<g>
</g>
<g>
</g>
<g>
</g>
<g>
</g>
<g>
</g>
<g>
</g>
<g>
</g>
</svg>
