<?xml version="1.0" encoding="iso-8859-1"?>
<!-- Generator: Adobe Illustrator 19.0.0, SVG Export Plug-In . SVG Version: 6.00 Build 0)  -->
<svg version="1.1" id="Layer_1" xmlns="http://www.w3.org/2000/svg" xmlns:xlink="http://www.w3.org/1999/xlink" x="0px" y="0px"
	 viewBox="0 0 512 512" style="enable-background:new 0 0 512 512;" xml:space="preserve">
<g>
	<g>
		<path d="M486.833,243.032c-13.833-13.694-31.648-22.153-50.977-24.366c0.194-3.356,0.292-6.721,0.292-10.074
			c0-94.106-76.56-170.667-170.667-170.667c-76.889,0-143.44,50.622-164.19,123.935C43.949,168.088,0,216.795,0,275.281
			c0,62.736,51.042,114.096,113.778,114.096h66.37c5.236,0,9.482-4.245,9.482-9.482s-4.246-9.482-9.482-9.482h-66.37
			c-52.283,0-94.815-42.851-94.815-95.133c0-50.707,39.639-92.464,90.241-94.862c4.213-0.199,7.782-3.237,8.768-7.334
			c16.435-68.366,77.092-116.155,147.509-116.155c83.648,0,151.704,68.036,151.704,151.684c0,5.963-0.347,11.967-1.037,17.86
			c-0.315,2.69,0.537,5.693,2.333,7.716c1.801,2.018,4.38,3.484,7.083,3.484c0.009,0,0.014,0,0.018,0
			c18.218,0,35.232,6.598,47.912,19.149c12.602,12.477,19.542,29.296,19.542,47.059c0,36.599-29.773,66.532-66.37,66.532h-75.852
			c-5.236,0-9.482,4.245-9.482,9.482s4.245,9.482,9.482,9.482h75.852c47.051,0,85.333-38.6,85.333-85.652
			C512,280.861,503.065,259.097,486.833,243.032z"/>
	</g>
</g>
<g>
	<g>
		<path d="M329.013,315.668l-56.822-56.883c-0.442-0.444-0.93-0.84-1.454-1.19c-0.222-0.148-0.463-0.249-0.694-0.376
			c-0.309-0.171-0.608-0.358-0.938-0.493c-0.308-0.128-0.629-0.2-0.947-0.295c-0.274-0.08-0.537-0.186-0.821-0.243
			c-1.226-0.243-2.487-0.243-3.713,0c-0.284,0.057-0.546,0.162-0.819,0.243c-0.318,0.094-0.64,0.167-0.949,0.295
			c-0.328,0.135-0.626,0.321-0.935,0.492c-0.231,0.127-0.472,0.229-0.695,0.377c-0.523,0.35-1.012,0.745-1.454,1.19l-56.883,56.883
			c-3.704,3.704-3.704,9.703,0,13.406c3.704,3.704,9.213,3.704,12.917,0l40.213-40.704v176.222c0,5.236,4.245,9.482,9.482,9.482
			s9.481-4.245,9.481-9.482V288.37l41.194,40.704c1.852,1.853,4.523,2.778,6.949,2.778c2.426,0,4.975-0.925,6.826-2.778
			C332.655,325.371,332.716,319.372,329.013,315.668z"/>
	</g>
</g>
<g>
</g>
<g>
</g>
<g>
</g>
<g>
</g>
<g>
</g>
<g>
</g>
<g>
</g>
<g>
</g>
<g>
</g>
<g>
</g>
<g>
</g>
<g>
</g>
<g>
</g>
<g>
</g>
<g>
</g>
</svg>
