<?xml version="1.0" encoding="iso-8859-1"?>
<!-- Generator: Adobe Illustrator 19.0.0, SVG Export Plug-In . SVG Version: 6.00 Build 0)  -->
<svg version="1.1" id="Layer_1" xmlns="http://www.w3.org/2000/svg" xmlns:xlink="http://www.w3.org/1999/xlink" x="0px" y="0px"
	 viewBox="0 0 512 512" style="enable-background:new 0 0 512 512;" xml:space="preserve">
<g>
	<g>
		<path d="M486.833,243.032c-13.833-13.69-31.648-22.148-50.981-24.366c0.194-3.347,0.296-6.712,0.296-10.074
			c0-94.106-76.565-170.667-170.667-170.667c-76.889,0-143.445,50.622-164.185,123.935C43.954,168.088,0,216.795,0,275.281
			c0,62.736,51.037,114.096,113.778,114.096h66.37c5.241,0,9.482-4.245,9.482-9.482s-4.241-9.482-9.482-9.482h-66.37
			c-52.278,0-94.815-42.851-94.815-95.133c0-50.707,39.639-92.464,90.241-94.862c4.213-0.199,7.787-3.237,8.778-7.334
			c16.426-68.37,77.083-116.155,147.5-116.155c83.648,0,151.704,68.036,151.704,151.684c0,6-0.352,12.004-1.037,17.855
			c-0.315,2.69,0.537,5.693,2.333,7.716c1.797,2.023,4.38,3.488,7.083,3.488c0.009,0,0.009,0,0.018,0
			c18.213,0,35.232,6.598,47.908,19.149c12.602,12.477,19.546,29.296,19.546,47.059c0,36.599-29.778,66.532-66.37,66.532h-75.852
			c-5.241,0-9.481,4.245-9.481,9.482s4.241,9.482,9.481,9.482h75.852c47.055,0,85.333-38.6,85.333-85.652
			C512,280.861,503.065,259.102,486.833,243.032z"/>
	</g>
</g>
<g>
	<g>
		<path d="M328.829,401.001c-3.704-3.704-9.949-3.704-13.653,0l-41.194,40.703V265.481c0-5.236-4.241-9.481-9.481-9.481
			c-5.241,0-9.482,4.246-9.482,9.481v176.222l-40.213-40.703c-3.704-3.704-9.458-3.704-13.162,0
			c-3.704,3.704-3.581,9.703,0.123,13.406l56.935,56.874c0.447,0.448,0.97,0.85,1.498,1.202c0.201,0.134,0.435,0.224,0.644,0.34
			c0.329,0.185,0.658,0.382,1.009,0.528c0.296,0.123,0.611,0.192,0.919,0.282c0.282,0.086,0.558,0.194,0.854,0.253
			c0.611,0.122,1.234,0.186,1.857,0.186c0.62,0,1.243-0.065,1.856-0.186c0.294-0.059,0.567-0.168,0.852-0.253
			c0.306-0.09,0.616-0.16,0.914-0.282c0.352-0.146,0.671-0.343,1-0.528c0.208-0.117,0.428-0.206,0.63-0.34
			c0.528-0.353,1.021-0.754,1.468-1.202l56.873-56.874C332.778,410.704,332.532,404.705,328.829,401.001z"/>
	</g>
</g>
<g>
</g>
<g>
</g>
<g>
</g>
<g>
</g>
<g>
</g>
<g>
</g>
<g>
</g>
<g>
</g>
<g>
</g>
<g>
</g>
<g>
</g>
<g>
</g>
<g>
</g>
<g>
</g>
<g>
</g>
</svg>
