<?xml version="1.0" encoding="iso-8859-1"?>
<!-- Generator: Adobe Illustrator 19.0.0, SVG Export Plug-In . SVG Version: 6.00 Build 0)  -->
<svg version="1.1" id="Layer_1" xmlns="http://www.w3.org/2000/svg" xmlns:xlink="http://www.w3.org/1999/xlink" x="0px" y="0px"
	 viewBox="0 0 512 512" style="enable-background:new 0 0 512 512;" xml:space="preserve">
<g>
	<g>
		<path d="M435.861,260.913c0.19-3.324,0.287-6.653,0.287-9.972c0-94.106-76.56-170.667-170.667-170.667
			c-76.889,0-143.44,50.622-164.19,123.935C43.949,210.437,0,259.144,0,317.63c0,62.736,51.042,114.096,113.778,114.096h312.889
			c47.051,0,85.333-38.6,85.333-85.652C512,302.125,478.606,265.51,435.861,260.913z M426.667,412.763H113.778
			c-52.283,0-94.815-42.851-94.815-95.133c0-50.707,39.639-92.464,90.241-94.862c4.213-0.199,7.782-3.237,8.768-7.334
			c16.435-68.366,77.092-116.155,147.509-116.155c83.648,0,151.704,68.036,151.704,151.684c0,5.963-0.347,11.967-1.037,17.86
			c-0.32,2.708,0.546,5.421,2.375,7.444c1.819,2.023,4.375,3.09,7.162,3.131l0.982-0.009c36.597,0,66.37,30.09,66.37,66.688
			C493.037,382.673,463.264,412.763,426.667,412.763z"/>
	</g>
</g>
<g>
</g>
<g>
</g>
<g>
</g>
<g>
</g>
<g>
</g>
<g>
</g>
<g>
</g>
<g>
</g>
<g>
</g>
<g>
</g>
<g>
</g>
<g>
</g>
<g>
</g>
<g>
</g>
<g>
</g>
</svg>
