<?xml version="1.0" encoding="iso-8859-1"?>
<!-- Generator: Adobe Illustrator 19.0.0, SVG Export Plug-In . SVG Version: 6.00 Build 0)  -->
<svg version="1.1" id="Layer_1" xmlns="http://www.w3.org/2000/svg" xmlns:xlink="http://www.w3.org/1999/xlink" x="0px" y="0px"
	 viewBox="0 0 512 512" style="enable-background:new 0 0 512 512;" xml:space="preserve">
<g>
	<g>
		<path d="M411.659,311.782h-81.312V201.406h81.312c55.325,0,100.341-45.354,100.341-100.679
			C512,45.402,466.464,0.214,411.139,0.214s-100.86,44.847-100.86,100.172v80.952H199.904v-80.952
			c0-55.325-44.497-100.341-99.822-100.341C44.757,0.045,0,45.402,0,100.727c0,55.325,45.276,100.679,100.601,100.679h79.234
			v110.375h-79.234C45.276,311.782,0.26,356.46,0.26,411.785s44.497,100.17,99.822,100.17c55.325,0,99.822-45.185,99.822-100.51
			V331.85h110.375v79.594c0,55.325,45.536,100.341,100.86,100.341S511.74,467.11,511.74,411.785S466.984,311.782,411.659,311.782z
			 M179.835,411.444c0,44.262-35.492,80.273-79.754,80.273c-44.262,0-80.013-35.671-80.013-79.933
			c0-44.262,36.271-79.935,80.533-79.935h79.234V411.444z M179.835,181.338h-79.234c-44.262,0-80.273-36.349-80.273-80.611
			c0-44.262,35.492-80.444,79.753-80.444c44.262,0,79.754,35.842,79.754,80.104V181.338z M310.279,311.782H199.904V201.406h110.375
			V311.782z M411.139,20.114c44.262,0,80.533,36.352,80.533,80.613c0,44.262-35.751,80.611-80.013,80.611h-81.312v-80.952h0
			C330.347,56.125,366.878,20.114,411.139,20.114z M411.139,491.717c-44.262,0-80.792-36.011-80.792-80.273V331.85h81.312
			c44.262,0,80.013,35.673,80.013,79.935C491.672,456.047,455.401,491.717,411.139,491.717z"/>
	</g>
</g>
<g>
</g>
<g>
</g>
<g>
</g>
<g>
</g>
<g>
</g>
<g>
</g>
<g>
</g>
<g>
</g>
<g>
</g>
<g>
</g>
<g>
</g>
<g>
</g>
<g>
</g>
<g>
</g>
<g>
</g>
</svg>
