<?xml version="1.0" encoding="iso-8859-1"?>
<!-- Generator: Adobe Illustrator 19.0.0, SVG Export Plug-In . SVG Version: 6.00 Build 0)  -->
<svg version="1.1" id="Layer_1" xmlns="http://www.w3.org/2000/svg" xmlns:xlink="http://www.w3.org/1999/xlink" x="0px" y="0px"
	 viewBox="0 0 512 512" style="enable-background:new 0 0 512 512;" xml:space="preserve">
<g>
	<g>
		<path d="M256,0C114.836,0,0,114.836,0,256c0,141.163,114.836,256,256,256c141.163,0,256-114.837,256-256
			C512,114.836,397.163,0,256,0z M256,492.308c-130.298,0-236.308-106.01-236.308-236.308S125.702,19.692,256,19.692
			S492.308,125.702,492.308,256S386.298,492.308,256,492.308z"/>
	</g>
</g>
<g>
	<g>
		<path d="M191.942,410.692c-20.375-8.452-38.644-20.673-54.298-36.327c-15.663-15.663-27.885-33.932-36.327-54.298
			c-2.077-5.019-7.875-7.385-12.865-5.327c-5.029,2.086-7.414,7.846-5.327,12.865c9.442,22.769,23.096,43.183,40.596,60.683
			c17.481,17.49,37.894,31.144,60.663,40.596c1.24,0.51,2.519,0.75,3.779,0.75c3.856,0,7.519-2.289,9.096-6.067
			C199.346,418.538,196.961,412.779,191.942,410.692z"/>
	</g>
</g>
<g>
	<g>
		<path d="M428.884,184.384c-9.452-22.769-23.106-43.182-40.596-60.663c-17.5-17.5-37.914-31.154-60.683-40.596
			c-5.009-2.067-10.788,0.298-12.865,5.327c-2.086,5.019,0.298,10.779,5.327,12.865c20.365,8.442,38.635,20.664,54.298,36.327
			c15.654,15.654,27.875,33.923,36.327,54.298c1.577,3.788,5.24,6.067,9.096,6.067c1.26,0,2.539-0.24,3.779-0.75
			C428.586,195.173,430.971,189.413,428.884,184.384z"/>
	</g>
</g>
<g>
	<g>
		<path d="M256,206.769c-27.144,0-49.231,22.086-49.231,49.231c0,27.144,22.086,49.231,49.231,49.231
			c27.144,0,49.231-22.087,49.231-49.231C305.231,228.856,283.144,206.769,256,206.769z M256,285.538
			c-16.289,0-29.538-13.25-29.538-29.538s13.25-29.538,29.538-29.538s29.538,13.25,29.538,29.538S272.289,285.538,256,285.538z"/>
	</g>
</g>
<g>
</g>
<g>
</g>
<g>
</g>
<g>
</g>
<g>
</g>
<g>
</g>
<g>
</g>
<g>
</g>
<g>
</g>
<g>
</g>
<g>
</g>
<g>
</g>
<g>
</g>
<g>
</g>
<g>
</g>
</svg>
