<?xml version="1.0" encoding="iso-8859-1"?>
<!-- Generator: Adobe Illustrator 19.0.0, SVG Export Plug-In . SVG Version: 6.00 Build 0)  -->
<svg version="1.1" id="Layer_1" xmlns="http://www.w3.org/2000/svg" xmlns:xlink="http://www.w3.org/1999/xlink" x="0px" y="0px"
	 viewBox="0 0 512 512" style="enable-background:new 0 0 512 512;" xml:space="preserve">
<g>
	<g>
		<path d="M292.625,30.696C289.519,13.277,274.297,0,256,0c-18.297,0-33.519,13.277-36.625,30.696
			C103.232,48.4,13.964,148.952,13.964,269.964C13.964,403.423,122.541,512,256,512s242.036-108.577,242.036-242.036
			C498.036,148.952,408.768,48.4,292.625,30.696z M256,18.618c7.11,0,13.295,4.007,16.429,9.88
			c-5.431-0.366-10.907-0.571-16.429-0.571c-5.523,0-10.998,0.205-16.43,0.571C242.705,22.625,248.89,18.618,256,18.618z
			 M264.345,493.174v-27.719c0-5.14-4.168-9.309-9.309-9.309c-5.141,0-9.309,4.169-9.309,9.309v27.719
			c-114.036-4.772-208.165-99.24-212.936-213.276h27.718c5.141,0,9.309-4.168,9.309-9.309c0-5.141-4.168-9.309-9.309-9.309H32.791
			c4.772-116.364,98.9-209.752,212.936-214.525v27.718c0,5.142,4.168,9.309,9.309,9.309c5.141,0,9.309-4.167,9.309-9.309V46.755
			c116.364,4.773,210.092,98.161,214.864,214.525h-27.718c-5.141,0-9.309,4.168-9.309,9.309s4.168,9.309,9.309,9.309h27.718
			C474.437,393.934,380.709,488.402,264.345,493.174z"/>
	</g>
</g>
<g>
	<g>
		<path d="M355.182,164.65c-2.859-2.864-7.236-3.555-10.832-1.7l-129.837,66.641c-1.848,0.95-3.217,2.443-4.07,4.174
			c-1.741,0.876-3.213,2.242-4.125,4.017l-66.636,129.837c-1.846,3.595-1.159,7.973,1.7,10.832c1.786,1.791,4.168,2.727,6.586,2.727
			c1.441,0,2.9-0.335,4.246-1.027l129.832-66.636c1.77-0.909,3.132-2.375,4.008-4.108c1.739-0.851,3.235-2.233,4.188-4.086
			l66.641-129.837C358.727,171.888,358.041,167.51,355.182,164.65z M169.459,350.373l47.591-92.726l45.132,45.135L169.459,350.373z
			 M276.685,290.958l-47.808-47.811l98.223-50.415L276.685,290.958z"/>
	</g>
</g>
<g>
</g>
<g>
</g>
<g>
</g>
<g>
</g>
<g>
</g>
<g>
</g>
<g>
</g>
<g>
</g>
<g>
</g>
<g>
</g>
<g>
</g>
<g>
</g>
<g>
</g>
<g>
</g>
<g>
</g>
</svg>
