<?xml version="1.0" encoding="iso-8859-1"?>
<!-- Generator: Adobe Illustrator 19.0.0, SVG Export Plug-In . SVG Version: 6.00 Build 0)  -->
<svg version="1.1" id="Layer_1" xmlns="http://www.w3.org/2000/svg" xmlns:xlink="http://www.w3.org/1999/xlink" x="0px" y="0px"
	 viewBox="0 0 512 512" style="enable-background:new 0 0 512 512;" xml:space="preserve">
<g>
	<g>
		<path d="M437.002,75C388.645,26.637,324.341,0.001,255.941,0.001C187.55,0.001,123.247,26.637,74.88,75
			c-99.84,99.835-99.84,262.28,0,362.121c49.925,49.915,115.498,74.878,181.061,74.878c65.573,0,131.145-24.963,181.061-74.878
			C485.369,388.759,512,324.456,512,256.06C512,187.66,485.369,123.361,437.002,75z M88.807,88.926
			c44.645-44.64,104.004-69.227,167.135-69.227c59.841,0,116.286,22.087,160.027,62.404L81.988,416.087
			C-3.282,323.479-1.012,178.749,88.807,88.926z M423.076,423.195c-89.809,89.819-234.525,92.109-327.162,6.819L429.895,96.033
			c40.327,43.736,62.409,100.186,62.409,160.027C492.303,319.196,467.721,378.55,423.076,423.195z"/>
	</g>
</g>
<g>
</g>
<g>
</g>
<g>
</g>
<g>
</g>
<g>
</g>
<g>
</g>
<g>
</g>
<g>
</g>
<g>
</g>
<g>
</g>
<g>
</g>
<g>
</g>
<g>
</g>
<g>
</g>
<g>
</g>
</svg>
