<?xml version="1.0" encoding="iso-8859-1"?>
<!-- Generator: Adobe Illustrator 19.0.0, SVG Export Plug-In . SVG Version: 6.00 Build 0)  -->
<svg version="1.1" id="Layer_1" xmlns="http://www.w3.org/2000/svg" xmlns:xlink="http://www.w3.org/1999/xlink" x="0px" y="0px"
	 viewBox="0 0 512 512" style="enable-background:new 0 0 512 512;" xml:space="preserve">
<g>
	<g>
		<path d="M456.145,45.857C456.145,20.226,436.204,0,410.509,0H103.418C77.723,0,55.855,20.226,55.855,45.857v55.982
			c0,2.174,0.202,4.295,0.493,6.391c-0.293,0.905-0.493,1.852-0.493,2.854v353.747c0,0.009,0.002,0.017,0.002,0.026
			c0,0.019-0.002,0.036-0.002,0.054v9.136c0,20.583,17.664,37.952,38.186,37.952h325.85c20.523,0,36.254-17.369,36.254-37.952
			v-9.136c0-0.018-0.002-0.035-0.002-0.055c0-0.009,0.002-0.017,0.002-0.026V111.084c0-1.002-0.2-1.95-0.493-2.854
			c0.291-2.096,0.493-4.217,0.493-6.391V45.857z M74.473,138.921c9.309,5.873,18.439,10.025,28.945,10.025h148.073l-26.354,61.183
			c-0.96,2.24-0.948,4.483-0.193,6.61c-0.342,2.025-1.043,4.012-1.043,6.133c0,17.313,13.482,31.783,27.446,35.933v33.839
			c-16.291,9.125-34.205,4.973-34.532,4.891c-4.973-1.205-9.768,1.81-11.014,6.782c-1.246,4.991,1.907,10.047,6.893,11.291
			c0.559,0.136,6.192,1.596,14.901,1.596c6.874,0,16.769-0.922,23.751-4.108v115.123H94.041c-6.78,0-12.586,1.227-19.568,4.417
			V138.921z M261.618,241.411c-10.268,0-18.618-8.35-18.618-18.618c0-10.267,8.35-18.618,18.618-18.618
			c10.268,0,18.618,8.351,18.618,18.618C280.236,233.061,271.886,241.411,261.618,241.411z M275.565,256.892
			c-1.446,5.736-3.274,10.904-5.601,15.48v-13.567C272.291,258.306,273.769,257.68,275.565,256.892z M255.556,186.095l6.063-14.145
			l6.062,14.145c-1.978-0.325-3.994-0.539-6.062-0.539C259.55,185.557,257.534,185.77,255.556,186.095z M261.618,124.692
			l-6.063-14.147c1.978,0.326,3.994,0.539,6.063,0.539c2.068,0,4.084-0.212,6.062-0.539L261.618,124.692z M261.618,92.466
			c-10.268,0-18.618-8.35-18.618-18.618c0-10.267,8.35-18.618,18.618-18.618c10.268,0,18.618,8.351,18.618,18.618
			C280.236,84.116,271.886,92.466,261.618,92.466z M437.527,474.048c0,10.315-7.382,19.334-17.636,19.334H94.041
			c-10.259,0-19.568-9.019-19.568-19.334v-9.136c0-10.314,9.309-18.075,19.568-18.075h167.532c0.016,0,0.03,0.005,0.046,0.005
			c0.016,0,0.03-0.005,0.045-0.005h158.227c10.254,0,17.636,7.761,17.636,18.075V474.048z M437.527,432.633
			c-4.655-3.188-10.858-4.415-17.636-4.415H269.964V302.282c18.618-15.684,28.409-42.385,28.409-79.489
			c0-2.119,0.022-4.185-0.32-6.21c0.755-2.129,0.888-4.215-0.073-6.454l-26.234-61.183h138.764c10.506,0,20.036-4.152,27.018-10.025
			V432.633z M437.527,101.839c0,15.364-11.591,28.489-27.018,28.489H279.724l18.376-43.19c0.96-2.24,0.948-4.794,0.193-6.922
			c0.342-2.025,0.561-4.169,0.561-6.29c0-20.532-16.705-37.275-37.236-37.275c-20.532,0-37.236,16.685-37.236,37.217
			c0,2.121,0.219,4.176,0.561,6.201c-0.755,2.128-0.767,4.833,0.193,7.074l18.376,43.184H103.418
			c-15.427,0-28.945-13.125-28.945-28.489V45.857c0-15.363,13.518-27.239,28.945-27.239h307.091
			c15.427,0,27.018,11.876,27.018,27.239V101.839z"/>
	</g>
</g>
<g>
</g>
<g>
</g>
<g>
</g>
<g>
</g>
<g>
</g>
<g>
</g>
<g>
</g>
<g>
</g>
<g>
</g>
<g>
</g>
<g>
</g>
<g>
</g>
<g>
</g>
<g>
</g>
<g>
</g>
</svg>
