<?xml version="1.0" encoding="iso-8859-1"?>
<!-- Generator: Adobe Illustrator 19.0.0, SVG Export Plug-In . SVG Version: 6.00 Build 0)  -->
<svg version="1.1" id="Layer_1" xmlns="http://www.w3.org/2000/svg" xmlns:xlink="http://www.w3.org/1999/xlink" x="0px" y="0px"
	 viewBox="0 0 512 512" style="enable-background:new 0 0 512 512;" xml:space="preserve">
<g>
	<g>
		<path d="M473.356,79.644H325.445c-6.283,0-11.378,5.094-11.378,11.378s5.094,11.378,11.378,11.378H460.8v386.844H51.2V102.4
			h137.711c6.283,0,11.378-5.094,11.378-11.378s-5.095-11.378-11.378-11.378H41c-6.283,0-12.556,4.332-12.556,10.614v409.6
			C28.444,506.143,34.717,512,41,512h432.356c6.283,0,10.2-5.857,10.2-12.142v-409.6C483.556,83.976,479.639,79.644,473.356,79.644z
			"/>
	</g>
</g>
<g>
	<g>
		<path d="M367.618,218.747c-4.444-4.443-12.232-4.443-16.676,0l-83.564,82.978V0h-22.756v301.725l-82.389-82.978
			c-4.444-4.443-11.35-4.443-15.795,0c-4.444,4.444-4.297,11.645,0.147,16.089l102.474,102.4c2.222,2.224,5.171,3.333,8.08,3.333
			c2.912,0,5.842-1.11,8.064-3.333l102.41-102.4C372.057,230.392,372.062,223.192,367.618,218.747z"/>
	</g>
</g>
<g>
</g>
<g>
</g>
<g>
</g>
<g>
</g>
<g>
</g>
<g>
</g>
<g>
</g>
<g>
</g>
<g>
</g>
<g>
</g>
<g>
</g>
<g>
</g>
<g>
</g>
<g>
</g>
<g>
</g>
</svg>
