<?xml version="1.0" encoding="iso-8859-1"?>
<!-- Generator: Adobe Illustrator 19.0.0, SVG Export Plug-In . SVG Version: 6.00 Build 0)  -->
<svg version="1.1" id="Layer_1" xmlns="http://www.w3.org/2000/svg" xmlns:xlink="http://www.w3.org/1999/xlink" x="0px" y="0px"
	 viewBox="0 0 512 512" style="enable-background:new 0 0 512 512;" xml:space="preserve">
<g>
	<g>
		<path d="M226.185,20.105c-99.496,0-180.449,80.949-180.449,180.449c0,99.502,80.953,180.449,180.449,180.449
			c99.495,0,180.449-80.947,180.449-180.449C406.634,101.054,325.68,20.105,226.185,20.105z M226.185,360.953
			c-88.443,0-160.399-71.955-160.399-160.399c0-88.442,71.956-160.399,160.399-160.399c88.442,0,160.399,71.956,160.399,160.399
			C386.584,288.998,314.627,360.953,226.185,360.953z"/>
	</g>
</g>
<g>
	<g>
		<path d="M466.264,200.554c0-79.547-39.008-153.868-104.777-198.8c-4.582-3.137-10.679-1.948-13.811,2.625
			c-3.123,4.571-1.882,10.807,2.69,13.93c60.306,41.196,96.336,109.325,96.336,182.245c0,121.611-98.923,220.549-220.534,220.549
			c-37.437,0-74.414-9.55-106.936-27.616c-4.836-2.684-10.943-0.936-13.625,3.89c-2.692,4.841-1.466,10.945,3.38,13.633
			c32.581,18.107,68.542,28.347,106.135,29.908v51.033H156.01c-5.541,0-10.025,4.489-10.025,10.025
			c0,5.536,4.484,10.025,10.025,10.025h140.711c5.541,0,10.025-4.489,10.025-10.025c0-5.536-4.484-10.025-10.025-10.025h-61.55
			v-51.022C362.99,435.653,466.264,329.864,466.264,200.554z"/>
	</g>
</g>
<g>
</g>
<g>
</g>
<g>
</g>
<g>
</g>
<g>
</g>
<g>
</g>
<g>
</g>
<g>
</g>
<g>
</g>
<g>
</g>
<g>
</g>
<g>
</g>
<g>
</g>
<g>
</g>
<g>
</g>
</svg>
