<?xml version="1.0" encoding="iso-8859-1"?>
<!-- Generator: Adobe Illustrator 19.0.0, SVG Export Plug-In . SVG Version: 6.00 Build 0)  -->
<svg version="1.1" id="Layer_1" xmlns="http://www.w3.org/2000/svg" xmlns:xlink="http://www.w3.org/1999/xlink" x="0px" y="0px"
	 viewBox="0 0 512 512" style="enable-background:new 0 0 512 512;" xml:space="preserve">
<g>
	<g>
		<path d="M485.5,50.286H28.397C13.259,50.286,0,61.984,0,77.118v356.537c0,15.133,13.259,28.059,28.397,28.059H485.5
			c15.134,0,26.5-12.926,26.5-28.059V77.118C512,61.984,500.634,50.286,485.5,50.286z M481.732,68.571L256.947,293.357
			L32.161,68.571H481.732z M493.714,433.655c0,5.049-3.165,9.773-8.214,9.773H28.397c-5.054,0-10.112-4.724-10.112-9.773V80.886
			l231.723,231.25c1.786,1.787,4.362,2.68,6.701,2.68c2.339,0,4.324-0.893,6.109-2.68l230.895-231.25V433.655z"/>
	</g>
</g>
<g>
</g>
<g>
</g>
<g>
</g>
<g>
</g>
<g>
</g>
<g>
</g>
<g>
</g>
<g>
</g>
<g>
</g>
<g>
</g>
<g>
</g>
<g>
</g>
<g>
</g>
<g>
</g>
<g>
</g>
</svg>
