<?xml version="1.0" encoding="iso-8859-1"?>
<!-- Generator: Adobe Illustrator 19.0.0, SVG Export Plug-In . SVG Version: 6.00 Build 0)  -->
<svg version="1.1" id="Layer_1" xmlns="http://www.w3.org/2000/svg" xmlns:xlink="http://www.w3.org/1999/xlink" x="0px" y="0px"
	 viewBox="0 0 512 512" style="enable-background:new 0 0 512 512;" xml:space="preserve">
<g>
	<g>
		<path d="M498.92,188.452c-0.072-0.267-0.135-0.527-0.233-0.786c-0.049-0.13-0.074-0.268-0.127-0.395
			c-0.055-0.125-0.133-0.24-0.195-0.363c-0.123-0.255-0.254-0.505-0.404-0.748c-0.08-0.131-0.15-0.269-0.237-0.395
			c-0.013-0.019-0.019-0.039-0.032-0.058c-0.068-0.095-0.154-0.167-0.224-0.259c-0.165-0.214-0.332-0.421-0.516-0.621
			c-0.11-0.117-0.212-0.24-0.328-0.351c-0.123-0.12-0.256-0.218-0.385-0.329c-0.108-0.094-0.193-0.204-0.307-0.293L261.892,1.822
			c-3.132-2.429-7.517-2.429-10.649,0L17.204,183.853c-0.11,0.087-0.192,0.195-0.298,0.286c-0.133,0.114-0.271,0.216-0.398,0.34
			c-0.114,0.11-0.216,0.232-0.324,0.348c-0.184,0.2-0.351,0.406-0.514,0.62c-0.072,0.093-0.159,0.165-0.226,0.26
			c-0.013,0.019-0.019,0.039-0.032,0.058c-0.089,0.126-0.159,0.263-0.239,0.395c-0.15,0.243-0.281,0.493-0.406,0.748
			c-0.059,0.123-0.142,0.238-0.197,0.363c-0.055,0.127-0.085,0.265-0.133,0.395c-0.097,0.259-0.178,0.52-0.248,0.786
			c-0.042,0.152-0.106,0.299-0.137,0.453c-0.026,0.121-0.028,0.249-0.047,0.371c-0.047,0.269-0.072,0.536-0.091,0.808
			c-0.013,0.178-0.491,0.355-0.493,0.532c0,0.028-0.457,0.053-0.457,0.08v294.696c0,14.352,12.57,26.607,26.919,26.607h433.373
			c14.348,0,25.124-12.255,25.124-26.607V190.697c0-0.028,0.44-0.053,0.44-0.08c-0.002-0.178,0.193-0.354,0.18-0.532
			c-0.019-0.272,0.068-0.54,0.021-0.808c-0.019-0.123,0.036-0.251,0.011-0.371C498.997,188.751,498.961,188.604,498.92,188.452z
			 M256.568,19.649l219.471,170.702L256.568,344.794L37.097,190.351L256.568,19.649z M30.299,481.825V207.395l161.078,113.351
			L30.299,481.825z M43.454,494.664l163.209-163.501l44.919,31.464c1.49,1.054,3.242,1.506,4.986,1.506
			c1.744,0,3.496-0.561,4.986-1.615l44.922-31.338l163.211,163.484H43.454z M481.042,481.821L319.966,320.745l161.076-113.349
			V481.821z"/>
	</g>
</g>
<g>
</g>
<g>
</g>
<g>
</g>
<g>
</g>
<g>
</g>
<g>
</g>
<g>
</g>
<g>
</g>
<g>
</g>
<g>
</g>
<g>
</g>
<g>
</g>
<g>
</g>
<g>
</g>
<g>
</g>
</svg>
