<?xml version="1.0" encoding="iso-8859-1"?>
<!-- Generator: Adobe Illustrator 19.0.0, SVG Export Plug-In . SVG Version: 6.00 Build 0)  -->
<svg version="1.1" id="Layer_1" xmlns="http://www.w3.org/2000/svg" xmlns:xlink="http://www.w3.org/1999/xlink" x="0px" y="0px"
	 viewBox="0 0 512 512" style="enable-background:new 0 0 512 512;" xml:space="preserve">
<g>
	<g>
		<path d="M256,0C114.841,0,0,114.841,0,256s114.841,256,256,256s256-114.841,256-256S397.159,0,256,0z M256,492.308
			c-130.298,0-236.308-106.01-236.308-236.308S125.702,19.692,256,19.692S492.308,125.702,492.308,256S386.298,492.308,256,492.308z
			"/>
	</g>
</g>
<g>
	<g>
		<path d="M254.981,206.769c-5.438,0-9.846,4.41-9.846,9.846v187.077c0,5.438,4.409,9.846,9.846,9.846
			c5.438,0,9.846-4.409,9.846-9.846V216.615C264.827,211.179,260.418,206.769,254.981,206.769z"/>
	</g>
</g>
<g>
	<g>
		<circle cx="256" cy="118.154" r="19.692"/>
	</g>
</g>
<g>
</g>
<g>
</g>
<g>
</g>
<g>
</g>
<g>
</g>
<g>
</g>
<g>
</g>
<g>
</g>
<g>
</g>
<g>
</g>
<g>
</g>
<g>
</g>
<g>
</g>
<g>
</g>
<g>
</g>
</svg>
