<?xml version="1.0" encoding="iso-8859-1"?>
<!-- Generator: Adobe Illustrator 19.0.0, SVG Export Plug-In . SVG Version: 6.00 Build 0)  -->
<svg version="1.1" id="Layer_1" xmlns="http://www.w3.org/2000/svg" xmlns:xlink="http://www.w3.org/1999/xlink" x="0px" y="0px"
	 viewBox="0 0 512 512" style="enable-background:new 0 0 512 512;" xml:space="preserve">
<g>
	<g>
		<path d="M469.5,0H44.755C20.697,0,0,18.838,0,42.891v424.745C0,491.689,20.697,512,44.755,512H469.5
			c24.059,0,42.5-20.311,42.5-44.364V42.891C512,18.838,493.558,0,469.5,0z M490.213,468.372c0,12.061-9.778,21.84-21.84,21.84
			H43.628c-12.063,0-21.84-9.779-21.84-21.84V43.628c0-12.061,9.778-21.84,21.84-21.84h424.745c12.063,0,21.84,9.779,21.84,21.84
			V468.372z"/>
	</g>
</g>
<g>
	<g>
		<path d="M215.738,198.91L103.681,87.149h82.638c6.016,0,10.894-4.872,10.894-10.894s-4.878-10.894-10.894-10.894H77.383
			c-6.016,0-12.021,4.136-12.021,10.157v108.936c0,6.021,4.878,10.894,10.894,10.894s10.894-4.872,10.894-10.894v-82.638
			L199.84,213.944c2.128,2.128,5.197,3.192,7.984,3.192c2.787,0,5.716-1.064,7.843-3.192
			C219.923,209.689,219.993,203.165,215.738,198.91z"/>
	</g>
</g>
<g>
	<g>
		<path d="M436.093,426.247c0.141-0.702-0.348-1.417-0.348-2.133V315.178c0-6.021-4.878-10.894-10.894-10.894
			s-10.894,4.872-10.894,10.894v82.638L302.394,285.689c-4.255-4.255-10.867-4.255-15.122,0s-4.114,11.519,0.141,15.774
			l112.268,112.495h-82.638c-6.016,0-10.894,4.872-10.894,10.894s4.878,10.894,10.894,10.894h108.936
			c0.714,0,1.428-0.441,2.132-0.583c0.338-0.066,0.653-0.377,0.98-0.476c0.351-0.104,0.708-0.276,1.049-0.415
			c0.402-0.167,0.767-0.439,1.145-0.649c0.241-0.136,0.495-0.263,0.727-0.42c1.201-0.798,2.231-1.841,3.032-3.043
			c0.153-0.229,0.255-0.484,0.389-0.723c0.214-0.378,0.44-0.753,0.608-1.157c0.141-0.34,0.219-0.697,0.324-1.045
			C436.464,426.904,436.027,426.588,436.093,426.247z"/>
	</g>
</g>
<g>
</g>
<g>
</g>
<g>
</g>
<g>
</g>
<g>
</g>
<g>
</g>
<g>
</g>
<g>
</g>
<g>
</g>
<g>
</g>
<g>
</g>
<g>
</g>
<g>
</g>
<g>
</g>
<g>
</g>
</svg>
