<?xml version="1.0" encoding="iso-8859-1"?>
<!-- Generator: Adobe Illustrator 19.0.0, SVG Export Plug-In . SVG Version: 6.00 Build 0)  -->
<svg version="1.1" id="Layer_1" xmlns="http://www.w3.org/2000/svg" xmlns:xlink="http://www.w3.org/1999/xlink" x="0px" y="0px"
	 viewBox="0 0 512 512" style="enable-background:new 0 0 512 512;" xml:space="preserve">
<g>
	<g>
		<path d="M510.977,251.324c-45.605-99.366-145.692-163.569-254.98-163.569S46.622,151.959,1.023,251.324
			c-1.364,2.968-1.364,6.385,0,9.353c45.599,99.366,145.686,163.568,254.975,163.568s209.375-64.202,254.98-163.568
			C512.341,257.709,512.341,254.293,510.977,251.324z M131.533,142.373c37.469-20.673,80.136-32.185,124.464-32.185
			c37.735,0,74.266,8.344,107.414,23.571c17.781,24.172,27.182,52.869,27.182,82.985c0,77.309-62.895,140.204-140.204,140.204
			c-77.31,0-140.204-62.895-140.204-140.204C110.185,190.314,117.574,164.636,131.533,142.373z M255.997,401.812
			c-98.822,0-189.468-57.055-232.383-145.812c17.224-35.623,42.152-66.125,72.198-89.896c-5.313,16.232-8.06,33.299-8.06,50.639
			c0,89.676,72.961,162.637,162.637,162.637c89.676,0,162.637-72.961,162.637-162.637c0-21.543-4.164-42.457-12.186-61.909
			c36.928,25.052,67.462,59.637,87.545,101.166C445.465,344.757,354.819,401.812,255.997,401.812z"/>
	</g>
</g>
<g>
	<g>
		<path d="M188.699,143.837c-24.738,0-44.865,20.128-44.865,44.865c0,24.738,20.127,44.865,44.865,44.865
			c24.738,0,44.865-20.127,44.865-44.865C233.565,163.965,213.438,143.837,188.699,143.837z M188.699,211.135
			c-12.372,0-22.433-10.061-22.433-22.433c0-12.372,10.061-22.433,22.433-22.433s22.433,10.061,22.433,22.433
			C211.132,201.074,201.071,211.135,188.699,211.135z"/>
	</g>
</g>
<g>
</g>
<g>
</g>
<g>
</g>
<g>
</g>
<g>
</g>
<g>
</g>
<g>
</g>
<g>
</g>
<g>
</g>
<g>
</g>
<g>
</g>
<g>
</g>
<g>
</g>
<g>
</g>
<g>
</g>
</svg>
