<?xml version="1.0" encoding="iso-8859-1"?>
<!-- Generator: Adobe Illustrator 19.0.0, SVG Export Plug-In . SVG Version: 6.00 Build 0)  -->
<svg version="1.1" id="Layer_1" xmlns="http://www.w3.org/2000/svg" xmlns:xlink="http://www.w3.org/1999/xlink" x="0px" y="0px"
	 viewBox="0 0 512 512" style="enable-background:new 0 0 512 512;" xml:space="preserve">
<g>
	<g>
		<path d="M422.257,207.402c-0.101-0.352-0.186-0.707-0.325-1.044c-0.116-0.286-0.275-0.545-0.416-0.816
			c-0.154-0.297-0.294-0.599-0.478-0.88c-0.17-0.26-0.375-0.489-0.569-0.732c-0.174-0.219-0.321-0.457-0.514-0.662L259.328,32.939
			c-1.897-2.016-4.539-2.821-7.309-2.821H71.314c-5.544,0-11.079,3.822-11.079,9.365v461.804c0,5.545,5.534,10.713,11.079,10.713
			h341.333c5.544,0,9-5.168,9-10.713V210.149c0-0.659,0.448-1.311,0.323-1.951C421.915,207.924,422.333,207.669,422.257,207.402z
			 M261.02,64.799l128.393,135.985H261.02V64.799z M401.569,491.922H80.314V50.196h160.627v159.953
			c0,5.545,5.534,10.713,11.079,10.713h149.549V491.922z"/>
	</g>
</g>
<g>
	<g>
		<path d="M442.912,0H91.392c-5.544,0-10.039,4.495-10.039,10.039c0,5.544,4.495,10.039,10.039,10.039h340.294v461.13
			c0,5.545,4.495,10.039,10.039,10.039c5.544,0,10.039-4.494,10.039-10.039V9.365C451.765,3.822,448.456,0,442.912,0z"/>
	</g>
</g>
<g>
</g>
<g>
</g>
<g>
</g>
<g>
</g>
<g>
</g>
<g>
</g>
<g>
</g>
<g>
</g>
<g>
</g>
<g>
</g>
<g>
</g>
<g>
</g>
<g>
</g>
<g>
</g>
<g>
</g>
</svg>
