<?xml version="1.0" encoding="iso-8859-1"?>
<!-- Generator: Adobe Illustrator 19.0.0, SVG Export Plug-In . SVG Version: 6.00 Build 0)  -->
<svg version="1.1" id="Layer_1" xmlns="http://www.w3.org/2000/svg" xmlns:xlink="http://www.w3.org/1999/xlink" x="0px" y="0px"
	 viewBox="0 0 512 512" style="enable-background:new 0 0 512 512;" xml:space="preserve">
<g>
	<g>
		<path d="M448.175,188.365c-0.107-0.374-0.06-0.751-0.207-1.109c-0.124-0.303-0.223-0.579-0.372-0.867
			c-0.164-0.315-0.279-0.637-0.474-0.935c-0.181-0.276-0.381-0.519-0.586-0.777c-0.186-0.233-0.333-0.486-0.539-0.703L275.335,2.997
			C273.319,0.855,270.516,0,267.574,0h-192c-5.891,0-11.771,4.061-11.771,9.95v490.667c0,5.892,5.88,11.383,11.771,11.383H438.24
			c5.89,0,9.562-5.491,9.562-11.383V191.284c0-0.701,0.477-1.393,0.342-2.073C448.088,188.919,448.256,188.649,448.175,188.365z
			 M277.136,36.849l136.418,144.484H277.136V36.849z M426.469,490.667H85.136V21.333h170.667v169.95
			c0,5.892,5.88,11.383,11.771,11.383h158.896V490.667z"/>
	</g>
</g>
<g>
	<g>
		<rect x="149.136" y="160" width="64" height="21.333"/>
	</g>
</g>
<g>
	<g>
		<rect x="149.136" y="234.667" width="213.333" height="21.333"/>
	</g>
</g>
<g>
	<g>
		<rect x="149.136" y="309.333" width="213.333" height="21.333"/>
	</g>
</g>
<g>
	<g>
		<rect x="149.136" y="384" width="213.333" height="21.333"/>
	</g>
</g>
<g>
</g>
<g>
</g>
<g>
</g>
<g>
</g>
<g>
</g>
<g>
</g>
<g>
</g>
<g>
</g>
<g>
</g>
<g>
</g>
<g>
</g>
<g>
</g>
<g>
</g>
<g>
</g>
<g>
</g>
</svg>
