<?xml version="1.0" encoding="iso-8859-1"?>
<!-- Generator: Adobe Illustrator 19.0.0, SVG Export Plug-In . SVG Version: 6.00 Build 0)  -->
<svg version="1.1" id="Layer_1" xmlns="http://www.w3.org/2000/svg" xmlns:xlink="http://www.w3.org/1999/xlink" x="0px" y="0px"
	 viewBox="0 0 512 512" style="enable-background:new 0 0 512 512;" xml:space="preserve">
<g>
	<g>
		<path d="M370.971,135.314l90.682-99.746c2.566-2.829,3.226-6.583,1.679-10.082c-1.547-3.495-5.008-5.422-8.828-5.422H67.159V9.659
			C67.159,4.325,62.839,0,57.5,0s-9.659,4.325-9.659,9.659v19.41v212.49v260.783c0,5.334,4.32,9.659,9.659,9.659
			s9.659-4.325,9.659-9.659V251.87h387.345c3.82,0,7.282-2.581,8.828-6.076c1.547-3.499,0.887-7.742-1.679-10.571L370.971,135.314z
			 M67.159,232.553V39.381h365.509l-81.9,89.761c-3.348,3.688-3.348,9.474,0,13.162l81.9,90.25H67.159z"/>
	</g>
</g>
<g>
</g>
<g>
</g>
<g>
</g>
<g>
</g>
<g>
</g>
<g>
</g>
<g>
</g>
<g>
</g>
<g>
</g>
<g>
</g>
<g>
</g>
<g>
</g>
<g>
</g>
<g>
</g>
<g>
</g>
</svg>
