<?xml version="1.0" encoding="iso-8859-1"?>
<!-- Generator: Adobe Illustrator 19.0.0, SVG Export Plug-In . SVG Version: 6.00 Build 0)  -->
<svg version="1.1" id="Layer_1" xmlns="http://www.w3.org/2000/svg" xmlns:xlink="http://www.w3.org/1999/xlink" x="0px" y="0px"
	 viewBox="0 0 512 512" style="enable-background:new 0 0 512 512;" xml:space="preserve">
<g>
	<g>
		<path d="M509.27,105.194L398.715,2.401C396.815,0.637,394.59,0,392,0H31.77C14.84,0,0,13.103,0,30.047v450.53
			C0,497.522,14.85,512,31.8,512h450.53c16.94,0,29.67-14.462,29.67-31.397V112.688C512,109.844,511.35,107.128,509.27,105.194z
			 M112.64,20.48H358.4v194.56H112.64V20.48z M491.52,480.603c0,5.641-3.54,10.917-9.19,10.917H31.8
			c-5.66,0-11.32-5.287-11.32-10.942V30.047c0-5.655,5.65-9.568,11.29-9.568h60.39v204.112c0,5.656,5.64,10.928,11.3,10.928H369.7
			c5.66,0,9.18-5.271,9.18-10.928V20.48h9.09l103.55,96.667V480.603z"/>
	</g>
</g>
<g>
	<g>
		<rect x="296.96" y="51.2" width="20.48" height="133.12"/>
	</g>
</g>
<g>
	<g>
		<path d="M369.9,327.68H103.46c-5.66,0-10.24,4.585-10.24,10.24s4.58,10.24,10.24,10.24H369.9c5.66,0,10.24-4.585,10.24-10.24
			S375.56,327.68,369.9,327.68z"/>
	</g>
</g>
<g>
	<g>
		<path d="M369.9,378.88H103.46c-5.66,0-10.24,4.585-10.24,10.24s4.58,10.24,10.24,10.24H369.9c5.66,0,10.24-4.585,10.24-10.24
			S375.56,378.88,369.9,378.88z"/>
	</g>
</g>
<g>
	<g>
		<path d="M369.9,430.08H103.46c-5.66,0-10.24,4.585-10.24,10.24s4.58,10.24,10.24,10.24H369.9c5.66,0,10.24-4.585,10.24-10.24
			S375.56,430.08,369.9,430.08z"/>
	</g>
</g>
<g>
</g>
<g>
</g>
<g>
</g>
<g>
</g>
<g>
</g>
<g>
</g>
<g>
</g>
<g>
</g>
<g>
</g>
<g>
</g>
<g>
</g>
<g>
</g>
<g>
</g>
<g>
</g>
<g>
</g>
</svg>
