<?xml version="1.0" encoding="iso-8859-1"?>
<!-- Generator: Adobe Illustrator 19.0.0, SVG Export Plug-In . SVG Version: 6.00 Build 0)  -->
<svg version="1.1" id="Layer_1" xmlns="http://www.w3.org/2000/svg" xmlns:xlink="http://www.w3.org/1999/xlink" x="0px" y="0px"
	 viewBox="0 0 512 512" style="enable-background:new 0 0 512 512;" xml:space="preserve">
<g>
	<g>
		<path d="M484.968,107.055H270.996c-8.305,0-21.382-4.662-27.991-9.617l-44.691-33.366c-9.909-7.427-26.695-12.872-39.05-12.872
			H28.845C13.473,51.2,0,63.093,0,78.48v353.792C0,447.658,13.477,460.8,28.864,460.8h456.205c15.382,0,26.932-13.151,26.932-28.548
			v-297.9C512,118.957,500.405,107.055,484.968,107.055z M493.382,432.252c0,5.132-3.2,9.93-8.314,9.93H28.864
			c-5.118,0-10.245-4.789-10.245-9.91V78.48c0-5.122,5.118-8.661,10.227-8.661h130.418c8.236,0,21.268,4.038,27.877,8.992
			l44.691,33.675c9.905,7.432,26.741,13.188,39.164,13.188h213.973c5.173,0,8.414,3.549,8.414,8.68V432.252z"/>
	</g>
</g>
<g>
	<g>
		<path d="M447.8,302.545h-83.782c-5.141,0-9.309,4.168-9.309,9.309s4.168,9.309,9.309,9.309H447.8c5.141,0,9.309-4.168,9.309-9.309
			S452.941,302.545,447.8,302.545z"/>
	</g>
</g>
<g>
	<g>
		<path d="M447.8,339.782H317.473c-5.141,0-9.309,4.168-9.309,9.309c0,5.141,4.168,9.309,9.309,9.309H447.8
			c5.141,0,9.309-4.168,9.309-9.309C457.109,343.95,452.941,339.782,447.8,339.782z"/>
	</g>
</g>
<g>
	<g>
		<path d="M447.8,377.018H317.473c-5.141,0-9.309,4.168-9.309,9.309s4.168,9.309,9.309,9.309H447.8c5.141,0,9.309-4.168,9.309-9.309
			S452.941,377.018,447.8,377.018z"/>
	</g>
</g>
<g>
</g>
<g>
</g>
<g>
</g>
<g>
</g>
<g>
</g>
<g>
</g>
<g>
</g>
<g>
</g>
<g>
</g>
<g>
</g>
<g>
</g>
<g>
</g>
<g>
</g>
<g>
</g>
<g>
</g>
</svg>
