<?xml version="1.0" encoding="iso-8859-1"?>
<!-- Generator: Adobe Illustrator 19.0.0, SVG Export Plug-In . SVG Version: 6.00 Build 0)  -->
<svg version="1.1" id="Layer_1" xmlns="http://www.w3.org/2000/svg" xmlns:xlink="http://www.w3.org/1999/xlink" x="0px" y="0px"
	 viewBox="0 0 512 512" style="enable-background:new 0 0 512 512;" xml:space="preserve">
<g>
	<g>
		<path d="M474.363,96.604H251.17V66.956c0-15.973-11.962-28.315-27.891-28.315H68.533c-15.93,0-29.892,12.342-29.892,28.315v28.999
			C19.321,95.955,0,113.277,0,134.564v299.539c0,21.287,18.335,39.256,39.642,39.256h434.722c21.307,0,37.637-17.969,37.637-39.256
			V134.564C512,113.277,495.67,96.604,474.363,96.604z M57.962,66.956c0-5.317,5.292-8.994,10.571-8.994h154.745
			c5.278,0,8.571,3.677,8.571,8.994v29.647H57.962V66.956z M492.679,434.103c0,10.637-7.665,19.935-18.316,19.935H39.642
			c-10.656,0-20.321-9.298-20.321-19.935V134.564c0-10.637,9.665-18.639,20.321-18.639h9.66H242.51h231.854
			c10.651,0,18.316,8.002,18.316,18.639V434.103z"/>
	</g>
</g>
<g>
	<g>
		<path d="M435.717,299.472h-96.604c-5.335,0-9.66,4.325-9.66,9.66s4.325,9.66,9.66,9.66h96.604c5.335,0,9.66-4.325,9.66-9.66
			S441.052,299.472,435.717,299.472z"/>
	</g>
</g>
<g>
	<g>
		<path d="M435.717,338.113H290.811c-5.335,0-9.66,4.325-9.66,9.66c0,5.335,4.325,9.66,9.66,9.66h144.906
			c5.335,0,9.66-4.325,9.66-9.66C445.377,342.439,441.052,338.113,435.717,338.113z"/>
	</g>
</g>
<g>
	<g>
		<path d="M435.717,376.755H290.811c-5.335,0-9.66,4.325-9.66,9.66s4.325,9.66,9.66,9.66h144.906c5.335,0,9.66-4.325,9.66-9.66
			S441.052,376.755,435.717,376.755z"/>
	</g>
</g>
<g>
</g>
<g>
</g>
<g>
</g>
<g>
</g>
<g>
</g>
<g>
</g>
<g>
</g>
<g>
</g>
<g>
</g>
<g>
</g>
<g>
</g>
<g>
</g>
<g>
</g>
<g>
</g>
<g>
</g>
</svg>
