<?xml version="1.0" encoding="iso-8859-1"?>
<!-- Generator: Adobe Illustrator 19.0.0, SVG Export Plug-In . SVG Version: 6.00 Build 0)  -->
<svg version="1.1" id="Layer_1" xmlns="http://www.w3.org/2000/svg" xmlns:xlink="http://www.w3.org/1999/xlink" x="0px" y="0px"
	 viewBox="0 0 512 512" style="enable-background:new 0 0 512 512;" xml:space="preserve">
<g>
	<g>
		<path d="M479.418,65.164h-46.545H329.509V41.261C329.509,18.163,311.691,0,288.604,0h-74.514C191,0,171.254,18.163,171.254,41.261
			v23.902H79.127H32.582c-5.141,0-9.309,4.168-9.309,9.309c0,5.141,4.168,9.309,9.309,9.309h37.841L96.041,466.25
			c1.691,25.227,23.673,45.75,49.005,45.75h221.909c25.337,0,47.318-20.523,49.005-45.75l25.618-382.468h37.841
			c5.141,0,9.309-4.168,9.309-9.309C488.727,69.332,484.559,65.164,479.418,65.164z M214.091,18.618h74.514
			c12.818,0,22.286,9.812,22.286,22.643v23.902H189.873V41.261h0C189.873,28.431,201.268,18.618,214.091,18.618z M397.386,465.004
			c-1.05,15.65-14.7,28.377-30.432,28.377H145.045c-15.732,0-29.382-12.732-30.432-28.377L89.082,83.782h92.446h139.636h101.754
			L397.386,465.004z"/>
	</g>
</g>
<g>
	<g>
		<path d="M255.036,139.007c-5.141,0-9.309,4.169-9.309,9.309v288.582c0,5.141,4.168,9.309,9.309,9.309
			c5.141,0,9.309-4.168,9.309-9.309V148.316C264.345,143.176,260.177,139.007,255.036,139.007z"/>
	</g>
</g>
<g>
	<g>
		<path d="M209.409,436.003l-27.927-288.582c-0.491-5.115-5.041-8.896-10.159-8.368c-5.118,0.49-8.864,5.041-8.368,10.158
			l27.927,288.582c0.464,4.815,4.513,8.414,9.255,8.414c0.3,0,0.6-0.013,0.904-0.045
			C206.159,445.672,209.904,441.122,209.409,436.003z"/>
	</g>
</g>
<g>
	<g>
		<path d="M340.677,139.053c-5.073-0.537-9.664,3.25-10.159,8.368l-27.927,288.582c-0.495,5.118,3.25,9.668,8.368,10.158
			c0.305,0.033,0.605,0.045,0.905,0.045c4.741,0,8.791-3.599,9.254-8.414l27.927-288.582
			C349.541,144.094,345.795,139.543,340.677,139.053z"/>
	</g>
</g>
<g>
</g>
<g>
</g>
<g>
</g>
<g>
</g>
<g>
</g>
<g>
</g>
<g>
</g>
<g>
</g>
<g>
</g>
<g>
</g>
<g>
</g>
<g>
</g>
<g>
</g>
<g>
</g>
<g>
</g>
</svg>
