<?xml version="1.0" encoding="iso-8859-1"?>
<!-- Generator: Adobe Illustrator 19.0.0, SVG Export Plug-In . SVG Version: 6.00 Build 0)  -->
<svg version="1.1" id="Layer_1" xmlns="http://www.w3.org/2000/svg" xmlns:xlink="http://www.w3.org/1999/xlink" x="0px" y="0px"
	 viewBox="0 0 512 512" style="enable-background:new 0 0 512 512;" xml:space="preserve">
<g>
	<g>
		<path d="M502.857,238.018h-29.125c-8.627-48-49.665-82.593-98.875-82.593c-44.656,0-82.589,29.113-95.676,69.464
			c-6.085-2.769-14.449-5.694-23.181-5.694s-17.096,2.81-23.181,5.579c-13.087-40.353-51.02-69.331-95.676-69.331
			c-49.21,0-90.248,34.574-98.875,82.574H9.143c-5.054,0-9.143,4.094-9.143,9.143s4.089,9.143,9.143,9.143h27.429
			c0,54.857,45.116,100.264,100.571,100.264c55.455,0,100.571-45.269,100.571-100.724c0-4.257-0.297-8.521-0.813-12.64
			c4.212-2.254,11.866-5.76,19.098-5.76c6.826,0,14.473,3.23,19.1,5.691c-0.518,4.124-0.815,8.305-0.815,12.566
			c0,55.456,45.116,100.874,100.571,100.874c55.455,0,100.571-45.413,100.571-100.27h27.429c5.053,0,9.143-4.094,9.143-9.143
			S507.911,238.018,502.857,238.018z M137.143,337.976c-45.375,0-82.286-36.915-82.286-82.286c0-45.371,36.911-82.286,82.286-82.286
			c45.375,0,82.286,36.915,82.286,82.286C219.429,301.061,182.518,337.976,137.143,337.976z M374.857,337.976
			c-45.375,0-82.286-36.915-82.286-82.286c0-45.371,36.911-82.286,82.286-82.286c45.375,0,82.286,36.915,82.286,82.286
			C457.143,301.061,420.232,337.976,374.857,337.976z"/>
	</g>
</g>
<g>
</g>
<g>
</g>
<g>
</g>
<g>
</g>
<g>
</g>
<g>
</g>
<g>
</g>
<g>
</g>
<g>
</g>
<g>
</g>
<g>
</g>
<g>
</g>
<g>
</g>
<g>
</g>
<g>
</g>
</svg>
