<?xml version="1.0" encoding="iso-8859-1"?>
<!-- Generator: Adobe Illustrator 19.0.0, SVG Export Plug-In . SVG Version: 6.00 Build 0)  -->
<svg version="1.1" id="Layer_1" xmlns="http://www.w3.org/2000/svg" xmlns:xlink="http://www.w3.org/1999/xlink" x="0px" y="0px"
	 viewBox="0 0 512 512" style="enable-background:new 0 0 512 512;" xml:space="preserve">
<g>
	<g>
		<path d="M408.985,116.634c-18.707,0-34.976,9.583-44.627,24.081c-9.651-14.498-26.036-24.081-44.743-24.081
			s-35.15,9.583-44.801,24.081c-9.651-14.498-26.587-24.081-45.294-24.081c-13.777,0-25.108,5.2-36.323,13.729v-76.55
			C193.197,24.138,169.051,0,139.366,0S85.536,24.138,85.536,53.813v164.09c-13.458,7.8-35.887,32.4-35.887,60.179v107.697
			c0,69.26,57.248,126.221,126.473,126.221h161.615c69.225,0,124.615-56.961,124.615-126.221v-98.681v-62.803v-53.919
			C462.352,140.745,438.669,116.634,408.985,116.634z M444.408,224.295v62.803v98.681c0,59.368-47.339,108.277-106.672,108.277
			H176.121c-59.333,0-108.529-48.909-108.529-108.277V278.082c0-16.494,11.215-30.606,17.944-38.398v47.413
			c0,4.959,4.017,8.972,8.972,8.972c4.955,0,8.972-4.013,8.972-8.972V53.813c0-19.775,16.099-35.87,35.887-35.87
			c19.788,0,35.887,16.095,35.887,35.87v116.563v116.721c0,4.959,4.017,8.972,8.972,8.972c4.955,0,8.972-4.013,8.972-8.972V170.377
			c0-19.74,16.099-35.799,35.887-35.799c19.788,0,35.887,16.06,35.887,35.799v116.721c0,4.959,4.017,8.972,8.972,8.972
			c4.955,0,8.972-4.013,8.972-8.972V170.377c0-19.74,16.099-35.799,35.887-35.799s35.887,16.06,35.887,35.799v116.721
			c0,4.959,4.017,8.972,8.972,8.972s8.972-4.013,8.972-8.972V170.377c0-19.74,16.099-35.799,35.887-35.799
			c19.788,0,35.887,16.06,35.887,35.799V224.295z"/>
	</g>
</g>
<g>
</g>
<g>
</g>
<g>
</g>
<g>
</g>
<g>
</g>
<g>
</g>
<g>
</g>
<g>
</g>
<g>
</g>
<g>
</g>
<g>
</g>
<g>
</g>
<g>
</g>
<g>
</g>
<g>
</g>
</svg>
