<?xml version="1.0" encoding="iso-8859-1"?>
<!-- Generator: Adobe Illustrator 19.0.0, SVG Export Plug-In . SVG Version: 6.00 Build 0)  -->
<svg version="1.1" id="Layer_1" xmlns="http://www.w3.org/2000/svg" xmlns:xlink="http://www.w3.org/1999/xlink" x="0px" y="0px"
	 viewBox="0 0 512 512" style="enable-background:new 0 0 512 512;" xml:space="preserve">
<g>
	<g>
		<path d="M406.719,447.728c-2.612-90.759-45.422-166.844-103.458-192.346c58.036-25.502,100.846-101.585,103.458-192.344
			c15.547-2.172,27.567-15.212,27.567-31.346c0-17.643-14.357-31.692-32-31.692H109.714c-17.643,0-32,14.357-32,32
			c0,17.643,14.357,32,32,32h4.719c2.71,89.143,45.487,166.531,103.449,192c-57.962,25.469-100.739,100.571-103.449,192h-4.719
			c-17.643,0-32,14.357-32,32c0,17.643,14.357,32,32,32h292.571c17.643,0,32-14.665,32-32.308
			C434.286,463.556,422.266,449.897,406.719,447.728z M109.714,45.714C102.152,45.714,96,39.563,96,32s6.152-13.714,13.714-13.714
			h292.571C409.848,18.286,416,24.438,416,32s-6.152,13.714-13.714,13.714H109.714z M132.725,64h255.692
			c-3.194,100.571-59.31,182.857-127.846,182.857C192.036,246.857,135.92,164.571,132.725,64z M260.571,265.143
			c68.536,0,124.652,80,127.846,182.857H132.725C135.92,345.143,192.036,265.143,260.571,265.143z M402.286,493.714H109.714
			C102.152,493.714,96,487.563,96,480s6.152-13.714,13.714-13.714h292.571c7.563,0,13.714,6.152,13.714,13.714
			S409.848,493.714,402.286,493.714z"/>
	</g>
</g>
<g>
</g>
<g>
</g>
<g>
</g>
<g>
</g>
<g>
</g>
<g>
</g>
<g>
</g>
<g>
</g>
<g>
</g>
<g>
</g>
<g>
</g>
<g>
</g>
<g>
</g>
<g>
</g>
<g>
</g>
</svg>
