<?xml version="1.0" encoding="iso-8859-1"?>
<!-- Generator: Adobe Illustrator 19.0.0, SVG Export Plug-In . SVG Version: 6.00 Build 0)  -->
<svg version="1.1" id="Layer_1" xmlns="http://www.w3.org/2000/svg" xmlns:xlink="http://www.w3.org/1999/xlink" x="0px" y="0px"
	 viewBox="0 0 512 512" style="enable-background:new 0 0 512 512;" xml:space="preserve">
<g>
	<g>
		<path d="M242.095,344.436H121.076c-5.146,0-10.273,3.54-10.273,8.68v93.091c0,5.141,5.127,9.939,10.273,9.939h121.018
			c5.145,0,8.345-4.798,8.345-9.939v-93.091C250.44,347.976,247.24,344.436,242.095,344.436z M231.822,437.527h-102.4v-74.473h102.4
			V437.527z"/>
	</g>
</g>
<g>
	<g>
		<path d="M472.095,216.207l-37.221-37.221c-0.011-0.009-0.502-0.019-0.511-0.03l-16.359-15.876V83.152c0-5.14-3.2-8.68-8.345-8.68
			h-46.545c-5.146,0-10.273,3.54-10.273,8.68v14.765L257.504,2.412C255.758,0.667,253.867,0,251.404,0c-0.036,0-0.073,0-0.1,0
			c-2.509,0-4.9,0.749-6.627,2.558L39.876,216.51c-3.554,3.718-3.418,9.531,0.291,13.085c1.809,1.727,4.118,2.542,6.437,2.542
			c2.455,0,4.418-0.983,6.245-2.892l20.718-22.184v295c0,5.141,5.127,9.939,10.273,9.939h204.8h93.091h46.545
			c5.145,0,8.345-4.798,8.345-9.939V208.026l21.827,21.346c3.636,3.636,9.768,3.636,13.405,0S475.731,219.843,472.095,216.207z
			 M371.458,93.091h27.927v51.372l-27.927-27.927V93.091z M371.458,493.382h-74.473V363.055h74.473V493.382z M418.004,493.382
			L418.004,493.382h-27.927V353.116c0-5.14-3.2-8.68-8.345-8.68H288.64c-5.146,0-10.273,3.54-10.273,8.68v140.266H92.185V187.597
			L251.067,21.993l105.218,104.975c0.002,0.002,0.123,0.005,0.127,0.006l46.593,46.534c0.007,0.006-0.441,0.011-0.434,0.017
			l15.432,15.883V493.382z"/>
	</g>
</g>
<g>
	<g>
		<path d="M381.731,242.036H352.84v-47.175c0-5.14-3.2-8.68-8.345-8.68H158.313c-5.146,0-10.273,3.54-10.273,8.68v47.175h-26.964
			c-5.146,0-10.273,3.54-10.273,8.68v55.855c0,5.141,5.127,9.939,10.273,9.939h37.236h186.182h37.236
			c5.145,0,8.345-4.798,8.345-9.939v-55.855C390.076,245.576,386.876,242.036,381.731,242.036z M148.04,297.891h-18.618v-37.236
			h18.618V297.891z M185.276,297.891h-18.618v-37.236h18.618V297.891z M222.513,297.891h-18.618v-37.236h18.618V297.891z
			 M259.749,297.891h-18.618v-37.236h18.618V297.891z M296.985,297.891h-18.618v-37.236h18.618V297.891z M334.222,297.891h-18.618
			v-37.236h18.618V297.891z M334.222,242.036H166.658V204.8h167.564V242.036z M371.458,297.891H352.84v-37.236h18.618V297.891z"/>
	</g>
</g>
<g>
</g>
<g>
</g>
<g>
</g>
<g>
</g>
<g>
</g>
<g>
</g>
<g>
</g>
<g>
</g>
<g>
</g>
<g>
</g>
<g>
</g>
<g>
</g>
<g>
</g>
<g>
</g>
<g>
</g>
</svg>
