<?xml version="1.0" encoding="iso-8859-1"?>
<!-- Generator: Adobe Illustrator 19.0.0, SVG Export Plug-In . SVG Version: 6.00 Build 0)  -->
<svg version="1.1" id="Layer_1" xmlns="http://www.w3.org/2000/svg" xmlns:xlink="http://www.w3.org/1999/xlink" x="0px" y="0px"
	 viewBox="0 0 512 512" style="enable-background:new 0 0 512 512;" xml:space="preserve">
<g>
	<g>
		<path d="M478.257,120.419l-40.338-18.601v-35.34c0-20.366-16.559-36.934-36.922-36.934s-36.922,16.568-36.922,36.934v0.878
			l-78.694-36.638c-1.226-0.568-2.073-0.555-3.425-0.555h-46.152c-1.325,0-2.632-0.026-3.831,0.524l-198.05,90.235
			C6.448,133.46-7.1,166.55,3.735,194.787l3.308,8.557c5.3,13.81,15.171,24.716,28.674,30.741c4.845,2.162,9.907,3.563,14.522,4.274
			v234.247c0,5.099,5.084,9.85,10.186,9.85h129.227h129.227h129.227c5.102,0,8.275-4.752,8.275-9.85V238.738
			c20.769-1.393,40.586-14.624,48.577-35.433l3.299-8.6C519.082,166.514,505.624,133.189,478.257,120.419z M382.536,75.696v-9.218
			c0-10.185,8.284-18.473,18.461-18.473s18.461,8.289,18.461,18.473v26.724l-36.949-17.243
			C382.511,75.87,382.536,75.787,382.536,75.696z M308.692,463.995H197.926v-65.238c0-5.087,5.12-8.606,10.24-8.606h92.197
			c5.21,0,8.329,3.432,8.329,8.606V463.995z M437.919,463.995H327.153v-65.238c0-15.265-11.493-27.067-26.79-27.067h-92.197
			c-15.297,0-28.701,11.802-28.701,27.067v65.238H68.7v-226.24c4.615-0.612,6.447-1.44,9.357-2.559L256,166.983l177.347,68.214
			c1.634,0.629,4.572,1.163,4.572,1.627V463.995z M491.499,188.089l-3.299,8.598c-7.302,19.025-28.728,28.526-47.64,21.274
			l-181.013-69.485c-2.127-0.82-4.489-0.82-6.616,0L71.918,217.962c-9.185,3.529-19.2,3.267-28.196-0.758
			c-9.005-4.016-15.91-11.304-19.444-20.52l-3.308-8.595c-7.401-19.296,1.848-41.652,20.615-50.22l196.229-89.246h42.096
			l191.019,88.836C489.696,146.212,498.927,168.754,491.499,188.089z"/>
	</g>
</g>
<g>
</g>
<g>
</g>
<g>
</g>
<g>
</g>
<g>
</g>
<g>
</g>
<g>
</g>
<g>
</g>
<g>
</g>
<g>
</g>
<g>
</g>
<g>
</g>
<g>
</g>
<g>
</g>
<g>
</g>
</svg>
