<?xml version="1.0" encoding="iso-8859-1"?>
<!-- Generator: Adobe Illustrator 19.0.0, SVG Export Plug-In . SVG Version: 6.00 Build 0)  -->
<svg version="1.1" id="Layer_1" xmlns="http://www.w3.org/2000/svg" xmlns:xlink="http://www.w3.org/1999/xlink" x="0px" y="0px"
	 viewBox="0 0 512 512" style="enable-background:new 0 0 512 512;" xml:space="preserve">
<g>
	<g>
		<path d="M475.198,215.084l-9.624-9.622c-0.014-0.016-0.031-0.033-0.05-0.049L262.94,2.827c-3.769-3.769-9.874-3.769-13.643,0
			L37.04,215.084c-3.769,3.769-3.769,9.874,0,13.643c3.769,3.769,9.375,3.769,13.144,0l2.327-2.827v275.799
			c0,5.333,5.314,10.301,10.647,10.301h125.425h135.073h135.073c5.333,0,8.649-4.968,8.649-10.301V231.554
			c2.412,0,5.436-0.942,7.321-2.827C478.467,224.958,478.966,218.853,475.198,215.084z M313.008,492.704H197.232V319.039h115.777
			V492.704z M448.081,492.704H332.304v0V308.738c0-5.333-3.317-8.996-8.649-8.996H188.582c-5.333,0-10.647,3.663-10.647,8.996
			v183.966H71.807V212.257c0-1.633,0.056-3.147-0.659-4.494L255.37,23.291l192.712,192.961V492.704z"/>
	</g>
</g>
<g>
	<g>
		<path d="M256.119,106.129c-37.235,0-67.536,30.301-67.536,67.536c0,37.235,30.301,67.536,67.536,67.536
			c37.236,0,67.536-30.301,67.536-67.536C323.655,136.43,293.354,106.129,256.119,106.129z M256.119,221.906
			c-26.598,0-48.24-21.642-48.24-48.24c0-26.598,21.642-48.24,48.24-48.24c26.598,0,48.24,21.642,48.24,48.24
			C304.359,200.263,282.717,221.906,256.119,221.906z"/>
	</g>
</g>
<g>
</g>
<g>
</g>
<g>
</g>
<g>
</g>
<g>
</g>
<g>
</g>
<g>
</g>
<g>
</g>
<g>
</g>
<g>
</g>
<g>
</g>
<g>
</g>
<g>
</g>
<g>
</g>
<g>
</g>
</svg>
