<?xml version="1.0" encoding="iso-8859-1"?>
<!-- Generator: Adobe Illustrator 19.0.0, SVG Export Plug-In . SVG Version: 6.00 Build 0)  -->
<svg version="1.1" id="Layer_1" xmlns="http://www.w3.org/2000/svg" xmlns:xlink="http://www.w3.org/1999/xlink" x="0px" y="0px"
	 viewBox="0 0 512 512" style="enable-background:new 0 0 512 512;" xml:space="preserve">
<g>
	<g>
		<path d="M453.942,118.154H10.865C5.423,118.154,0,121.902,0,127.339v315.077c0,5.438,5.423,10.507,10.865,10.507h443.077
			c5.442,0,8.827-5.07,8.827-10.507V127.339C462.769,121.902,459.385,118.154,453.942,118.154z M443.077,433.231H19.692v-35.969
			l138.606-138.096l131.149,121.543c3.875,3.597,10.05,3.496,13.791-0.255l71.813-72.255l68.026,59.912V433.231z M443.077,341.952
			l-61.933-54.637c-3.885-3.408-9.524-3.216-13.187,0.448l-71.93,72.057L165.195,238.276c-3.873-3.596-10.399-3.495-14.14,0.256
			L19.692,369.416v-231.57h423.385V341.952z"/>
	</g>
</g>
<g>
	<g>
		<path d="M503.173,59.077H60.096c-5.442,0-10.865,3.748-10.865,9.185v40.046h19.692V78.769h423.385v295.385h-19.692v19.692h30.558
			c5.442,0,8.827-5.07,8.827-10.507V68.262C512,62.825,508.615,59.077,503.173,59.077z"/>
	</g>
</g>
<g>
	<g>
		<path d="M306.25,186.416c-27.144,0-49.231,22.087-49.231,49.231c0,27.144,22.086,49.231,49.231,49.231
			c27.144,0,49.231-22.086,49.231-49.231C355.481,208.502,333.394,186.416,306.25,186.416z M306.25,265.185
			c-16.288,0-29.538-13.25-29.538-29.538c0-16.288,13.25-29.539,29.539-29.539c16.288,0,29.538,13.25,29.538,29.539
			C335.789,251.935,322.539,265.185,306.25,265.185z"/>
	</g>
</g>
<g>
</g>
<g>
</g>
<g>
</g>
<g>
</g>
<g>
</g>
<g>
</g>
<g>
</g>
<g>
</g>
<g>
</g>
<g>
</g>
<g>
</g>
<g>
</g>
<g>
</g>
<g>
</g>
<g>
</g>
</svg>
