<?xml version="1.0" encoding="iso-8859-1"?>
<!-- Generator: Adobe Illustrator 19.0.0, SVG Export Plug-In . SVG Version: 6.00 Build 0)  -->
<svg version="1.1" id="Layer_1" xmlns="http://www.w3.org/2000/svg" xmlns:xlink="http://www.w3.org/1999/xlink" x="0px" y="0px"
	 viewBox="0 0 512 512" style="enable-background:new 0 0 512 512;" xml:space="preserve">
<g>
	<g>
		<path d="M511.972,119.397c-0.101-0.342-0.047-0.69-0.185-1.022c-0.147-0.355-0.282-0.678-0.466-1.012
			c-0.139-0.248-0.214-0.508-0.373-0.748c-0.377-0.565-0.788-1.092-1.267-1.57L407.368,13.066c-1.919-1.919-4.514-2.654-7.227-2.654
			h-286.52c-2.713,0-5.316,0.736-7.235,2.654L4.063,115.217c-0.478,0.477-0.907,0.919-1.283,1.483
			c-0.161,0.242-0.271,0.459-0.409,0.711c-0.183,0.332-0.383,0.632-0.531,0.985c-0.137,0.335-0.217,0.672-0.318,1.017
			c-0.087,0.295-0.731,0.571-0.791,0.876C0.6,120.95,0,121.615,0,122.287v184.191v184.19c0,5.652,5.641,10.92,11.292,10.92h491.177
			c5.651,0,9.173-5.268,9.173-10.92v-184.19V122.287c0-0.672,0.458-1.343,0.327-2.004
			C511.908,119.976,512.06,119.693,511.972,119.397z M117.858,30.877h278.046l81.863,81.863H328.51
			c-5.651,0-10.233,4.238-10.233,9.889c0,33.856-27.541,61.226-61.397,61.226c-33.856,0-61.397-27.283-61.397-61.14
			c0-5.651-4.582-9.976-10.233-9.976H35.995L117.858,30.877z M491.177,481.123H20.466V317.397h155.187
			c5.057,38.373,39.557,71.63,81.228,71.63c41.671,0,76.172-33.257,81.228-71.63h153.068V481.123z M196.353,317.397h121.055
			c-4.886,28.14-30.159,51.164-60.528,51.164C226.512,368.561,201.239,345.537,196.353,317.397z M491.177,296.931H328.51h-143.26
			H20.466V133.206h155.187c5.057,38.373,39.557,71.63,81.228,71.63c41.671,0,76.172-33.257,81.228-71.63h153.068V296.931z"/>
	</g>
</g>
<g>
</g>
<g>
</g>
<g>
</g>
<g>
</g>
<g>
</g>
<g>
</g>
<g>
</g>
<g>
</g>
<g>
</g>
<g>
</g>
<g>
</g>
<g>
</g>
<g>
</g>
<g>
</g>
<g>
</g>
</svg>
