<?xml version="1.0" encoding="iso-8859-1"?>
<!-- Generator: Adobe Illustrator 19.0.0, SVG Export Plug-In . SVG Version: 6.00 Build 0)  -->
<svg version="1.1" id="Layer_1" xmlns="http://www.w3.org/2000/svg" xmlns:xlink="http://www.w3.org/1999/xlink" x="0px" y="0px"
	 viewBox="0 0 512 512" style="enable-background:new 0 0 512 512;" xml:space="preserve">
<g>
	<g>
		<path d="M511.598,439.975l-102.4-375.08c-1.355-4.956-5.844-8.006-10.978-8.006H102.399c-5.256,0-9.822,3.206-11.056,8.317
			L0.321,440.478c-0.822,3.389-0.044,7.256,2.111,10c2.156,2.744,5.456,4.633,8.945,4.633H500.62c3.544,0,6.889-2.039,9.044-4.85
			C511.82,447.439,512.531,443.386,511.598,439.975z M111.343,79.645h278.189L448.04,293.8l-104.475-21.089
			c-5.367-1.122-10.589,2.022-12.689,6.967l-31.178,73.033h-98.778l-31.178-73.128c-2.111-4.944-7.4-7.983-12.689-6.872
			l-97.372,19.764L111.343,79.645z M25.843,432.355l27.928-115.589l98.694-19.933l30.5,71.444c1.789,4.189,5.9,7.189,10.456,7.189
			h113.778c4.555,0,8.666-3.094,10.455-7.283l30.5-71.35l104.722,20.85c0.606,0.125,1.205,0.495,1.806,0.52l31.039,114.153H25.843z"
			/>
	</g>
</g>
<g>
</g>
<g>
</g>
<g>
</g>
<g>
</g>
<g>
</g>
<g>
</g>
<g>
</g>
<g>
</g>
<g>
</g>
<g>
</g>
<g>
</g>
<g>
</g>
<g>
</g>
<g>
</g>
<g>
</g>
</svg>
