<?xml version="1.0" encoding="iso-8859-1"?>
<!-- Generator: Adobe Illustrator 19.0.0, SVG Export Plug-In . SVG Version: 6.00 Build 0)  -->
<svg version="1.1" id="Layer_1" xmlns="http://www.w3.org/2000/svg" xmlns:xlink="http://www.w3.org/1999/xlink" x="0px" y="0px"
	 viewBox="0 0 512 512" style="enable-background:new 0 0 512 512;" xml:space="preserve">
<g>
	<g>
		<path d="M464.998,144.261L260.2,52.102c-2.615-1.17-5.6-1.2-8.235-0.07L36.928,144.19c-3.765,1.61-6.205,5.31-6.205,9.41
			s2.44,7.8,6.205,9.41l215.037,92.159c1.29,0.55,2.665,0.83,4.035,0.83c1.435,0,2.865-0.3,4.2-0.9l204.797-92.159
			c3.675-1.66,6.04-5.31,6.04-9.34S468.672,145.92,464.998,144.261z M255.9,234.579L66.958,153.6L255.9,72.621L435.843,153.6
			L255.9,234.579z"/>
	</g>
</g>
<g>
	<g>
		<path d="M511.067,241.489c-2.36-5.15-8.45-7.38-13.575-5.04L256,347.138L14.508,236.449c-5.13-2.35-11.215-0.11-13.575,5.04
			c-2.355,5.14-0.1,11.22,5.045,13.58l245.757,112.639c1.355,0.62,2.81,0.93,4.265,0.93c1.455,0,2.91-0.31,4.265-0.93
			l245.757-112.639C511.167,252.709,513.422,246.629,511.067,241.489z"/>
	</g>
</g>
<g>
	<g>
		<path d="M511.067,333.648c-2.36-5.15-8.45-7.377-13.575-5.04L256,439.297L14.508,328.608c-5.13-2.35-11.215-0.11-13.575,5.04
			c-2.355,5.14-0.1,11.22,5.045,13.58l245.757,112.639c1.355,0.62,2.81,0.93,4.265,0.93c1.455,0,2.91-0.31,4.265-0.93
			l245.757-112.639C511.167,344.868,513.422,338.788,511.067,333.648z"/>
	</g>
</g>
<g>
</g>
<g>
</g>
<g>
</g>
<g>
</g>
<g>
</g>
<g>
</g>
<g>
</g>
<g>
</g>
<g>
</g>
<g>
</g>
<g>
</g>
<g>
</g>
<g>
</g>
<g>
</g>
<g>
</g>
</svg>
