<?xml version="1.0" encoding="iso-8859-1"?>
<!-- Generator: Adobe Illustrator 19.0.0, SVG Export Plug-In . SVG Version: 6.00 Build 0)  -->
<svg version="1.1" id="Layer_1" xmlns="http://www.w3.org/2000/svg" xmlns:xlink="http://www.w3.org/1999/xlink" x="0px" y="0px"
	 viewBox="0 0 512 512" style="enable-background:new 0 0 512 512;" xml:space="preserve">
<g>
	<g>
		<path d="M256,0C155.296,0,73.363,81.928,73.363,182.637c0,67.758,38.413,130.779,98.305,162.037l11.299,158.538
			c0.343,4.78,4.321,8.788,9.11,8.788h118.714c4.789,0,8.766-4.009,9.109-8.788l10.973-153.783
			c65.653-29.491,107.763-94.364,107.763-166.714C438.637,82.006,356.704,0,256,0z M302.288,493.736H200.58l-1.304-18.264h104.316
			L302.288,493.736z M304.897,457.209H197.972l-1.304-18.264h109.534L304.897,457.209z M318.674,334.649
			c-3.197,1.32-5.373,4.644-5.623,8.095l-5.545,77.937H195.363l-5.846-82.173c-0.232-3.255-2.189-6.3-5.128-7.718
			c-56.352-27.315-92.763-85.491-92.763-148.076c0-90.632,73.737-164.413,164.373-164.413c90.636,0,164.373,73.724,164.373,164.355
			C420.373,249.496,380.452,309.135,318.674,334.649z"/>
	</g>
</g>
<g>
	<g>
		<path d="M256,173.505c-25.175,0-46.132,20.484-46.132,45.659c0,22.049,15.508,40.496,36.055,44.738v92.239
			c0,5.047,4.089,9.132,9.132,9.132s9.132-4.084,9.132-9.132v-92.239c22.83-4.243,37-22.689,37-44.738
			C301.186,193.989,281.175,173.505,256,173.505z M264.186,244.961v-16.665c0-5.047-4.089-9.132-9.132-9.132
			s-9.132,4.084-9.132,9.132v16.665c-9.132-3.772-17.791-13.896-17.791-25.797c0-15.107,12.525-27.396,27.632-27.396
			c15.107,0,27.041,12.289,27.041,27.396C282.805,231.065,275.601,241.189,264.186,244.961z"/>
	</g>
</g>
<g>
</g>
<g>
</g>
<g>
</g>
<g>
</g>
<g>
</g>
<g>
</g>
<g>
</g>
<g>
</g>
<g>
</g>
<g>
</g>
<g>
</g>
<g>
</g>
<g>
</g>
<g>
</g>
<g>
</g>
</svg>
