<?xml version="1.0" encoding="iso-8859-1"?>
<!-- Generator: Adobe Illustrator 19.0.0, SVG Export Plug-In . SVG Version: 6.00 Build 0)  -->
<svg version="1.1" id="Layer_1" xmlns="http://www.w3.org/2000/svg" xmlns:xlink="http://www.w3.org/1999/xlink" x="0px" y="0px"
	 viewBox="0 0 512 512" style="enable-background:new 0 0 512 512;" xml:space="preserve">
<g>
	<g>
		<path d="M297.677,318.745l-30.171-30.318c-4.139-4.139-10.843-4.139-14.982,0c-4.139,4.139-4.139,10.843,0,14.982l30.171,30.171
			c8.267,8.267,8.257,21.718-0.01,29.985L162.839,484.002c-4.004,4.004-9.333,6.808-14.992,6.808c-0.01,0-0.021,0-0.021,0
			c-5.649,0-10.947-2.783-14.92-6.756L27.929,378.789c-8.236-8.233-8.215-21.813,0.052-30.08l119.856-119.929
			c8.257-8.257,21.697-8.324,29.933-0.088l19.959,19.938c4.139,4.139,10.843,4.131,14.982-0.008s4.139-10.848,0-14.987
			l-19.959-19.961c-16.493-16.503-43.363-16.493-59.897,0.052L12.999,333.582c-16.524,16.524-16.544,43.392-0.052,59.894
			l104.977,105.56c7.967,7.977,18.593,12.964,29.902,12.964c0.01,0,0.021,0,0.041,0c11.309,0,21.956-5.018,29.954-13.016
			l119.846-120.14C314.201,362.31,314.201,335.268,297.677,318.745z"/>
	</g>
</g>
<g>
	<g>
		<path d="M499.023,117.344L394.056,12.367c-16.482-16.513-43.353-16.482-59.897,0.052L214.304,132.274
			c-8.008,8.008-12.416,18.655-12.416,29.975c0,11.33,4.418,21.976,12.426,29.985l16.938,16.937c4.139,4.139,10.843,4.139,14.982,0
			s4.139-10.843,0-14.982l-16.937-16.937c-8.267-8.277-8.277-21.728-0.01-29.995L349.142,27.401
			c8.257-8.257,21.697-8.288,29.933-0.052l104.967,104.977c3.994,3.994,6.187,9.291,6.177,14.941c0,5.66-2.214,10.978-6.229,14.992
			L364.144,282.697c-4.004,4.004-9.333,6.808-14.992,6.808c-0.01,0-0.01,0-0.021,0c-5.649,0-10.957-2.783-14.941-6.777
			l-25.546-25.833c-4.139-4.139-10.843-4.286-14.982-0.148c-4.139,4.139-4.139,10.771,0,14.91l25.546,26.089
			c7.988,7.988,18.614,12.949,29.923,12.949c0.01,0,0.021,0,0.031,0c11.319,0,21.966-5.008,29.964-13.016l119.846-120.14
			c8.008-8.011,12.426-18.795,12.437-30.104C511.419,136.116,507.021,125.332,499.023,117.344z"/>
	</g>
</g>
<g>
	<g>
		<path d="M349.907,154.085c-4.139-4.139-10.843-4.139-14.982,0L149.44,339.57c-4.139,4.139-4.139,10.843,0,14.982
			c2.069,2.069,4.78,3.104,7.491,3.104c2.711,0,5.421-1.035,7.491-3.104l185.485-185.485
			C354.046,164.929,354.046,158.224,349.907,154.085z"/>
	</g>
</g>
<g>
</g>
<g>
</g>
<g>
</g>
<g>
</g>
<g>
</g>
<g>
</g>
<g>
</g>
<g>
</g>
<g>
</g>
<g>
</g>
<g>
</g>
<g>
</g>
<g>
</g>
<g>
</g>
<g>
</g>
</svg>
