<?xml version="1.0" encoding="iso-8859-1"?>
<!-- Generator: Adobe Illustrator 19.0.0, SVG Export Plug-In . SVG Version: 6.00 Build 0)  -->
<svg version="1.1" id="Layer_1" xmlns="http://www.w3.org/2000/svg" xmlns:xlink="http://www.w3.org/1999/xlink" x="0px" y="0px"
	 viewBox="0 0 512 512" style="enable-background:new 0 0 512 512;" xml:space="preserve">
<g>
	<g>
		<path d="M276.847,349.639L157.329,469.161c-31.527,31.513-82.851,31.494-114.397-0.056c-15.292-15.292-23.712-35.61-23.707-57.218
			c0-21.624,8.439-41.965,23.754-57.282l119.409-119.408c31.574-31.575,82.936-31.602,114.5-0.048c3.755,3.755,9.838,3.755,13.593,0
			s3.755-9.838,0-13.593c-39.041-39.051-102.607-39.022-141.685,0.047L29.387,341.013C10.439,359.96,0.005,385.127,0,411.881
			c-0.005,26.75,10.415,51.897,29.34,70.817C48.874,502.232,74.53,512,100.18,512c25.622,0,51.245-9.748,70.742-29.246
			l119.518-119.521c3.755-3.755,3.755-9.839,0-13.594S280.602,345.884,276.847,349.639z"/>
	</g>
</g>
<g>
	<g>
		<path d="M482.731,29.308C443.68-9.743,380.162-9.777,341.149,29.255L221.626,148.777c-3.755,3.755-3.755,9.839,0,13.594
			c3.755,3.755,9.838,3.755,13.593,0L354.741,42.847c31.522-31.521,82.837-31.508,114.397,0.052
			c31.55,31.555,31.527,82.921-0.052,114.506L349.682,276.81c-31.583,31.577-82.945,31.602-114.5,0.052
			c-3.755-3.755-9.838-3.755-13.593,0s-3.755,9.837,0,13.592c19.516,19.516,45.148,29.274,70.793,29.274
			c25.669-0.005,51.348-9.777,70.892-29.326l119.405-119.405C521.753,131.918,521.777,68.358,482.731,29.308z"/>
	</g>
</g>
<g>
</g>
<g>
</g>
<g>
</g>
<g>
</g>
<g>
</g>
<g>
</g>
<g>
</g>
<g>
</g>
<g>
</g>
<g>
</g>
<g>
</g>
<g>
</g>
<g>
</g>
<g>
</g>
<g>
</g>
</svg>
