<?xml version="1.0" encoding="iso-8859-1"?>
<!-- Generator: Adobe Illustrator 19.0.0, SVG Export Plug-In . SVG Version: 6.00 Build 0)  -->
<svg version="1.1" id="Layer_1" xmlns="http://www.w3.org/2000/svg" xmlns:xlink="http://www.w3.org/1999/xlink" x="0px" y="0px"
	 viewBox="0 0 512 512" style="enable-background:new 0 0 512 512;" xml:space="preserve">
<g>
	<g>
		<path d="M486.451,25.525c-34.007-34.017-89.369-34.003-123.396,0.044l-101.5,101.499c-31.375,31.375-33.816,80.858-7.363,115.047
			l-12.108,12.108c-34.187-26.462-83.678-24.025-115.048,7.364l-101.5,101.499c-34.032,34.032-34.052,89.384-0.045,123.396
			c17.001,16.996,39.323,25.494,61.66,25.494c22.352,0,44.715-8.518,61.735-25.539l101.5-101.498
			c16.505-16.501,25.594-38.416,25.594-61.72c0.005-20.119-6.777-39.189-19.238-54.633l11.812-11.814
			c15.889,12.785,35.243,19.186,54.616,19.186c22.352,0,44.714-8.518,61.735-25.539l101.5-101.498
			C502.911,132.42,512,110.505,512,87.2C512.005,63.905,502.931,42.004,486.451,25.525z M235.876,370.428L134.377,471.928
			c-26.035,26.024-68.37,26.04-94.374,0.044c-26.005-26.009-25.985-68.344,0.045-94.374l101.499-101.5
			c13.027-13.022,30.129-19.536,47.23-19.536c13.567,0,27.127,4.119,38.647,12.321l-40.856,40.858
			c-4.008,4.008-4.008,10.501,0,14.51c2.004,2.005,4.63,3.006,7.256,3.006c2.625,0,5.251-1.001,7.255-3.006l41.048-41.047
			c8.65,11.484,13.336,25.389,13.332,40.01C255.458,341.035,248.503,357.801,235.876,370.428z M471.895,134.409L370.396,235.91
			c-23.76,23.755-61.1,25.827-87.214,6.237l30.775-30.775c4.008-4.008,4.008-10.501,0-14.509c-4.008-4.008-10.502-4.008-14.511,0
			l-30.594,30.593c-18.542-26.039-16.143-62.517,7.215-85.876l101.499-101.5c13.027-13.022,30.129-19.536,47.23-19.536
			c17.076,0,34.152,6.5,47.144,19.491c12.602,12.602,19.541,29.352,19.536,47.16C491.477,105.017,484.522,121.782,471.895,134.409z"
			/>
	</g>
</g>
<g>
</g>
<g>
</g>
<g>
</g>
<g>
</g>
<g>
</g>
<g>
</g>
<g>
</g>
<g>
</g>
<g>
</g>
<g>
</g>
<g>
</g>
<g>
</g>
<g>
</g>
<g>
</g>
<g>
</g>
</svg>
