<?xml version="1.0" encoding="iso-8859-1"?>
<!-- Generator: Adobe Illustrator 19.0.0, SVG Export Plug-In . SVG Version: 6.00 Build 0)  -->
<svg version="1.1" id="Layer_1" xmlns="http://www.w3.org/2000/svg" xmlns:xlink="http://www.w3.org/1999/xlink" x="0px" y="0px"
	 viewBox="0 0 512 512" style="enable-background:new 0 0 512 512;" xml:space="preserve">
<g>
	<g>
		<path d="M503,5.02H11.078C5.529,5.02,0,8.841,0,14.386v481.881c0,5.545,5.529,10.713,11.079,10.713H503c5.549,0,9-5.168,9-10.713
			V14.386C512,8.841,508.549,5.02,503,5.02z M491.922,486.902H20.078V25.098h471.843V486.902z"/>
	</g>
</g>
<g>
	<g>
		<path d="M139.627,112.406c-1.186-3.633-4.323-6.284-8.108-6.834l-14.568-2.113l-6.52-13.2c-3.372-6.853-14.627-6.853-18,0
			l-6.519,13.2l-14.569,2.113c-3.784,0.55-6.922,3.201-8.108,6.834c-1.176,3.631-0.196,7.622,2.539,10.293l10.549,10.276
			l-2.49,14.513c-0.647,3.765,0.902,7.575,3.99,9.819c3.088,2.245,7.206,2.545,10.579,0.766l13.029-6.854l13.029,6.854
			c1.47,0.768,3.078,1.152,4.677,1.152c2.078,0,4.157-0.647,5.902-1.918c3.088-2.244,4.637-6.054,3.99-9.819l-2.49-14.513
			l10.549-10.276C139.823,120.028,140.804,116.037,139.627,112.406z M105.814,130.842c-1.382-0.673-2.883-1.005-4.382-1.005
			c-1.5,0-3,0.332-4.382,1.005c0.421-3.04-0.569-6.108-2.696-8.324c3.02-0.544,5.627-2.442,7.078-5.147
			c1.451,2.705,4.059,4.603,7.078,5.147C106.382,124.734,105.392,127.801,105.814,130.842z"/>
	</g>
</g>
<g>
	<g>
		<path d="M139.627,242.915c-1.186-3.633-4.323-6.284-8.108-6.834l-14.568-2.113l-6.52-13.2c-3.372-6.853-14.627-6.853-18,0
			l-6.519,13.2l-14.569,2.113c-3.784,0.55-6.922,3.201-8.108,6.834c-1.176,3.631-0.196,7.622,2.539,10.293l10.549,10.276
			l-2.49,14.513c-0.647,3.765,0.902,7.575,3.99,9.819c3.088,2.251,7.206,2.539,10.579,0.766l13.029-6.854l13.029,6.854
			c1.47,0.768,3.078,1.152,4.677,1.152c2.078,0,4.157-0.647,5.902-1.918c3.088-2.244,4.637-6.054,3.99-9.819l-2.49-14.513
			l10.549-10.276C139.823,250.538,140.804,246.547,139.627,242.915z M105.814,261.352c-1.382-0.673-2.883-1.005-4.382-1.005
			c-1.5,0-3,0.332-4.382,1.005c0.421-3.04-0.569-6.108-2.696-8.323c3.02-0.544,5.627-2.442,7.078-5.148
			c1.451,2.706,4.059,4.604,7.078,5.148C106.382,255.244,105.392,258.311,105.814,261.352z"/>
	</g>
</g>
<g>
	<g>
		<path d="M139.627,373.425c-1.186-3.633-4.323-6.284-8.108-6.834l-14.568-2.113l-6.52-13.2c-3.372-6.853-14.627-6.853-18,0
			l-6.519,13.2l-14.569,2.113c-3.784,0.55-6.922,3.201-8.108,6.834c-1.176,3.631-0.196,7.622,2.539,10.293l10.549,10.276
			l-2.49,14.513c-0.647,3.765,0.902,7.575,3.99,9.819c3.088,2.255,7.206,2.545,10.579,0.766l13.029-6.854l13.029,6.854
			c1.47,0.768,3.078,1.152,4.677,1.152c2.078,0,4.157-0.647,5.902-1.918c3.088-2.244,4.637-6.054,3.99-9.819l-2.49-14.513
			l10.549-10.276C139.823,381.048,140.804,377.056,139.627,373.425z M105.814,391.861c-1.382-0.673-2.883-1.005-4.382-1.005
			c-1.5,0-3,0.332-4.382,1.005c0.421-3.04-0.569-6.108-2.696-8.323c3.02-0.544,5.627-2.442,7.078-5.148
			c1.451,2.706,4.059,4.604,7.078,5.148C106.382,385.754,105.392,388.821,105.814,391.861z"/>
	</g>
</g>
<g>
	<g>
		<path d="M432.726,125.49h-250.98c-5.549,0-10.039,4.495-10.039,10.039c0,5.544,4.49,10.039,10.039,10.039h250.98
			c5.549,0,10.039-4.495,10.039-10.039C442.765,129.985,438.275,125.49,432.726,125.49z"/>
	</g>
</g>
<g>
	<g>
		<path d="M432.726,256h-250.98c-5.549,0-10.039,4.495-10.039,10.039c0,5.544,4.49,10.039,10.039,10.039h250.98
			c5.549,0,10.039-4.495,10.039-10.039C442.765,260.495,438.275,256,432.726,256z"/>
	</g>
</g>
<g>
	<g>
		<path d="M432.726,386.51h-250.98c-5.549,0-10.039,4.495-10.039,10.039c0,5.544,4.49,10.039,10.039,10.039h250.98
			c5.549,0,10.039-4.495,10.039-10.039C442.765,391.005,438.275,386.51,432.726,386.51z"/>
	</g>
</g>
<g>
</g>
<g>
</g>
<g>
</g>
<g>
</g>
<g>
</g>
<g>
</g>
<g>
</g>
<g>
</g>
<g>
</g>
<g>
</g>
<g>
</g>
<g>
</g>
<g>
</g>
<g>
</g>
<g>
</g>
</svg>
