<?xml version="1.0" encoding="iso-8859-1"?>
<!-- Generator: Adobe Illustrator 19.0.0, SVG Export Plug-In . SVG Version: 6.00 Build 0)  -->
<svg version="1.1" id="Layer_1" xmlns="http://www.w3.org/2000/svg" xmlns:xlink="http://www.w3.org/1999/xlink" x="0px" y="0px"
	 viewBox="0 0 512 512" style="enable-background:new 0 0 512 512;" xml:space="preserve">
<g>
	<g>
		<path d="M478.558,0h-98.462c-5.438,0-10.865,3.738-10.865,9.18v270.856c0,62.385-50.793,113.144-113.231,113.144
			s-113.231-50.76-113.231-113.144V9.18c0-5.442-3.39-9.18-8.827-9.18H35.481c-5.438,0-10.865,3.738-10.865,9.18v285.49
			C24.615,414.142,122.813,512,242.264,512h29.515c119.447,0,215.606-97.858,215.606-217.329V9.18
			C487.385,3.738,483.995,0,478.558,0z M44.308,19.692h78.769v19.692H44.308V19.692z M44.308,59.077h78.769v19.692H44.308V59.077z
			 M467.692,294.671c0,108.606-87.322,197.637-195.913,197.637h-29.515c-108.591,0-197.957-89.031-197.957-197.637V98.462h78.769
			v181.574c0,73.25,59.63,132.837,132.923,132.837s132.923-59.586,132.923-132.837V98.462h78.769V294.671z M467.692,78.769h-78.769
			V59.077h78.769V78.769z M467.692,39.385h-78.769V19.692h78.769V39.385z"/>
	</g>
</g>
<g>
</g>
<g>
</g>
<g>
</g>
<g>
</g>
<g>
</g>
<g>
</g>
<g>
</g>
<g>
</g>
<g>
</g>
<g>
</g>
<g>
</g>
<g>
</g>
<g>
</g>
<g>
</g>
<g>
</g>
</svg>
