<?xml version="1.0" encoding="iso-8859-1"?>
<!-- Generator: Adobe Illustrator 19.0.0, SVG Export Plug-In . SVG Version: 6.00 Build 0)  -->
<svg version="1.1" id="Layer_1" xmlns="http://www.w3.org/2000/svg" xmlns:xlink="http://www.w3.org/1999/xlink" x="0px" y="0px"
	 viewBox="0 0 512 512" style="enable-background:new 0 0 512 512;" xml:space="preserve">
<g>
	<g>
		<path d="M508.623,30.906c-2.434-1.824-5.344-2.39-8.26-1.533l-161.375,47.5l-161.436-47.5c-0.17-0.049-0.316-0.047-0.486-0.087
			c-0.368-0.087-0.719-0.148-1.094-0.191c-0.368-0.041-0.724-0.069-1.092-0.069c-0.368,0-0.726,0.026-1.094,0.069
			c-0.377,0.043-0.743,0.104-1.113,0.191c-0.17,0.04-0.344,0.038-0.512,0.087L7.434,77.675C3.321,78.887,0,82.656,0,86.944v386.415
			c0,3.042,1.934,5.91,4.377,7.737c1.689,1.264,3.967,1.923,6.033,1.923c0.915,0,1.955-0.127,2.852-0.391l161.564-47.499
			l161.531,47.499c0.266,0.079,0.554,0.123,0.826,0.177c0.151,0.031,0.306,0.074,0.46,0.098c0.486,0.074,0.979,0.117,1.467,0.117
			c0.49,0,0.981-0.042,1.467-0.117c0.153-0.024,0.302-0.067,0.453-0.098c0.269-0.054,0.542-0.098,0.811-0.177l163.726-48.302
			c4.113-1.211,6.434-4.981,6.434-9.269V38.642C512,35.6,511.066,32.732,508.623,30.906z M164.226,417.83L19.321,460.448V94.17
			l144.906-42.618V417.83z M328.453,460.448L183.547,417.83V51.552L328.453,94.17V460.448z M492.679,417.83l-144.906,42.618V94.17
			l144.906-42.618V417.83z"/>
	</g>
</g>
<g>
</g>
<g>
</g>
<g>
</g>
<g>
</g>
<g>
</g>
<g>
</g>
<g>
</g>
<g>
</g>
<g>
</g>
<g>
</g>
<g>
</g>
<g>
</g>
<g>
</g>
<g>
</g>
<g>
</g>
</svg>
