<?xml version="1.0" encoding="iso-8859-1"?>
<!-- Generator: Adobe Illustrator 19.0.0, SVG Export Plug-In . SVG Version: 6.00 Build 0)  -->
<svg version="1.1" id="Layer_1" xmlns="http://www.w3.org/2000/svg" xmlns:xlink="http://www.w3.org/1999/xlink" x="0px" y="0px"
	 viewBox="0 0 512 512" style="enable-background:new 0 0 512 512;" xml:space="preserve">
<g>
	<g>
		<path d="M508.009,85.024L384.651,14.403c-0.004-0.003,0.106-0.003,0.104-0.006c-0.022-0.011,0.019-0.026-0.002-0.038
			c-0.185-0.102-0.351-0.18-0.543-0.269c-0.153-0.072-0.289-0.153-0.446-0.216c-0.138-0.055-0.276-0.093-0.416-0.141
			c-0.233-0.08-0.461-0.163-0.7-0.223c-0.097-0.024-0.194-0.036-0.293-0.057c-0.284-0.06-0.567-0.118-0.856-0.151
			c-0.071-0.008-0.142-0.006-0.215-0.013c-0.313-0.028-0.627-0.047-0.942-0.041c-0.06,0.001-0.121,0.01-0.181,0.012
			c-0.323,0.013-0.647,0.037-0.968,0.084c-0.065,0.01-0.129,0.028-0.194,0.039c-0.313,0.054-0.623,0.118-0.927,0.206
			c-0.093,0.026-0.181,0.064-0.274,0.093c-0.269,0.087-0.539,0.178-0.802,0.292c-0.149,0.065-0.291,0.145-0.438,0.218
			c-0.164,0.082-0.33,0.151-0.489,0.244c-0.03,0.017-0.056,0.04-0.086,0.057c-0.037,0.021-0.075,0.037-0.112,0.059L265.573,82.425
			L146.534,14.403c-0.114-0.066-0.237-0.113-0.353-0.172c-0.207-0.107-0.41-0.214-0.623-0.304c-0.138-0.058-0.278-0.101-0.418-0.152
			c-0.222-0.08-0.444-0.161-0.67-0.222c-0.138-0.039-0.28-0.063-0.422-0.094c-0.231-0.051-0.459-0.101-0.692-0.134
			c-0.144-0.019-0.291-0.026-0.435-0.039c-0.23-0.021-0.461-0.041-0.692-0.042c-0.153-0.002-0.304,0.011-0.457,0.017
			c-0.224,0.01-0.446,0.018-0.668,0.045c-0.161,0.019-0.319,0.053-0.481,0.081c-0.211,0.038-0.422,0.073-0.631,0.127
			c-0.166,0.042-0.33,0.098-0.493,0.15c-0.198,0.062-0.397,0.124-0.593,0.201c-0.164,0.066-0.326,0.145-0.487,0.221
			c-0.138,0.066-0.282,0.117-0.418,0.19L5.129,84.898C2.25,86.433,0,89.429,0,92.687v397.241c0,3.099,2.086,5.975,4.741,7.569
			c1.397,0.836,3.194,1.259,4.772,1.259c1.423,0,2.968-0.344,4.269-1.039l128.17-68.327l119.381,68.203
			c0.002,0.002,0.022,0.003,0.026,0.005c0.019,0.011,0.043,0.026,0.065,0.037c0.256,0.143,0.524,0.26,0.789,0.375
			c0.069,0.03,0.136,0.069,0.205,0.097c0.284,0.114,0.575,0.205,0.866,0.289c0.073,0.022,0.147,0.053,0.22,0.072
			c0.304,0.079,0.612,0.133,0.92,0.179c0.065,0.01,0.127,0.029,0.192,0.037c0.375,0.048,0.75,0.072,1.125,0.072
			c0.394,0,0.789-0.028,1.179-0.081c0.091-0.012,0.179-0.038,0.272-0.053c0.299-0.051,0.597-0.106,0.892-0.186
			c0.114-0.031,0.226-0.079,0.341-0.115c0.261-0.083,0.524-0.168,0.778-0.277c0.155-0.067,0.302-0.151,0.455-0.225
			c0.17-0.085,0.347-0.158,0.515-0.256c0.03-0.017,0.056-0.04,0.086-0.058c0.037-0.022,0.076-0.036,0.112-0.057l110.297-67.876
			l119.039,68.023c1.354,0.776,2.871,1.163,4.379,1.163c1.534,0,2.603-0.397,3.974-1.194c2.724-1.577,3.94-4.487,3.94-7.634V92.687
			C512,89.52,510.759,86.592,508.009,85.024z M132.414,414.01L17.655,475.217V97.984l114.759-61.206V414.01z M256,474.718
			l-105.931-60.531V37.277L256,97.807V474.718z M370.759,167.068c-2.207,0.088-3.983,1.017-5.638,2.783l-23.927,25.759
			c-3.336,3.556-3.041,9.141,0.52,12.478c1.698,1.599,3.929,2.388,6.09,2.388c2.353,0,4.272-0.935,6.013-2.79l16.942-18.524v225.214
			l-97.103,59.753V97.618l97.103-59.754V167.068z M494.345,474.718l-105.931-60.531V155.648c2.207,0.314,0.955,0.635,1.259,0.918
			c1.698,1.6,4.099,2.389,6.263,2.389c2.353,0,4.813-0.935,6.554-2.79l24.211-25.759c3.336-3.556,3.185-9.141-0.375-12.478
			c-3.552-3.339-9.125-3.164-12.461,0.402l-24.603,25.759c-0.153,0.162-0.847,0.348-0.847,0.517V37.277l105.931,60.53V474.718z"/>
	</g>
</g>
<g>
	<g>
		<path d="M86.345,147.982l13.741-13.743c3.448-3.448,3.448-9.035,0-12.484c-3.448-3.448-9.035-3.448-12.483,0l-13.741,13.743
			l-13.741-13.743c-3.448-3.448-9.035-3.448-12.483,0c-3.448,3.448-3.448,9.035,0,12.484l13.742,13.743l-13.742,13.743
			c-3.448,3.448-3.448,9.036,0,12.484c1.724,1.723,3.983,2.586,6.242,2.586c2.259,0,4.517-0.863,6.241-2.586l13.741-13.743
			l13.741,13.743c1.724,1.723,3.983,2.586,6.241,2.586c2.259,0,4.517-0.863,6.242-2.586c3.448-3.448,3.448-9.035,0-12.484
			L86.345,147.982z"/>
	</g>
</g>
<g>
	<g>
		<path d="M104,368.672l13.741-13.743c3.448-3.448,3.448-9.036,0-12.484c-3.448-3.448-9.035-3.448-12.483,0l-13.741,13.743
			l-13.741-13.743c-3.448-3.448-9.035-3.448-12.483,0c-3.448,3.448-3.448,9.035,0,12.484l13.741,13.743l-13.741,13.743
			c-3.448,3.448-3.448,9.036,0,12.484c1.724,1.723,3.983,2.586,6.242,2.586c2.259,0,4.517-0.863,6.241-2.586l13.741-13.743
			l13.741,13.743c1.724,1.723,3.983,2.586,6.241,2.586c2.259,0,4.517-0.863,6.242-2.586c3.448-3.448,3.448-9.035,0-12.484
			L104,368.672z"/>
	</g>
</g>
<g>
	<g>
		<path d="M218.759,183.292L232.5,169.55c3.448-3.448,3.448-9.035,0-12.484c-3.448-3.448-9.035-3.448-12.483,0l-13.741,13.743
			l-13.741-13.743c-3.448-3.448-9.035-3.448-12.483,0c-3.448,3.448-3.448,9.035,0,12.484l13.741,13.743l-13.741,13.743
			c-3.448,3.448-3.448,9.035,0,12.484c1.724,1.723,3.983,2.586,6.242,2.586c2.259,0,4.517-0.863,6.241-2.586l13.741-13.743
			l13.741,13.743c1.724,1.723,3.983,2.586,6.241,2.586c2.259,0,4.517-0.863,6.242-2.586c3.448-3.448,3.448-9.036,0-12.484
			L218.759,183.292z"/>
	</g>
</g>
<g>
	<g>
		<path d="M457.103,324.534l13.741-13.743c3.448-3.448,3.448-9.035,0-12.484c-3.448-3.448-9.035-3.448-12.483,0l-13.741,13.743
			l-13.741-13.743c-3.448-3.448-9.035-3.448-12.483,0c-3.448,3.448-3.448,9.035,0,12.484l13.741,13.743l-13.741,13.743
			c-3.448,3.448-3.448,9.035,0,12.484c1.724,1.723,3.983,2.586,6.242,2.586c2.259,0,4.517-0.863,6.241-2.586l13.741-13.743
			l13.741,13.743c1.724,1.723,3.983,2.586,6.241,2.586c2.259,0,4.517-0.863,6.242-2.586c3.448-3.448,3.448-9.036,0-12.484
			L457.103,324.534z"/>
	</g>
</g>
<g>
	<g>
		<path d="M323.121,339.859c-17.035,0-30.897,13.863-30.897,30.897c0,17.036,13.862,30.897,30.897,30.897
			c17.034,0,30.897-13.861,30.897-30.897C354.017,353.722,340.155,339.859,323.121,339.859z M323.121,383.997
			c-7.302,0-13.241-5.94-13.241-13.241c0-7.302,5.94-13.241,13.241-13.241c7.302,0,13.241,5.94,13.241,13.241
			C336.362,378.057,330.422,383.997,323.121,383.997z"/>
	</g>
</g>
<g>
	<g>
		<path d="M327.267,320.062l-8.56-34.254c-1.181-4.724-5.974-7.624-10.698-6.421c-4.733,1.18-7.612,5.973-6.422,10.707l8.56,34.253
			c1,4.009,4.595,6.685,8.552,6.685c0.707,0,1.431-0.082,2.146-0.262C325.578,329.587,328.457,324.795,327.267,320.062z"/>
	</g>
</g>
<g>
	<g>
		<path d="M329.75,220.968c-3.552-3.35-9.155-3.156-12.474,0.4l-22.664,24.177c-2.052,2.191-2.854,5.267-2.129,8.178l0.526,2.108
			c1.009,4.012,4.604,6.689,8.56,6.689c0.707,0,1.431-0.082,2.147-0.262c3.716-0.927,6.293-4.091,6.646-7.698l19.793-21.113
			C333.491,229.885,333.31,224.3,329.75,220.968z"/>
	</g>
</g>
<g>
	<g>
		<path d="M451.121,84.456h-44.138c-4.879,0-8.828,3.953-8.828,8.828c0,4.875,3.948,8.828,8.828,8.828h34.396v34.713
			c0,4.875,3.948,8.828,8.828,8.828c4.879,0,8.828-3.953,8.828-8.828V92.687C459.034,87.813,456,84.456,451.121,84.456z"/>
	</g>
</g>
<g>
</g>
<g>
</g>
<g>
</g>
<g>
</g>
<g>
</g>
<g>
</g>
<g>
</g>
<g>
</g>
<g>
</g>
<g>
</g>
<g>
</g>
<g>
</g>
<g>
</g>
<g>
</g>
<g>
</g>
</svg>
