<?xml version="1.0" encoding="iso-8859-1"?>
<!-- Generator: Adobe Illustrator 19.0.0, SVG Export Plug-In . SVG Version: 6.00 Build 0)  -->
<svg version="1.1" id="Layer_1" xmlns="http://www.w3.org/2000/svg" xmlns:xlink="http://www.w3.org/1999/xlink" x="0px" y="0px"
	 viewBox="0 0 512 512" style="enable-background:new 0 0 512 512;" xml:space="preserve">
<g>
	<g>
		<path d="M508.622,1.925c-2.444-1.824-5.335-2.391-8.26-1.533l-161.375,47.5l-161.436-47.5c-0.17-0.049-0.314-0.047-0.484-0.087
			c-0.37-0.087-0.722-0.148-1.099-0.191c-0.368-0.042-0.724-0.069-1.092-0.069c-0.368,0-0.726,0.027-1.094,0.069
			c-0.375,0.043-0.74,0.104-1.109,0.191c-0.172,0.04-0.344,0.038-0.514,0.087L7.434,48.694C3.321,49.906,0,53.675,0,57.963V502.34
			c0,3.043,1.934,5.91,4.377,7.737C6.066,511.341,8.345,512,10.411,512c0.915,0,1.955-0.127,2.852-0.391l161.564-47.499
			l161.531,47.499c0.266,0.079,0.554,0.123,0.825,0.177c0.151,0.031,0.307,0.074,0.46,0.098c0.486,0.074,0.979,0.117,1.467,0.117
			c0.49,0,0.981-0.042,1.467-0.117c0.153-0.024,0.302-0.067,0.453-0.098c0.271-0.054,0.542-0.098,0.811-0.177l163.726-48.302
			c4.113-1.211,6.434-4.981,6.434-9.269V9.661C512,6.62,511.066,3.752,508.622,1.925z M164.226,446.811L19.321,489.429V65.189
			l144.906-42.618V446.811z M328.453,198.277c0,0.994-1.078,2.106-1.302,3.327c-0.453,2.452,1.302,4.837,1.302,6.804v281.021
			l-144.906-42.618V203.237c12.075,4.106,24.234,7.161,36.745,8.986c0.472,0.065,1.194,0.098,1.656,0.098
			c4.717,0,8.974-3.462,9.672-8.268c0.774-5.279-2.825-10.184-8.099-10.954c-12.253-1.783-24.609-4.815-35.807-9.013
			c-1.217-0.457-1.752-0.644-4.167-0.601V22.571l144.906,42.618V198.277z M492.679,446.811l-144.906,42.618V216.103
			c7.245,2.321,14.106,5.37,19.717,9.134c1.651,1.107,3.769,1.637,5.618,1.637c3.113,0,6.295-1.5,8.153-4.279
			c2.972-4.433,1.354-10.433-3.078-13.406c-8.653-5.804-18.335-10.211-30.41-13.198V65.189l144.906-42.618V446.811z"/>
	</g>
</g>
<g>
	<g>
		<path d="M308.84,200.755c-0.283-5.33-5-9.42-10.151-9.146c-6.047,0.311-12.349,0.877-18.736,1.674
			c-6.623,0.83-13.236,1.378-19.651,1.637c-5.33,0.212-9.481,4.708-9.264,10.039c0.208,5.197,4.491,9.272,9.642,9.272
			c0.132,0,0.264-0.004,0.396-0.009c6.962-0.277,14.113-0.872,21.274-1.768c5.924-0.742,11.755-1.26,17.339-1.553
			C305.019,210.628,309.113,206.081,308.84,200.755z"/>
	</g>
</g>
<g>
	<g>
		<path d="M418.047,282.232c-1.293-15.143-4.953-28.817-10.887-40.643c-2.377-4.759-8.179-6.673-12.962-4.307
			c-4.764,2.393-6.698,8.199-4.302,12.968c4.821,9.623,7.821,20.938,8.906,33.623c0.425,5.038,4.651,8.839,9.613,8.839
			c0.274,0,0.556-0.009,0.83-0.033C414.566,292.223,418.5,287.547,418.047,282.232z"/>
	</g>
</g>
<g>
	<g>
		<path d="M104.472,115.774C92.566,97.887,87.425,83.816,87.378,83.681c-1.811-5.02-7.359-7.618-12.359-5.822
			c-5.019,1.802-7.622,7.316-5.83,12.335c0.236,0.656,5.887,16.283,19.189,36.278c1.868,2.797,4.934,4.312,8.057,4.312
			c1.84,0,3.698-0.524,5.34-1.618C106.217,126.213,107.425,120.213,104.472,115.774z"/>
	</g>
</g>
<g>
	<g>
		<path d="M155.821,167.581c-10.019-6.594-19.509-14.41-28.208-23.236c-3.726-3.801-9.84-3.844-13.66-0.104
			c-3.802,3.745-3.84,9.863-0.094,13.661c9.642,9.792,20.189,18.48,31.34,25.82c1.632,1.075,3.481,1.59,5.302,1.59
			c3.142,0,6.226-1.527,8.076-4.349C161.51,176.505,160.274,170.516,155.821,167.581z"/>
	</g>
</g>
<g>
	<g>
		<path d="M447.07,384.111l19.844-19.846c3.774-3.774,3.774-9.888,0-13.661c-3.774-3.774-9.887-3.774-13.66,0L433.41,370.45
			l-19.844-19.846c-3.774-3.774-9.887-3.774-13.66,0c-3.774,3.774-3.774,9.888,0,13.661l19.844,19.846l-19.844,19.847
			c-3.774,3.774-3.774,9.888,0,13.661c1.887,1.886,4.359,2.829,6.83,2.829c2.472,0,4.943-0.943,6.83-2.829l19.844-19.847
			l19.844,19.847c1.887,1.886,4.359,2.829,6.83,2.829c2.472,0,4.943-0.943,6.83-2.829c3.774-3.774,3.774-9.888,0-13.661
			L447.07,384.111z"/>
	</g>
</g>
<g>
</g>
<g>
</g>
<g>
</g>
<g>
</g>
<g>
</g>
<g>
</g>
<g>
</g>
<g>
</g>
<g>
</g>
<g>
</g>
<g>
</g>
<g>
</g>
<g>
</g>
<g>
</g>
<g>
</g>
</svg>
