<?xml version="1.0" encoding="iso-8859-1"?>
<!-- Generator: Adobe Illustrator 19.0.0, SVG Export Plug-In . SVG Version: 6.00 Build 0)  -->
<svg version="1.1" id="Layer_1" xmlns="http://www.w3.org/2000/svg" xmlns:xlink="http://www.w3.org/1999/xlink" x="0px" y="0px"
	 viewBox="0 0 512 512" style="enable-background:new 0 0 512 512;" xml:space="preserve">
<g>
	<g>
		<path d="M70.809,10.894C31.766,10.894,0,42.661,0,81.702c0,39.043,31.766,70.808,70.809,70.808
			c39.042,0,70.808-31.766,70.808-70.808C141.617,42.661,109.851,10.894,70.809,10.894z M70.809,130.723
			c-27.032,0-49.021-21.988-49.021-49.021c0-27.03,21.989-49.021,49.021-49.021c27.032,0,49.021,21.991,49.021,49.021
			C119.83,108.735,97.84,130.723,70.809,130.723z"/>
	</g>
</g>
<g>
	<g>
		<path d="M70.809,185.191C31.766,185.191,0,216.959,0,256c0,39.043,31.766,70.809,70.809,70.809
			c39.042,0,70.808-31.766,70.808-70.809C141.617,216.959,109.851,185.191,70.809,185.191z M70.809,305.021
			c-27.032,0-49.021-21.988-49.021-49.021c0-27.03,21.989-49.021,49.021-49.021c27.032,0,49.021,21.991,49.021,49.021
			C119.83,283.033,97.84,305.021,70.809,305.021z"/>
	</g>
</g>
<g>
	<g>
		<path d="M256,10.894c-39.043,0-70.808,31.767-70.808,70.809c0,39.043,31.766,70.808,70.808,70.808
			c39.042,0,70.809-31.766,70.809-70.808C326.809,42.661,295.042,10.894,256,10.894z M256,130.723
			c-27.032,0-49.021-21.988-49.021-49.021c0-27.03,21.989-49.021,49.021-49.021c27.032,0,49.021,21.991,49.021,49.021
			C305.021,108.735,283.032,130.723,256,130.723z"/>
	</g>
</g>
<g>
	<g>
		<path d="M256,185.191c-39.043,0-70.808,31.767-70.808,70.809c0,39.043,31.766,70.809,70.808,70.809
			c39.042,0,70.809-31.766,70.809-70.809C326.809,216.959,295.042,185.191,256,185.191z M256,305.021
			c-27.032,0-49.021-21.988-49.021-49.021c0-27.03,21.989-49.021,49.021-49.021c27.032,0,49.021,21.991,49.021,49.021
			C305.021,283.033,283.032,305.021,256,305.021z"/>
	</g>
</g>
<g>
	<g>
		<path d="M441.191,10.894c-39.043,0-70.808,31.767-70.808,70.809c0,39.043,31.766,70.808,70.808,70.808
			c39.042,0,70.809-31.766,70.809-70.808C512,42.661,480.234,10.894,441.191,10.894z M441.191,130.723
			c-27.032,0-49.021-21.988-49.021-49.021c0-27.03,21.989-49.021,49.021-49.021c27.032,0,49.021,21.991,49.021,49.021
			C490.213,108.735,468.223,130.723,441.191,130.723z"/>
	</g>
</g>
<g>
	<g>
		<path d="M441.191,185.191c-39.043,0-70.808,31.767-70.808,70.809c0,39.043,31.766,70.809,70.808,70.809
			C480.234,326.809,512,295.043,512,256C512,216.959,480.234,185.191,441.191,185.191z M441.191,305.021
			c-27.032,0-49.021-21.988-49.021-49.021c0-27.03,21.989-49.021,49.021-49.021c27.032,0,49.021,21.991,49.021,49.021
			C490.213,283.033,468.223,305.021,441.191,305.021z"/>
	</g>
</g>
<g>
	<g>
		<path d="M70.809,359.489C31.766,359.489,0,391.257,0,430.298c0,39.043,31.766,70.809,70.809,70.809
			c39.042,0,70.808-31.766,70.808-70.809C141.617,391.257,109.851,359.489,70.809,359.489z M70.809,479.319
			c-27.032,0-49.021-21.988-49.021-49.021c0-27.03,21.989-49.021,49.021-49.021c27.032,0,49.021,21.991,49.021,49.021
			C119.83,457.331,97.84,479.319,70.809,479.319z"/>
	</g>
</g>
<g>
	<g>
		<path d="M256,359.489c-39.043,0-70.808,31.767-70.808,70.808c0,39.043,31.766,70.809,70.808,70.809
			c39.042,0,70.809-31.766,70.809-70.809C326.809,391.257,295.042,359.489,256,359.489z M256,479.319
			c-27.032,0-49.021-21.988-49.021-49.021c0-27.03,21.989-49.021,49.021-49.021c27.032,0,49.021,21.991,49.021,49.021
			C305.021,457.331,283.032,479.319,256,479.319z"/>
	</g>
</g>
<g>
	<g>
		<path d="M441.191,359.489c-39.043,0-70.808,31.767-70.808,70.808c0,39.043,31.766,70.809,70.808,70.809
			c39.042,0,70.809-31.766,70.809-70.809C512,391.257,480.234,359.489,441.191,359.489z M441.191,479.319
			c-27.032,0-49.021-21.988-49.021-49.021c0-27.03,21.989-49.021,49.021-49.021c27.032,0,49.021,21.991,49.021,49.021
			C490.213,457.331,468.223,479.319,441.191,479.319z"/>
	</g>
</g>
<g>
</g>
<g>
</g>
<g>
</g>
<g>
</g>
<g>
</g>
<g>
</g>
<g>
</g>
<g>
</g>
<g>
</g>
<g>
</g>
<g>
</g>
<g>
</g>
<g>
</g>
<g>
</g>
<g>
</g>
</svg>
