<?xml version="1.0" encoding="iso-8859-1"?>
<!-- Generator: Adobe Illustrator 19.0.0, SVG Export Plug-In . SVG Version: 6.00 Build 0)  -->
<svg version="1.1" id="Layer_1" xmlns="http://www.w3.org/2000/svg" xmlns:xlink="http://www.w3.org/1999/xlink" x="0px" y="0px"
	 viewBox="0 0 512 512" style="enable-background:new 0 0 512 512;" xml:space="preserve">
<g>
	<g>
		<path d="M315.077,339.026c-5.442,0-9.846,4.404-9.846,9.846V462.19c0,16.24-12.25,30.118-28.567,30.118H50.298
			c-16.317,0-30.606-13.935-30.606-30.252V235.69c0-16.317,14.24-28.921,30.481-28.921h113.308c5.442,0,9.846-4.404,9.846-9.846
			s-4.404-9.846-9.846-9.846H50.173C23.067,187.077,0,208.517,0,235.69v226.365C0,489.228,23.125,512,50.298,512h226.365
			c27.173,0,48.26-22.714,48.26-49.81V348.873C324.923,343.43,320.519,339.026,315.077,339.026z"/>
	</g>
</g>
<g>
	<g>
		<path d="M463.875,0H237.25c-27.106,0-50.173,21.44-50.173,48.613v226.366c0,27.173,23.125,49.945,50.298,49.945H463.74
			c27.173,0,48.26-22.714,48.26-49.81V48.488C512,21.382,490.971,0,463.875,0z M492.308,275.113c0,16.24-12.25,30.118-28.567,30.118
			H237.375c-16.317,0-30.606-13.935-30.606-30.252V48.613c0-16.317,14.241-28.921,30.481-28.921h226.625
			c16.241,0,28.433,12.555,28.433,28.796V275.113z"/>
	</g>
</g>
<g>
</g>
<g>
</g>
<g>
</g>
<g>
</g>
<g>
</g>
<g>
</g>
<g>
</g>
<g>
</g>
<g>
</g>
<g>
</g>
<g>
</g>
<g>
</g>
<g>
</g>
<g>
</g>
<g>
</g>
</svg>
