<?xml version="1.0" encoding="iso-8859-1"?>
<!-- Generator: Adobe Illustrator 19.0.0, SVG Export Plug-In . SVG Version: 6.00 Build 0)  -->
<svg version="1.1" id="Layer_1" xmlns="http://www.w3.org/2000/svg" xmlns:xlink="http://www.w3.org/1999/xlink" x="0px" y="0px"
	 viewBox="0 0 512 512" style="enable-background:new 0 0 512 512;" xml:space="preserve">
<g>
	<g>
		<path d="M266.026,90.235V10.026C266.026,4.49,261.542,0,256,0s-10.026,4.49-10.026,10.026v80.209
			c-60.156,0.011-110.286,49.441-110.286,110.193v200.705C135.688,461.892,186.21,512,247.031,512h20.013
			c60.822,0,109.268-50.108,109.268-110.866V200.429C376.312,139.676,328.689,90.246,266.026,90.235z M356.26,401.134
			c0,49.704-39.448,90.814-89.216,90.814h-20.013c-49.768,0-91.292-41.11-91.292-90.814V200.429
			c0-49.705,41.524-89.469,91.292-89.469h20.013c49.768,0,89.216,39.764,89.216,89.469V401.134z"/>
	</g>
</g>
<g>
	<g>
		<path d="M257.038,200.52c-11.054,0-20.052,8.994-20.052,20.052c0,11.059,8.998,20.052,20.052,20.052
			c11.054,0,20.052-8.993,20.052-20.052C277.09,209.515,268.092,200.52,257.038,200.52z"/>
	</g>
</g>
<g>
</g>
<g>
</g>
<g>
</g>
<g>
</g>
<g>
</g>
<g>
</g>
<g>
</g>
<g>
</g>
<g>
</g>
<g>
</g>
<g>
</g>
<g>
</g>
<g>
</g>
<g>
</g>
<g>
</g>
</svg>
