<?xml version="1.0" encoding="iso-8859-1"?>
<!-- Generator: Adobe Illustrator 19.0.0, SVG Export Plug-In . SVG Version: 6.00 Build 0)  -->
<svg version="1.1" id="Layer_1" xmlns="http://www.w3.org/2000/svg" xmlns:xlink="http://www.w3.org/1999/xlink" x="0px" y="0px"
	 viewBox="0 0 512 512" style="enable-background:new 0 0 512 512;" xml:space="preserve">
<g>
	<g>
		<path d="M269.429,0h-24.333c-73.952,0-135.381,59.29-135.381,133.165V377.2c0,73.875,61.429,134.8,135.381,134.8h24.333
			c73.952,0,132.857-60.926,132.857-134.8V133.165C402.286,59.29,343.381,0,269.429,0z M134.095,133.165
			c0-60.427,51.81-109.588,109.714-109.601v170.14c-33.524-2.744-88.381-15.682-109.714-21.067V133.165z M377.905,377.2
			c0,60.434-47.964,110.42-108.476,110.42h-24.333c-60.512,0-111-49.985-111-110.42V197.811
			c30.476,7.036,86.994,20.799,121.905,20.799c34.792,0,94.476-13.774,121.905-20.806V377.2z M377.905,172.632
			c-18.286,5.381-73.143,18.319-109.714,21.07V23.564c60.952,0.013,109.714,49.174,109.714,109.601V172.632z"/>
	</g>
</g>
<g>
</g>
<g>
</g>
<g>
</g>
<g>
</g>
<g>
</g>
<g>
</g>
<g>
</g>
<g>
</g>
<g>
</g>
<g>
</g>
<g>
</g>
<g>
</g>
<g>
</g>
<g>
</g>
<g>
</g>
</svg>
