<?xml version="1.0" encoding="iso-8859-1"?>
<!-- Generator: Adobe Illustrator 19.0.0, SVG Export Plug-In . SVG Version: 6.00 Build 0)  -->
<svg version="1.1" id="Layer_1" xmlns="http://www.w3.org/2000/svg" xmlns:xlink="http://www.w3.org/1999/xlink" x="0px" y="0px"
	 viewBox="0 0 512 512" style="enable-background:new 0 0 512 512;" xml:space="preserve">
<g>
	<g>
		<path d="M269.429,0h-24.333c-73.952,0-135.381,59.29-135.381,133.165V377.2c0,73.875,61.429,134.8,135.381,134.8h24.333
			c73.952,0,132.857-60.926,132.857-134.8V133.165C402.286,59.29,343.381,0,269.429,0z M377.905,377.2
			c0,60.434-47.964,110.42-108.476,110.42h-24.333c-60.512,0-111-49.985-111-110.42V133.165c0-60.427,51.81-109.588,109.714-109.601
			v49.579h24.381V23.564c60.952,0.013,109.714,49.174,109.714,109.601V377.2z"/>
	</g>
</g>
<g>
	<g>
		<path d="M256,84.515c-20.167,0-36.571,16.436-36.571,36.631v12.073c0,20.197,16.405,36.629,36.571,36.629
			s36.571-16.433,36.571-36.629v-12.073C292.571,100.951,276.167,84.515,256,84.515z M268.19,133.219
			c0,6.867-5.357,12.248-12.19,12.248c-6.726,0-12.19-5.494-12.19-12.248v-12.073c0-6.756,5.464-12.25,12.19-12.25
			c6.726,0,12.19,5.494,12.19,12.25V133.219z"/>
	</g>
</g>
<g>
	<g>
		<rect x="243.81" y="182.857" width="24.381" height="60.952"/>
	</g>
</g>
<g>
</g>
<g>
</g>
<g>
</g>
<g>
</g>
<g>
</g>
<g>
</g>
<g>
</g>
<g>
</g>
<g>
</g>
<g>
</g>
<g>
</g>
<g>
</g>
<g>
</g>
<g>
</g>
<g>
</g>
</svg>
