<?xml version="1.0" encoding="iso-8859-1"?>
<!-- Generator: Adobe Illustrator 19.0.0, SVG Export Plug-In . SVG Version: 6.00 Build 0)  -->
<svg version="1.1" id="Layer_1" xmlns="http://www.w3.org/2000/svg" xmlns:xlink="http://www.w3.org/1999/xlink" x="0px" y="0px"
	 viewBox="0 0 512 512" style="enable-background:new 0 0 512 512;" xml:space="preserve">
<g>
	<g>
		<path d="M331.436,88.436H182.491c-5.141,0-9.309,4.168-9.309,9.309c0,5.141,4.168,9.309,9.309,9.309h148.945
			c5.141,0,9.309-4.168,9.309-9.309C340.746,92.604,336.577,88.436,331.436,88.436z"/>
	</g>
</g>
<g>
	<g>
		<path d="M405.955,27.927H292.975C288.825,11.636,274.276,0,256.964,0c-17.313,0-31.862,11.636-36.012,27.927H108.091
			c-25.704,0-47.582,20.285-47.582,45.989v390.845c0,25.705,21.845,47.239,47.509,47.239h297.891
			c25.664,0,45.582-21.534,45.582-47.239V73.916C451.491,48.212,431.596,27.927,405.955,27.927z M256.964,17.993
			c9.567,0,17.461,7.251,18.495,16.547c-0.152,0.668-0.25,1.358-0.25,2.071c0,0.716,0.098,1.405,0.25,2.073
			c-1.034,9.295-8.928,16.545-18.495,16.545c-10.268,0-18.618-8.35-18.618-18.618C238.346,26.343,246.696,17.993,256.964,17.993z
			 M432.873,464.761c0,15.437-11.564,28.621-26.964,28.621H108.018c-15.4,0-28.891-13.184-28.891-28.621V73.916
			c0-15.436,13.523-27.37,28.964-27.37h112.861c0.855,2.327,2.14,4.655,3.814,9.309h-42.275c-5.141,0-9.309,4.168-9.309,9.309
			s4.168,9.309,9.309,9.309h148.945c5.141,0,9.309-4.168,9.309-9.309s-4.168-9.309-9.309-9.309h-42.275
			c1.674-4.655,2.958-6.982,3.814-9.309h112.979c15.373,0,26.918,11.934,26.918,27.37V464.761z"/>
	</g>
</g>
<g>
	<g>
		<circle cx="135.945" cy="176.244" r="18.618"/>
	</g>
</g>
<g>
	<g>
		<circle cx="135.945" cy="250.717" r="18.618"/>
	</g>
</g>
<g>
	<g>
		<circle cx="135.945" cy="325.19" r="18.618"/>
	</g>
</g>
<g>
	<g>
		<circle cx="135.945" cy="399.663" r="18.618"/>
	</g>
</g>
<g>
	<g>
		<path d="M396.6,167.564H191.8c-5.141,0-9.309,4.168-9.309,9.309s4.168,9.309,9.309,9.309h204.8c5.141,0,9.309-4.168,9.309-9.309
			S401.741,167.564,396.6,167.564z"/>
	</g>
</g>
<g>
	<g>
		<path d="M396.6,242.036H191.8c-5.141,0-9.309,4.168-9.309,9.309c0,5.141,4.168,9.309,9.309,9.309h204.8
			c5.141,0,9.309-4.168,9.309-9.309C405.909,246.205,401.741,242.036,396.6,242.036z"/>
	</g>
</g>
<g>
	<g>
		<path d="M396.6,316.509H191.8c-5.141,0-9.309,4.168-9.309,9.309s4.168,9.309,9.309,9.309h204.8c5.141,0,9.309-4.168,9.309-9.309
			S401.741,316.509,396.6,316.509z"/>
	</g>
</g>
<g>
	<g>
		<path d="M396.6,390.982H191.8c-5.141,0-9.309,4.168-9.309,9.309c0,5.141,4.168,9.309,9.309,9.309h204.8
			c5.141,0,9.309-4.168,9.309-9.309C405.909,395.15,401.741,390.982,396.6,390.982z"/>
	</g>
</g>
<g>
</g>
<g>
</g>
<g>
</g>
<g>
</g>
<g>
</g>
<g>
</g>
<g>
</g>
<g>
</g>
<g>
</g>
<g>
</g>
<g>
</g>
<g>
</g>
<g>
</g>
<g>
</g>
<g>
</g>
</svg>
