<?xml version="1.0" encoding="iso-8859-1"?>
<!-- Generator: Adobe Illustrator 19.0.0, SVG Export Plug-In . SVG Version: 6.00 Build 0)  -->
<svg version="1.1" id="Layer_1" xmlns="http://www.w3.org/2000/svg" xmlns:xlink="http://www.w3.org/1999/xlink" x="0px" y="0px"
	 viewBox="0 0 512 512" style="enable-background:new 0 0 512 512;" xml:space="preserve">
<g>
	<g>
		<path d="M400.649,0h-26.947H86.263c-4.961,0-9.912,3.41-9.912,8.375V502.41c0,4.965,4.952,9.59,9.912,9.59h287.439h26.947
			c19.811,0,35-16.713,35-36.502V35.287C435.649,15.498,420.46,0,400.649,0z M363.789,494.035H94.316V17.965h269.474V494.035z
			 M417.684,475.498c0,9.886-7.127,18.537-17.035,18.537h-18.895V17.965h18.895c9.908,0,17.035,7.436,17.035,17.322V475.498z"/>
	</g>
</g>
<g>
	<g>
		<path d="M292.912,71.86H185.017c-14.829,0-27.824,11.489-27.824,26.366v80.79c0,14.877,12.996,27.581,27.824,27.581h107.895
			c14.829,0,25.965-12.704,25.965-27.581v-80.79C318.877,83.349,307.741,71.86,292.912,71.86z M300.912,179.015
			c0,4.965-3.074,9.616-8,9.616H185.017c-4.925,0-9.86-4.651-9.86-9.616v-80.79c0-4.965,4.934-8.401,9.86-8.401h107.895
			c4.926,0,8,3.436,8,8.401V179.015z"/>
	</g>
</g>
<g>
	<g>
		<path d="M274.895,404.211h-71.86c-4.961,0-8.982,4.018-8.982,8.982s4.022,8.982,8.982,8.982h71.86c4.96,0,8.982-4.018,8.982-8.982
			S279.855,404.211,274.895,404.211z"/>
	</g>
</g>
<g>
	<g>
		<path d="M256.93,440.14H221c-4.961,0-8.982,4.018-8.982,8.982s4.022,8.982,8.982,8.982h35.93c4.96,0,8.982-4.018,8.982-8.982
			S261.89,440.14,256.93,440.14z"/>
	</g>
</g>
<g>
</g>
<g>
</g>
<g>
</g>
<g>
</g>
<g>
</g>
<g>
</g>
<g>
</g>
<g>
</g>
<g>
</g>
<g>
</g>
<g>
</g>
<g>
</g>
<g>
</g>
<g>
</g>
<g>
</g>
</svg>
