<?xml version="1.0" encoding="iso-8859-1"?>
<!-- Generator: Adobe Illustrator 19.0.0, SVG Export Plug-In . SVG Version: 6.00 Build 0)  -->
<svg version="1.1" id="Layer_1" xmlns="http://www.w3.org/2000/svg" xmlns:xlink="http://www.w3.org/1999/xlink" x="0px" y="0px"
	 viewBox="0 0 512 512" style="enable-background:new 0 0 512 512;" xml:space="preserve">
<g>
	<g>
		<path d="M507.977,91.483c-2.607-1.606-64.398-39.334-127.982-39.334c-54.098,0-106.929,27.299-123.136,36.436
			c-16.207-9.138-69.1-36.436-123.198-36.436C70.078,52.148,7.58,89.876,4.974,91.483C2.169,93.208,0,96.265,0,99.556V450.37
			c0,3.436,2.347,6.597,5.343,8.274c2.995,1.675,6.912,1.597,9.838-0.196c0.597-0.366,60.294-36.523,118.419-36.523
			c58.125,0,117.76,36.157,118.358,36.523c0.057,0.035,0.148,0.058,0.205,0.091c0.054,0.032,0.118,0.073,0.175,0.104
			c0.142,0.08,0.302,0.137,0.448,0.208c0.186,0.091,0.374,0.186,0.563,0.265c0.206,0.086,0.418,0.153,0.629,0.224
			c0.199,0.066,0.396,0.137,0.597,0.19c0.2,0.052,0.403,0.087,0.604,0.126c0.219,0.041,0.435,0.089,0.656,0.116
			c0.186,0.023,0.373,0.028,0.559,0.039c0.196,0.012,0.391,0.039,0.588,0.039c0.043,0,0.086-0.007,0.129-0.008
			c0.128-0.001,0.255-0.018,0.383-0.023c0.277-0.016,0.552-0.032,0.826-0.072c0.154-0.022,0.304-0.058,0.456-0.088
			c0.245-0.047,0.488-0.094,0.73-0.161c0.174-0.048,0.344-0.111,0.515-0.169c0.214-0.073,0.427-0.144,0.636-0.232
			c0.184-0.078,0.361-0.169,0.541-0.258c0.137-0.068,0.278-0.123,0.412-0.197c0.054-0.031,0.101-0.069,0.154-0.101
			c0.059-0.035,0.122-0.059,0.179-0.095c0.597-0.366,60.171-36.523,118.296-36.523c58.125,0,117.699,36.157,118.296,36.523
			c1.518,0.931,3.241,1.403,4.963,1.403c1.592,0,2.699-0.403,4.139-1.207c2.995-1.677,4.361-4.838,4.361-8.274V99.556
			C512,96.265,510.782,93.208,507.977,91.483z M246.518,434.301c-21.333-11.517-67.694-31.338-113.778-31.338
			s-90.074,19.821-113.778,31.338V105.033c16.593-8.353,64.898-33.922,113.778-33.922s99.556,25.569,113.778,33.922V434.301z
			 M493.037,434.301c-21.333-11.517-67.694-31.338-113.778-31.338c-46.083,0-90.074,19.821-113.778,31.338V105.033
			c16.593-8.353,64.898-33.922,113.778-33.922s99.556,25.569,113.778,33.922V434.301z"/>
	</g>
</g>
<g>
</g>
<g>
</g>
<g>
</g>
<g>
</g>
<g>
</g>
<g>
</g>
<g>
</g>
<g>
</g>
<g>
</g>
<g>
</g>
<g>
</g>
<g>
</g>
<g>
</g>
<g>
</g>
<g>
</g>
</svg>
