<?xml version="1.0" encoding="iso-8859-1"?>
<!-- Generator: Adobe Illustrator 19.0.0, SVG Export Plug-In . SVG Version: 6.00 Build 0)  -->
<svg version="1.1" id="Layer_1" xmlns="http://www.w3.org/2000/svg" xmlns:xlink="http://www.w3.org/1999/xlink" x="0px" y="0px"
	 viewBox="0 0 512 512" style="enable-background:new 0 0 512 512;" xml:space="preserve">
<g>
	<g>
		<path d="M506.008,62.869c-2.588-1.192-63.877-29.259-126.742-29.259c-54.608,0-108.064,21.169-122.9,27.513
			c-14.836-6.344-68.353-27.513-122.961-27.513C70.539,33.61,8.546,61.677,5.959,62.869C2.604,64.417,0,67.772,0,71.463v350.141
			c0,3.225,2.135,6.229,4.852,7.966c2.712,1.737,6.377,1.982,9.306,0.628c0.601-0.276,60.566-27.521,119.185-27.521
			c58.619,0,118.523,27.245,119.124,27.521c0.048,0.023,0.132,0.029,0.18,0.051c0.522,0.23,1.077,0.408,1.625,0.539
			c0.092,0.023,0.191,0.053,0.284,0.073c0.571,0.119,1.154,0.174,1.736,0.186c0.064,0.001,0.126,0.02,0.188,0.02
			c0.08,0,0.158-0.014,0.238-0.016c0.26-0.006,0.519-0.028,0.779-0.056c0.157-0.016,0.313-0.03,0.469-0.054
			c0.29-0.046,0.576-0.113,0.863-0.186c0.124-0.032,0.248-0.054,0.371-0.091c0.365-0.11,0.723-0.244,1.077-0.399
			c0.04-0.018,0.083-0.03,0.125-0.048c0.015-0.007,0.031-0.01,0.046-0.018c0.601-0.276,60.444-27.521,119.063-27.521
			c58.619,0,118.462,27.245,119.062,27.521c1.261,0.582,2.611,0.869,3.955,0.869c1.784,0,3.068-0.504,4.616-1.497
			c2.717-1.737,3.872-4.741,3.872-7.966V71.463C511.017,67.772,509.362,64.417,506.008,62.869z M246.045,407.415
			c-21.292-8.512-67.37-23.664-113.559-23.664s-89.901,15.151-113.559,23.664V77.697c16.561-6.668,65.263-25.16,113.559-25.16
			s99.364,18.492,113.559,25.16V407.415z M492.09,407.415c-21.292-8.512-67.37-23.664-113.559-23.664
			c-46.189,0-89.901,15.151-113.559,23.664V77.697c16.561-6.668,65.263-25.16,113.559-25.16c19.538,0,40.219,3.028,56.78,7.073
			v68.633c0,5.226,4.237,9.463,9.463,9.463c5.226,0,9.463-4.237,9.463-9.463V64.535c18.927,4.952,30.756,10.214,37.853,13.162
			V407.415z"/>
	</g>
</g>
<g>
	<g>
		<path d="M213.404,157.631c-1.626-0.812-40.307-19.925-79.939-19.925c-39.632,0-78.312,19.112-79.939,19.925
			c-4.676,2.339-6.571,8.022-4.233,12.698c1.659,3.318,5,5.231,8.475,5.231c1.419,0,2.865-0.318,4.223-0.997
			c0.356-0.18,36.263-17.93,71.474-17.93c35.076,0,71.122,17.753,71.478,17.93c4.685,2.343,10.35,0.429,12.693-4.242
			C219.97,165.649,218.076,159.97,213.404,157.631z"/>
	</g>
</g>
<g>
	<g>
		<path d="M213.404,233.337c-1.626-0.812-40.307-19.925-79.939-19.925c-39.632,0-78.312,19.112-79.939,19.925
			c-4.676,2.339-6.571,8.022-4.233,12.698c1.659,3.318,5,5.231,8.475,5.231c1.419,0,2.865-0.318,4.223-0.997
			c0.356-0.18,36.263-17.93,71.474-17.93c35.076,0,71.122,17.753,71.478,17.93c4.685,2.346,10.35,0.434,12.693-4.242
			C219.97,241.355,218.076,235.676,213.404,233.337z"/>
	</g>
</g>
<g>
	<g>
		<path d="M213.404,309.043c-1.626-0.812-40.307-19.925-79.939-19.925c-39.632,0-78.312,19.112-79.939,19.925
			c-4.676,2.339-6.571,8.022-4.233,12.699c1.659,3.317,5,5.23,8.475,5.23c1.419,0,2.865-0.318,4.223-0.997
			c0.356-0.18,36.263-17.93,71.474-17.93c35.076,0,71.122,17.753,71.478,17.93c4.685,2.337,10.35,0.429,12.693-4.242
			C219.97,317.061,218.076,311.382,213.404,309.043z"/>
	</g>
</g>
<g>
	<g>
		<path d="M459.449,157.631c-1.627-0.812-40.307-19.925-79.939-19.925c-39.632,0-78.312,19.112-79.939,19.925
			c-4.676,2.339-6.571,8.022-4.233,12.698c1.659,3.318,5,5.231,8.475,5.231c1.419,0,2.865-0.318,4.223-0.997
			c0.356-0.18,36.263-17.93,71.474-17.93c35.076,0,71.122,17.753,71.478,17.93c4.681,2.343,10.355,0.429,12.693-4.242
			C466.015,165.649,464.121,159.97,459.449,157.631z"/>
	</g>
</g>
<g>
	<g>
		<path d="M459.449,233.337c-1.626-0.812-40.307-19.925-79.939-19.925c-39.632,0-78.312,19.112-79.939,19.925
			c-4.676,2.339-6.571,8.022-4.233,12.698c1.659,3.318,5,5.231,8.475,5.231c1.419,0,2.865-0.318,4.223-0.997
			c0.356-0.18,36.263-17.93,71.474-17.93c35.076,0,71.122,17.753,71.478,17.93c4.681,2.346,10.355,0.434,12.693-4.242
			C466.015,241.355,464.121,235.676,459.449,233.337z"/>
	</g>
</g>
<g>
	<g>
		<path d="M459.449,309.043c-1.626-0.812-40.307-19.925-79.939-19.925c-39.632,0-78.312,19.112-79.939,19.925
			c-4.676,2.339-6.571,8.022-4.233,12.699c1.659,3.317,5,5.23,8.475,5.23c1.419,0,2.865-0.318,4.223-0.997
			c0.356-0.18,36.263-17.93,71.474-17.93c35.076,0,71.122,17.753,71.478,17.93c4.681,2.337,10.355,0.429,12.693-4.242
			C466.015,317.061,464.121,311.382,459.449,309.043z"/>
	</g>
</g>
<g>
	<g>
		<path d="M505.855,460.058c-3.156-1.183-77.869-28.991-126.345-28.991c-43.355,0-107.655,22.229-123.023,27.775
			c-15.367-5.546-79.667-27.775-123.023-27.775c-48.476,0-123.189,27.808-126.345,28.991c-4.893,1.84-7.375,7.293-5.54,12.185
			c1.428,3.798,5.032,6.147,8.863,6.147c1.104,0,2.227-0.2,3.322-0.606c0.739-0.281,74.62-27.789,119.7-27.789
			c45.034,0,118.961,27.512,119.7,27.789c0.067,0.025,0.134,0.03,0.201,0.053c0.996,0.35,2.047,0.553,3.121,0.553
			c0.088,0,0.176-0.022,0.263-0.024c0.169-0.005,0.33-0.031,0.497-0.045c0.414-0.033,0.825-0.083,1.238-0.173
			c0.203-0.044,0.398-0.107,0.598-0.164c0.243-0.069,0.486-0.111,0.726-0.2c0.739-0.281,74.62-27.789,119.7-27.789
			c45.034,0,118.961,27.512,119.7,27.789c4.898,1.816,10.346-0.646,12.185-5.54C513.23,467.351,510.748,461.898,505.855,460.058z"/>
	</g>
</g>
<g>
</g>
<g>
</g>
<g>
</g>
<g>
</g>
<g>
</g>
<g>
</g>
<g>
</g>
<g>
</g>
<g>
</g>
<g>
</g>
<g>
</g>
<g>
</g>
<g>
</g>
<g>
</g>
<g>
</g>
</svg>
