<?xml version="1.0" encoding="iso-8859-1"?>
<!-- Generator: Adobe Illustrator 19.0.0, SVG Export Plug-In . SVG Version: 6.00 Build 0)  -->
<svg version="1.1" id="Layer_1" xmlns="http://www.w3.org/2000/svg" xmlns:xlink="http://www.w3.org/1999/xlink" x="0px" y="0px"
	 viewBox="0 0 512 512" style="enable-background:new 0 0 512 512;" xml:space="preserve">
<g>
	<g>
		<path d="M463.76,29.871H296.433c-16.128,0-30.423,7.822-39.413,19.832c-8.99-12.01-23.289-19.832-39.414-19.832H50.279
			C23.115,29.871,0,51.296,0,78.44v315.077c0,27.144,23.135,49.892,50.317,49.892h147.625c20.106,0,43.779,25.261,51.202,35.121
			c0.06,0.081,0.142-0.028,0.207,0.05c0.353,0.443,0.75,0.769,1.178,1.148c0.132,0.116,0.26,0.195,0.399,0.303
			c0.507,0.403,1.05,0.743,1.639,1.041c0.127,0.064,0.259,0.096,0.389,0.155c0.31,0.142,0.618,0.286,0.947,0.397
			c0.185,0.063,0.375,0.085,0.563,0.137c0.187,0.05,0.375,0.1,0.565,0.138c0.661,0.138,1.327,0.23,1.988,0.23
			c0.661,0,1.327-0.093,1.985-0.23c0.192-0.04,0.377-0.09,0.567-0.141c0.187-0.052,0.377-0.077,0.562-0.141
			c0.329-0.11,0.635-0.26,0.947-0.401c0.13-0.058,0.262-0.101,0.389-0.166c0.589-0.298,1.132-0.659,1.639-1.06
			c0.139-0.108,0.267-0.228,0.399-0.345c0.428-0.379,0.822-0.787,1.178-1.231c0.063-0.078,0.144,0.196,0.207,0.115
			c7.423-9.861,31.096-35.121,51.202-35.121h147.625c27.183,0,48.279-22.748,48.279-49.892V78.44
			C512,51.296,490.923,29.871,463.76,29.871z M246.154,446.984c-12.308-11.576-29.337-23.267-48.211-23.267H50.317
			c-16.327,0-30.625-13.91-30.625-30.2V78.44c0-16.288,14.279-28.877,30.587-28.877h167.327c16.308,0,28.548,12.599,28.548,28.897
			V446.984z M492.308,393.517c0,16.29-12.26,30.2-28.587,30.2H316.096c-18.875,0-35.481,11.691-50.25,23.267V78.46
			c0-16.298,14.279-28.897,30.587-28.897H463.76c16.308,0,28.548,12.589,28.548,28.877V393.517z"/>
	</g>
</g>
<g>
</g>
<g>
</g>
<g>
</g>
<g>
</g>
<g>
</g>
<g>
</g>
<g>
</g>
<g>
</g>
<g>
</g>
<g>
</g>
<g>
</g>
<g>
</g>
<g>
</g>
<g>
</g>
<g>
</g>
</svg>
