<?xml version="1.0" encoding="iso-8859-1"?>
<!-- Generator: Adobe Illustrator 19.0.0, SVG Export Plug-In . SVG Version: 6.00 Build 0)  -->
<svg version="1.1" id="Layer_1" xmlns="http://www.w3.org/2000/svg" xmlns:xlink="http://www.w3.org/1999/xlink" x="0px" y="0px"
	 viewBox="0 0 512 512" style="enable-background:new 0 0 512 512;" xml:space="preserve">
<g>
	<g>
		<path d="M472.1,256h-92.16H143.36V122.213c0-56.475,46.99-101.733,103.45-101.733h20.5c56.46,0,102.39,45.601,102.39,102.077
			c0,5.654,4.585,10.067,10.24,10.067c5.655,0,10.24-4.327,10.24-9.982C390.18,54.877,335.06,0,267.31,0h-20.5
			c-67.75,0-123.93,54.448-123.93,122.213V256H42.02c-5.655,0-11.3,3.898-11.3,9.552v235.52c0,5.655,5.645,10.928,11.3,10.928H472.1
			c5.655,0,9.18-5.273,9.18-10.928v-235.52C481.28,259.898,477.755,256,472.1,256z M460.8,491.52H51.2V276.48h82.98h245.76h80.86
			V491.52z"/>
	</g>
</g>
<g>
	<g>
		<path d="M257.06,316.752c-22.585,0-40.96,18.375-40.96,40.96c0,22.585,18.375,40.96,40.96,40.96
			c22.585,0,40.96-18.375,40.96-40.96C298.02,335.128,279.645,316.752,257.06,316.752z M257.06,378.192
			c-11.295,0-20.48-9.185-20.48-20.48c0-11.295,9.185-20.48,20.48-20.48s20.48,9.185,20.48,20.48
			C277.54,369.008,268.355,378.192,257.06,378.192z"/>
	</g>
</g>
<g>
</g>
<g>
</g>
<g>
</g>
<g>
</g>
<g>
</g>
<g>
</g>
<g>
</g>
<g>
</g>
<g>
</g>
<g>
</g>
<g>
</g>
<g>
</g>
<g>
</g>
<g>
</g>
<g>
</g>
</svg>
