<?xml version="1.0" encoding="iso-8859-1"?>
<!-- Generator: Adobe Illustrator 19.0.0, SVG Export Plug-In . SVG Version: 6.00 Build 0)  -->
<svg version="1.1" id="Layer_1" xmlns="http://www.w3.org/2000/svg" xmlns:xlink="http://www.w3.org/1999/xlink" x="0px" y="0px"
	 viewBox="0 0 512 512" style="enable-background:new 0 0 512 512;" xml:space="preserve">
<g>
	<g>
		<path d="M256,142.861c-101.773,0-184.57,82.802-184.57,184.57C71.43,429.201,154.227,512,256,512
			c101.772,0,184.57-82.799,184.57-184.57C440.57,225.663,357.772,142.861,256,142.861z M256,491.492
			c-90.462,0-164.062-73.599-164.062-164.062S165.537,163.368,256,163.368c90.462,0,164.062,73.599,164.062,164.062
			S346.462,491.492,256,491.492z"/>
	</g>
</g>
<g>
	<g>
		<path d="M276.558,0h-41.116c-33.896,0-62.534,26.914-62.534,60.84v61.513c0,5.668,4.591,10.254,10.254,10.254
			c5.663,0,10.254-4.586,10.254-10.254V60.84c0-22.621,19.436-40.332,42.027-40.332h41.116c22.591,0,39.904,17.711,39.904,40.332
			v61.513c0,5.668,4.591,10.254,10.254,10.254c5.663,0,10.254-4.586,10.254-10.254V60.84C336.969,26.914,310.453,0,276.558,0z"/>
	</g>
</g>
<g>
	<g>
		<path d="M254.938,276.161c-5.663,0-10.254,4.586-10.254,10.254v71.777c0,5.668,4.591,10.254,10.254,10.254
			c5.663,0,10.254-4.586,10.254-10.254v-71.777C265.192,280.747,260.601,276.161,254.938,276.161z"/>
	</g>
</g>
<g>
</g>
<g>
</g>
<g>
</g>
<g>
</g>
<g>
</g>
<g>
</g>
<g>
</g>
<g>
</g>
<g>
</g>
<g>
</g>
<g>
</g>
<g>
</g>
<g>
</g>
<g>
</g>
<g>
</g>
</svg>
