<?xml version="1.0" encoding="iso-8859-1"?>
<!-- Generator: Adobe Illustrator 19.0.0, SVG Export Plug-In . SVG Version: 6.00 Build 0)  -->
<svg version="1.1" id="Layer_1" xmlns="http://www.w3.org/2000/svg" xmlns:xlink="http://www.w3.org/1999/xlink" x="0px" y="0px"
	 viewBox="0 0 512 512" style="enable-background:new 0 0 512 512;" xml:space="preserve">
<g>
	<g>
		<path d="M379.413,180.372c2.522,0,4.932-1.32,6.712-3.1l56.96-57.118c3.708-3.708,3.708-9.796,0-13.504l-56.96-56.68
			c-1.78-1.78-4.19-2.503-6.712-2.503H292.99V27.889C292.99,12.162,281.179,0,265.447,0h-9.4c-15.732,0-29.509,12.162-29.509,27.889
			v19.577H123.094c-5.247,0-10.476,3.613-10.476,8.856v113.919c0,5.244,5.229,10.131,10.476,10.131h103.443v18.987h-93.95
			c-2.522,0-4.932,0.683-6.712,2.463l-56.96,56.801c-3.708,3.708-3.708,9.636,0,13.344l56.96,57.239
			c1.78,1.78,4.191,3.059,6.712,3.059h93.95v170.242c0,5.243,4.246,9.493,9.493,9.493c5.247,0,9.493-4.251,9.493-9.493V332.264
			h28.48v170.242c0,5.243,4.246,9.493,9.493,9.493c5.247,0,9.493-4.251,9.493-9.493V332.264h95.915c5.247,0,8.51-4.887,8.51-10.13
			v-113.92c0-5.242-3.263-8.856-8.51-8.856H292.99v-18.987H379.413z M245.524,27.889c0-5.261,5.266-8.902,10.522-8.902h9.4
			c5.257,0,8.557,3.641,8.557,8.902v19.577h-28.48V27.889z M378.43,218.345v94.933H136.518l-47.466-47.466l47.466-47.466H378.43z
			 M245.524,199.359v-18.987h28.48v18.987H245.524z M131.605,161.385V66.453h105.409h47.466h91.002l47.466,47.466l-47.466,47.466
			H131.605z"/>
	</g>
</g>
<g>
</g>
<g>
</g>
<g>
</g>
<g>
</g>
<g>
</g>
<g>
</g>
<g>
</g>
<g>
</g>
<g>
</g>
<g>
</g>
<g>
</g>
<g>
</g>
<g>
</g>
<g>
</g>
<g>
</g>
</svg>
