<?xml version="1.0" encoding="iso-8859-1"?>
<!-- Generator: Adobe Illustrator 19.0.0, SVG Export Plug-In . SVG Version: 6.00 Build 0)  -->
<svg version="1.1" id="Layer_1" xmlns="http://www.w3.org/2000/svg" xmlns:xlink="http://www.w3.org/1999/xlink" x="0px" y="0px"
	 viewBox="0 0 512 512" style="enable-background:new 0 0 512 512;" xml:space="preserve">
<g>
	<g>
		<path d="M488.853,49.146c-0.477-1.127-1.173-2.185-2.089-3.1l-6.182-6.183c-0.916-0.916-1.975-1.617-3.1-2.089
			c-42.147-33.428-103.737-30.68-142.669,8.233L2.862,377.956c-3.816,3.816-3.816,9.999,0,13.815c3.816,3.816,9.998,3.816,13.814,0
			L348.626,59.82c33.218-33.218,86.68-34.215,121.156-2.976c31.234,34.474,30.222,87.953-3.043,121.214L181.191,463.605
			c-19.032,19.048-50.037,19.051-69.107-0.004l-1.488-1.494c-19.061-19.061-19.07-50.056-0.038-69.096L353.31,149.859
			c3.682-3.682,8.577-6.114,13.785-6.114c0.01,0,0.01,0,0.019,0c5.237,0,10.169,2.465,13.89,6.185l3.711,3.914
			c7.651,7.656,7.67,20.197,0.029,27.834L208.056,358.416c-3.816,3.816-3.816,10.023,0,13.839c3.816,3.816,9.998,3.829,13.814,0.013
			l176.688-176.682c15.254-15.25,15.245-40.078-0.029-55.357l-3.711-4.114c-7.403-7.408-17.239-11.908-27.675-11.908
			c-0.019,0-0.038,0-0.048,0c-10.427,0-20.225,4.463-27.599,11.838L96.744,378.995c-26.654,26.659-26.635,70.153,0.029,96.817
			l1.488,1.543c13.337,13.342,30.862,20.04,48.386,20.04c17.515-0.005,35.031-6.655,48.358-19.987l285.548-285.542
			C519.504,152.923,522.271,91.298,488.853,49.146z"/>
	</g>
</g>
<g>
</g>
<g>
</g>
<g>
</g>
<g>
</g>
<g>
</g>
<g>
</g>
<g>
</g>
<g>
</g>
<g>
</g>
<g>
</g>
<g>
</g>
<g>
</g>
<g>
</g>
<g>
</g>
<g>
</g>
</svg>
