<?xml version="1.0" encoding="iso-8859-1"?>
<!-- Generator: Adobe Illustrator 19.0.0, SVG Export Plug-In . SVG Version: 6.00 Build 0)  -->
<svg version="1.1" id="Layer_1" xmlns="http://www.w3.org/2000/svg" xmlns:xlink="http://www.w3.org/1999/xlink" x="0px" y="0px"
	 viewBox="0 0 512 512" style="enable-background:new 0 0 512 512;" xml:space="preserve">
<g>
	<g>
		<path d="M466.559,45.446c-57.41-57.421-134.275-60.747-186.904-8.13l-32.473,32.477c-0.008,0.01-0.02,0.014-0.028,0.022
			L11.492,305.474c-0.935,0.936-1.664,2.017-2.216,3.175c-0.009,0.018-0.017,0.036-0.027,0.056
			c-0.616,1.305-0.981,2.707-1.076,4.144c-0.006,0.087-0.032,0.166-0.036,0.25L0.011,500.002c-0.14,3.222,1.077,6.348,3.356,8.625
			c2.161,2.161,5.084,3.368,8.125,3.368c0.163,0,0.331-0.006,0.5-0.013l186.904-8.124c0.276-0.013,0.533-0.086,0.804-0.116
			c0.406-0.048,0.807-0.086,1.202-0.174c0.382-0.086,0.741-0.212,1.107-0.334c0.339-0.113,0.679-0.217,1.007-0.362
			c0.375-0.164,0.723-0.368,1.073-0.57c0.296-0.168,0.592-0.328,0.873-0.525c0.346-0.241,0.658-0.519,0.974-0.797
			c0.191-0.167,0.405-0.298,0.586-0.478l235.656-235.657l32.507-32.5C527.313,179.715,523.975,102.862,466.559,45.446z
			 M255.276,94.195l32.521,32.521c-0.057,0.055-0.124,0.09-0.18,0.147L97.105,317.38l-54.178-10.841L255.276,94.195z
			 M303.868,143.112c0.056-0.055,0.093-0.121,0.146-0.178l65.047,65.046c-0.057,0.055-0.124,0.091-0.18,0.147L177.924,399.084
			l-58.508-6.505l-6.505-58.503L303.868,143.112z M50.502,487.304c0.132-1.004,0.224-2.02,0.224-3.053
			c0-6.144-2.39-11.919-6.728-16.245c-5.085-5.096-12.391-7.18-19.317-6.301l5.834-134.208l59.872,11.976l7.199,64.784
			c0.589,5.34,4.809,9.56,10.151,10.151l64.784,7.199l11.976,59.872L50.502,487.304z M205.455,469.067l-10.84-54.172
			l190.516-190.518c0.056-0.055,0.093-0.121,0.146-0.178l32.524,32.522L205.455,469.067z M434.052,240.47L271.532,77.946
			l16.248-16.253l162.528,162.528L434.052,240.47z M466.194,207.6L304.401,45.811c48.965-40.694,107.694-22.326,145.907,15.887
			C488.516,99.912,506.871,158.629,466.194,207.6z"/>
	</g>
</g>
<g>
</g>
<g>
</g>
<g>
</g>
<g>
</g>
<g>
</g>
<g>
</g>
<g>
</g>
<g>
</g>
<g>
</g>
<g>
</g>
<g>
</g>
<g>
</g>
<g>
</g>
<g>
</g>
<g>
</g>
</svg>
