<?xml version="1.0" encoding="iso-8859-1"?>
<!-- Generator: Adobe Illustrator 19.0.0, SVG Export Plug-In . SVG Version: 6.00 Build 0)  -->
<svg version="1.1" id="Layer_1" xmlns="http://www.w3.org/2000/svg" xmlns:xlink="http://www.w3.org/1999/xlink" x="0px" y="0px"
	 viewBox="0 0 512 512" style="enable-background:new 0 0 512 512;" xml:space="preserve">
<g>
	<g>
		<path d="M505.552,329.774L266.715,90.932c-3.958-3.958-10.968-3.958-14.926,0l-22.77,22.77L118.403,3.092
			c-4.123-4.123-10.803-4.123-14.926,0L6.448,100.122c-1.979,1.979-3.092,4.664-3.092,7.464c0,2.797,1.113,5.482,3.092,7.462
			l110.615,110.61l-29.481,29.481c-4.123,4.123-4.123,10.803,0,14.926l238.837,238.842c1.979,1.979,4.659,3.094,7.463,3.094
			s5.484-1.115,7.463-3.094L505.552,344.7C509.675,340.577,509.675,333.897,505.552,329.774z M28.837,107.586l82.103-82.105
			L214.093,128.63l-82.103,82.102L28.837,107.586z M333.882,486.517L109.971,262.602l149.281-149.281l223.911,223.916
			L333.882,486.517z"/>
	</g>
</g>
<g>
	<g>
		<rect x="89.769" y="87.49" transform="matrix(0.7071 -0.7071 0.7071 0.7071 -66.3288 110.5844)" width="21.108" height="95.737"/>
	</g>
</g>
<g>
	<g>
		
			<rect x="121.435" y="55.812" transform="matrix(0.7071 -0.7071 0.7071 0.7071 -34.6544 123.6976)" width="21.108" height="95.737"/>
	</g>
</g>
<g>
</g>
<g>
</g>
<g>
</g>
<g>
</g>
<g>
</g>
<g>
</g>
<g>
</g>
<g>
</g>
<g>
</g>
<g>
</g>
<g>
</g>
<g>
</g>
<g>
</g>
<g>
</g>
<g>
</g>
</svg>
