<?xml version="1.0" encoding="iso-8859-1"?>
<!-- Generator: Adobe Illustrator 19.0.0, SVG Export Plug-In . SVG Version: 6.00 Build 0)  -->
<svg version="1.1" id="Layer_1" xmlns="http://www.w3.org/2000/svg" xmlns:xlink="http://www.w3.org/1999/xlink" x="0px" y="0px"
	 viewBox="0 0 512 512" style="enable-background:new 0 0 512 512;" xml:space="preserve">
<g>
	<g>
		<path d="M503.804,114.286H347.917C343.315,68.571,304.272,32,256.947,32c-47.326,0-86.368,36.571-90.971,82.286H10.089
			c-5.054,0-10.089,3.48-10.089,8.529v347.429C0,475.292,5.036,480,10.089,480h493.714c5.054,0,8.196-4.708,8.196-9.757V122.815
			C512,117.766,508.857,114.286,503.804,114.286z M256.947,50.286c37.232,0,68.036,27.429,72.551,64H184.395
			C188.911,77.714,219.714,50.286,256.947,50.286z M18.286,461.714v-87.936c16-12.365,81.906-66.193,161.688-63.972
			c48.634,1.432,93.708,23.801,133.504,65.853c-28.12,28.544-41.011,70.056-45.422,86.056H18.286z M493.714,461.714H287.094
			c7.103-25.143,27.632-79.871,72.29-94.485c36.484-11.921,81.759,5.443,134.33,52.266V461.714z M493.714,395.479
			c-52.571-43.588-99.951-59.036-140.018-45.936c-9.862,3.229-18.464,8.005-26.379,13.801
			c-43.379-46.066-93.047-70.23-146.918-71.815c-72.846-2.234-134.685,37.344-162.114,58.585V132.571h475.429V395.479z"/>
	</g>
</g>
<g>
	<g>
		<path d="M380.375,195.957c-27.723,0-50.286,22.558-50.286,50.286c0,27.728,22.563,50.286,50.286,50.286
			c27.723,0,50.286-22.558,50.286-50.286C430.661,218.516,408.098,195.957,380.375,195.957z M380.375,278.243
			c-17.643,0-32-14.357-32-32c0-17.643,14.357-32,32-32c17.643,0,32,14.357,32,32C412.375,263.886,398.018,278.243,380.375,278.243z
			"/>
	</g>
</g>
<g>
	<g>
		<path d="M256.947,58.815c-10.08,0-18.286,8.201-18.286,18.286c0,10.085,8.205,18.286,18.286,18.286
			c10.08,0,18.286-8.201,18.286-18.286C275.232,67.016,267.027,58.815,256.947,58.815z"/>
	</g>
</g>
<g>
</g>
<g>
</g>
<g>
</g>
<g>
</g>
<g>
</g>
<g>
</g>
<g>
</g>
<g>
</g>
<g>
</g>
<g>
</g>
<g>
</g>
<g>
</g>
<g>
</g>
<g>
</g>
<g>
</g>
</svg>
