<?xml version="1.0" encoding="iso-8859-1"?>
<!-- Generator: Adobe Illustrator 19.0.0, SVG Export Plug-In . SVG Version: 6.00 Build 0)  -->
<svg version="1.1" id="Layer_1" xmlns="http://www.w3.org/2000/svg" xmlns:xlink="http://www.w3.org/1999/xlink" x="0px" y="0px"
	 viewBox="0 0 512 512" style="enable-background:new 0 0 512 512;" xml:space="preserve">
<g>
	<g>
		<path d="M502.234,114.383H12.021C6,114.383,0,118.529,0,124.545v348.596c0,6.016,6,11.625,12.021,11.625h490.213
			c6.021,0,9.766-5.609,9.766-11.625V124.545C512,118.529,508.255,114.383,502.234,114.383z M490.213,462.979H21.787v-39.795
			l153.351-152.787L320.239,404.87c4.287,3.98,11.12,3.868,15.258-0.282l79.452-79.941l75.263,66.286V462.979z M490.213,361.989
			l-68.521-60.45c-4.298-3.77-10.537-3.559-14.59,0.496l-79.583,79.722l-144.75-134.474c-4.285-3.979-11.506-3.867-15.644,0.283
			L21.787,392.375V136.17h468.426V361.989z"/>
	</g>
</g>
<g>
	<g>
		<path d="M338.83,189.907c-30.032,0-54.468,24.436-54.468,54.468c0,30.032,24.436,54.468,54.468,54.468
			c30.032,0,54.468-24.436,54.468-54.468C393.298,214.343,368.862,189.907,338.83,189.907z M338.83,277.056
			c-18.021,0-32.681-14.66-32.681-32.681c0-18.021,14.66-32.681,32.681-32.681s32.681,14.66,32.681,32.681
			C371.511,262.396,356.851,277.056,338.83,277.056z"/>
	</g>
</g>
<g>
	<g>
		<rect x="21.787" y="70.809" width="468.426" height="21.787"/>
	</g>
</g>
<g>
	<g>
		<rect x="54.468" y="27.234" width="403.064" height="21.787"/>
	</g>
</g>
<g>
</g>
<g>
</g>
<g>
</g>
<g>
</g>
<g>
</g>
<g>
</g>
<g>
</g>
<g>
</g>
<g>
</g>
<g>
</g>
<g>
</g>
<g>
</g>
<g>
</g>
<g>
</g>
<g>
</g>
</svg>
