<?xml version="1.0" encoding="iso-8859-1"?>
<!-- Generator: Adobe Illustrator 19.0.0, SVG Export Plug-In . SVG Version: 6.00 Build 0)  -->
<svg version="1.1" id="Layer_1" xmlns="http://www.w3.org/2000/svg" xmlns:xlink="http://www.w3.org/1999/xlink" x="0px" y="0px"
	 viewBox="0 0 512 512" style="enable-background:new 0 0 512 512;" xml:space="preserve">
<g>
	<g>
		<path fill="white" d="M256,0C160.01,0,81.92,78.09,81.92,174.08c0,92.615,158.89,323.705,165.655,333.501c1.91,2.77,5.06,4.419,8.425,4.419
			c3.365,0,6.515-1.649,8.425-4.419c6.765-9.796,165.655-240.886,165.655-333.501C430.08,78.09,351.99,0,256,0z M256,483.485
			C222.72,433.771,102.4,248.82,102.4,174.08c0-84.695,68.905-153.6,153.6-153.6c84.695,0,153.6,68.905,153.6,153.6
			C409.6,248.8,289.275,433.766,256,483.485z"/>
	</g>
</g>
<g>
	<g>
		<path fill="white" d="M256,102.4c-39.525,0-71.68,32.155-71.68,71.68c0,39.526,32.155,71.68,71.68,71.68c39.525,0,71.68-32.154,71.68-71.68
			C327.68,134.555,295.525,102.4,256,102.4z M256,225.28c-28.23,0-51.2-22.97-51.2-51.2c0-28.229,22.97-51.2,51.2-51.2
			c28.23,0,51.2,22.971,51.2,51.2C307.2,202.31,284.23,225.28,256,225.28z"/>
	</g>
</g>
<g>
</g>
<g>
</g>
<g>
</g>
<g>
</g>
<g>
</g>
<g>
</g>
<g>
</g>
<g>
</g>
<g>
</g>
<g>
</g>
<g>
</g>
<g>
</g>
<g>
</g>
<g>
</g>
<g>
</g>
</svg>
