<?xml version="1.0" encoding="iso-8859-1"?>
<!-- Generator: Adobe Illustrator 19.0.0, SVG Export Plug-In . SVG Version: 6.00 Build 0)  -->
<svg version="1.1" id="Layer_1" xmlns="http://www.w3.org/2000/svg" xmlns:xlink="http://www.w3.org/1999/xlink" x="0px" y="0px"
	 viewBox="0 0 512 512" style="enable-background:new 0 0 512 512;" xml:space="preserve">
<g>
	<g>
		<path d="M369.792,258.272l141.549-141.549l-14.46-14.46L355.331,243.811l-87.802-87.802L409.079,14.46L394.618,0L253.069,141.549
			L163.15,51.63c-3.995-3.995-10.466-3.995-14.461,0c-3.995,3.995-3.995,10.466,0,14.46l45.224,45.224L3.655,301.574
			c-3.995,3.995-3.995,10.466,0,14.46l192.97,192.97c1.997,1.997,4.614,2.996,7.23,2.996c2.616,0,5.233-0.999,7.23-2.996
			L401.349,318.75l44.081,44.081c1.997,1.997,4.614,2.996,7.23,2.996c2.616,0,5.233-0.999,7.23-2.996
			c3.995-3.995,3.995-10.466,0-14.46L369.792,258.272z M203.855,487.313L25.346,308.804l183.028-183.028L386.889,304.29
			L203.855,487.313z"/>
	</g>
</g>
<g>
</g>
<g>
</g>
<g>
</g>
<g>
</g>
<g>
</g>
<g>
</g>
<g>
</g>
<g>
</g>
<g>
</g>
<g>
</g>
<g>
</g>
<g>
</g>
<g>
</g>
<g>
</g>
<g>
</g>
</svg>
