<?xml version="1.0" encoding="iso-8859-1"?>
<!-- Generator: Adobe Illustrator 19.0.0, SVG Export Plug-In . SVG Version: 6.00 Build 0)  -->
<svg version="1.1" id="Layer_1" xmlns="http://www.w3.org/2000/svg" xmlns:xlink="http://www.w3.org/1999/xlink" x="0px" y="0px"
	 viewBox="0 0 512 512" style="enable-background:new 0 0 512 512;" xml:space="preserve">
<g>
	<g>
		<path d="M502.518,85.333H9.482C4.245,85.333,0,89.579,0,94.815v322.37c0,5.236,4.245,9.482,9.482,9.482h493.037
			c5.236,0,9.482-4.245,9.482-9.482V94.815C512,89.579,507.755,85.333,502.518,85.333z M493.037,407.704H18.963V104.296h474.074
			V407.704z"/>
	</g>
</g>
<g>
	<g>
		<rect x="256" y="142.222" width="18.963" height="218.074"/>
	</g>
</g>
<g>
	<g>
		<rect x="56.889" y="142.222" width="170.667" height="18.963"/>
	</g>
</g>
<g>
	<g>
		<rect x="56.889" y="189.63" width="123.259" height="18.963"/>
	</g>
</g>
<g>
	<g>
		<rect x="56.889" y="237.037" width="85.333" height="18.963"/>
	</g>
</g>
<g>
	<g>
		<path d="M455.111,142.222h-75.852c-5.236,0-9.482,4.245-9.482,9.481v85.333c0,5.236,4.245,9.481,9.482,9.481h75.852
			c5.236,0,9.481-4.245,9.481-9.481v-85.333C464.593,146.468,460.347,142.222,455.111,142.222z M445.63,227.556h-56.889v-66.37
			h56.889V227.556z"/>
	</g>
</g>
<g>
</g>
<g>
</g>
<g>
</g>
<g>
</g>
<g>
</g>
<g>
</g>
<g>
</g>
<g>
</g>
<g>
</g>
<g>
</g>
<g>
</g>
<g>
</g>
<g>
</g>
<g>
</g>
<g>
</g>
</svg>
