<?xml version="1.0" encoding="iso-8859-1"?>
<!-- Generator: Adobe Illustrator 19.0.0, SVG Export Plug-In . SVG Version: 6.00 Build 0)  -->
<svg version="1.1" id="Layer_1" xmlns="http://www.w3.org/2000/svg" xmlns:xlink="http://www.w3.org/1999/xlink" x="0px" y="0px"
	 viewBox="0 0 512 512" style="enable-background:new 0 0 512 512;" xml:space="preserve">
<g>
	<g>
		<path d="M430.692,100.571H83.205C37.848,100.571,0,136.837,0,182.167v146.429c0,45.331,37.848,82.833,83.205,82.833h18.313
			c5.049,0,8.196-4.708,8.196-9.761v-64.009c0-15.116,13.241-26.801,28.357-26.801h246.897c15.112,0,26.46,11.685,26.46,26.801
			v64.009c0,5.053,5.04,9.761,10.089,9.761h9.174c45.357,0,81.308-37.502,81.308-82.833V182.167
			C512,136.837,476.049,100.571,430.692,100.571z M493.714,328.596c0,35.25-27.75,64.547-63.022,64.547h-0.978v-55.484
			c0-25.206-19.549-45.087-44.746-45.087H138.071c-25.196,0-46.643,19.882-46.643,45.087v55.484h-8.223
			c-35.277,0-64.92-29.297-64.92-64.547V182.167c0-35.25,29.643-63.31,64.92-63.31h347.487c35.272,0,63.022,28.06,63.022,63.31
			V328.596z"/>
	</g>
</g>
<g>
	<g>
		<path d="M357.585,329.143H165.451c-20.13,0-37.451,15.784-37.451,35.953v100.571c0,20.17,17.321,37.19,37.451,37.19h192.134
			c20.129,0,35.558-17.02,35.558-37.19V365.096C393.143,344.926,377.714,329.143,357.585,329.143z M374.857,465.667
			c0,10.08-7.228,18.904-17.272,18.904H165.451c-10.045,0-19.165-8.824-19.165-18.904V365.096c0-10.08,9.12-17.667,19.165-17.667
			h192.134c10.045,0,17.272,7.587,17.272,17.667V465.667z"/>
	</g>
</g>
<g>
	<g>
		<path d="M339.232,384H183.804c-5.049,0-9.143,4.089-9.143,9.143c0,5.053,4.094,9.143,9.143,9.143h155.429
			c5.049,0,9.143-4.089,9.143-9.143C348.375,388.089,344.281,384,339.232,384z"/>
	</g>
</g>
<g>
	<g>
		<path d="M339.232,429.714H183.804c-5.049,0-9.143,4.089-9.143,9.143c0,5.053,4.094,9.143,9.143,9.143h155.429
			c5.049,0,9.143-4.089,9.143-9.143C348.375,433.804,344.281,429.714,339.232,429.714z"/>
	</g>
</g>
<g>
	<g>
		<path d="M426.089,145.667c-22.688,0-41.143,18.455-41.143,41.143s18.455,41.143,41.143,41.143
			c22.687,0,41.143-18.455,41.143-41.143S448.777,145.667,426.089,145.667z M426.089,209.667c-12.603,0-22.857-10.25-22.857-22.857
			c0-12.607,10.254-22.857,22.857-22.857c12.603,0,22.857,10.25,22.857,22.857C448.947,199.417,438.692,209.667,426.089,209.667z"/>
	</g>
</g>
<g>
	<g>
		<path d="M357.585,9.143H165.451C145.321,9.143,128,24.926,128,45.096v27.429c0,5.053,5.04,9.761,10.089,9.761h246.857
			c5.049,0,8.196-4.708,8.196-9.761V45.096C393.143,24.926,377.714,9.143,357.585,9.143z M374.857,64H146.286V45.096
			c0-10.08,9.12-17.667,19.165-17.667h192.134c10.045,0,17.272,7.587,17.272,17.667V64z"/>
	</g>
</g>
<g>
</g>
<g>
</g>
<g>
</g>
<g>
</g>
<g>
</g>
<g>
</g>
<g>
</g>
<g>
</g>
<g>
</g>
<g>
</g>
<g>
</g>
<g>
</g>
<g>
</g>
<g>
</g>
<g>
</g>
</svg>
