<?xml version="1.0" encoding="iso-8859-1"?>
<!-- Generator: Adobe Illustrator 19.0.0, SVG Export Plug-In . SVG Version: 6.00 Build 0)  -->
<svg version="1.1" id="Layer_1" xmlns="http://www.w3.org/2000/svg" xmlns:xlink="http://www.w3.org/1999/xlink" x="0px" y="0px"
	 viewBox="0 0 512 512" style="enable-background:new 0 0 512 512;" xml:space="preserve">
<g>
	<g>
		<path d="M323.083,4.351c-5.552-5.552-14.545-5.552-20.097,0L32.587,274.75c-5.552,5.552-5.552,14.545,0,20.097
			c2.776,2.776,6.412,4.164,10.048,4.164c3.636,0,7.272-1.388,10.048-4.164L323.083,24.447
			C328.634,18.896,328.634,9.903,323.083,4.351z"/>
	</g>
</g>
<g>
	<g>
		<path d="M507.837,189.105c-5.552-5.552-14.545-5.552-20.097,0L217.341,459.504c-5.552,5.551-5.552,14.545,0,20.097
			c2.776,2.776,6.412,4.164,10.048,4.164c3.636,0,7.272-1.388,10.048-4.164l270.399-270.399
			C513.388,203.649,513.388,194.656,507.837,189.105z"/>
	</g>
</g>
<g>
	<g>
		<path d="M237.437,274.376c-5.552-5.551-14.545-5.551-20.097,0L4.164,487.553c-5.551,5.552-5.551,14.545,0,20.096
			c2.776,2.776,6.412,4.164,10.048,4.164c3.636,0,7.272-1.388,10.048-4.164l213.177-213.177
			C242.989,288.92,242.989,279.927,237.437,274.376z"/>
	</g>
</g>
<g>
	<g>
		<path d="M507.462,4.351c-5.551-5.552-14.545-5.552-20.096,0L274.188,217.528c-5.552,5.552-5.552,14.545,0,20.096
			c2.776,2.776,6.412,4.164,10.048,4.164c3.636,0,7.272-1.388,10.048-4.164L507.462,24.447
			C513.013,18.896,513.013,9.903,507.462,4.351z"/>
	</g>
</g>
<g>
</g>
<g>
</g>
<g>
</g>
<g>
</g>
<g>
</g>
<g>
</g>
<g>
</g>
<g>
</g>
<g>
</g>
<g>
</g>
<g>
</g>
<g>
</g>
<g>
</g>
<g>
</g>
<g>
</g>
</svg>
