<?xml version="1.0" encoding="iso-8859-1"?>
<!-- Generator: Adobe Illustrator 19.0.0, SVG Export Plug-In . SVG Version: 6.00 Build 0)  -->
<svg version="1.1" id="Layer_1" xmlns="http://www.w3.org/2000/svg" xmlns:xlink="http://www.w3.org/1999/xlink" x="0px" y="0px"
	 viewBox="0 0 512 512" style="enable-background:new 0 0 512 512;" xml:space="preserve">
<g>
	<g>
		<path d="M410.566,154.242c-55.934,0-101.434,45.829-101.434,101.758c0,33.737,16.571,63.117,41.986,82.438H160.882
			c25.415-19.321,41.986-48.7,41.986-82.438c0-55.929-45.5-101.596-101.434-101.596C45.5,154.404,0,199.828,0,255.757
			s45.5,101.394,101.434,101.394c0.038,0,0.075,0.301,0.113,0.301c0.01,0,0.019,0.307,0.029,0.307h309.132
			c0.016,0,0.031-0.328,0.047-0.328C466.601,357.327,512,311.543,512,255.676C512,199.748,466.5,154.242,410.566,154.242z
			 M101.434,337.789c-45.274,0-82.113-36.835-82.113-82.113c0-45.278,36.84-82.113,82.113-82.113s82.113,36.835,82.113,82.113
			C183.547,300.954,146.708,337.789,101.434,337.789z M410.566,337.789c-45.274,0-82.113-36.835-82.113-82.113
			c0-45.278,36.84-82.113,82.113-82.113s82.113,36.835,82.113,82.113C492.679,300.954,455.84,337.789,410.566,337.789z"/>
	</g>
</g>
<g>
</g>
<g>
</g>
<g>
</g>
<g>
</g>
<g>
</g>
<g>
</g>
<g>
</g>
<g>
</g>
<g>
</g>
<g>
</g>
<g>
</g>
<g>
</g>
<g>
</g>
<g>
</g>
<g>
</g>
</svg>
