<?xml version="1.0" encoding="iso-8859-1"?>
<!-- Generator: Adobe Illustrator 19.0.0, SVG Export Plug-In . SVG Version: 6.00 Build 0)  -->
<svg version="1.1" id="Layer_1" xmlns="http://www.w3.org/2000/svg" xmlns:xlink="http://www.w3.org/1999/xlink" x="0px" y="0px"
	 viewBox="0 0 512 512" style="enable-background:new 0 0 512 512;" xml:space="preserve">
<g>
	<g>
		<path d="M416.104,441.113c-3.273-4.205-9.335-5.021-13.552-1.766c-40.882,31.623-89.891,48.34-141.722,48.34
			c-127.84,0-232.349-104.009-232.349-231.849c0-46.149,13.991-90.144,38.142-128.13v41.186c0,5.339,4.325,9.66,9.66,9.66
			c5.335,0,9.66-4.321,9.66-9.66v-67.623c0-5.34-3.326-9.007-8.66-9.007H9.66c-5.335,0-9.66,4.321-9.66,9.66
			c0,5.339,4.325,9.66,9.66,9.66h46.035C25.575,152.641,9.66,203.698,9.66,256.165c0,138.5,112.674,251.005,251.17,251.005
			c56.151,0,109.245-18.193,153.542-52.458C418.594,451.448,419.368,445.34,416.104,441.113z"/>
	</g>
</g>
<g>
	<g>
		<path d="M502.34,411.057h-43.55C493.156,367.585,512,312.229,512,256.165C512,117.665,399.326,4.83,260.83,4.83
			c-57.826,0-114.278,20.052-158.948,56.608c-4.127,3.378-4.736,9.422-1.358,13.545c3.382,4.139,9.457,4.715,13.594,1.347
			C155.349,42.585,207.453,24,260.83,24c127.84,0,231.349,104.002,231.349,231.842c0,51.321-17.406,101.231-48.802,141.656v-45.057
			c0-5.34-4.325-9.66-9.66-9.66s-9.66,4.321-9.66,9.66v67.623c0,5.34,5.326,10.314,10.66,10.314h67.623
			c5.335,0,9.66-4.321,9.66-9.66S507.674,411.057,502.34,411.057z"/>
	</g>
</g>
<g>
</g>
<g>
</g>
<g>
</g>
<g>
</g>
<g>
</g>
<g>
</g>
<g>
</g>
<g>
</g>
<g>
</g>
<g>
</g>
<g>
</g>
<g>
</g>
<g>
</g>
<g>
</g>
<g>
</g>
</svg>
