<?xml version="1.0" encoding="iso-8859-1"?>
<!-- Generator: Adobe Illustrator 19.0.0, SVG Export Plug-In . SVG Version: 6.00 Build 0)  -->
<svg version="1.1" id="Layer_1" xmlns="http://www.w3.org/2000/svg" xmlns:xlink="http://www.w3.org/1999/xlink" x="0px" y="0px"
	 viewBox="0 0 512 512" style="enable-background:new 0 0 512 512;" xml:space="preserve">
<g>
	<g>
		<path d="M483.555,256c0-92.796-79.528-171.416-189.102-186.935c-5.194-0.732-9.981,2.87-10.722,8.055
			c-0.732,5.185,2.87,9.991,8.055,10.722C391.916,102.029,464.592,172.741,464.592,256c0,81.548-71.569,151.895-168.266,167.451
			l46.97-46.97c3.704-3.704,3.704-9.704,0-13.407c-3.704-3.704-9.704-3.704-13.408,0l-66.37,66.37
			c-3.704,3.704-3.704,9.704,0,13.407l66.37,66.37c1.852,1.852,4.278,2.778,6.704,2.778c2.426,0,4.852-0.926,6.704-2.778
			c3.704-3.704,3.704-9.704,0-13.407l-52.442-52.442C400.969,429.271,483.555,349.306,483.555,256z"/>
	</g>
</g>
<g>
	<g>
		<path d="M228.083,425.148c-103-11.287-180.675-84-180.675-169.148c0-77.356,62.541-143.685,151.592-164.192l-40.657,54.211
			c-3.148,4.185-2.296,10.13,1.898,13.268c1.704,1.278,3.694,1.898,5.676,1.898c2.889,0,5.731-1.306,7.592-3.796l56.889-75.852
			c2.667-3.556,2.509-8.481-0.389-11.852L173.12,3.316c-3.398-3.991-9.389-4.435-13.361-1.028
			c-3.982,3.407-4.444,9.389-1.028,13.361l47.403,55.312C102.454,90.151,28.445,166.341,28.445,256
			c0,94.842,84.935,175.657,197.564,188c0.352,0.037,0.704,0.055,1.046,0.055c4.778,0,8.88-3.592,9.417-8.444
			C237.037,430.398,233.287,425.722,228.083,425.148z"/>
	</g>
</g>
<g>
</g>
<g>
</g>
<g>
</g>
<g>
</g>
<g>
</g>
<g>
</g>
<g>
</g>
<g>
</g>
<g>
</g>
<g>
</g>
<g>
</g>
<g>
</g>
<g>
</g>
<g>
</g>
<g>
</g>
</svg>
