<?xml version="1.0" encoding="iso-8859-1"?>
<!-- Generator: Adobe Illustrator 19.0.0, SVG Export Plug-In . SVG Version: 6.00 Build 0)  -->
<svg version="1.1" id="Layer_1" xmlns="http://www.w3.org/2000/svg" xmlns:xlink="http://www.w3.org/1999/xlink" x="0px" y="0px"
	 viewBox="0 0 512 512" style="enable-background:new 0 0 512 512;" xml:space="preserve">
<g>
	<g>
		<path d="M470.493,110.24H317.087l88.789-89.199c4.756-4.756,4.756-12.668,0-17.424s-12.46-4.857-17.216-0.101L279.089,113.034
			c-4.756,4.758-4.756,12.436,0,17.192L388.66,239.785c2.378,2.378,5.493,3.558,8.608,3.558c3.115,0,6.23-1.192,8.608-3.57
			c4.756-4.756,4.756-12.05,0-16.805l-88.789-88.378H456.88v353.062H55.12V134.589h123.006c6.723,0,12.175-5.445,12.175-12.175
			c0-6.729-5.451-12.174-12.175-12.174H44.206c-6.723,0-13.435,4.622-13.435,11.351v377.411c0,6.729,6.712,12.998,13.435,12.998
			h426.287c6.723,0,10.736-6.269,10.736-12.998V121.591C481.229,114.862,477.216,110.24,470.493,110.24z"/>
	</g>
</g>
<g>
</g>
<g>
</g>
<g>
</g>
<g>
</g>
<g>
</g>
<g>
</g>
<g>
</g>
<g>
</g>
<g>
</g>
<g>
</g>
<g>
</g>
<g>
</g>
<g>
</g>
<g>
</g>
<g>
</g>
</svg>
