<?xml version="1.0" encoding="iso-8859-1"?>
<!-- Generator: Adobe Illustrator 19.0.0, SVG Export Plug-In . SVG Version: 6.00 Build 0)  -->
<svg version="1.1" id="Layer_1" xmlns="http://www.w3.org/2000/svg" xmlns:xlink="http://www.w3.org/1999/xlink" x="0px" y="0px"
	 viewBox="0 0 512 512" style="enable-background:new 0 0 512 512;" xml:space="preserve">
<g>
	<g>
		<path d="M467.84,278.259c-6.152,0-11.13,4.984-11.13,11.13c0,110.475-89.881,200.349-200.349,200.349
			c-110.468,0-200.926-89.874-200.926-200.349c0-106.737,85.686-194.227,188.643-200.023v55.327c0,3.859,2.576,7.44,5.859,9.468
			c1.783,1.103,4.103,1.663,6.136,1.663c1.707,0,3.546-0.39,5.123-1.174l133.637-66.783c3.774-1.885,6.19-5.739,6.19-9.957
			c0-4.216-2.364-8.07-6.136-9.955L261.33,1.171c-3.457-1.713-8.117-1.544-11.4,0.488c-3.283,2.029-5.853,5.609-5.853,9.467v55.937
			C127.207,72.882,33.173,170.378,33.173,289.389C33.173,412.135,133.321,512,256.072,512c122.751,0,222.755-99.865,222.755-222.61
			C478.827,283.243,473.992,278.259,467.84,278.259z M266.338,29.137l97.544,48.772l-97.544,48.772V29.137z"/>
	</g>
</g>
<g>
</g>
<g>
</g>
<g>
</g>
<g>
</g>
<g>
</g>
<g>
</g>
<g>
</g>
<g>
</g>
<g>
</g>
<g>
</g>
<g>
</g>
<g>
</g>
<g>
</g>
<g>
</g>
<g>
</g>
</svg>
