<?xml version="1.0" encoding="iso-8859-1"?>
<!-- Generator: Adobe Illustrator 19.0.0, SVG Export Plug-In . SVG Version: 6.00 Build 0)  -->
<svg version="1.1" id="Layer_1" xmlns="http://www.w3.org/2000/svg" xmlns:xlink="http://www.w3.org/1999/xlink" x="0px" y="0px"
	 viewBox="0 0 512 512" style="enable-background:new 0 0 512 512;" xml:space="preserve">
<g>
	<g>
		<path d="M260.161,336.392c-24.625,0-44.662,20.037-44.662,44.662c0,24.625,20.037,44.662,44.662,44.662
			c24.625,0,44.662-20.037,44.662-44.662C304.824,356.429,284.787,336.392,260.161,336.392z M260.161,407.851
			c-14.777,0-26.797-12.019-26.797-26.797c0-14.777,12.02-26.797,26.797-26.797c14.777,0,26.797,12.021,26.797,26.797
			C286.959,395.832,274.938,407.851,260.161,407.851z"/>
	</g>
</g>
<g>
	<g>
		<path d="M385.53,320.477c-25.057-34.26-73.095-55.544-125.368-55.544c-55.287,0-104.572,23.094-128.622,60.278
			c-2.678,4.138-1.492,9.668,2.652,12.351c1.5,0.968,3.18,1.432,4.841,1.432c2.931,0,5.801-1.44,7.511-4.083
			c20.477-31.656,65.074-52.112,113.618-52.112c46.677,0,89.193,18.48,110.949,48.226c2.909,3.978,8.492,4.851,12.483,1.937
			C387.575,330.046,388.443,324.459,385.53,320.477z"/>
	</g>
</g>
<g>
	<g>
		<path d="M453.901,253.332c-45.343-54.263-117.766-86.656-193.74-86.656c-75.668,0-145.479,30.644-191.541,84.073
			c-3.223,3.734-2.804,9.377,0.933,12.597c3.742,3.222,9.377,2.803,12.596-0.935c42.665-49.486,107.547-77.871,178.012-77.871
			c70.744,0,138.043,29.999,180.027,80.244c1.771,2.115,4.305,3.206,6.861,3.206c2.019,0,4.052-0.68,5.722-2.076
			C456.557,262.749,457.063,257.117,453.901,253.332z"/>
	</g>
</g>
<g>
	<g>
		<path d="M509.689,194.542C447.42,125.743,354.842,86.284,255.695,86.284c-98.754,0-191.105,39.206-253.366,107.565
			c-3.324,3.646-3.058,9.294,0.589,12.617c3.651,3.328,9.299,3.057,12.618-0.588c58.885-64.652,146.421-101.73,240.16-101.73
			c94.109,0,181.863,37.317,240.752,102.378c1.762,1.95,4.187,2.94,6.625,2.94c2.137,0,4.279-0.763,5.988-2.312
			C512.721,203.845,513,198.197,509.689,194.542z"/>
	</g>
</g>
<g>
</g>
<g>
</g>
<g>
</g>
<g>
</g>
<g>
</g>
<g>
</g>
<g>
</g>
<g>
</g>
<g>
</g>
<g>
</g>
<g>
</g>
<g>
</g>
<g>
</g>
<g>
</g>
<g>
</g>
</svg>
