<?xml version="1.0" encoding="iso-8859-1"?>
<!-- Generator: Adobe Illustrator 19.0.0, SVG Export Plug-In . SVG Version: 6.00 Build 0)  -->
<svg version="1.1" id="Layer_1" xmlns="http://www.w3.org/2000/svg" xmlns:xlink="http://www.w3.org/1999/xlink" x="0px" y="0px"
	 viewBox="0 0 512 512" style="enable-background:new 0 0 512 512;" xml:space="preserve">
<g>
	<g>
		<path d="M503.804,64H10.089C5.04,64,0,67.48,0,72.529v301.714C0,379.294,5.04,384,10.089,384h137.143
			c5.049,0,9.143-4.094,9.143-9.143c0-5.049-4.094-9.143-9.143-9.143H18.286V82.286h475.429v283.429H357.518
			c-5.049,0-9.143,4.094-9.143,9.143c0,5.049,4.094,9.143,9.143,9.143h146.286c5.049,0,8.196-4.706,8.196-9.757V72.529
			C512,67.48,508.853,64,503.804,64z"/>
	</g>
</g>
<g>
	<g>
		<path d="M338.165,434.107l-77.714-146.44c-3.179-5.972-12.973-5.972-16.152,0l-77.714,146.286
			c-1.505,2.835-1.415,6.558,0.241,9.307c1.652,2.75,4.625,4.74,7.835,4.74h155.429c3.21,0,6.183-1.99,7.835-4.74
			C339.58,440.511,339.67,436.942,338.165,434.107z M189.871,429.714l62.504-117.656l62.505,117.656H189.871z"/>
	</g>
</g>
<g>
</g>
<g>
</g>
<g>
</g>
<g>
</g>
<g>
</g>
<g>
</g>
<g>
</g>
<g>
</g>
<g>
</g>
<g>
</g>
<g>
</g>
<g>
</g>
<g>
</g>
<g>
</g>
<g>
</g>
</svg>
