<?xml version="1.0" encoding="iso-8859-1"?>
<!-- Generator: Adobe Illustrator 19.0.0, SVG Export Plug-In . SVG Version: 6.00 Build 0)  -->
<svg version="1.1" id="Layer_1" xmlns="http://www.w3.org/2000/svg" xmlns:xlink="http://www.w3.org/1999/xlink" x="0px" y="0px"
	 viewBox="0 0 512 512" style="enable-background:new 0 0 512 512;" xml:space="preserve">
<g>
	<g>
		<path d="M274.048,322.409h-20.694c-2.814-13.216-7.555-23.597-13.965-33.991l14.636-14.787c3.442-3.442,3.442-9.091,0-12.532
			l-24.918-24.955c-3.442-3.442-9.017-3.461-12.459-0.019l-15.101,14.628c-10.394-6.41-20.926-11.162-34.142-13.976v-20.693
			c0-4.87-3.029-8.215-7.899-8.215h-35.243c-4.87,0-9.723,3.345-9.723,8.215v20.693c-11.014,2.814-22.836,7.555-33.23,13.965
			l-14.417-14.636c-3.442-3.442-8.903-3.442-12.345,0l-24.86,24.918c-3.442,3.442-3.414,9.017,0.028,12.459l14.651,14.944
			c-6.413,10.394-11.138,20.766-13.952,33.983H9.723c-4.87,0-9.723,3.345-9.723,8.215v35.243c0,4.87,4.853,9.407,9.723,9.407h20.693
			c2.814,11.014,7.555,22.995,13.965,33.389l-14.636,14.494c-3.442,3.442-3.442,8.944,0,12.386l24.918,24.88
			c3.442,3.442,9.017,3.424,12.459-0.017l14.18-14.644c10.394,6.41,22.225,11.14,33.238,13.954v20.693
			c0,4.87,4.853,9.407,9.723,9.407h35.243c4.87,0,7.899-4.537,7.899-9.407v-20.693c13.216-2.814,23.757-7.555,34.151-13.965
			l14.864,14.636c3.442,3.442,9.131,3.442,12.573,0l24.976-24.918c3.442-3.442,3.47-9.017,0.026-12.459l-14.621-14.337
			c6.41-10.394,11.166-22.384,13.98-33.398h20.694c4.87,0,7.899-4.537,7.899-9.407v-35.243
			C281.946,325.754,278.918,322.409,274.048,322.409z M264.325,357.652h-18.172c-4.302,0-7.976,2.809-8.69,7.06
			c-2.435,14.507-8.011,27.813-16.572,39.834c-2.495,3.502-2.1,8.221,0.946,11.267l13.5,13.461l-12.459,12.442l-13.5-13.509
			c-3.037-3.046-7.83-3.455-11.34-0.951c-12.02,8.561-25.934,14.133-40.44,16.568c-4.251,0.714-7.813,4.386-7.813,8.688v19.68
			h-17.622v-19.68c0-4.302-2.65-7.976-6.901-8.69c-14.507-2.435-27.736-8.011-39.756-16.572c-3.511-2.504-8.189-2.099-11.227,0.947
			l-13.442,13.5l-12.433-12.459l13.517-13.5c3.046-3.037,3.446-7.83,0.951-11.34c-8.45-11.865-14.176-25.393-16.568-39.685
			c-0.714-4.251-4.384-7.06-8.686-7.06H17.622V340.03h19.996c4.302,0,7.976-3.403,8.69-7.654
			c2.392-14.292,8.122-28.27,16.572-40.135c2.495-3.511,2.099-8.376-0.947-11.414l-13.5-13.539l12.459-12.476l13.5,13.492
			c3.037,3.046,7.83,3.444,11.341,0.942c11.865-8.452,25.236-14.184,39.528-16.576c4.251-0.714,6.901-4.39,6.901-8.692V225.49
			h17.622v18.489c0,4.302,3.562,7.976,7.813,8.69c14.292,2.392,28.347,8.122,40.212,16.572c3.511,2.504,8.417,2.099,11.455-0.947
			l13.556-13.5l12.487,12.459l-13.485,13.5c-3.046,3.046-3.433,7.839-0.938,11.34c8.561,12.02,14.139,25.776,16.574,40.283
			c0.714,4.251,4.393,7.654,8.695,7.654h18.172V357.652z"/>
	</g>
</g>
<g>
	<g>
		<path d="M511.699,143.755l-9.12-34.047c-0.602-2.254-2.082-4.182-4.104-5.352c-2.031-1.161-4.44-1.471-6.686-0.878l-19.996,5.352
			c-5.782-10.712-13.32-20.538-22.208-28.919l10.36-17.931c1.17-2.022,1.48-4.431,0.878-6.686c-0.602-2.254-2.082-4.182-4.104-5.352
			l-30.528-17.622c-4.216-2.435-9.602-0.989-12.038,3.227L403.801,53.47c-11.693-3.493-23.972-5.146-36.147-4.758l-5.36-19.996
			c-0.602-2.254-2.082-4.182-4.104-5.352c-2.031-1.17-4.448-1.48-6.686-0.878l-34.047,9.129c-2.263,0.602-4.182,2.082-5.352,4.104
			c-1.17,2.022-1.48,4.431-0.878,6.685l5.361,19.988c-10.721,5.782-20.547,13.328-28.928,22.208l-17.932-10.36
			c-2.03-1.17-4.448-1.48-6.685-0.878c-2.254,0.602-4.182,2.082-5.352,4.104l-17.622,30.528c-2.435,4.216-0.989,9.602,3.227,12.037
			l17.923,10.351c-3.493,11.693-5.111,23.972-4.758,36.147l-19.996,5.361c-2.254,0.602-4.182,2.082-5.352,4.104
			c-1.17,2.022-1.48,4.431-0.878,6.685l9.129,34.047c1.265,4.707,6.1,7.52,10.79,6.229l19.988-5.352
			c5.791,10.73,13.328,20.547,22.208,28.928l-10.36,17.923c-1.17,2.022-1.48,4.431-0.878,6.686c0.602,2.254,2.082,4.182,4.104,5.352
			l30.528,17.622c4.19,2.426,9.594,0.981,12.037-3.227l10.351-17.923c11.693,3.493,23.937,5.12,36.147,4.758l5.36,19.996
			c1.05,3.941,4.612,6.531,8.501,6.531c0.757,0,1.523-0.094,2.289-0.301l34.047-9.121c2.254-0.602,4.182-2.082,5.352-4.104
			c1.17-2.022,1.48-4.431,0.878-6.685l-5.352-19.997c10.73-5.791,20.547-13.328,28.928-22.208l17.923,10.36
			c2.022,1.153,4.431,1.463,6.686,0.878c2.254-0.602,4.182-2.082,5.352-4.104l17.622-30.528c2.435-4.216,0.99-9.602-3.227-12.037
			l-17.923-10.351c3.493-11.693,5.111-23.972,4.758-36.147l19.997-5.361C510.167,153.289,512.955,148.453,511.699,143.755z
			 M473.96,144.745c-4.156,1.11-6.901,5.068-6.488,9.353c1.385,14.429-0.568,29.272-5.653,42.91
			c-1.506,4.036,0.12,8.561,3.846,10.712l16.529,9.542l-8.811,15.264l-16.529-9.551c-3.726-2.143-8.458-1.291-11.203,2.022
			c-9.25,11.22-21.123,20.332-34.331,26.355c-3.915,1.79-5.971,6.144-4.853,10.299l4.939,18.439l-17.028,4.56l-4.939-18.439
			c-1.041-3.88-4.552-6.531-8.501-6.531c-0.284,0-0.568,0.017-0.852,0.043c-14.464,1.368-29.281-0.576-42.91-5.653
			c-4.044-1.506-8.553,0.112-10.712,3.846l-9.542,16.529l-15.264-8.811l9.551-16.529c2.151-3.726,1.299-8.458-2.022-11.203
			c-11.22-9.25-20.332-21.123-26.355-34.331c-1.79-3.915-6.161-5.98-10.299-4.853l-18.43,4.939l-4.569-17.028l18.439-4.939
			c4.156-1.11,6.901-5.068,6.488-9.353c-1.385-14.43,0.568-29.272,5.653-42.91c1.506-4.035-0.12-8.561-3.846-10.712l-16.529-9.542
			l8.811-15.264l16.529,9.551c3.734,2.151,8.458,1.291,11.203-2.022c9.396-11.384,20.951-20.255,34.34-26.355
			c3.915-1.79,5.971-6.144,4.853-10.299l-4.948-18.43l17.028-4.569l4.939,18.439c1.119,4.156,5.146,6.883,9.353,6.488
			c14.455-1.359,29.281,0.576,42.91,5.653c4.035,1.514,8.553-0.112,10.712-3.846l9.542-16.529l15.264,8.811l-9.551,16.529
			c-2.151,3.726-1.299,8.458,2.022,11.203c11.237,9.276,20.349,21.15,26.355,34.331c1.79,3.915,6.161,5.971,10.299,4.853
			l18.439-4.939l4.56,17.028L473.96,144.745z"/>
	</g>
</g>
<g>
	<g>
		<path d="M141.885,313.002c-19.437,0-35.243,15.806-35.243,35.243c0,19.439,15.806,35.243,35.243,35.243
			c19.437,0,35.243-15.804,35.243-35.243C177.129,328.808,161.322,313.002,141.885,313.002z M141.885,365.867
			c-9.714,0-17.622-7.908-17.622-17.622c0-9.714,7.907-17.622,17.622-17.622c9.714,0,17.622,7.907,17.622,17.622
			C159.507,357.96,151.599,365.867,141.885,365.867z"/>
	</g>
</g>
<g>
	<g>
		<path d="M370.967,127.975c-19.437,0-35.243,15.806-35.243,35.243s15.806,35.243,35.243,35.243
			c19.437,0,35.243-15.806,35.243-35.243S390.404,127.975,370.967,127.975z M370.967,180.84c-9.714,0-17.622-7.907-17.622-17.622
			c0-9.714,7.907-17.622,17.622-17.622c9.714,0,17.622,7.907,17.622,17.622C388.588,172.932,380.681,180.84,370.967,180.84z"/>
	</g>
</g>
<g>
</g>
<g>
</g>
<g>
</g>
<g>
</g>
<g>
</g>
<g>
</g>
<g>
</g>
<g>
</g>
<g>
</g>
<g>
</g>
<g>
</g>
<g>
</g>
<g>
</g>
<g>
</g>
<g>
</g>
</svg>
