<?xml version="1.0" encoding="iso-8859-1"?>
<!-- Generator: Adobe Illustrator 19.0.0, SVG Export Plug-In . SVG Version: 6.00 Build 0)  -->
<svg version="1.1" id="Layer_1" xmlns="http://www.w3.org/2000/svg" xmlns:xlink="http://www.w3.org/1999/xlink" x="0px" y="0px"
	 viewBox="0 0 512 512" style="enable-background:new 0 0 512 512;" xml:space="preserve">
<g>
	<g>
		<path d="M252.241,132.1c-65.352,0-118.519,53.167-118.519,118.519c0,65.352,53.167,118.518,118.519,118.518
			c65.352,0,118.518-53.167,118.518-118.518C370.759,185.266,317.593,132.1,252.241,132.1z M252.241,350.174
			c-54.893,0-99.556-44.662-99.556-99.556c0-54.894,44.662-99.556,99.556-99.556s99.556,44.662,99.556,99.556
			C351.796,305.512,307.134,350.174,252.241,350.174z"/>
	</g>
</g>
<g>
	<g>
		<path d="M318.111,246.877l-94.815-47.407c-2.935-1.467-6.921-1.315-9.718,0.418c-2.792,1.726-4.986,4.777-4.986,8.064v94.815
			c0,3.288,2.194,6.339,4.986,8.066c1.523,0.94,3.5,1.416,5.231,1.416c1.449,0,3.026-0.333,4.364-0.999l94.876-47.407
			c3.213-1.608,5.271-4.889,5.271-8.483C323.321,251.766,321.324,248.484,318.111,246.877z M227.556,287.425v-64.13l64.134,32.064
			L227.556,287.425z"/>
	</g>
</g>
<g>
	<g>
		<path d="M479.796,75.852h-23.704H57.87H34.167C15.87,75.852,0,90.11,0,108.425v293.869c0,18.316,15.87,33.854,34.167,33.854H57.87
			h398.222h23.704c18.296,0,32.204-15.538,32.204-33.854V108.425C512,90.11,498.093,75.852,479.796,75.852z M47.407,417.185H34.167
			c-7.843,0-15.204-7.034-15.204-14.891v-4.072h28.444V417.185z M47.407,379.259H18.963v-18.963h28.444V379.259z M47.407,341.333
			H18.963V322.37h28.444V341.333z M47.407,303.407H18.963v-18.963h28.444V303.407z M47.407,265.482H18.963v-18.963h28.444V265.482z
			 M47.407,227.556H18.963v-18.963h28.444V227.556z M47.407,189.63H18.963v-18.963h28.444V189.63z M47.407,151.704H18.963v-18.963
			h28.444V151.704z M47.407,113.778H18.963v-5.353c0-7.858,7.361-13.61,15.204-13.61h13.241V113.778z M445.63,417.185H66.37V94.815
			H445.63V417.185z M493.037,402.294c0,7.858-5.398,14.891-13.241,14.891h-15.204v-18.963h28.444V402.294z M493.037,379.259h-28.444
			v-18.963h28.444V379.259z M493.037,341.333h-28.444V322.37h28.444V341.333z M493.037,303.407h-28.444v-18.963h28.444V303.407z
			 M493.037,265.482h-28.444v-18.963h28.444V265.482z M493.037,227.556h-28.444v-18.963h28.444V227.556z M493.037,189.63h-28.444
			v-18.963h28.444V189.63z M493.037,151.704h-28.444v-18.963h28.444V151.704z M493.037,113.778h-28.444V94.815h15.204
			c7.843,0,13.241,5.752,13.241,13.61V113.778z"/>
	</g>
</g>
<g>
</g>
<g>
</g>
<g>
</g>
<g>
</g>
<g>
</g>
<g>
</g>
<g>
</g>
<g>
</g>
<g>
</g>
<g>
</g>
<g>
</g>
<g>
</g>
<g>
</g>
<g>
</g>
<g>
</g>
</svg>
