<?xml version="1.0" encoding="iso-8859-1"?>
<!-- Generator: Adobe Illustrator 19.0.0, SVG Export Plug-In . SVG Version: 6.00 Build 0)  -->
<svg version="1.1" id="Layer_1" xmlns="http://www.w3.org/2000/svg" xmlns:xlink="http://www.w3.org/1999/xlink" x="0px" y="0px"
	 viewBox="0 0 512 512" style="enable-background:new 0 0 512 512;" xml:space="preserve">
<g>
	<g>
		<path fill="white" d="M386.612,114.939H10.449C4.679,114.939,0,119.617,0,125.388v376.163C0,507.321,4.679,512,10.449,512h376.163
			c5.77,0,10.449-4.679,10.449-10.449V125.388C397.061,119.617,392.383,114.939,386.612,114.939z M376.163,491.102H20.898V135.837
			h355.265V491.102z"/>
	</g>
</g>
<g>
	<g>
		<path fill="white" d="M502.633,0H126.469c-5.77,0-11.531,3.978-11.531,9.747V82.89c0,5.772,4.679,10.449,10.449,10.449
			s10.449-4.677,10.449-10.449V20.898h355.265v355.265h-51.163c-5.77,0-10.449,4.679-10.449,10.449s4.679,10.449,10.449,10.449
			h62.694c5.77,0,9.367-5.379,9.367-11.151V9.747C512,3.978,508.403,0,502.633,0z"/>
	</g>
</g>
<g>
</g>
<g>
</g>
<g>
</g>
<g>
</g>
<g>
</g>
<g>
</g>
<g>
</g>
<g>
</g>
<g>
</g>
<g>
</g>
<g>
</g>
<g>
</g>
<g>
</g>
<g>
</g>
<g>
</g>
</svg>
