<?xml version="1.0" encoding="iso-8859-1"?>
<!-- Generator: Adobe Illustrator 19.0.0, SVG Export Plug-In . SVG Version: 6.00 Build 0)  -->
<svg version="1.1" id="Layer_1" xmlns="http://www.w3.org/2000/svg" xmlns:xlink="http://www.w3.org/1999/xlink" x="0px" y="0px"
	 viewBox="0 0 512 512" style="enable-background:new 0 0 512 512;" xml:space="preserve">
<g>
	<g>
		<path d="M511.473,197.369c-1.264-3.888-4.628-6.726-8.678-7.312l-163.873-23.81L265.635,17.752
			c-3.631-7.335-15.656-7.335-19.276,0l-73.283,148.496L9.204,190.057c-4.051,0.586-7.413,3.425-8.678,7.312
			s-0.21,8.158,2.718,11.018l118.58,115.59L93.835,487.19c-0.687,4.029,0.971,8.106,4.276,10.507
			c1.873,1.36,4.092,2.051,6.317,2.051c1.71,0,3.426-0.409,5-1.232l146.57-77.061l146.575,77.061
			c3.63,1.898,8.006,1.583,11.317-0.82c3.305-2.402,4.963-6.478,4.276-10.507l-27.99-163.213l118.581-115.59
			C511.683,205.528,512.738,201.257,511.473,197.369z M371.125,312.529c-2.529,2.471-3.683,6.028-3.09,9.513l25.267,147.319
			l-132.305-69.556c-1.563-0.825-3.284-1.234-5-1.234c-1.716,0-3.436,0.409-5,1.234l-132.3,69.556l25.267-147.319
			c0.593-3.485-0.561-7.042-3.09-9.513L33.836,208.193l147.919-21.489c3.505-0.509,6.527-2.707,8.095-5.881l66.147-134.036
			l66.152,134.036c1.569,3.174,4.591,5.372,8.095,5.881l147.919,21.489L371.125,312.529z"/>
	</g>
</g>
<g>
</g>
<g>
</g>
<g>
</g>
<g>
</g>
<g>
</g>
<g>
</g>
<g>
</g>
<g>
</g>
<g>
</g>
<g>
</g>
<g>
</g>
<g>
</g>
<g>
</g>
<g>
</g>
<g>
</g>
</svg>
