<?xml version="1.0" encoding="iso-8859-1"?>
<!-- Generator: Adobe Illustrator 19.0.0, SVG Export Plug-In . SVG Version: 6.00 Build 0)  -->
<svg version="1.1" id="Layer_1" xmlns="http://www.w3.org/2000/svg" xmlns:xlink="http://www.w3.org/1999/xlink" x="0px" y="0px"
	 viewBox="0 0 512 512" style="enable-background:new 0 0 512 512;" xml:space="preserve">
<g>
	<g>
		<path d="M503.33,159.382c-20.17,0-36.335-16.091-36.335-36.261c0-5.053-3.853-8.835-8.906-8.835H55.804
			c-5.054,0-9.143,3.781-9.143,8.835c0,20.17-16.875,36.415-37.045,36.415c-5.054,0-9.616,3.935-9.616,8.989v173.714
			c0,5.054,4.563,9.143,9.616,9.143c20.17,0,36.808,16.712,36.808,36.882c0,5.054,4.326,9.451,9.38,9.451h402.286
			c5.054,0,9.143-4.397,9.143-9.451c0-20.17,15.928-36.728,36.098-36.728c5.054,0,8.67-4.243,8.67-9.297V168.525
			C512,163.471,508.384,159.382,503.33,159.382z M493.714,333.855c-22.857,3.866-40.143,22.717-44.009,45.574H64.187
			c-3.866-22.857-23.045-41.708-45.902-45.574V176.909c22.857-3.866,42.036-21.48,45.902-44.337h385.518
			c3.866,22.857,21.152,40.471,44.009,44.337V333.855z"/>
	</g>
</g>
<g>
	<g>
		<path d="M172.429,245.828c-1.08-3.312-3.938-5.723-7.384-6.223l-19.277-2.803l-8.625-17.464c-3.071-6.25-13.321-6.25-16.393,0
			l-8.625,17.464l-19.268,2.803c-3.446,0.5-6.304,2.911-7.384,6.214c-1.071,3.312-0.179,6.947,2.313,9.375l13.946,13.598
			l-3.295,19.205c-0.589,3.429,0.821,6.893,3.634,8.938c2.83,2.062,6.562,2.321,9.634,0.696l17.241-9.063l17.241,9.063
			c1.339,0.705,2.804,1.053,4.259,1.053c1.893,0,3.786-0.589,5.375-1.75c2.812-2.045,4.223-5.509,3.634-8.938l-3.295-19.205
			l13.955-13.598C172.607,252.766,173.5,249.132,172.429,245.828z M139.955,259.06c-2.152,2.098-3.134,5.125-2.625,8.089
			l0.973,5.679l-5.098-2.679c-1.339-0.705-2.794-1.053-4.259-1.053c-1.464,0-2.92,0.348-4.259,1.053l-5.098,2.679l0.973-5.679
			c0.509-2.964-0.473-5.991-2.625-8.089l-4.125-4.027l5.696-0.83c2.982-0.429,5.553-2.304,6.884-5l2.554-5.17l2.554,5.17
			c1.33,2.696,3.902,4.571,6.884,5l5.696,0.83L139.955,259.06z"/>
	</g>
</g>
<g>
	<g>
		<path d="M300.429,245.828c-1.08-3.312-3.938-5.723-7.384-6.223l-19.277-2.803l-8.625-17.464c-3.071-6.25-13.321-6.25-16.393,0
			l-8.625,17.464l-19.268,2.803c-3.446,0.5-6.304,2.911-7.384,6.214c-1.071,3.312-0.179,6.947,2.313,9.375l13.946,13.598
			l-3.295,19.205c-0.589,3.429,0.821,6.893,3.634,8.938c2.83,2.062,6.553,2.321,9.634,0.696l17.241-9.063l17.241,9.063
			c1.339,0.705,2.804,1.053,4.259,1.053c1.893,0,3.786-0.589,5.375-1.75c2.812-2.045,4.223-5.509,3.634-8.938l-3.295-19.205
			l13.955-13.598C300.607,252.766,301.5,249.132,300.429,245.828z M267.955,259.06c-2.152,2.098-3.134,5.125-2.625,8.089
			l0.973,5.679l-5.098-2.679c-1.339-0.705-2.794-1.053-4.259-1.053c-1.464,0-2.92,0.348-4.259,1.053l-5.098,2.679l0.973-5.679
			c0.509-2.964-0.473-5.991-2.625-8.089l-4.125-4.027l5.696-0.83c2.982-0.429,5.553-2.304,6.884-5l2.554-5.17l2.554,5.17
			c1.33,2.696,3.902,4.571,6.884,5l5.696,0.83L267.955,259.06z"/>
	</g>
</g>
<g>
	<g>
		<path d="M428.428,245.828c-1.08-3.312-3.938-5.723-7.384-6.223l-19.277-2.803l-8.625-17.464c-3.071-6.25-13.321-6.25-16.393,0
			l-8.625,17.464l-19.268,2.803c-3.446,0.5-6.304,2.911-7.384,6.214c-1.071,3.312-0.179,6.947,2.313,9.375l13.946,13.598
			l-3.295,19.205c-0.589,3.429,0.822,6.893,3.634,8.938c2.83,2.062,6.553,2.321,9.634,0.696l17.241-9.063l17.241,9.063
			c1.339,0.705,2.804,1.053,4.259,1.053c1.893,0,3.786-0.589,5.375-1.75c2.812-2.045,4.223-5.509,3.634-8.938l-3.295-19.205
			l13.955-13.598C428.607,252.766,429.5,249.132,428.428,245.828z M395.955,259.06c-2.152,2.098-3.134,5.125-2.625,8.089
			l0.973,5.679l-5.098-2.679c-1.339-0.705-2.794-1.053-4.259-1.053c-1.464,0-2.92,0.348-4.259,1.053l-5.098,2.679l0.973-5.679
			c0.509-2.964-0.473-5.991-2.625-8.089l-4.125-4.027l5.696-0.83c2.982-0.429,5.553-2.304,6.884-5l2.554-5.17l2.554,5.17
			c1.33,2.696,3.902,4.571,6.884,5l5.696,0.83L395.955,259.06z"/>
	</g>
</g>
<g>
</g>
<g>
</g>
<g>
</g>
<g>
</g>
<g>
</g>
<g>
</g>
<g>
</g>
<g>
</g>
<g>
</g>
<g>
</g>
<g>
</g>
<g>
</g>
<g>
</g>
<g>
</g>
<g>
</g>
</svg>
