<?xml version="1.0" encoding="iso-8859-1"?>
<!-- Generator: Adobe Illustrator 19.0.0, SVG Export Plug-In . SVG Version: 6.00 Build 0)  -->
<svg version="1.1" id="Layer_1" xmlns="http://www.w3.org/2000/svg" xmlns:xlink="http://www.w3.org/1999/xlink" x="0px" y="0px"
	 viewBox="0 0 512 512" style="enable-background:new 0 0 512 512;" xml:space="preserve">
<g>
	<g>
		<path d="M373.275,126.338c-0.232-0.299-0.445-0.618-0.719-0.889c-0.274-0.276-0.583-0.495-0.881-0.725
			c-8.314-8.224-17.306-15.767-26.889-22.524l19.298-19.298l18.424,18.424c1.784,1.783,4.12,2.675,6.457,2.675
			c2.336,0,4.673-0.894,6.456-2.678l25.83-25.826c1.712-1.712,2.675-4.031,2.675-6.456c0-2.426-0.963-4.744-2.675-6.456
			l-47.71-47.71c-3.567-3.567-9.346-3.567-12.913,0l-25.83,25.826c-1.712,1.712-2.675,4.031-2.675,6.459
			c0,2.423,0.963,4.742,2.675,6.454l16.373,16.375l-22.598,22.123c-28.435-16.482-59.821-26.481-96.348-27.977v-9.854
			c22.83-2.401,37-13.158,37-26.885C269.225,11.78,249.834,0,223.803,0c-26.031,0-46.013,11.78-46.013,27.396
			c0,13.727,15.626,24.484,36.173,26.885v9.854C182,65.53,151.446,74.31,124.42,88.841l-18.617-18.852l16.495-16.375
			c1.712-1.712,2.735-4.031,2.735-6.454c0-2.428-0.933-4.746-2.645-6.459L96.571,14.875c-3.567-3.567-9.339-3.567-12.906,0
			l-47.71,47.71c-1.712,1.712-2.674,4.031-2.674,6.456c0,2.426,0.964,4.744,2.677,6.456l25.831,25.826
			c1.785,1.784,4.121,2.675,6.458,2.675c2.336,0,4.673-0.892,6.456-2.675l18.425-18.422l15.599,15.597
			c-11.639,7.676-22.474,16.471-32.347,26.241c-0.288,0.228-0.588,0.433-0.853,0.698c-0.265,0.265-0.47,0.564-0.696,0.854
			c-37.579,37.968-60.823,90.148-60.823,147.663S37.251,383.653,74.83,421.62c0.226,0.288,0.431,0.586,0.697,0.852
			c0.265,0.265,0.565,0.47,0.853,0.698c37.969,37.575,90.149,60.817,147.66,60.817c21.915,0,43.519-3.362,64.208-9.997
			c4.802-1.543,7.214-6.68,5.672-11.486c-1.538-4.798-6.907-7.453-11.718-5.904c-16.004,5.132-31.712,8.095-49.975,8.884v-45.421
			c0-5.047-4.089-9.132-9.132-9.132c-5.043,0-9.132,4.084-9.132,9.132v45.427c-45.659-2.167-87.347-20.607-119.32-49.694
			l32.305-32.073c3.567-3.567,3.685-9.346,0.118-12.913c-3.567-3.567-9.287-3.567-12.854,0l-32.039,32.38
			C53.08,371.219,34.67,329.363,32.502,283.704H77.93c5.043,0,9.132-4.084,9.132-9.132c0-5.047-4.089-9.132-9.132-9.132H32.502
			c2.168-45.659,20.608-88.13,49.699-120.105l32.068,31.917c1.784,1.783,4.12,2.6,6.457,2.6c2.336,0,4.673-0.932,6.456-2.716
			c3.567-3.567,3.567-9.364,0-12.931l-32.068-32.082c9.484-8.63,19.851-16.302,30.92-22.912c1.465-0.408,2.858-1.15,4.011-2.303
			c0.005-0.005-0.464-0.013-0.459-0.018c25.301-14.289,54.697-23.026,84.376-24.473v45.427c0,5.047,4.089,9.132,9.132,9.132
			s9.132-4.084,9.132-9.132V82.418c47.942,2.169,88.293,20.607,120.268,49.697l-31.83,32.071c-3.567,3.567-3.449,9.346,0.118,12.915
			c1.784,1.781,4.179,2.673,6.516,2.673c2.337,0,4.703-0.892,6.486-2.673l32.082-31.763c29.09,31.975,47.543,74.444,49.711,120.103
			h-45.427c-5.043,0-9.132,4.084-9.132,9.132c0,5.047,4.089,9.132,9.132,9.132h45.418c-0.673,13.698-2.907,28.22-6.72,41.963
			c-1.351,4.86,1.498,9.742,6.354,11.089c4.896,1.346,9.899-1.583,11.241-6.434c5.061-18.246,7.629-37.218,7.629-56.329
			C434.071,216.493,410.838,164.304,373.275,126.338z M367.085,34.244l34.797,34.797l-12.917,12.913l-34.797-34.795L367.085,34.244z
			 M68.245,81.955L55.332,69.042l34.797-34.797l12.913,12.915L68.245,81.955z M224.039,36.527c-17.68,0-27.396-6.858-27.396-9.132
			s9.716-9.132,27.396-9.132c17.679,0,27.396,6.858,27.396,9.132S241.719,36.527,224.039,36.527z"/>
	</g>
</g>
<g>
	<g>
		<path d="M319.138,256.512c-13.707-6.234-83.145-37.348-104.231-37.348c-25.175,0-45.659,20.484-45.659,45.659
			c0,25.175,20.484,45.659,45.659,45.659c21.086,0,90.525-31.114,104.231-37.348c3.259-1.48,5.351-4.735,5.351-8.311
			C324.489,261.247,322.398,257.992,319.138,256.512z M214.907,292.219c-15.107,0-27.396-12.289-27.396-27.396
			c0-15.107,12.289-27.395,27.396-27.395c10.795,0,48.036,14.545,77.87,27.395C262.943,277.674,225.702,292.219,214.907,292.219z"/>
	</g>
</g>
<g>
	<g>
		<path d="M496.607,497.408l-91.318-146.109c-3.344-5.333-12.146-5.333-15.49,0L298.48,497.408
			c-1.757,2.818-1.851,6.677-0.241,9.575c1.61,2.907,4.664,5.016,7.986,5.016h182.637c3.322,0,6.376-2.109,7.986-5.016
			C498.458,504.085,498.364,500.226,496.607,497.408z M322.701,493.736l74.843-119.748l74.843,119.748H322.701z"/>
	</g>
</g>
<g>
	<g>
		<path d="M396.598,392.669c-5.043,0-9.132,4.084-9.132,9.132v45.659c0,5.047,4.089,9.132,9.132,9.132
			c5.043,0,9.132-4.084,9.132-9.132v-45.659C405.73,396.753,401.642,392.669,396.598,392.669z"/>
	</g>
</g>
<g>
	<g>
		<path d="M405.998,471.386c-0.455-1.097-1.186-2.096-2.011-3.014c-0.365-0.365-0.91-0.82-1.369-1.097
			c-0.455-0.366-1.003-0.633-1.552-0.82c-0.548-0.274-1.186-0.455-1.734-0.544c-3.014-0.642-6.118,0.366-8.218,2.461
			c-0.914,0.821-1.552,1.828-2.011,3.014c-0.455,1.097-0.638,2.283-0.638,3.469c0,1.186,0.183,2.381,0.638,3.469
			c0.459,1.097,1.097,2.105,2.011,3.014c0.82,0.823,1.824,1.463,2.921,1.917c1.097,0.464,2.283,0.731,3.469,0.731
			c1.28,0,2.466-0.268,3.563-0.731c1.097-0.455,2.1-1.095,2.921-1.917c0.825-0.91,1.556-1.917,2.011-3.014
			c0.455-1.088,0.731-2.283,0.731-3.469C406.729,473.669,406.453,472.483,405.998,471.386z"/>
	</g>
</g>
<g>
</g>
<g>
</g>
<g>
</g>
<g>
</g>
<g>
</g>
<g>
</g>
<g>
</g>
<g>
</g>
<g>
</g>
<g>
</g>
<g>
</g>
<g>
</g>
<g>
</g>
<g>
</g>
<g>
</g>
</svg>
