<?xml version="1.0" encoding="iso-8859-1"?>
<!-- Generator: Adobe Illustrator 19.0.0, SVG Export Plug-In . SVG Version: 6.00 Build 0)  -->
<svg version="1.1" id="Layer_1" xmlns="http://www.w3.org/2000/svg" xmlns:xlink="http://www.w3.org/1999/xlink" x="0px" y="0px"
	 viewBox="0 0 512 512" style="enable-background:new 0 0 512 512;" xml:space="preserve">
<g>
	<g>
		<path d="M387.374,127.691c-0.234-0.302-0.449-0.624-0.727-0.899c-0.277-0.279-0.588-0.5-0.89-0.732
			c-8.403-8.312-17.492-15.935-27.177-22.765l19.505-19.505l18.621,18.621c1.803,1.803,4.164,2.704,6.526,2.704
			c2.362,0,4.723-0.904,6.526-2.706l26.107-26.103c1.731-1.731,2.704-4.074,2.704-6.526s-0.974-4.795-2.704-6.526l-48.221-48.221
			c-3.605-3.605-9.446-3.605-13.051,0l-26.107,26.103c-1.731,1.731-2.704,4.074-2.704,6.528c0,2.449,0.974,4.793,2.704,6.523
			l16.548,16.551l-22.84,22.36c-28.739-16.659-60.461-26.765-97.38-28.277v-9.96c23.074-2.427,37.396-13.299,37.396-27.173
			C282.21,11.906,262.611,0,236.301,0c-26.31,0-46.506,11.906-46.506,27.689c0,13.874,15.794,24.746,36.56,27.173v9.96
			c-32.304,1.411-63.186,10.284-90.5,24.971l-18.815-19.054l16.67-16.551c1.731-1.731,2.764-4.074,2.764-6.523
			c0-2.454-0.943-4.797-2.674-6.528l-26.092-26.103c-3.605-3.605-9.439-3.605-13.043,0L46.441,63.255
			c-1.731,1.731-2.703,4.074-2.703,6.526s0.975,4.795,2.705,6.526l26.108,26.103c1.803,1.803,4.164,2.704,6.526,2.704
			c2.361,0,4.723-0.901,6.526-2.704l18.623-18.619l15.765,15.764c-11.762,7.758-22.713,16.648-32.691,26.522
			c-0.292,0.23-0.595,0.437-0.863,0.705c-0.268,0.268-0.475,0.57-0.704,0.863c-37.981,38.374-61.474,91.113-61.474,149.245
			c0,58.131,23.493,110.873,61.474,149.247c0.229,0.291,0.436,0.593,0.704,0.861c0.268,0.268,0.571,0.475,0.863,0.705
			c38.374,37.978,91.113,61.469,149.24,61.469c22.15,0,43.985-3.398,64.896-10.104c4.854-1.559,7.292-6.751,5.732-11.609
			c-1.555-4.849-6.999-7.533-11.843-5.967c-16.175,5.187-32.051,8.182-50.51,8.979v-45.907c0-5.101-4.133-9.23-9.23-9.23
			c-5.097,0-9.23,4.128-9.23,9.23v45.914c-46.148-2.19-88.282-20.827-120.598-50.226l32.651-32.417
			c3.605-3.605,3.725-9.446,0.119-13.051c-3.605-3.605-9.386-3.605-12.991,0L93.152,407.51
			c-29.403-32.315-48.01-74.619-50.201-120.767h45.914c5.097,0,9.23-4.128,9.23-9.23s-4.133-9.23-9.23-9.23H42.952
			c2.191-46.148,20.828-89.074,50.231-121.391l32.412,32.259c1.803,1.803,4.164,2.627,6.526,2.627c2.361,0,4.723-0.942,6.526-2.745
			c3.605-3.605,3.605-9.464,0-13.069l-32.412-32.425c9.586-8.723,20.064-16.476,31.252-23.157c1.48-0.412,2.889-1.163,4.054-2.328
			c0.004-0.005-0.469-0.014-0.464-0.018c25.572-14.442,55.283-23.272,85.279-24.735v45.914c0,5.101,4.133,9.23,9.23,9.23
			c5.097,0,9.23-4.128,9.23-9.23V83.301c48.456,2.193,89.239,20.827,121.556,50.229l-32.171,32.414
			c-3.605,3.605-3.486,9.446,0.119,13.053c1.803,1.8,4.224,2.702,6.585,2.702c2.362,0,4.753-0.901,6.556-2.702l32.424-32.103
			c29.401,32.317,48.052,75.241,50.244,121.389h-45.914c-5.097,0-9.23,4.128-9.23,9.23s4.133,9.23,9.23,9.23h45.905
			c-0.68,13.844-2.938,28.523-6.792,42.412c-1.365,4.912,1.514,9.847,6.422,11.208c4.944,1.361,10.005-1.6,11.361-6.503
			c5.115-18.441,7.711-37.617,7.711-56.932C448.821,218.812,425.339,166.063,387.374,127.691z M381.118,34.611l35.17,35.17
			l-13.056,13.051l-35.17-35.168L381.118,34.611z M79.077,82.832L66.026,69.781l35.17-35.17l13.051,13.053L79.077,82.832z
			 M236.54,36.919c-17.869,0-27.689-6.931-27.689-9.23s9.82-9.23,27.689-9.23c17.869,0,27.689,6.931,27.689,9.23
			S254.408,36.919,236.54,36.919z"/>
	</g>
</g>
<g>
	<g>
		<path d="M332.657,259.259c-13.853-6.3-84.036-37.748-105.347-37.748c-25.445,0-46.148,20.703-46.148,46.148
			c0,25.444,20.703,46.148,46.148,46.148c21.312,0,91.494-31.447,105.347-37.748c3.294-1.496,5.408-4.786,5.408-8.4
			S335.952,260.755,332.657,259.259z M227.31,295.348c-15.269,0-27.689-12.42-27.689-27.689c0-15.269,12.42-27.689,27.689-27.689
			c10.911,0,48.55,14.701,78.704,27.689C275.86,280.647,238.22,295.348,227.31,295.348z"/>
	</g>
</g>
<g>
	<g>
		<path d="M487.29,417.361c-1.086-3.344-3.975-5.778-7.449-6.28l-43.719-6.366l-19.559-39.613c-3.11-6.309-13.448-6.309-16.553,0
			l-19.55,39.613l-43.724,6.366c-3.475,0.503-6.363,2.936-7.449,6.28c-1.086,3.337-0.18,7.003,2.339,9.455l31.632,30.843
			l-7.467,43.543c-0.59,3.461,0.834,6.958,3.673,9.022c1.609,1.172,3.515,1.767,5.426,1.767c1.469,0,2.947-0.351,4.295-1.063
			l39.104-20.559l39.109,20.559c3.109,1.649,6.877,1.379,9.721-0.703c2.844-2.064,4.263-5.561,3.668-9.022l-7.467-43.552
			l31.632-30.834C487.47,424.365,488.376,420.698,487.29,417.361z M436.955,447.826c-2.172,2.118-3.164,5.176-2.654,8.166
			l5.133,29.897l-26.851-14.115c-2.686-1.424-5.904-1.424-8.59,0l-26.846,14.115l5.128-29.897c0.509-2.99-0.482-6.048-2.654-8.166
			l-21.722-21.17l30.019-4.374c3.006-0.43,5.602-2.325,6.949-5.045l13.421-27.195l13.43,27.195c1.343,2.72,3.939,4.615,6.945,5.045
			l30.014,4.374L436.955,447.826z"/>
	</g>
</g>
<g>
</g>
<g>
</g>
<g>
</g>
<g>
</g>
<g>
</g>
<g>
</g>
<g>
</g>
<g>
</g>
<g>
</g>
<g>
</g>
<g>
</g>
<g>
</g>
<g>
</g>
<g>
</g>
<g>
</g>
</svg>
