<?xml version="1.0" encoding="iso-8859-1"?>
<!-- Generator: Adobe Illustrator 19.0.0, SVG Export Plug-In . SVG Version: 6.00 Build 0)  -->
<svg version="1.1" id="Layer_1" xmlns="http://www.w3.org/2000/svg" xmlns:xlink="http://www.w3.org/1999/xlink" x="0px" y="0px"
	 viewBox="0 0 512 512" style="enable-background:new 0 0 512 512;" xml:space="preserve">
<g>
	<g>
		<path d="M399.518,130.538c-0.24-0.309-0.459-0.638-0.743-0.919c-0.283-0.286-0.602-0.511-0.91-0.749
			c-8.59-8.498-17.882-16.291-27.783-23.273l19.94-19.94l19.037,19.037c1.843,1.843,4.257,2.764,6.671,2.764
			c2.414,0,4.828-0.924,6.671-2.767l26.689-26.685c1.769-1.769,2.764-4.165,2.764-6.671c0-2.506-0.995-4.902-2.764-6.671
			l-49.296-49.297c-3.686-3.686-9.657-3.686-13.342,0l-26.689,26.685c-1.769,1.769-2.764,4.165-2.764,6.673
			c0,2.504,0.995,4.9,2.764,6.669l16.917,16.92L353.33,95.174c-29.381-17.03-61.809-27.362-99.551-28.907V56.085
			c23.589-2.481,38.23-13.596,38.23-27.779C292.009,12.172,271.973,0,245.076,0c-26.896,0-47.543,12.172-47.543,28.306
			c0,14.183,16.146,25.298,37.375,27.779v10.182c-33.024,1.442-64.594,10.513-92.518,25.528l-19.236-19.479l17.043-16.92
			c1.769-1.769,2.825-4.165,2.825-6.669c0-2.509-0.964-4.904-2.733-6.673l-26.674-26.685c-3.686-3.686-9.65-3.686-13.334,0
			L50.984,64.666c-1.769,1.769-2.763,4.165-2.763,6.671c0,2.506,0.996,4.902,2.766,6.671l26.69,26.685
			c1.843,1.843,4.257,2.764,6.671,2.764c2.414,0,4.828-0.921,6.671-2.764l19.038-19.034l16.118,16.116
			c-12.026,7.931-23.221,17.019-33.421,27.113c-0.298,0.235-0.608,0.447-0.882,0.721c-0.274,0.274-0.486,0.583-0.72,0.882
			c-38.828,39.23-62.845,93.145-62.845,152.572s24.017,113.345,62.845,152.574c0.234,0.297,0.446,0.606,0.72,0.88
			c0.274,0.274,0.584,0.486,0.882,0.721c39.23,38.824,93.145,62.839,152.568,62.839c22.644,0,44.966-3.474,66.343-10.329
			c4.962-1.594,7.454-6.901,5.86-11.868c-1.589-4.957-7.15-7.701-12.107-6.1c-16.536,5.303-32.766,8.364-51.637,9.18v-46.931
			c0-5.215-4.225-9.435-9.435-9.435c-5.211,0-9.435,4.22-9.435,9.435v46.937c-47.177-2.239-90.25-21.292-123.287-51.346L145,396.481
			c3.686-3.686,3.808-9.656,0.122-13.342c-3.686-3.686-9.595-3.686-13.281,0l-33.105,33.457
			c-30.058-33.035-49.08-76.283-51.32-123.46h46.938c5.21,0,9.435-4.22,9.435-9.435c0-5.215-4.225-9.435-9.435-9.435H47.416
			c2.24-47.177,21.293-91.06,51.351-124.098l33.134,32.978c1.843,1.843,4.257,2.686,6.671,2.686c2.414,0,4.828-0.963,6.671-2.806
			c3.686-3.686,3.686-9.675,0-13.361l-33.135-33.148c9.799-8.917,20.511-16.844,31.948-23.674c1.513-0.422,2.953-1.189,4.144-2.38
			c0.006-0.005-0.479-0.014-0.475-0.018c26.142-14.764,56.516-23.791,87.181-25.286v46.937c0,5.215,4.225,9.435,9.435,9.435
			s9.435-4.22,9.435-9.435V85.158c49.536,2.241,91.228,21.292,124.266,51.349l-32.888,33.137c-3.686,3.686-3.564,9.656,0.122,13.345
			c1.843,1.841,4.318,2.762,6.732,2.762c2.414,0,4.859-0.921,6.702-2.762l33.147-32.819c30.057,33.038,49.124,76.918,51.364,124.095
			h-46.937c-5.211,0-9.435,4.22-9.435,9.435c0,5.215,4.225,9.435,9.435,9.435h46.928c-0.696,14.153-3.004,29.159-6.943,43.358
			c-1.396,5.022,1.548,10.066,6.565,11.458c5.059,1.391,10.228-1.636,11.615-6.648c5.229-18.852,7.883-38.456,7.883-58.202
			C462.335,223.69,438.329,169.766,399.518,130.538z M393.122,35.383l35.954,35.954l-13.347,13.342l-35.954-35.952L393.122,35.383z
			 M84.347,84.679L71.005,71.337l35.954-35.954l13.342,13.344L84.347,84.679z M245.321,37.742c-18.267,0-28.306-7.086-28.306-9.435
			c0-2.35,10.039-9.435,28.306-9.435c18.267,0,28.306,7.086,28.306,9.435C273.627,30.656,263.588,37.742,245.321,37.742z"/>
	</g>
</g>
<g>
	<g>
		<path d="M343.582,265.039c-14.162-6.441-85.909-38.589-107.696-38.589c-26.012,0-47.177,21.165-47.177,47.177
			c0,26.012,21.165,47.177,47.177,47.177c21.787,0,93.534-32.149,107.696-38.589c3.368-1.529,5.529-4.893,5.529-8.588
			C349.11,269.932,346.949,266.569,343.582,265.039z M235.885,301.933c-15.609,0-28.306-12.697-28.306-28.306
			s12.697-28.306,28.306-28.306c11.154,0,49.633,15.029,80.459,28.306C285.518,286.905,247.039,301.933,235.885,301.933z"/>
	</g>
</g>
<g>
	<g>
		<path d="M454.245,442.515l26.685-26.685c3.686-3.686,3.686-9.656,0-13.342l-26.689-26.694c-3.538-3.538-9.804-3.538-13.342,0
			l-26.689,26.694l-26.685-26.694c-3.538-3.538-9.804-3.538-13.342,0l-26.689,26.694c-3.686,3.686-3.686,9.656,0,13.342
			l26.685,26.685L347.493,469.2c-3.686,3.686-3.686,9.657,0,13.342l26.689,26.694c3.538,3.538,9.804,3.538,13.342,0l26.685-26.694
			l26.689,26.694c1.769,1.769,4.169,2.764,6.671,2.764c2.502,0,4.902-0.995,6.671-2.764l26.689-26.694
			c3.686-3.686,3.686-9.657,0-13.342L454.245,442.515z M447.569,489.222l-26.689-26.694c-1.769-1.769-4.169-2.764-6.671-2.764
			c-2.502,0-4.902,0.995-6.671,2.764l-26.685,26.694l-13.347-13.351l26.689-26.685c1.769-1.769,2.764-4.165,2.764-6.671
			s-0.995-4.902-2.764-6.671l-26.689-26.685l13.347-13.351l26.685,26.694c1.769,1.769,4.169,2.764,6.671,2.764
			c2.502,0,4.902-0.995,6.671-2.764l26.689-26.694l13.347,13.351l-26.689,26.685c-1.769,1.769-2.764,4.165-2.764,6.671
			s0.995,4.902,2.764,6.671l26.689,26.685L447.569,489.222z"/>
	</g>
</g>
<g>
</g>
<g>
</g>
<g>
</g>
<g>
</g>
<g>
</g>
<g>
</g>
<g>
</g>
<g>
</g>
<g>
</g>
<g>
</g>
<g>
</g>
<g>
</g>
<g>
</g>
<g>
</g>
<g>
</g>
</svg>
