<?xml version="1.0" encoding="iso-8859-1"?>
<!-- Generator: Adobe Illustrator 19.0.0, SVG Export Plug-In . SVG Version: 6.00 Build 0)  -->
<svg version="1.1" id="Layer_1" xmlns="http://www.w3.org/2000/svg" xmlns:xlink="http://www.w3.org/1999/xlink" x="0px" y="0px"
	 viewBox="0 0 512 512" style="enable-background:new 0 0 512 512;" xml:space="preserve">
<g>
	<g>
		<path d="M484.521,438.627c-0.011-0.513-0.06-1.027-0.156-1.536c-0.045-0.245-0.125-0.478-0.19-0.716
			c-0.085-0.304-0.165-0.605-0.281-0.9c-0.105-0.268-0.234-0.518-0.362-0.775c-0.123-0.243-0.245-0.487-0.393-0.721
			c-0.165-0.268-0.35-0.513-0.542-0.761c-0.094-0.123-0.165-0.257-0.266-0.375l-54.849-63.99c-3.276-3.848-9.052-4.276-12.882-0.991
			c-3.839,3.285-4.285,9.362-0.991,13.192l41.909,49.211H338.273c-5.053,0-9.141,4.089-9.141,9.141s4.089,9.141,9.141,9.141h117.245
			l-41.909,48.595c-3.294,3.83-2.848,9.44,0.991,12.726c1.723,1.482,3.839,2.129,5.946,2.129c2.571,0,5.133-1.118,6.936-3.236
			l54.849-64.008c0.101-0.118,0.172-0.261,0.266-0.384c0.192-0.248,0.377-0.504,0.542-0.772c0.147-0.232,0.27-0.475,0.393-0.719
			c0.127-0.257,0.257-0.506,0.362-0.774c0.116-0.295,0.197-0.598,0.281-0.902c0.065-0.239,0.145-0.471,0.19-0.716
			c0.096-0.507,0.145-1.02,0.156-1.533c0-0.056,0.016-0.109,0.016-0.165C484.537,438.734,484.521,438.683,484.521,438.627z"/>
	</g>
</g>
<g>
	<g>
		<path d="M387.103,126.461c-0.23-0.295-0.44-0.609-0.712-0.879c-0.272-0.272-0.576-0.487-0.871-0.716
			c-8.327-8.238-17.332-15.79-26.929-22.557L377.91,82.99l18.444,18.444c1.786,1.785,4.124,2.678,6.464,2.678
			c2.339,0,4.678-0.895,6.463-2.681l25.862-25.853c1.714-1.714,2.678-4.035,2.678-6.463c0-2.428-0.964-4.749-2.678-6.463
			l-47.77-47.761c-3.571-3.571-9.356-3.571-12.927,0l-25.853,25.853c-3.571,3.571-3.571,9.356,0,12.927l16.39,16.393l-22.622,22.146
			c-28.464-16.502-59.884-26.509-96.45-28.007v-9.865c22.854-2.404,37.039-13.172,37.039-26.913C282.951,11.793,263.539,0,237.48,0
			c-26.058,0-46.062,11.793-46.062,27.424c0,13.741,15.643,24.51,36.211,26.913v9.865c-31.995,1.395-62.584,10.186-89.636,24.733
			l-18.638-18.872l16.509-16.393c3.571-3.571,3.631-9.356,0.06-12.927L110.1,14.891c-3.571-3.571-9.342-3.571-12.913,0
			L49.435,62.651c-3.571,3.571-3.569,9.356,0.002,12.926l25.855,25.853c1.785,1.786,4.126,2.678,6.466,2.678
			c2.339,0,4.678-0.893,6.463-2.678l18.444-18.444l15.616,15.616c-11.646,7.68-22.488,16.48-32.368,26.255
			c-0.295,0.232-0.598,0.442-0.87,0.712c-0.272,0.272-0.482,0.578-0.712,0.873c-37.608,38.005-60.868,90.234-60.868,147.801
			c0,57.567,23.26,109.798,60.868,147.803c0.23,0.295,0.44,0.6,0.712,0.87c0.272,0.272,0.576,0.482,0.87,0.712
			c38.008,37.608,90.236,60.868,147.804,60.868c21.943,0,43.574-3.366,64.276-10.007c4.803-1.544,7.218-6.687,5.673-11.498
			c-1.536-4.794-6.896-7.454-11.735-5.91c-16.011,5.138-31.736,8.104-50.019,8.894v-45.469c0-5.053-4.089-9.141-9.141-9.141
			c-5.053,0-9.141,4.089-9.141,9.141v45.475c-45.707-2.169-87.44-20.628-119.448-49.749l32.341-32.105
			c3.571-3.571,3.689-9.356,0.118-12.926c-3.571-3.571-9.296-3.571-12.866,0l-32.075,32.412
			c-29.121-32.009-47.551-73.904-49.72-119.611h45.475c5.053,0,9.141-4.089,9.141-9.141s-4.089-9.141-9.141-9.141H45.978
			c2.169-45.707,20.629-88.221,49.749-120.229l32.104,31.948c1.786,1.785,4.124,2.602,6.464,2.602c2.339,0,4.678-0.933,6.463-2.718
			c3.571-3.571,3.571-9.373,0-12.944l-32.105-32.114c9.496-8.639,19.877-16.321,30.96-22.941c1.464-0.406,2.859-1.149,4.011-2.303
			c0.004-0.005-0.466-0.009-0.462-0.013c25.329-14.306,54.757-23.052,84.467-24.503v45.475c0,5.053,4.089,9.141,9.141,9.141
			s9.141-4.089,9.141-9.141V82.505c47.993,2.172,88.384,20.628,120.392,49.751l-31.866,32.102
			c-3.571,3.571-3.453,9.356,0.118,12.929c1.785,1.783,4.184,2.676,6.524,2.676c2.337,0,4.707-0.893,6.492-2.676l32.118-31.797
			c29.121,32.009,47.596,74.522,49.765,120.229h-45.475c-5.053,0-9.141,4.089-9.141,9.141c0,5.053,4.089,9.141,9.141,9.141h45.466
			c-0.674,13.712-2.915,28.25-6.731,42.007c-1.348,4.865,1.5,9.753,6.365,11.101c4.865,1.312,9.9-1.576,11.257-6.441
			c5.062-18.265,7.633-37.258,7.633-56.389C447.971,216.715,424.711,164.468,387.103,126.461z M380.909,34.28l34.843,34.834
			l-12.935,12.926l-34.834-34.832L380.909,34.28z M81.759,82.041L68.832,69.115l34.834-34.834l12.927,12.929L81.759,82.041z
			 M237.717,36.566c-17.694,0-27.424-6.865-27.424-9.141c0-2.276,9.731-9.141,27.424-9.141c17.694,0,27.424,6.865,27.424,9.141
			S255.411,36.566,237.717,36.566z"/>
	</g>
</g>
<g>
	<g>
		<path d="M332.917,256.782c-13.721-6.24-83.237-37.387-104.341-37.387c-25.202,0-45.707,20.506-45.707,45.707
			c0,25.201,20.506,45.707,45.707,45.707c21.104,0,90.62-31.147,104.341-37.387c3.258-1.482,5.356-4.74,5.356-8.32
			C338.273,261.523,336.175,258.264,332.917,256.782z M228.576,292.527c-15.123,0-27.424-12.302-27.424-27.424
			c0-15.123,12.302-27.424,27.424-27.424c10.802,0,48.082,14.56,77.952,27.424C276.657,277.966,239.386,292.527,228.576,292.527z"/>
	</g>
</g>
<g>
</g>
<g>
</g>
<g>
</g>
<g>
</g>
<g>
</g>
<g>
</g>
<g>
</g>
<g>
</g>
<g>
</g>
<g>
</g>
<g>
</g>
<g>
</g>
<g>
</g>
<g>
</g>
<g>
</g>
</svg>
