<?xml version="1.0" encoding="iso-8859-1"?>
<!-- Generator: Adobe Illustrator 19.0.0, SVG Export Plug-In . SVG Version: 6.00 Build 0)  -->
<svg version="1.1" id="Layer_1" xmlns="http://www.w3.org/2000/svg" xmlns:xlink="http://www.w3.org/1999/xlink" x="0px" y="0px"
	 viewBox="0 0 512 512" style="enable-background:new 0 0 512 512;" xml:space="preserve">
<g>
	<g>
		<path d="M399.883,133.651c-0.245-0.316-0.47-0.653-0.761-0.941c-0.29-0.292-0.615-0.524-0.931-0.767
			c-8.795-8.7-18.308-16.679-28.446-23.828l20.415-20.415l19.491,19.491c1.887,1.887,4.359,2.83,6.83,2.83
			c2.472,0,4.943-0.946,6.83-2.833l27.325-27.321c1.811-1.811,2.83-4.264,2.83-6.83s-1.019-5.019-2.83-6.83l-50.472-50.472
			c-3.774-3.774-9.887-3.774-13.66,0l-27.325,27.321c-1.811,1.811-2.83,4.264-2.83,6.833c0,2.564,1.019,5.017,2.83,6.828
			L376.5,74.04l-23.906,23.403c-30.081-17.436-63.283-28.014-101.924-29.596V57.422c24.151-2.54,39.141-13.92,39.141-28.441
			C289.811,12.462,269.297,0,241.759,0c-27.538,0-48.677,12.462-48.677,28.981c0,14.521,16.531,25.901,38.266,28.441v10.424
			c-33.811,1.476-66.134,10.764-94.724,26.137L116.93,74.04l17.449-17.323c1.811-1.811,2.893-4.264,2.893-6.828
			c0-2.568-0.987-5.021-2.798-6.833l-27.31-27.321c-3.774-3.774-9.88-3.774-13.652,0L43.039,66.208
			c-1.811,1.811-2.829,4.264-2.829,6.83s1.02,5.019,2.831,6.83l27.327,27.321c1.887,1.887,4.359,2.83,6.83,2.83
			c2.472,0,4.943-0.943,6.83-2.83l19.492-19.488l16.502,16.5c-12.312,8.12-23.775,17.424-34.218,27.759
			c-0.306,0.241-0.623,0.458-0.904,0.738s-0.497,0.597-0.737,0.903c-39.754,40.165-64.343,95.366-64.343,156.21
			s24.59,116.047,64.343,156.212c0.239,0.304,0.456,0.62,0.737,0.901s0.598,0.497,0.904,0.738
			C125.969,487.413,181.17,512,242.009,512c23.184,0,46.038-3.557,67.925-10.575c5.08-1.632,7.632-7.066,6-12.151
			c-1.627-5.075-7.326-7.884-12.396-6.245c-16.93,5.429-33.547,8.564-52.868,9.399v-48.049c0-5.34-4.325-9.66-9.66-9.66
			c-5.335,0-9.66,4.321-9.66,9.66v48.057c-48.302-2.292-92.402-21.799-126.226-52.571l34.175-33.929
			c3.774-3.774,3.898-9.887,0.125-13.66c-3.774-3.774-9.824-3.774-13.598,0L91.93,426.528
			c-30.775-33.823-50.25-78.101-52.544-126.403h48.057c5.335,0,9.66-4.321,9.66-9.66s-4.326-9.66-9.66-9.66H39.387
			c2.294-48.302,21.801-93.231,52.576-127.057l33.924,33.764c1.887,1.887,4.359,2.75,6.83,2.75c2.472,0,4.943-0.986,6.83-2.873
			c3.774-3.774,3.774-9.906,0-13.679l-33.925-33.939c10.033-9.13,21-17.245,32.71-24.238c1.55-0.432,3.023-1.217,4.243-2.436
			c0.006-0.005-0.49-0.014-0.486-0.019c26.765-15.116,57.863-24.359,89.259-25.889v48.057c0,5.34,4.325,9.66,9.66,9.66
			s9.66-4.321,9.66-9.66V87.189c50.717,2.295,93.403,21.799,127.229,52.573l-33.672,33.927c-3.774,3.774-3.649,9.887,0.125,13.663
			c1.887,1.884,4.421,2.828,6.893,2.828c2.472,0,4.975-0.943,6.862-2.828l33.937-33.602c30.774,33.826,50.295,78.752,52.588,127.054
			h-48.057c-5.335,0-9.66,4.321-9.66,9.66s4.325,9.66,9.66,9.66h48.047c-0.712,14.491-3.075,29.854-7.109,44.392
			c-1.429,5.141,1.585,10.306,6.722,11.731c5.184,1.424,10.467-1.675,11.892-6.807c5.354-19.302,8.071-39.373,8.071-59.59
			C464.198,229.024,439.62,173.814,399.883,133.651z M393.335,36.226l36.811,36.811l-13.665,13.66L379.67,49.889L393.335,36.226z
			 M77.198,86.698l-13.661-13.66l36.811-36.811l13.66,13.663L77.198,86.698z M242.009,38.641c-18.703,0-28.981-7.255-28.981-9.66
			c0-2.406,10.278-9.66,28.981-9.66c18.703,0,28.981,7.255,28.981,9.66C270.991,31.387,260.712,38.641,242.009,38.641z"/>
	</g>
</g>
<g>
	<g>
		<path d="M342.613,271.359c-14.5-6.594-87.958-39.509-110.264-39.509c-26.632,0-48.302,21.67-48.302,48.302
			c0,26.632,21.67,48.302,48.302,48.302c22.307,0,95.764-32.915,110.264-39.509c3.448-1.566,5.66-5.009,5.66-8.792
			S346.061,272.924,342.613,271.359z M232.349,309.132c-15.981,0-28.981-13-28.981-28.981c0-15.981,13-28.981,28.981-28.981
			c11.42,0,50.816,15.387,82.377,28.981C283.165,293.745,243.769,309.132,232.349,309.132z"/>
	</g>
</g>
<g>
	<g>
		<path d="M483.519,425.71H348.274c-5.335,0-10.66,3.668-10.66,9.007v38.642c0,5.34,5.326,10.314,10.66,10.314h135.245
			c5.335,0,8.66-4.974,8.66-10.314v-38.642C492.179,429.377,488.854,425.71,483.519,425.71z M472.858,464.351H356.934v-19.321
			h115.925V464.351z"/>
	</g>
</g>
<g>
</g>
<g>
</g>
<g>
</g>
<g>
</g>
<g>
</g>
<g>
</g>
<g>
</g>
<g>
</g>
<g>
</g>
<g>
</g>
<g>
</g>
<g>
</g>
<g>
</g>
<g>
</g>
<g>
</g>
</svg>
