<?xml version="1.0" encoding="iso-8859-1"?>
<!-- Generator: Adobe Illustrator 19.0.0, SVG Export Plug-In . SVG Version: 6.00 Build 0)  -->
<svg version="1.1" id="Layer_1" xmlns="http://www.w3.org/2000/svg" xmlns:xlink="http://www.w3.org/1999/xlink" x="0px" y="0px"
	 viewBox="0 0 512 512" style="enable-background:new 0 0 512 512;" xml:space="preserve">
<g>
	<g>
		<path d="M475.429,430.333H358.165l41.915-49.219c3.295-3.83,2.848-9.755-0.991-13.04c-3.821-3.286-9.598-2.933-12.884,0.915
			l-54.857,63.96c-0.103,0.121-0.172,0.232-0.266,0.357c-0.192,0.245-0.377,0.484-0.542,0.75c-0.147,0.234-0.27,0.473-0.393,0.717
			c-0.127,0.257-0.259,0.502-0.362,0.77c-0.116,0.297-0.196,0.598-0.281,0.902c-0.065,0.239-0.145,0.469-0.192,0.717
			c-0.094,0.507-0.143,1.02-0.154,1.534c0,0.056-0.016,0.107-0.016,0.163c0,0.056,0.016,0.109,0.016,0.165
			c0.011,0.513,0.06,1.027,0.154,1.533c0.047,0.246,0.127,0.477,0.192,0.716c0.085,0.304,0.165,0.607,0.281,0.902
			c0.103,0.268,0.235,0.518,0.362,0.774c0.123,0.243,0.245,0.487,0.393,0.719c0.165,0.268,0.35,0.516,0.542,0.763
			c0.094,0.12,0.163,0.254,0.266,0.373l54.857,64c1.804,2.116,4.366,3.196,6.938,3.196c2.107,0,4.223-0.723,5.946-2.205
			c3.839-3.286,4.286-8.743,0.991-12.573l-41.915-48.603h117.264c5.053,0,9.143-4.089,9.143-9.143
			C484.571,434.422,480.482,430.333,475.429,430.333z"/>
	</g>
</g>
<g>
	<g>
		<path d="M387.123,126.48c-0.23-0.295-0.44-0.609-0.712-0.88c-0.272-0.272-0.576-0.487-0.871-0.717
			c-8.326-8.239-17.335-15.792-26.933-22.56l19.321-19.321l18.446,18.446c1.786,1.786,4.125,2.679,6.464,2.679
			c2.339,0,4.678-0.895,6.464-2.681l25.866-25.857c1.714-1.714,2.679-4.036,2.679-6.464c0-2.429-0.964-4.75-2.679-6.464
			l-47.777-47.768c-3.571-3.571-9.357-3.571-12.928,0L348.607,40.75c-3.571,3.571-3.571,9.357,0,12.929L365,70.074l-22.625,22.149
			c-28.469-16.504-59.893-26.513-96.464-28.011v-9.866c22.857-2.404,37.045-13.174,37.045-26.917C282.955,11.794,263.54,0,237.478,0
			c-26.062,0-46.069,11.794-46.069,27.429c0,13.743,15.645,24.513,36.216,26.917v9.866c-32,1.395-62.594,10.187-89.65,24.736
			l-18.641-18.875l16.511-16.395c3.571-3.571,3.632-9.357,0.06-12.929l-25.828-25.857c-3.571-3.571-9.344-3.571-12.915,0
			L49.404,62.661c-3.571,3.571-3.569,9.357,0.002,12.928l25.859,25.857c1.786,1.786,4.127,2.679,6.467,2.679
			c2.339,0,4.679-0.893,6.464-2.679L106.643,83l15.618,15.618c-11.647,7.681-22.491,16.482-32.373,26.259
			c-0.295,0.232-0.598,0.442-0.87,0.712c-0.272,0.272-0.482,0.578-0.712,0.873c-37.614,38.011-60.877,90.248-60.877,147.824
			c0,57.576,23.263,109.815,60.877,147.826c0.23,0.295,0.44,0.6,0.712,0.871c0.272,0.272,0.576,0.482,0.87,0.712
			c38.013,37.614,90.25,60.877,147.826,60.877c21.946,0,43.58-3.366,64.286-10.009c4.803-1.545,7.219-6.688,5.674-11.5
			c-1.536-4.795-6.897-7.455-11.737-5.911c-16.013,5.138-31.741,8.105-50.027,8.895v-45.475c0-5.054-4.089-9.143-9.143-9.143
			c-5.053,0-9.143,4.089-9.143,9.143v45.482c-45.714-2.17-87.453-20.632-119.464-49.757l32.344-32.109
			c3.571-3.571,3.69-9.357,0.118-12.928c-3.571-3.571-9.297-3.571-12.868,0l-32.08,32.417
			c-29.125-32.013-47.558-73.915-49.728-119.63h45.482c5.053,0,9.143-4.089,9.143-9.143s-4.089-9.143-9.143-9.143H45.946
			c2.17-45.714,20.632-88.234,49.759-120.248l32.107,31.953c1.786,1.786,4.125,2.603,6.464,2.603c2.339,0,4.678-0.933,6.464-2.719
			c3.571-3.571,3.571-9.375,0-12.946l-32.107-32.118c9.496-8.641,19.877-16.324,30.962-22.944c1.466-0.406,2.859-1.149,4.011-2.304
			c0.004-0.005-0.466-0.009-0.462-0.013c25.333-14.308,54.766-23.056,84.48-24.507V128c0,5.053,4.089,9.143,9.143,9.143
			s9.143-4.089,9.143-9.143V82.518c48,2.172,88.397,20.632,120.411,49.759l-31.871,32.107c-3.571,3.571-3.453,9.357,0.118,12.931
			c1.786,1.784,4.185,2.676,6.525,2.676c2.339,0,4.707-0.893,6.493-2.676l32.123-31.801c29.125,32.013,47.603,74.534,49.772,120.248
			H384c-5.054,0-9.143,4.089-9.143,9.143s4.089,9.143,9.143,9.143h45.473c-0.674,13.714-2.915,28.254-6.732,42.013
			c-1.348,4.866,1.5,9.754,6.366,11.103c4.875,1.312,9.902-1.576,11.259-6.442c5.063-18.268,7.634-37.263,7.634-56.397
			C448,216.748,424.736,164.493,387.123,126.48z M380.928,34.286l34.848,34.839l-12.937,12.928L368,47.216L380.928,34.286z
			 M81.732,82.053L68.803,69.125l34.839-34.839l12.929,12.931L81.732,82.053z M237.714,36.571c-17.696,0-27.429-6.866-27.429-9.143
			s9.732-9.143,27.429-9.143s27.429,6.866,27.429,9.143S255.411,36.571,237.714,36.571z"/>
	</g>
</g>
<g>
	<g>
		<path d="M332.928,256.821c-13.723-6.241-83.25-37.393-104.357-37.393c-25.205,0-45.714,20.509-45.714,45.714
			c0,25.205,20.509,45.714,45.714,45.714c21.107,0,90.634-31.152,104.357-37.393c3.259-1.482,5.357-4.741,5.357-8.321
			C338.286,261.563,336.187,258.304,332.928,256.821z M228.571,292.571c-15.125,0-27.429-12.304-27.429-27.429
			c0-15.125,12.304-27.429,27.429-27.429c10.803,0,48.089,14.563,77.964,27.429C276.661,278.009,239.384,292.571,228.571,292.571z"
			/>
	</g>
</g>
<g>
</g>
<g>
</g>
<g>
</g>
<g>
</g>
<g>
</g>
<g>
</g>
<g>
</g>
<g>
</g>
<g>
</g>
<g>
</g>
<g>
</g>
<g>
</g>
<g>
</g>
<g>
</g>
<g>
</g>
</svg>
