<?xml version="1.0" encoding="iso-8859-1"?>
<!-- Generator: Adobe Illustrator 19.0.0, SVG Export Plug-In . SVG Version: 6.00 Build 0)  -->
<svg version="1.1" id="Layer_1" xmlns="http://www.w3.org/2000/svg" xmlns:xlink="http://www.w3.org/1999/xlink" x="0px" y="0px"
	 viewBox="0 0 512 512" style="enable-background:new 0 0 512 512;" xml:space="preserve">
<g>
	<g>
		<path d="M404.211,350.316c-44.579,0-80.842,36.263-80.842,80.842S359.632,512,404.211,512c44.579,0,80.842-36.263,80.842-80.842
			S448.789,350.316,404.211,350.316z M404.211,494.035c-34.667,0-62.877-28.211-62.877-62.877s28.211-62.877,62.877-62.877
			c34.667,0,62.877,28.211,62.877,62.877S438.877,494.035,404.211,494.035z"/>
	</g>
</g>
<g>
	<g>
		<path d="M404.211,377.263c-19.816,0-35.93,16.114-35.93,35.93c0,4.965,4.017,8.982,8.982,8.982c4.965,0,8.982-4.018,8.982-8.982
			c0-9.904,8.061-17.965,17.965-17.965c9.903,0,17.965,8.061,17.965,17.965c0,3.667-2.351,6.026-8.57,11.368
			c-5.588,4.807-12.544,10.781-17.43,20.544c-2.219,4.439-0.421,9.833,4.018,12.053c1.289,0.641,2.658,0.947,4.009,0.947
			c3.298,0,6.465-1.816,8.044-4.965c3.263-6.526,8.246-10.807,13.07-14.947c6.948-5.974,14.825-12.737,14.825-25
			C440.14,393.377,424.026,377.263,404.211,377.263z"/>
	</g>
</g>
<g>
	<g>
		<path d="M412.526,472.658c-0.447-1.167-1.167-2.158-1.974-2.965c-2.518-2.509-6.474-3.324-9.79-1.886
			c-1.079,0.447-2.07,1.079-2.877,1.886c-0.904,0.807-1.526,1.798-1.974,2.965c-0.456,1.079-0.719,2.246-0.719,3.412
			c0,2.43,0.982,4.675,2.693,6.377c1.702,1.711,3.947,2.605,6.289,2.605c1.254,0,2.421-0.263,3.5-0.719
			c1.079-0.447,2.07-1.077,2.877-1.886c0.807-0.895,1.526-1.886,1.974-2.965c0.447-1.07,0.631-2.246,0.631-3.412
			C413.158,474.904,412.974,473.737,412.526,472.658z"/>
	</g>
</g>
<g>
	<g>
		<path d="M380.331,124.261c-0.226-0.29-0.432-0.599-0.7-0.864c-0.268-0.268-0.566-0.478-0.855-0.704
			c-8.182-8.094-17.031-15.515-26.461-22.164l18.982-18.982l18.123,18.123c1.754,1.754,4.053,2.632,6.351,2.632
			c2.298,0,4.596-0.879,6.351-2.634l25.412-25.404c1.684-1.684,2.632-3.965,2.632-6.351c0-2.386-0.947-4.667-2.632-6.351
			l-46.939-46.93c-3.509-3.509-9.193-3.509-12.702,0l-25.404,25.404c-3.509,3.509-3.509,9.193,0,12.702l16.105,16.107
			l-22.228,21.761c-27.969-16.215-58.842-26.048-94.772-27.52v-9.693c22.456-2.362,36.395-12.943,36.395-26.445
			c0-15.36-19.074-26.947-44.68-26.947c-25.605,0-45.261,11.588-45.261,26.947c0,13.502,15.371,24.083,35.581,26.445v9.693
			c-31.439,1.37-61.496,10.009-88.077,24.302l-18.314-18.544l16.222-16.107c3.509-3.509,3.568-9.193,0.059-12.702l-25.375-25.404
			c-3.509-3.509-9.18-3.509-12.688,0l-46.921,46.93c-3.509,3.509-3.507,9.193,0.002,12.702l25.406,25.404
			c1.754,1.755,4.055,2.632,6.353,2.632c2.298,0,4.597-0.877,6.351-2.632l18.123-18.123l15.344,15.344
			c-11.443,7.546-22.096,16.193-31.805,25.798c-0.289,0.228-0.588,0.434-0.855,0.7c-0.268,0.267-0.474,0.568-0.7,0.857
			c-36.954,37.344-59.809,88.664-59.809,145.23c0,56.566,22.855,107.888,59.809,145.232c0.226,0.289,0.432,0.59,0.7,0.855
			c0.267,0.267,0.566,0.474,0.855,0.699c37.347,36.954,88.667,59.809,145.233,59.809c21.561,0,42.816-3.307,63.158-9.833
			c4.719-1.518,7.092-6.57,5.574-11.298c-1.509-4.71-6.785-7.325-11.531-5.807c-15.732,5.048-31.184,7.963-49.149,8.739v-44.678
			c0-4.965-4.018-8.982-8.982-8.982c-4.965,0-8.982,4.018-8.982,8.982v44.684c-44.912-2.132-85.919-20.27-117.371-48.884
			l31.779-31.546c3.509-3.509,3.625-9.193,0.116-12.702c-3.509-3.509-9.134-3.509-12.643,0l-31.517,31.849
			c-28.614-31.452-46.724-72.618-48.855-117.531h44.684c4.965,0,8.982-4.018,8.982-8.982c0-4.965-4.018-8.982-8.982-8.982H45.14
			c2.132-44.912,20.27-86.686,48.884-118.138l31.546,31.393c1.755,1.754,4.053,2.557,6.351,2.557c2.298,0,4.596-0.917,6.351-2.671
			c3.509-3.509,3.509-9.21,0-12.719l-31.546-31.555c9.331-8.489,19.531-16.037,30.421-22.542c1.439-0.399,2.809-1.129,3.941-2.263
			c0.004-0.005-0.458-0.009-0.454-0.013c24.888-14.057,53.805-22.651,82.998-24.077v44.684c0,4.965,4.018,8.982,8.982,8.982
			c4.965,0,8.982-4.018,8.982-8.982V81.07c47.158,2.134,86.846,20.27,118.298,48.886L328.583,161.5
			c-3.509,3.509-3.392,9.193,0.116,12.704c1.754,1.752,4.112,2.629,6.41,2.629c2.296,0,4.625-0.877,6.379-2.629l31.559-31.243
			c28.614,31.452,46.768,73.226,48.899,118.138h-44.684c-4.965,0-8.982,4.018-8.982,8.982s4.017,8.982,8.982,8.982h44.675
			c-0.662,13.474-2.864,27.759-6.614,41.276c-1.325,4.781,1.474,9.583,6.254,10.908c4.79,1.289,9.737-1.548,11.061-6.329
			c4.974-17.947,7.5-36.61,7.5-55.408C440.14,212.945,417.285,161.607,380.331,124.261z M374.246,33.684l34.237,34.228
			l-12.71,12.702l-34.228-34.226L374.246,33.684z M80.298,80.614L67.596,67.912l34.228-34.228l12.702,12.704L80.298,80.614z
			 M233.544,35.93c-17.386,0-26.947-6.746-26.947-8.982c0-2.237,9.561-8.982,26.947-8.982c17.386,0,26.947,6.746,26.947,8.982
			C260.491,29.184,250.93,35.93,233.544,35.93z"/>
	</g>
</g>
<g>
	<g>
		<path d="M327.088,252.316c-13.482-6.132-81.79-36.737-102.526-36.737c-24.763,0-44.912,20.149-44.912,44.912
			c0,24.763,20.149,44.912,44.912,44.912c20.737,0,89.044-30.605,102.526-36.737c3.202-1.456,5.263-4.658,5.263-8.175
			S330.289,253.772,327.088,252.316z M224.561,287.439c-14.86,0-26.947-12.088-26.947-26.947s12.088-26.947,26.947-26.947
			c10.614,0,47.245,14.307,76.596,26.947C271.807,273.132,235.184,287.439,224.561,287.439z"/>
	</g>
</g>
<g>
</g>
<g>
</g>
<g>
</g>
<g>
</g>
<g>
</g>
<g>
</g>
<g>
</g>
<g>
</g>
<g>
</g>
<g>
</g>
<g>
</g>
<g>
</g>
<g>
</g>
<g>
</g>
<g>
</g>
</svg>
