<?xml version="1.0" encoding="iso-8859-1"?>
<!-- Generator: Adobe Illustrator 19.0.0, SVG Export Plug-In . SVG Version: 6.00 Build 0)  -->
<svg version="1.1" id="Layer_1" xmlns="http://www.w3.org/2000/svg" xmlns:xlink="http://www.w3.org/1999/xlink" x="0px" y="0px"
	 viewBox="0 0 512 512" style="enable-background:new 0 0 512 512;" xml:space="preserve">
<g>
	<g>
		<path d="M243.882,70.275c-121.784,0-220.863,99.08-220.863,220.863C23.02,412.923,122.098,512,243.882,512
			c121.784,0,220.863-99.077,220.863-220.863C464.745,169.354,365.667,70.275,243.882,70.275z M243.882,491.922
			c-110.711,0-200.784-90.073-200.784-200.784c0-110.711,90.073-200.784,200.784-200.784c110.711,0,200.784,90.074,200.784,200.784
			C444.667,401.848,354.593,491.922,243.882,491.922z"/>
	</g>
</g>
<g>
	<g>
		<polygon points="424.588,46.039 410.392,60.235 435.49,85.333 410.392,110.431 424.588,124.629 449.686,99.531 474.784,124.629 
			488.98,110.431 		"/>
	</g>
</g>
<g>
	<g>
		<path d="M252.882,262.777V131.184h-20.078v131.593c-10.039,4.147-20.078,15.277-20.078,28.36
			c0,13.085,10.039,24.213,20.078,28.362v32.548h20.078v-32.548c12.549-4.148,20.078-15.277,20.078-28.362
			C272.961,278.054,265.431,266.924,252.882,262.777z"/>
	</g>
</g>
<g>
	<g>
		<path d="M242.843,0c-16.608,0-30.118,13.51-30.118,30.118v20.078c0,5.545,5.534,10.713,11.078,10.713h40.157
			c5.544,0,9-5.168,9-10.713V30.118C272.961,13.51,259.451,0,242.843,0z M252.882,40.831h-20.078V30.118
			c0-5.626,4.412-10.039,10.039-10.039s10.039,4.413,10.039,10.039V40.831z"/>
	</g>
</g>
<g>
</g>
<g>
</g>
<g>
</g>
<g>
</g>
<g>
</g>
<g>
</g>
<g>
</g>
<g>
</g>
<g>
</g>
<g>
</g>
<g>
</g>
<g>
</g>
<g>
</g>
<g>
</g>
<g>
</g>
</svg>
