<?xml version="1.0" encoding="iso-8859-1"?>
<!-- Generator: Adobe Illustrator 19.0.0, SVG Export Plug-In . SVG Version: 6.00 Build 0)  -->
<svg version="1.1" id="Layer_1" xmlns="http://www.w3.org/2000/svg" xmlns:xlink="http://www.w3.org/1999/xlink" x="0px" y="0px"
	 viewBox="0 0 512 512" style="enable-background:new 0 0 512 512;" xml:space="preserve">
<g>
	<g>
		<path d="M413.874,133.63c-0.245-0.316-0.47-0.641-0.761-0.932c-0.29-0.29-0.615-0.517-0.932-0.762
			c-8.795-8.701-18.309-16.674-28.446-23.823l20.416-20.417l19.494,19.493c1.887,1.887,4.359,2.83,6.83,2.83
			c2.472,0,4.943-0.943,6.83-2.83l27.321-27.321c3.774-3.774,3.774-9.887,0-13.66l-50.472-50.472c-3.774-3.774-9.887-3.774-13.66,0
			L373.17,43.057c-1.811,1.811-2.83,4.264-2.83,6.833c0,2.564,1.019,5.017,2.83,6.828l17.321,17.321l-23.906,23.406
			c-30.08-17.436-63.283-28.014-101.924-29.596V57.422c24.151-2.54,39.141-13.92,39.141-28.441C303.802,12.462,283.288,0,255.75,0
			c-27.538,0-48.677,12.462-48.677,28.981c0,14.521,16.531,25.901,38.266,28.441v10.424c-33.811,1.476-66.134,10.764-94.724,26.137
			L130.922,74.04l17.448-17.323c1.811-1.811,2.893-4.264,2.893-6.828c0-2.568-0.987-5.021-2.798-6.833l-27.31-27.321
			c-3.774-3.774-9.88-3.774-13.652,0L57.029,66.208c-1.811,1.811-2.829,4.264-2.829,6.83s1.02,5.019,2.831,6.83l27.327,27.321
			c1.887,1.887,4.359,2.83,6.83,2.83c2.472,0,4.943-0.943,6.83-2.83l19.492-19.488l16.501,16.5
			c-12.311,8.12-23.773,17.424-34.217,27.759c-0.305,0.241-0.623,0.458-0.903,0.738s-0.497,0.597-0.737,0.903
			c-39.754,40.165-64.343,95.366-64.343,156.21s24.589,116.047,64.343,156.212c0.239,0.304,0.456,0.62,0.737,0.901
			s0.598,0.497,0.903,0.738C139.96,487.413,195.16,512,256,512c60.828,0,116.018-24.578,156.181-64.314
			c0.316-0.245,0.641-0.472,0.932-0.762c0.29-0.29,0.515-0.616,0.761-0.932c39.737-40.163,64.315-95.351,64.315-156.181
			C478.189,228.984,453.611,173.792,413.874,133.63z M407.325,36.226l36.811,36.811l-13.661,13.66l-36.811-36.809L407.325,36.226z
			 M91.189,86.698l-13.661-13.66l36.811-36.811L128,49.889L91.189,86.698z M227.019,28.981c0-2.406,10.278-9.66,28.981-9.66
			c18.703,0,28.981,7.255,28.981,9.66c0,2.406-10.278,9.66-28.981,9.66C237.297,38.641,227.019,31.387,227.019,28.981z
			 M406.049,426.526l-33.922-34.252c-3.774-3.774-9.887-3.774-13.66,0c-3.774,3.774-3.774,9.887,0,13.66l33.422,33.927
			c-33.826,30.774-76.512,50.281-127.229,52.573v-48.056c0-5.34-4.325-9.66-9.66-9.66s-9.66,4.321-9.66,9.66v48.057
			c-48.302-2.292-92.402-21.799-126.226-52.571l34.175-33.929c3.774-3.774,3.898-9.887,0.125-13.66
			c-3.774-3.774-9.824-3.774-13.598,0l-33.894,34.255c-30.775-33.823-50.25-78.101-52.544-126.403h48.057
			c5.335,0,9.66-4.321,9.66-9.66s-4.326-9.66-9.66-9.66H53.377c2.294-48.302,21.8-93.231,52.576-127.057l33.924,33.764
			c1.887,1.887,4.359,2.75,6.83,2.75c2.472,0,4.943-0.986,6.83-2.873c3.774-3.774,3.774-9.906,0-13.679l-33.925-33.939
			c10.033-9.13,21-17.245,32.71-24.238c1.55-0.432,3.023-1.217,4.243-2.436c0.005-0.005-0.49-0.014-0.486-0.019
			c26.765-15.116,57.863-24.359,89.259-25.889v48.057c0,5.34,4.325,9.66,9.66,9.66c5.335,0,9.66-4.321,9.66-9.66V87.189
			c50.717,2.295,93.403,21.799,127.229,52.573l-33.672,33.927c-3.774,3.774-3.649,9.887,0.125,13.663
			c1.887,1.884,4.421,2.828,6.893,2.828c2.472,0,4.975-0.943,6.862-2.828l33.937-33.602c30.774,33.826,50.295,78.752,52.588,127.054
			h-48.057c-5.335,0-9.66,4.321-9.66,9.66s4.325,9.66,9.66,9.66h48.057C456.329,348.427,436.823,392.7,406.049,426.526z"/>
	</g>
</g>
<g>
	<g>
		<path d="M356.604,271.359c-14.5-6.594-87.958-39.509-110.264-39.509c-26.632,0-48.302,21.67-48.302,48.302
			c0,26.632,21.67,48.302,48.302,48.302c22.307,0,95.764-32.915,110.264-39.509c3.448-1.566,5.661-5.009,5.661-8.792
			S360.052,272.924,356.604,271.359z M246.34,309.132c-15.981,0-28.981-13-28.981-28.981c0-15.981,13-28.981,28.981-28.981
			c11.42,0,50.816,15.387,82.377,28.981C297.156,293.745,257.759,309.132,246.34,309.132z"/>
	</g>
</g>
<g>
</g>
<g>
</g>
<g>
</g>
<g>
</g>
<g>
</g>
<g>
</g>
<g>
</g>
<g>
</g>
<g>
</g>
<g>
</g>
<g>
</g>
<g>
</g>
<g>
</g>
<g>
</g>
<g>
</g>
</svg>
