<?xml version="1.0" encoding="iso-8859-1"?>
<!-- Generator: Adobe Illustrator 19.0.0, SVG Export Plug-In . SVG Version: 6.00 Build 0)  -->
<svg version="1.1" id="Layer_1" xmlns="http://www.w3.org/2000/svg" xmlns:xlink="http://www.w3.org/1999/xlink" x="0px" y="0px"
	 viewBox="0 0 512 512" style="enable-background:new 0 0 512 512;" xml:space="preserve">
<g>
	<g>
		<path d="M448.964,109.714h-74.107V72.53c0-30.251-23.656-54.244-53.902-54.244H183.795C153.549,18.286,128,42.279,128,72.53
			v37.184H64.933C29.652,109.714,0,137.81,0,173.096v256.013c0,35.286,29.652,64.605,64.933,64.605h384.031
			c35.281,0,63.036-29.319,63.036-64.605V173.096C512,137.81,484.246,109.714,448.964,109.714z M146.286,72.53
			c0-20.166,17.348-35.959,37.509-35.959h137.161c20.161,0,35.616,15.792,35.616,35.959v37.184H146.286V72.53z M493.714,429.109
			c0,25.201-19.554,46.319-44.75,46.319H64.933c-25.201,0-46.647-21.118-46.647-46.319V173.096
			c0-25.204,21.446-45.096,46.647-45.096h384.031c25.196,0,44.75,19.892,44.75,45.096V429.109z"/>
	</g>
</g>
<g>
	<g>
		<path d="M430.781,192H83.232c-5.049,0-9.143,4.094-9.143,9.143c0,5.049,4.094,9.143,9.143,9.143h347.549
			c5.049,0,9.143-4.094,9.143-9.143C439.924,196.094,435.83,192,430.781,192z"/>
	</g>
</g>
<g>
	<g>
		<path d="M430.781,292.571H83.232c-5.049,0-9.143,4.094-9.143,9.143s4.094,9.143,9.143,9.143h347.549
			c5.049,0,9.143-4.094,9.143-9.143S435.83,292.571,430.781,292.571z"/>
	</g>
</g>
<g>
	<g>
		<path d="M430.781,402.286H83.232c-5.049,0-9.143,4.094-9.143,9.143s4.094,9.143,9.143,9.143h347.549
			c5.049,0,9.143-4.094,9.143-9.143S435.83,402.286,430.781,402.286z"/>
	</g>
</g>
<g>
</g>
<g>
</g>
<g>
</g>
<g>
</g>
<g>
</g>
<g>
</g>
<g>
</g>
<g>
</g>
<g>
</g>
<g>
</g>
<g>
</g>
<g>
</g>
<g>
</g>
<g>
</g>
<g>
</g>
</svg>
