<?xml version="1.0" encoding="iso-8859-1"?>
<!-- Generator: Adobe Illustrator 19.0.0, SVG Export Plug-In . SVG Version: 6.00 Build 0)  -->
<svg version="1.1" id="Layer_1" xmlns="http://www.w3.org/2000/svg" xmlns:xlink="http://www.w3.org/1999/xlink" x="0px" y="0px"
	 viewBox="0 0 512 512" style="enable-background:new 0 0 512 512;" xml:space="preserve">
<g>
	<g>
		<path d="M397.276,141.241H114.728C51.466,141.241,0,192.72,0,256s51.466,114.759,114.728,114.759h282.547
			C460.534,370.759,512,319.28,512,256S460.534,141.241,397.276,141.241z M397.276,353.103H114.728
			c-53.526,0-97.073-43.56-97.073-97.103s43.547-97.103,97.073-97.103h282.547c53.526,0,97.069,43.56,97.069,97.103
			S450.802,353.103,397.276,353.103z"/>
	</g>
</g>
<g>
	<g>
		<path d="M397.241,184.782c-38.94,0-70.621,31.681-70.621,70.621c0,38.941,31.681,70.621,70.621,70.621
			c38.94,0,70.621-31.68,70.621-70.621C467.862,216.463,436.181,184.782,397.241,184.782z M397.241,308.369
			c-29.207,0-52.966-23.759-52.966-52.965c0-29.206,23.759-52.966,52.966-52.966c29.207,0,52.966,23.76,52.966,52.966
			C450.207,284.61,426.448,308.369,397.241,308.369z"/>
	</g>
</g>
<g>
</g>
<g>
</g>
<g>
</g>
<g>
</g>
<g>
</g>
<g>
</g>
<g>
</g>
<g>
</g>
<g>
</g>
<g>
</g>
<g>
</g>
<g>
</g>
<g>
</g>
<g>
</g>
<g>
</g>
</svg>
