<?xml version="1.0" encoding="iso-8859-1"?>
<!-- Generator: Adobe Illustrator 19.0.0, SVG Export Plug-In . SVG Version: 6.00 Build 0)  -->
<svg version="1.1" id="Layer_1" xmlns="http://www.w3.org/2000/svg" xmlns:xlink="http://www.w3.org/1999/xlink" x="0px" y="0px"
	 viewBox="0 0 512 512" style="enable-background:new 0 0 512 512;" xml:space="preserve">
<g>
	<g>
		<path d="M448.964,123.429H64.929C29.652,123.429,0,151.489,0,186.739v137.286c0,35.25,29.652,64.547,64.929,64.547h384.036
			c35.277,0,63.036-29.297,63.036-64.547V186.739C512,151.489,484.241,123.429,448.964,123.429z M493.714,324.024
			c0,25.17-19.554,46.261-44.75,46.261H64.929c-25.197,0-46.643-21.091-46.643-46.261V186.739c0-25.17,21.446-45.024,46.643-45.024
			h384.036c25.196,0,44.75,19.855,44.75,45.024V324.024z"/>
	</g>
</g>
<g>
	<g>
		<path d="M182.804,160H82.339c-25.277,0-45.768,20.491-45.768,45.768v100.464c0,25.277,20.491,45.768,45.768,45.768h100.464
			c25.277,0,45.768-20.491,45.768-45.768V205.768C228.571,180.491,208.08,160,182.804,160z M210.286,306.232
			c0,15.179-12.304,27.482-27.482,27.482H82.339c-15.178,0-27.482-12.304-27.482-27.482V205.768
			c0-15.179,12.304-27.482,27.482-27.482h100.464c15.179,0,27.482,12.304,27.482,27.482V306.232z"/>
	</g>
</g>
<g>
</g>
<g>
</g>
<g>
</g>
<g>
</g>
<g>
</g>
<g>
</g>
<g>
</g>
<g>
</g>
<g>
</g>
<g>
</g>
<g>
</g>
<g>
</g>
<g>
</g>
<g>
</g>
<g>
</g>
</svg>
