<?xml version="1.0" encoding="iso-8859-1"?>
<!-- Generator: Adobe Illustrator 19.0.0, SVG Export Plug-In . SVG Version: 6.00 Build 0)  -->
<svg version="1.1" id="Layer_1" xmlns="http://www.w3.org/2000/svg" xmlns:xlink="http://www.w3.org/1999/xlink" x="0px" y="0px"
	 viewBox="0 0 512 512" style="enable-background:new 0 0 512 512;" xml:space="preserve">
<g>
	<g>
		<path d="M447.262,253.097l46.904-46.906c12.386-12.382,19.84-35.602,16.964-52.861l-16.378-98.259
			c-3.037-18.248-19.71-34.916-37.945-37.945L358.544,0.744c-17.237-2.89-40.47,4.581-52.861,16.964L10.407,312.989
			c-13.862,13.857-13.879,36.4-0.03,50.249l138.265,138.26c6.92,6.916,16.005,10.378,25.099,10.378
			c9.107,0,18.217-3.471,25.15-10.404L434.689,265.67c31.843,30.6,64.154,66.404,58.978,101.94
			c-3.814,26.161-28.478,50.787-73.317,73.209c-4.391,2.195-6.169,7.532-3.974,11.922c1.558,3.115,4.694,4.911,7.957,4.911
			c1.332,0,2.69-0.304,3.965-0.937c51.052-25.528,78.189-53.833,82.953-86.545C517.636,326.356,482.06,286.552,447.262,253.097z
			 M434.358,240.873c-0.829-0.777-1.66-1.555-2.479-2.325c-6.868-6.439-13.363-12.521-19.042-18.196
			c-27.523-27.519-23.3-60.434-14.625-83.599c2.681,0.649,5.466,1.028,8.343,1.028c19.597,0,35.541-15.94,35.541-35.541
			c0-19.602-15.944-35.541-35.541-35.541c-19.597,0-35.541,15.94-35.541,35.541c0,10.421,4.534,19.775,11.698,26.283
			c-10.844,27.96-17.24,69.594,17.561,104.394c5.801,5.805,12.434,12.018,19.454,18.604c0.681,0.638,1.369,1.284,2.056,1.929
			L186.326,488.908c-6.933,6.942-18.204,6.942-25.12,0.026L22.941,350.673c-6.915-6.915-6.903-18.187,0.03-25.12L318.248,30.272
			c8.326-8.321,25.792-13.961,37.376-12l98.264,16.382c10.655,1.77,21.562,12.677,23.337,23.333l16.378,98.259
			c1.965,11.801-3.532,28.912-12,37.381L434.358,240.873z M411.869,95.134c-3.913-2.933-9.475-2.143-12.421,1.779
			c-0.148,0.197-3.916,5.328-8.502,13.814c-1.377-2.523-2.162-5.414-2.162-8.486c0-9.797,7.97-17.771,17.771-17.771
			s17.771,7.974,17.771,17.771c0,9.796-7.97,17.771-17.771,17.771c-0.217,0-0.427-0.024-0.642-0.033
			c3.924-7.187,7.256-11.742,7.757-12.419C416.598,103.628,415.795,98.066,411.869,95.134z"/>
	</g>
</g>
<g>
	<g>
		<path d="M293.331,158.155c-3.471-3.471-9.094-3.471-12.565,0L80.4,358.517c-3.471,3.471-3.471,9.093,0,12.564
			c1.736,1.736,4.009,2.603,6.282,2.603c2.273,0,4.547-0.868,6.282-2.603l200.367-200.362
			C296.802,167.249,296.802,161.626,293.331,158.155z"/>
	</g>
</g>
<g>
	<g>
		<path d="M346.643,211.467c-3.471-3.471-9.094-3.471-12.564,0L133.712,411.829c-3.471,3.471-3.471,9.094,0,12.564
			c1.736,1.736,4.009,2.603,6.282,2.603c2.273,0,4.547-0.868,6.282-2.603l200.367-200.362
			C350.114,220.561,350.114,214.938,346.643,211.467z"/>
	</g>
</g>
<g>
</g>
<g>
</g>
<g>
</g>
<g>
</g>
<g>
</g>
<g>
</g>
<g>
</g>
<g>
</g>
<g>
</g>
<g>
</g>
<g>
</g>
<g>
</g>
<g>
</g>
<g>
</g>
<g>
</g>
</svg>
