<?xml version="1.0" encoding="iso-8859-1"?>
<!-- Generator: Adobe Illustrator 19.0.0, SVG Export Plug-In . SVG Version: 6.00 Build 0)  -->
<svg version="1.1" id="Layer_1" xmlns="http://www.w3.org/2000/svg" xmlns:xlink="http://www.w3.org/1999/xlink" x="0px" y="0px"
	 viewBox="0 0 512 512" style="enable-background:new 0 0 512 512;" xml:space="preserve">
<g>
	<g>
		<path d="M476.018,67.609h-39.254V28.698c0-5.282-4.279-9.566-9.566-9.566c-5.287,0-9.566,4.284-9.566,9.566v43.87l-168.89,169.384
			c-3.737,3.737-3.489,9.791,0.247,13.528c1.868,1.867,4.44,2.801,6.887,2.801s4.958-0.611,6.827-2.479L432.149,86.741h43.869
			c5.287,0,9.566-4.283,9.566-9.566C485.584,71.892,481.305,67.609,476.018,67.609z"/>
	</g>
</g>
<g>
	<g>
		<path d="M482.417,145.643c-2.195-4.802-7.866-6.936-12.677-4.732c-4.802,2.191-6.922,7.867-4.736,12.672
			c13.658,29.936,20.58,61.947,20.58,95.132c0,126.591-102.993,229.584-229.584,229.584S26.416,375.306,26.416,248.716
			S129.409,19.132,256,19.132c37.937,0,75.528,9.449,108.71,27.321c4.671,2.499,10.453,0.76,12.966-3.886
			c2.503-4.652,0.766-10.453-3.886-12.957C337.825,10.238,297.095,0,256,0C118.853,0,7.284,111.574,7.284,248.716
			S118.853,497.432,256,497.432c137.147,0,248.716-111.574,248.716-248.716C504.716,212.77,497.214,178.093,482.417,145.643z"/>
	</g>
</g>
<g>
	<g>
		<path d="M407.3,188.995c-1.943-4.92-7.501-7.311-12.406-5.387c-4.914,1.943-7.324,7.501-5.381,12.412
			c6.623,16.763,9.977,34.494,9.977,52.696c0,79.12-64.365,143.49-143.49,143.49c-79.125,0-143.49-64.37-143.49-143.49
			c0-79.119,64.365-143.49,143.49-143.49c21.57,0,42.309,4.672,61.646,13.878c4.783,2.264,10.481,0.242,12.742-4.523
			c2.28-4.769,0.252-10.481-4.521-12.751C303.951,91.392,280.438,86.094,256,86.094c-89.672,0-162.622,72.95-162.622,162.622
			S166.328,411.338,256,411.338s162.622-72.95,162.622-162.622C418.622,228.098,414.81,208.004,407.3,188.995z"/>
	</g>
</g>
<g>
	<g>
		<path d="M337.348,220.476c-1.719-4.992-7.184-7.636-12.172-5.903c-4.988,1.732-7.632,7.183-5.895,12.171
			c2.438,7.048,3.681,14.438,3.681,21.972c0,36.924-30.043,66.962-66.962,66.962s-66.962-30.037-66.962-66.962
			c0-36.922,30.043-66.962,66.962-66.962c7.688,0,15.218,1.289,22.373,3.83c4.989,1.739,10.444-0.832,12.219-5.814
			c1.766-4.975-0.831-10.444-5.811-12.216c-9.22-3.273-18.898-4.932-28.782-4.932c-47.475,0-86.094,38.624-86.094,86.094
			S208.525,334.81,256,334.81c47.475,0,86.094-38.624,86.094-86.094C342.094,239.042,340.496,229.543,337.348,220.476z"/>
	</g>
</g>
<g>
	<g>
		<path d="M487.779,495.671l-52.828-52.832c-3.737-3.737-9.79-3.737-13.527,0c-3.737,3.737-3.737,9.791,0,13.528l52.828,52.833
			c1.868,1.867,4.316,2.801,6.763,2.801c2.448,0,4.895-0.934,6.763-2.801C491.516,505.462,491.516,499.407,487.779,495.671z"/>
	</g>
</g>
<g>
	<g>
		<path d="M86.007,442.838c-3.737-3.737-9.79-3.737-13.527,0l-52.828,52.832c-3.737,3.737-3.737,9.791,0,13.528
			c1.868,1.867,4.316,2.801,6.764,2.801c2.448,0,4.895-0.934,6.763-2.801l52.828-52.833
			C89.744,452.629,89.744,446.575,86.007,442.838z"/>
	</g>
</g>
<g>
</g>
<g>
</g>
<g>
</g>
<g>
</g>
<g>
</g>
<g>
</g>
<g>
</g>
<g>
</g>
<g>
</g>
<g>
</g>
<g>
</g>
<g>
</g>
<g>
</g>
<g>
</g>
<g>
</g>
</svg>
