<?xml version="1.0" encoding="iso-8859-1"?>
<!-- Generator: Adobe Illustrator 19.0.0, SVG Export Plug-In . SVG Version: 6.00 Build 0)  -->
<svg version="1.1" id="Layer_1" xmlns="http://www.w3.org/2000/svg" xmlns:xlink="http://www.w3.org/1999/xlink" x="0px" y="0px"
	 viewBox="0 0 512 512" style="enable-background:new 0 0 512 512;" xml:space="preserve">
<g>
	<g>
		<path d="M422.15,153.44c-1.151-3.543-4.211-6.121-7.897-6.656l-46.314-6.732l-20.718-41.979c-3.304-6.685-14.248-6.685-17.542,0
			l-20.713,41.979l-46.319,6.732c-3.686,0.535-6.746,3.113-7.897,6.656c-1.151,3.533-0.191,7.42,2.478,10.02l33.514,32.676
			l-7.912,46.133c-0.626,3.667,0.883,7.372,3.891,9.559c1.705,1.241,3.724,1.872,5.749,1.872c1.557,0,3.123-0.372,4.55-1.127
			l41.43-21.78l41.435,21.78c3.304,1.75,7.286,1.461,10.299-0.745c3.013-2.187,4.517-5.892,3.886-9.559l-7.912-46.143l33.514-32.666
			C422.342,160.859,423.301,156.973,422.15,153.44z M368.822,185.716c-2.301,2.244-3.352,5.481-2.812,8.652l5.438,31.675
			L343,211.089c-2.846-1.509-6.255-1.509-9.101,0l-28.443,14.954l5.433-31.675c0.54-3.17-0.511-6.408-2.812-8.652l-23.014-22.431
			l31.799-4.622c3.19-0.458,5.94-2.464,7.367-5.348l14.219-28.82l14.224,28.82c1.428,2.884,4.178,4.889,7.367,5.348l31.795,4.622
			L368.822,185.716z"/>
	</g>
</g>
<g>
	<g>
		<path d="M511.576,402.975c-3.495-36.288-45.168-65.404-49.7-68.45c-4.483-3.209-44.825-31.284-80.563-31.284
			c-15.102,0-27.727,4.708-37.921,14.381l-0.974,1.05c-11.765,13.773-35.557,34.151-49.256,34.151c-0.917,0-1.7-0.105-2.411-0.337
			c-7.754-5.701-46.081-34.235-71.453-59.617c-20.388-20.388-53.266-63.131-59.879-71.792c-3.447-11.116,16.969-37.357,34.11-52.178
			l0.96-0.945C232.82,127.465,179.63,53.19,177.562,50.354C176.187,48.301,143.409,0,103.931,0C90.352,0,78.091,5.29,68.14,15.126
			c-4.608,3.782-112.091,94.081-47.169,226.941c3.242,6.666,7.291,13.379,12.734,21.143c15.933,22.756,57.205,79.89,96.286,118.966
			c37.104,37.109,95.193,79.356,118.446,95.79c7.979,5.646,14.902,9.826,21.797,13.188C298.686,504.991,327.392,512,355.553,512
			c82.941,0,133.968-59.435,140.959-68.097C507.818,432.205,513.027,418.063,511.576,402.975z M482.202,430.572l-0.678,0.561
			c-4.975,6.255-50.779,60.901-125.971,60.901h-0.019c-25.162,0-50.984-6.145-76.743-18.674c-5.916-2.874-11.97-6.45-19.061-11.464
			c-22.842-16.148-79.871-57.549-115.911-93.598c-37.987-37.988-78.458-94-94.095-116.335c-4.846-6.904-8.394-12.763-11.178-18.483
			C-18.683,116.357,70.217,38.718,81.199,29.653c6.914-6.799,14.348-10.099,22.732-10.099c24.189,0,49.619,30.09,57.592,41.989
			c12.896,17.743,41.406,69.045,18.827,92.908c-2.13,1.843-52.049,45.436-38.441,75.507l1.127,1.891
			c4.035,5.3,40.065,52.484,62.434,74.848c27.769,27.77,69.992,58.843,74.719,62.3l1.676,0.983
			c3.452,1.595,7.257,2.397,11.307,2.397c28.758,0,62.687-39.334,64.052-40.938c6.054-5.739,14.157-8.642,24.089-8.642
			c30.157,0,67.615,26.509,69.41,27.789c0.387,0.258,38.704,26.423,41.382,54.26C493.026,414.424,489.789,422.837,482.202,430.572z"
			/>
	</g>
</g>
<g>
</g>
<g>
</g>
<g>
</g>
<g>
</g>
<g>
</g>
<g>
</g>
<g>
</g>
<g>
</g>
<g>
</g>
<g>
</g>
<g>
</g>
<g>
</g>
<g>
</g>
<g>
</g>
<g>
</g>
</svg>
