<?xml version="1.0" encoding="iso-8859-1"?>
<!-- Generator: Adobe Illustrator 19.0.0, SVG Export Plug-In . SVG Version: 6.00 Build 0)  -->
<svg version="1.1" id="Layer_1" xmlns="http://www.w3.org/2000/svg" xmlns:xlink="http://www.w3.org/1999/xlink" x="0px" y="0px"
	 viewBox="0 0 512 512" style="enable-background:new 0 0 512 512;" xml:space="preserve">
<g>
	<g>
		<path d="M420.513,166.897H295.096l44.83-52.641c3.524-4.097,3.046-10.433-1.06-13.947c-4.087-3.514-10.256-3.137-13.78,0.979
			l-58.671,68.407c-0.11,0.129-0.184,0.248-0.284,0.382c-0.205,0.263-0.403,0.518-0.58,0.802c-0.158,0.251-0.289,0.501-0.42,0.762
			c-0.136,0.275-0.277,0.542-0.387,0.828c-0.124,0.315-0.21,0.637-0.301,0.962c-0.069,0.255-0.155,0.504-0.205,0.766
			c-0.1,0.544-0.153,1.094-0.165,1.643c0,0.06-0.017,0.115-0.017,0.174c0,0.06,0.017,0.117,0.017,0.177
			c0.012,0.549,0.065,1.098,0.165,1.64c0.05,0.263,0.136,0.511,0.205,0.766c0.091,0.325,0.177,0.65,0.301,0.965
			c0.11,0.286,0.251,0.554,0.387,0.828c0.131,0.26,0.263,0.521,0.42,0.769c0.177,0.286,0.375,0.552,0.58,0.817
			c0.1,0.129,0.174,0.272,0.284,0.399l58.671,68.45c1.929,2.263,4.67,3.419,7.42,3.419c2.253,0,4.517-0.773,6.36-2.359
			c4.106-3.514,4.584-9.351,1.06-13.448l-44.83-51.982h125.417c5.405,0,9.779-4.374,9.779-9.779S425.918,166.897,420.513,166.897z"
			/>
	</g>
</g>
<g>
	<g>
		<path d="M511.576,402.975c-3.495-36.383-45.178-65.413-49.695-68.45c-4.479-3.209-44.825-31.284-80.559-31.284
			c-15.107,0-27.731,4.708-37.921,14.381l-0.983,1.05c-11.755,13.773-35.543,34.151-49.256,34.151c-0.917,0-1.7-0.105-2.406-0.337
			c-7.735-5.679-45.98-34.139-71.458-59.617c-20.245-20.254-53.228-63.083-59.875-71.783c-3.352-11.01,17.37-37.72,34.139-52.216
			l0.936-0.917C232.83,127.465,179.63,53.19,177.577,50.373C176.202,48.32,143.543,0,103.932,0C90.353,0,78.091,5.29,68.15,15.126
			c-4.612,3.782-112.11,94.045-47.174,226.951c3.237,6.656,7.286,13.369,12.729,21.143c15.957,22.766,57.277,79.938,96.286,118.957
			c37.033,37.042,95.169,79.329,118.451,95.79c7.974,5.646,14.907,9.836,21.792,13.188C298.682,504.981,327.388,512,355.558,512
			c82.946,0,133.978-59.445,140.958-68.097C507.814,432.205,513.028,418.072,511.576,402.975z M482.202,430.572l-0.668,0.561
			c-4.975,6.255-50.784,60.901-125.975,60.901h-0.019c-25.162,0-50.994-6.145-76.748-18.674c-5.911-2.874-11.965-6.45-19.061-11.464
			c-22.861-16.177-79.938-57.616-115.91-93.598c-37.911-37.93-78.429-93.98-94.09-116.335c-4.842-6.904-8.394-12.763-11.182-18.483
			C-18.692,116.328,70.223,38.706,81.204,29.653c6.914-6.799,14.343-10.099,22.728-10.099c24.284,0,49.647,30.071,57.602,41.989
			c12.892,17.743,41.406,69.045,18.831,92.908c-2.13,1.843-52.063,45.417-38.455,75.507l1.127,1.891
			c6.608,8.68,40.671,53.085,62.434,74.848c27.875,27.887,70.016,58.862,74.724,62.3l1.681,0.983
			c3.447,1.595,7.248,2.397,11.297,2.397c28.782,0,62.692-39.334,64.057-40.938c6.14-5.813,14.019-8.642,24.093-8.642
			c30.157,0,67.61,26.509,69.414,27.798c10.753,7.229,39.153,31.083,41.378,54.25C493.031,414.424,489.785,422.837,482.202,430.572z
			"/>
	</g>
</g>
<g>
</g>
<g>
</g>
<g>
</g>
<g>
</g>
<g>
</g>
<g>
</g>
<g>
</g>
<g>
</g>
<g>
</g>
<g>
</g>
<g>
</g>
<g>
</g>
<g>
</g>
<g>
</g>
<g>
</g>
</svg>
