<?xml version="1.0" encoding="iso-8859-1"?>
<!-- Generator: Adobe Illustrator 19.0.0, SVG Export Plug-In . SVG Version: 6.00 Build 0)  -->
<svg version="1.1" id="Layer_1" xmlns="http://www.w3.org/2000/svg" xmlns:xlink="http://www.w3.org/1999/xlink" x="0px" y="0px"
	 viewBox="0 0 512 512" style="enable-background:new 0 0 512 512;" xml:space="preserve">
<g>
	<g>
		<path d="M448.359,259.001l-97.786-156.538c-3.581-5.711-13.006-5.753-16.587-0.043L236.2,258.858
			c-1.881,3.018-1.982,7.138-0.258,10.242c1.724,3.113,4.994,5.362,8.552,5.362h195.571c3.557,0,6.828-2.258,8.551-5.372
			C450.34,265.986,450.24,262.019,448.359,259.001z M262.136,254.904l80.143-128.229l80.143,128.229H262.136z"/>
	</g>
</g>
<g>
	<g>
		<path d="M341.267,146.679c-5.4,0-9.779,4.374-9.779,9.779v48.893c0,5.405,4.378,9.779,9.779,9.779s9.779-4.374,9.779-9.779
			v-48.893C351.046,151.052,346.667,146.679,341.267,146.679z"/>
	</g>
</g>
<g>
	<g>
		<path d="M349.179,227.743c-3.614-3.619-10.17-3.619-13.784,0c-1.857,1.862-2.936,4.402-2.936,6.943c0,2.55,1.079,5.09,2.936,6.942
			c1.857,1.862,4.302,2.836,6.842,2.836c1.37,0,2.64-0.286,3.815-0.783c1.175-0.487,2.249-1.172,3.127-2.053
			c1.862-1.948,2.836-4.393,2.836-6.942C352.015,232.146,351.041,229.606,349.179,227.743z"/>
	</g>
</g>
<g>
	<g>
		<path d="M511.576,402.975c-3.495-36.288-45.168-65.404-49.7-68.45c-4.483-3.209-44.825-31.284-80.563-31.284
			c-15.103,0-27.727,4.708-37.921,14.381l-0.974,1.05c-11.765,13.773-35.557,34.151-49.256,34.151c-0.917,0-1.7-0.105-2.411-0.337
			c-7.754-5.701-46.081-34.235-71.453-59.617c-20.388-20.388-53.266-63.131-59.879-71.792c-3.447-11.116,16.969-37.357,34.11-52.178
			l0.96-0.945C232.82,127.465,179.63,53.19,177.562,50.354C176.187,48.301,143.409,0,103.931,0C90.352,0,78.091,5.29,68.14,15.126
			c-4.608,3.782-112.091,94.081-47.169,226.941c3.242,6.666,7.291,13.379,12.734,21.143c15.933,22.756,57.205,79.89,96.286,118.966
			c37.104,37.109,95.193,79.356,118.446,95.79c7.974,5.646,14.897,9.826,21.797,13.188C298.686,504.991,327.392,512,355.553,512
			c82.941,0,133.968-59.435,140.958-68.097C507.818,432.205,513.027,418.063,511.576,402.975z M482.202,430.572l-0.678,0.561
			c-4.975,6.255-50.779,60.901-125.971,60.901h-0.019c-25.162,0-50.984-6.145-76.748-18.674c-5.916-2.874-11.97-6.45-19.056-11.464
			c-22.842-16.148-79.871-57.549-115.911-93.598c-37.987-37.988-78.458-94-94.095-116.335c-4.846-6.904-8.394-12.763-11.178-18.483
			C-18.683,116.357,70.217,38.718,81.199,29.653c6.914-6.799,14.348-10.099,22.732-10.099c24.188,0,49.619,30.09,57.592,41.989
			c12.896,17.743,41.406,69.045,18.827,92.908c-2.13,1.843-52.049,45.436-38.441,75.507l1.127,1.891
			c4.035,5.3,40.065,52.484,62.434,74.848c27.769,27.77,69.992,58.843,74.719,62.3l1.676,0.983
			c3.452,1.595,7.257,2.397,11.306,2.397c28.758,0,62.687-39.334,64.052-40.938c6.054-5.739,14.157-8.642,24.089-8.642
			c30.157,0,67.614,26.509,69.41,27.789c0.387,0.258,38.704,26.423,41.382,54.26C493.026,414.424,489.789,422.837,482.202,430.572z"
			/>
	</g>
</g>
<g>
</g>
<g>
</g>
<g>
</g>
<g>
</g>
<g>
</g>
<g>
</g>
<g>
</g>
<g>
</g>
<g>
</g>
<g>
</g>
<g>
</g>
<g>
</g>
<g>
</g>
<g>
</g>
<g>
</g>
</svg>
