<?xml version="1.0" encoding="iso-8859-1"?>
<!-- Generator: Adobe Illustrator 19.0.0, SVG Export Plug-In . SVG Version: 6.00 Build 0)  -->
<svg version="1.1" id="Layer_1" xmlns="http://www.w3.org/2000/svg" xmlns:xlink="http://www.w3.org/1999/xlink" x="0px" y="0px"
	 viewBox="0 0 512 512" style="enable-background:new 0 0 512 512;" xml:space="preserve">
<g>
	<g>
		<path d="M256,171.759c-93.806,0-170.121,76.32-170.121,170.121C85.879,435.682,162.195,512,256,512
			c93.805,0,170.121-76.318,170.121-170.121C426.121,248.078,349.805,171.759,256,171.759z M256,493.098
			c-83.381,0-151.219-67.838-151.219-151.219S172.619,190.661,256,190.661c83.38,0,151.218,67.838,151.218,151.218
			S339.38,493.098,256,493.098z"/>
	</g>
</g>
<g>
	<g>
		<path d="M308.844,60.984c-3.909-14.638-13.286-26.858-26.392-34.427L249.631,7.609c-13.115-7.568-28.381-9.571-43.019-5.648
			c-14.615,3.923-26.835,13.318-34.413,26.434l-28.349,49.102c-2.607,4.522-1.061,10.3,3.461,12.912
			c4.518,2.603,10.296,1.043,12.912-3.461l28.349-49.102c5.049-8.75,13.198-15.017,22.945-17.629
			c9.723-2.621,19.918-1.292,28.663,3.766l32.821,18.949c8.731,5.039,14.975,13.18,17.582,22.936
			c2.607,9.747,1.26,19.936-3.793,28.686l-28.349,49.102c-2.608,4.522-1.062,10.3,3.461,12.912c1.491,0.858,3.115,1.265,4.716,1.265
			c3.267,0,6.442-1.698,8.196-4.726l28.349-49.102C310.736,90.888,312.753,75.604,308.844,60.984z"/>
	</g>
</g>
<g>
	<g>
		<path d="M255.022,294.624c-5.219,0-9.451,4.227-9.451,9.451v66.158c0,5.224,4.232,9.451,9.451,9.451
			c5.219,0,9.451-4.227,9.451-9.451v-66.158C264.473,298.851,260.241,294.624,255.022,294.624z"/>
	</g>
</g>
<g>
</g>
<g>
</g>
<g>
</g>
<g>
</g>
<g>
</g>
<g>
</g>
<g>
</g>
<g>
</g>
<g>
</g>
<g>
</g>
<g>
</g>
<g>
</g>
<g>
</g>
<g>
</g>
<g>
</g>
</svg>
