<?xml version="1.0" encoding="iso-8859-1"?>
<!-- Generator: Adobe Illustrator 19.0.0, SVG Export Plug-In . SVG Version: 6.00 Build 0)  -->
<svg version="1.1" id="Layer_1" xmlns="http://www.w3.org/2000/svg" xmlns:xlink="http://www.w3.org/1999/xlink" x="0px" y="0px"
	 viewBox="0 0 512 512" style="enable-background:new 0 0 512 512;" xml:space="preserve">
<g>
	<g>
		<path d="M451.62,0H62.5c-5.66,0-11.3,3.899-11.3,9.552v368.64c0,5.656,5.64,10.928,11.3,10.928h133.12
			c5.66,0,10.24-4.585,10.24-10.24s-4.58-10.24-10.24-10.24H71.68V20.48h368.64v348.16H318.5c-5.66,0-10.24,4.585-10.24,10.24
			s4.58,10.24,10.24,10.24h133.12c5.66,0,9.18-5.271,9.18-10.928V9.552C460.8,3.899,457.28,0,451.62,0z"/>
	</g>
</g>
<g>
	<g>
		<path d="M356.392,248.072l-92.125-92.16c-4-3.999-10.465-3.999-14.465,0l-92.15,92.16c-4,4-3.997,10.48,0.003,14.48
			c4,4.001,9.953,4.001,13.953,0l74.152-74.68V512h20.48V187.872l75.21,74.68c2,2.001,4.885,3,7.505,3c2.62,0,5.373-0.999,7.373-3
			C360.327,258.553,360.392,252.072,356.392,248.072z"/>
	</g>
</g>
<g>
</g>
<g>
</g>
<g>
</g>
<g>
</g>
<g>
</g>
<g>
</g>
<g>
</g>
<g>
</g>
<g>
</g>
<g>
</g>
<g>
</g>
<g>
</g>
<g>
</g>
<g>
</g>
<g>
</g>
</svg>
