<?xml version="1.0" encoding="iso-8859-1"?>
<!-- Generator: Adobe Illustrator 19.0.0, SVG Export Plug-In . SVG Version: 6.00 Build 0)  -->
<svg version="1.1" id="Layer_1" xmlns="http://www.w3.org/2000/svg" xmlns:xlink="http://www.w3.org/1999/xlink" x="0px" y="0px"
	 viewBox="0 0 512 512" style="enable-background:new 0 0 512 512;" xml:space="preserve">
<g>
	<g>
		<path d="M443.854,138.328H316.019c-5.435,0-9.833,4.403-9.833,9.833s4.398,9.833,9.833,9.833h116.984v334.338H78.997V157.995
			h119.02c5.435,0,9.833-4.403,9.833-9.833s-4.398-9.833-9.833-9.833H70.182c-5.435,0-10.852,3.744-10.852,9.173v354.005
			c0,5.432,5.416,10.494,10.852,10.494h373.672c5.435,0,8.815-5.062,8.815-10.494V147.501
			C452.669,142.072,449.289,138.328,443.854,138.328z"/>
	</g>
</g>
<g>
	<g>
		<path d="M352.409,91.381L263.939,2.88c-3.841-3.84-10.05-3.84-13.891,0l-88.492,88.501c-3.841,3.841-4.093,10.064-0.252,13.905
			c3.841,3.842,9.814,3.842,13.656,0l71.206-71.715v311.26h19.667V33.571l72.224,71.715c1.921,1.922,4.691,2.881,7.207,2.881
			c2.516,0,5.159-0.959,7.08-2.881C356.186,101.445,356.251,95.222,352.409,91.381z"/>
	</g>
</g>
<g>
</g>
<g>
</g>
<g>
</g>
<g>
</g>
<g>
</g>
<g>
</g>
<g>
</g>
<g>
</g>
<g>
</g>
<g>
</g>
<g>
</g>
<g>
</g>
<g>
</g>
<g>
</g>
<g>
</g>
</svg>
