<?xml version="1.0" encoding="iso-8859-1"?>
<!-- Generator: Adobe Illustrator 19.0.0, SVG Export Plug-In . SVG Version: 6.00 Build 0)  -->
<svg version="1.1" id="Layer_1" xmlns="http://www.w3.org/2000/svg" xmlns:xlink="http://www.w3.org/1999/xlink" x="0px" y="0px"
	 viewBox="0 0 512 512" style="enable-background:new 0 0 512 512;" xml:space="preserve">
<g>
	<g>
		<path d="M324.217,113.571V9.143c0-5.054-4.089-9.143-9.143-9.143c-5.054,0-9.143,4.089-9.143,9.143v95.243
			c-18.286-8.341-41.312-12.957-64-12.957c-26.263,0-50.286,6.219-73.143,17.208V9.143c0-5.054-4.089-9.143-9.143-9.143
			s-9.143,4.089-9.143,9.143v109.714c0,0.123,0.504,0.239,0.509,0.362C106.922,148.775,78.069,199.051,78.069,256
			c0,56.951,28.734,107.225,72.824,136.784c-0.005,0.12-0.391,0.237-0.391,0.359v109.714c0,5.053,4.089,9.143,9.143,9.143
			s9.143-4.089,9.143-9.143v-99.493c22.857,10.991,46.88,17.208,73.143,17.208c22.688,0,45.714-4.614,64-12.955v95.241
			c0,5.053,4.089,9.143,9.143,9.143c5.053,0,9.143-4.089,9.143-9.143V398.431c50.286-28.502,82.286-81.654,82.286-142.431
			C406.502,195.223,374.502,142.074,324.217,113.571z M242.877,402.286c-80.661,0-146.286-65.625-146.286-146.286
			s65.625-146.286,146.286-146.286c80.661,0,146.286,65.625,146.286,146.286S323.538,402.286,242.877,402.286z"/>
	</g>
</g>
<g>
	<g>
		<path d="M313.259,323.125l-62.185-70.563V192c0-5.053-4.089-9.143-9.143-9.143s-9.143,4.089-9.143,9.143v64
			c0,2.214,1.277,4.357,2.732,6.018l64.237,73.143c1.813,2.072,4.458,3.125,7.002,3.125c2.143,0,4.346-0.741,6.078-2.259
			C316.641,332.696,316.58,326.92,313.259,323.125z"/>
	</g>
</g>
<g>
	<g>
		<path d="M133.163,247.475h-18.286c-5.054,0-9.143,4.089-9.143,9.143s4.089,9.143,9.143,9.143h18.286
			c5.053,0,9.143-4.089,9.143-9.143S138.217,247.475,133.163,247.475z"/>
	</g>
</g>
<g>
	<g>
		<path d="M241.931,356.571c-5.053,0-9.143,4.089-9.143,9.143V384c0,5.054,4.089,9.143,9.143,9.143s9.143-4.089,9.143-9.143v-18.286
			C251.074,360.661,246.984,356.571,241.931,356.571z"/>
	</g>
</g>
<g>
	<g>
		<path d="M241.931,118.857c-5.053,0-9.143,4.089-9.143,9.143v18.286c0,5.054,4.089,9.143,9.143,9.143s9.143-4.089,9.143-9.143V128
			C251.074,122.947,246.984,118.857,241.931,118.857z"/>
	</g>
</g>
<g>
	<g>
		<path d="M370.877,247.475h-18.286c-5.054,0-9.143,4.089-9.143,9.143s4.089,9.143,9.143,9.143h18.286
			c5.054,0,9.143-4.089,9.143-9.143S375.931,247.475,370.877,247.475z"/>
	</g>
</g>
<g>
	<g>
		<path d="M424.788,237.714c-5.054,0-9.143,4.089-9.143,9.143v27.429c0,5.054,4.089,9.143,9.143,9.143
			c5.053,0,9.143-4.089,9.143-9.143v-27.429C433.931,241.804,429.841,237.714,424.788,237.714z"/>
	</g>
</g>
<g>
</g>
<g>
</g>
<g>
</g>
<g>
</g>
<g>
</g>
<g>
</g>
<g>
</g>
<g>
</g>
<g>
</g>
<g>
</g>
<g>
</g>
<g>
</g>
<g>
</g>
<g>
</g>
<g>
</g>
</svg>
