<?xml version="1.0" encoding="iso-8859-1"?>
<!-- Generator: Adobe Illustrator 19.0.0, SVG Export Plug-In . SVG Version: 6.00 Build 0)  -->
<svg version="1.1" id="Layer_1" xmlns="http://www.w3.org/2000/svg" xmlns:xlink="http://www.w3.org/1999/xlink" x="0px" y="0px"
	 viewBox="0 0 512 512" style="enable-background:new 0 0 512 512;" xml:space="preserve">
<g>
	<g>
		<path d="M502.857,77.714H9.143C4.094,77.714,0,81.808,0,86.857v338.286c0,5.049,4.094,9.143,9.143,9.143h493.714
			c5.049,0,9.143-4.094,9.143-9.143V86.857C512,81.808,507.906,77.714,502.857,77.714z M493.714,416H18.286V96h475.429V416z"/>
	</g>
</g>
<g>
	<g>
		<path d="M361.593,242.637l-164.565-82.286c-2.83-1.411-6.661-1.264-9.366,0.401c-2.692,1.666-4.805,4.607-4.805,7.777V333.1
			c0,3.17,2.116,6.112,4.808,7.777c1.469,0.906,3.375,1.366,5.045,1.366c1.397,0,2.917-0.32,4.208-0.964l164.63-82.286
			c3.098-1.549,5.083-4.714,5.083-8.179C366.631,247.352,364.691,244.185,361.593,242.637z M201.143,318.306V183.324l134.987,67.491
			L201.143,318.306z"/>
	</g>
</g>
<g>
</g>
<g>
</g>
<g>
</g>
<g>
</g>
<g>
</g>
<g>
</g>
<g>
</g>
<g>
</g>
<g>
</g>
<g>
</g>
<g>
</g>
<g>
</g>
<g>
</g>
<g>
</g>
<g>
</g>
</svg>
